G04 #@! TF.GenerationSoftware,KiCad,Pcbnew,(5.0.0)*
G04 #@! TF.CreationDate,2019-03-15T09:11:02+02:00*
G04 #@! TF.ProjectId,LED_badge,4C45445F62616467652E6B696361645F,rev?*
G04 #@! TF.SameCoordinates,Original*
G04 #@! TF.FileFunction,Soldermask,Bot*
G04 #@! TF.FilePolarity,Negative*
%FSLAX46Y46*%
G04 Gerber Fmt 4.6, Leading zero omitted, Abs format (unit mm)*
G04 Created by KiCad (PCBNEW (5.0.0)) date 03/15/19 09:11:02*
%MOMM*%
%LPD*%
G01*
G04 APERTURE LIST*
%ADD10C,2.200000*%
%ADD11C,0.100000*%
%ADD12R,2.200000X2.200000*%
%ADD13C,3.400000*%
%ADD14R,3.400000X3.400000*%
%ADD15C,1.900000*%
%ADD16R,1.900000X1.900000*%
%ADD17C,2.000000*%
%ADD18O,2.000000X2.000000*%
%ADD19R,2.100000X2.100000*%
%ADD20O,2.100000X2.100000*%
%ADD21C,5.400000*%
G04 APERTURE END LIST*
D10*
G04 #@! TO.C,D1*
X152599821Y-58528689D03*
X151106846Y-60583592D03*
D11*
G36*
X151350201Y-62120074D02*
X149570364Y-60826947D01*
X150863491Y-59047110D01*
X152643328Y-60340237D01*
X151350201Y-62120074D01*
X151350201Y-62120074D01*
G37*
G04 #@! TD*
D10*
G04 #@! TO.C,D1*
X162241040Y-71798689D03*
X159825356Y-72583592D03*
D11*
G36*
X159119113Y-73969673D02*
X158439275Y-71877349D01*
X160531599Y-71197511D01*
X161211437Y-73289835D01*
X159119113Y-73969673D01*
X159119113Y-73969673D01*
G37*
G04 #@! TD*
D10*
G04 #@! TO.C,D1*
X162241040Y-88201311D03*
X159825356Y-87416408D03*
D11*
G36*
X158439275Y-88122651D02*
X159119113Y-86030327D01*
X161211437Y-86710165D01*
X160531599Y-88802489D01*
X158439275Y-88122651D01*
X158439275Y-88122651D01*
G37*
G04 #@! TD*
D10*
G04 #@! TO.C,D1*
X152599821Y-101471311D03*
X151106846Y-99416408D03*
D11*
G36*
X149570364Y-99173053D02*
X151350201Y-97879926D01*
X152643328Y-99659763D01*
X150863491Y-100952890D01*
X149570364Y-99173053D01*
X149570364Y-99173053D01*
G37*
G04 #@! TD*
D10*
G04 #@! TO.C,D1*
X137000000Y-106540000D03*
D12*
X137000000Y-104000000D03*
G04 #@! TD*
D10*
G04 #@! TO.C,D1*
X121400179Y-101471311D03*
X122893154Y-99416408D03*
D11*
G36*
X122649799Y-97879926D02*
X124429636Y-99173053D01*
X123136509Y-100952890D01*
X121356672Y-99659763D01*
X122649799Y-97879926D01*
X122649799Y-97879926D01*
G37*
G04 #@! TD*
D10*
G04 #@! TO.C,D1*
X111758960Y-88201311D03*
X114174644Y-87416408D03*
D11*
G36*
X114880887Y-86030327D02*
X115560725Y-88122651D01*
X113468401Y-88802489D01*
X112788563Y-86710165D01*
X114880887Y-86030327D01*
X114880887Y-86030327D01*
G37*
G04 #@! TD*
D10*
G04 #@! TO.C,D1*
X111758960Y-71798689D03*
X114174644Y-72583592D03*
D11*
G36*
X115560725Y-71877349D02*
X114880887Y-73969673D01*
X112788563Y-73289835D01*
X113468401Y-71197511D01*
X115560725Y-71877349D01*
X115560725Y-71877349D01*
G37*
G04 #@! TD*
D10*
G04 #@! TO.C,D1*
X121400179Y-58528689D03*
X122893154Y-60583592D03*
D11*
G36*
X124429636Y-60826947D02*
X122649799Y-62120074D01*
X121356672Y-60340237D01*
X123136509Y-59047110D01*
X124429636Y-60826947D01*
X124429636Y-60826947D01*
G37*
G04 #@! TD*
D13*
G04 #@! TO.C,BT1*
X142490000Y-89000000D03*
D14*
X122000000Y-89000000D03*
G04 #@! TD*
D15*
G04 #@! TO.C,Q1*
X130000000Y-65000000D03*
X130000000Y-62460000D03*
D16*
X130000000Y-67540000D03*
G04 #@! TD*
D17*
G04 #@! TO.C,R1*
X133380000Y-65000000D03*
D18*
X141000000Y-65000000D03*
G04 #@! TD*
D15*
G04 #@! TO.C,R2*
X145000000Y-66400000D03*
X145000000Y-63000000D03*
G04 #@! TD*
D18*
G04 #@! TO.C,R3*
X133380000Y-62000000D03*
D17*
X141000000Y-62000000D03*
G04 #@! TD*
G04 #@! TO.C,R4*
X133380000Y-68000000D03*
D18*
X141000000Y-68000000D03*
G04 #@! TD*
D12*
G04 #@! TO.C,D1*
X137000000Y-56000000D03*
D10*
X137000000Y-53460000D03*
G04 #@! TD*
D19*
G04 #@! TO.C,SW1*
X134460000Y-71000000D03*
D20*
X137000000Y-71000000D03*
X139540000Y-71000000D03*
G04 #@! TD*
D21*
G04 #@! TO.C,REF\002A\002A*
X163000000Y-80000000D03*
G04 #@! TD*
M02*
