G04 #@! TF.GenerationSoftware,KiCad,Pcbnew,(5.0.0)*
G04 #@! TF.CreationDate,2019-03-21T10:25:12+02:00*
G04 #@! TF.ProjectId,LED_badge,4C45445F62616467652E6B696361645F,rev?*
G04 #@! TF.SameCoordinates,Original*
G04 #@! TF.FileFunction,Legend,Top*
G04 #@! TF.FilePolarity,Positive*
%FSLAX46Y46*%
G04 Gerber Fmt 4.6, Leading zero omitted, Abs format (unit mm)*
G04 Created by KiCad (PCBNEW (5.0.0)) date 03/21/19 10:25:12*
%MOMM*%
%LPD*%
G01*
G04 APERTURE LIST*
%ADD10C,0.300000*%
%ADD11C,0.120000*%
%ADD12C,0.010000*%
%ADD13C,0.150000*%
%ADD14R,1.900000X1.450000*%
%ADD15O,1.900000X1.450000*%
%ADD16C,2.200000*%
%ADD17C,0.100000*%
%ADD18R,2.200000X2.200000*%
%ADD19C,3.400000*%
%ADD20R,3.400000X3.400000*%
%ADD21C,2.000000*%
%ADD22O,2.000000X2.000000*%
%ADD23C,1.900000*%
%ADD24R,2.100000X2.100000*%
%ADD25O,2.100000X2.100000*%
%ADD26C,5.400000*%
G04 APERTURE END LIST*
D10*
X124672857Y-71481428D02*
X127672857Y-71481428D01*
X127672857Y-72481428D02*
X127672857Y-74195714D01*
X124672857Y-73338571D02*
X127672857Y-73338571D01*
X126244285Y-76195714D02*
X126244285Y-75195714D01*
X124672857Y-75195714D02*
X127672857Y-75195714D01*
X127672857Y-76624285D01*
X121444285Y-65267142D02*
X121444285Y-64267142D01*
X119872857Y-64267142D02*
X122872857Y-64267142D01*
X122872857Y-65695714D01*
X119872857Y-68124285D02*
X121444285Y-68124285D01*
X121730000Y-67981428D01*
X121872857Y-67695714D01*
X121872857Y-67124285D01*
X121730000Y-66838571D01*
X120015714Y-68124285D02*
X119872857Y-67838571D01*
X119872857Y-67124285D01*
X120015714Y-66838571D01*
X120301428Y-66695714D01*
X120587142Y-66695714D01*
X120872857Y-66838571D01*
X121015714Y-67124285D01*
X121015714Y-67838571D01*
X121158571Y-68124285D01*
X119872857Y-69552857D02*
X122872857Y-69552857D01*
X121015714Y-69838571D02*
X119872857Y-70695714D01*
X121872857Y-70695714D02*
X120730000Y-69552857D01*
X121872857Y-73267142D02*
X119872857Y-73267142D01*
X121872857Y-71981428D02*
X120301428Y-71981428D01*
X120015714Y-72124285D01*
X119872857Y-72410000D01*
X119872857Y-72838571D01*
X120015714Y-73124285D01*
X120158571Y-73267142D01*
X119872857Y-75124285D02*
X120015714Y-74838571D01*
X120301428Y-74695714D01*
X122872857Y-74695714D01*
X121872857Y-75838571D02*
X121872857Y-76981428D01*
X122872857Y-76267142D02*
X120301428Y-76267142D01*
X120015714Y-76410000D01*
X119872857Y-76695714D01*
X119872857Y-76981428D01*
X119872857Y-79267142D02*
X121444285Y-79267142D01*
X121730000Y-79124285D01*
X121872857Y-78838571D01*
X121872857Y-78267142D01*
X121730000Y-77981428D01*
X120015714Y-79267142D02*
X119872857Y-78981428D01*
X119872857Y-78267142D01*
X120015714Y-77981428D01*
X120301428Y-77838571D01*
X120587142Y-77838571D01*
X120872857Y-77981428D01*
X121015714Y-78267142D01*
X121015714Y-78981428D01*
X121158571Y-79267142D01*
X122730000Y-77838571D02*
X122730000Y-79267142D01*
X121872857Y-80267142D02*
X121872857Y-81410000D01*
X122872857Y-80695714D02*
X120301428Y-80695714D01*
X120015714Y-80838571D01*
X119872857Y-81124285D01*
X119872857Y-81410000D01*
X120015714Y-83552857D02*
X119872857Y-83267142D01*
X119872857Y-82695714D01*
X120015714Y-82410000D01*
X120301428Y-82267142D01*
X121444285Y-82267142D01*
X121730000Y-82410000D01*
X121872857Y-82695714D01*
X121872857Y-83267142D01*
X121730000Y-83552857D01*
X121444285Y-83695714D01*
X121158571Y-83695714D01*
X120872857Y-82267142D01*
D11*
G04 #@! TO.C,Q1*
X130838478Y-63161522D02*
G75*
G03X126400000Y-65000000I-1838478J-1838478D01*
G01*
X130838478Y-66838478D02*
G75*
G02X126400000Y-65000000I-1838478J1838478D01*
G01*
X130850000Y-66800000D02*
X130850000Y-63200000D01*
D12*
G04 #@! TO.C,G\002A\002A\002A*
G36*
X157200085Y-93824685D02*
X157163945Y-93836882D01*
X157105829Y-93855546D01*
X157032392Y-93878580D01*
X156950288Y-93903888D01*
X156905529Y-93917507D01*
X156818753Y-93943941D01*
X156712070Y-93976683D01*
X156594081Y-94013078D01*
X156473387Y-94050472D01*
X156358588Y-94086212D01*
X156340613Y-94091827D01*
X156245455Y-94121135D01*
X156159477Y-94146787D01*
X156086876Y-94167598D01*
X156031854Y-94182382D01*
X155998608Y-94189953D01*
X155990897Y-94190554D01*
X155976486Y-94173123D01*
X155955510Y-94130346D01*
X155929111Y-94065744D01*
X155898432Y-93982842D01*
X155864615Y-93885163D01*
X155828805Y-93776231D01*
X155792143Y-93659569D01*
X155755773Y-93538701D01*
X155720838Y-93417150D01*
X155688481Y-93298439D01*
X155659844Y-93186093D01*
X155645525Y-93125824D01*
X155583653Y-92832029D01*
X155529763Y-92525094D01*
X155484336Y-92210320D01*
X155447854Y-91893009D01*
X155420798Y-91578465D01*
X155403651Y-91271990D01*
X155396894Y-90978886D01*
X155401010Y-90704456D01*
X155410020Y-90534680D01*
X155426686Y-90348554D01*
X155452339Y-90134493D01*
X155486885Y-89893032D01*
X155530229Y-89624706D01*
X155582277Y-89330049D01*
X155642936Y-89009596D01*
X155712111Y-88663881D01*
X155789709Y-88293440D01*
X155864605Y-87948706D01*
X155882802Y-87865304D01*
X155901523Y-87777976D01*
X155918124Y-87699125D01*
X155926716Y-87657353D01*
X155938364Y-87600369D01*
X155954423Y-87522541D01*
X155973154Y-87432269D01*
X155992815Y-87337949D01*
X156002577Y-87291294D01*
X156071625Y-86954315D01*
X156132580Y-86640427D01*
X156186379Y-86344234D01*
X156233955Y-86060341D01*
X156276243Y-85783351D01*
X156314177Y-85507869D01*
X156322142Y-85446059D01*
X156348719Y-85192099D01*
X156367362Y-84911974D01*
X156378093Y-84608326D01*
X156380934Y-84283794D01*
X156375908Y-83941018D01*
X156363035Y-83582638D01*
X156342339Y-83211294D01*
X156313842Y-82829625D01*
X156298876Y-82659529D01*
X156278960Y-82459085D01*
X156255095Y-82245698D01*
X156228108Y-82025359D01*
X156198823Y-81804060D01*
X156168069Y-81587791D01*
X156136670Y-81382545D01*
X156105453Y-81194312D01*
X156075243Y-81029084D01*
X156071221Y-81008529D01*
X156029906Y-80799353D01*
X156002982Y-80881529D01*
X155939993Y-81057087D01*
X155863010Y-81244716D01*
X155776974Y-81433468D01*
X155686825Y-81612394D01*
X155615331Y-81740647D01*
X155548338Y-81848865D01*
X155469132Y-81967319D01*
X155381896Y-82090464D01*
X155290812Y-82212756D01*
X155200061Y-82328647D01*
X155113825Y-82432595D01*
X155036286Y-82519053D01*
X155001635Y-82554431D01*
X154918353Y-82636097D01*
X154918353Y-88593394D01*
X154918348Y-89096072D01*
X154918333Y-89569729D01*
X154918303Y-90015226D01*
X154918254Y-90433425D01*
X154918183Y-90825187D01*
X154918086Y-91191374D01*
X154917959Y-91532847D01*
X154917798Y-91850467D01*
X154917600Y-92145095D01*
X154917361Y-92417594D01*
X154917076Y-92668824D01*
X154916743Y-92899647D01*
X154916357Y-93110925D01*
X154915915Y-93303517D01*
X154915413Y-93478287D01*
X154914847Y-93636096D01*
X154914213Y-93777804D01*
X154913508Y-93904273D01*
X154912727Y-94016364D01*
X154911868Y-94114940D01*
X154910926Y-94200861D01*
X154909897Y-94274988D01*
X154908778Y-94338184D01*
X154907565Y-94391308D01*
X154906254Y-94435224D01*
X154904841Y-94470792D01*
X154903323Y-94498873D01*
X154901696Y-94520330D01*
X154899955Y-94536023D01*
X154898098Y-94546813D01*
X154896121Y-94553563D01*
X154894019Y-94557132D01*
X154892206Y-94558290D01*
X154858361Y-94568241D01*
X154801661Y-94585037D01*
X154727879Y-94606958D01*
X154642786Y-94632284D01*
X154552155Y-94659294D01*
X154461760Y-94686269D01*
X154377373Y-94711487D01*
X154304766Y-94733228D01*
X154253470Y-94748640D01*
X154186994Y-94769036D01*
X154127974Y-94787807D01*
X154084410Y-94802374D01*
X154068168Y-94808368D01*
X154036860Y-94815120D01*
X154019698Y-94810498D01*
X154018834Y-94794842D01*
X154018003Y-94750291D01*
X154017206Y-94677833D01*
X154016444Y-94578455D01*
X154015719Y-94453146D01*
X154015033Y-94302892D01*
X154014387Y-94128682D01*
X154013781Y-93931503D01*
X154013219Y-93712343D01*
X154012700Y-93472189D01*
X154012228Y-93212029D01*
X154011802Y-92932850D01*
X154011424Y-92635641D01*
X154011097Y-92321389D01*
X154010820Y-91991082D01*
X154010596Y-91645706D01*
X154010427Y-91286250D01*
X154010313Y-90913702D01*
X154010256Y-90529049D01*
X154010257Y-90133278D01*
X154010318Y-89727378D01*
X154010440Y-89312336D01*
X154010625Y-88889139D01*
X154010765Y-88635342D01*
X154014411Y-82472765D01*
X154126470Y-82434262D01*
X154373949Y-82333632D01*
X154609456Y-82206730D01*
X154830760Y-82055533D01*
X155035628Y-81882021D01*
X155221829Y-81688170D01*
X155387130Y-81475959D01*
X155529298Y-81247367D01*
X155583511Y-81143000D01*
X155691395Y-80889234D01*
X155770526Y-80627971D01*
X155820761Y-80360337D01*
X155841958Y-80087459D01*
X155833976Y-79810461D01*
X155796673Y-79530470D01*
X155790835Y-79499850D01*
X155724895Y-79238980D01*
X155632320Y-78988614D01*
X155514649Y-78750746D01*
X155373422Y-78527372D01*
X155210179Y-78320487D01*
X155026460Y-78132086D01*
X154823804Y-77964165D01*
X154603751Y-77818718D01*
X154417823Y-77720641D01*
X154338366Y-77684501D01*
X154253724Y-77648267D01*
X154175653Y-77616869D01*
X154130244Y-77600069D01*
X154007018Y-77557118D01*
X154006980Y-71367735D01*
X154007004Y-70939372D01*
X154007080Y-70518634D01*
X154007207Y-70106503D01*
X154007383Y-69703963D01*
X154007606Y-69311995D01*
X154007874Y-68931583D01*
X154008186Y-68563710D01*
X154008539Y-68209357D01*
X154008933Y-67869509D01*
X154009364Y-67545147D01*
X154009832Y-67237255D01*
X154010335Y-66946815D01*
X154010870Y-66674810D01*
X154011437Y-66422223D01*
X154012033Y-66190036D01*
X154012656Y-65979233D01*
X154013305Y-65790795D01*
X154013979Y-65625706D01*
X154014674Y-65484949D01*
X154015390Y-65369505D01*
X154016124Y-65280359D01*
X154016876Y-65218492D01*
X154017642Y-65184888D01*
X154018147Y-65178666D01*
X154037110Y-65182698D01*
X154080194Y-65194551D01*
X154148192Y-65214464D01*
X154241901Y-65242673D01*
X154362114Y-65279417D01*
X154509626Y-65324935D01*
X154586140Y-65348658D01*
X154678428Y-65377211D01*
X154760828Y-65402521D01*
X154829170Y-65423321D01*
X154879286Y-65438347D01*
X154907005Y-65446333D01*
X154911111Y-65447294D01*
X154911621Y-65462068D01*
X154912122Y-65505725D01*
X154912612Y-65577262D01*
X154913091Y-65675679D01*
X154913557Y-65799976D01*
X154914009Y-65949153D01*
X154914445Y-66122207D01*
X154914865Y-66318140D01*
X154915267Y-66535950D01*
X154915650Y-66774636D01*
X154916013Y-67033197D01*
X154916355Y-67310634D01*
X154916674Y-67605946D01*
X154916969Y-67918131D01*
X154917239Y-68246189D01*
X154917483Y-68589120D01*
X154917699Y-68945923D01*
X154917886Y-69315597D01*
X154918044Y-69697141D01*
X154918171Y-70089555D01*
X154918265Y-70491839D01*
X154918326Y-70902991D01*
X154918352Y-71322011D01*
X154918353Y-71417941D01*
X154918353Y-77388588D01*
X154981853Y-77451988D01*
X155186645Y-77672813D01*
X155378738Y-77912462D01*
X155554976Y-78165983D01*
X155712203Y-78428424D01*
X155847266Y-78694834D01*
X155957009Y-78960261D01*
X155974861Y-79010528D01*
X155996847Y-79071841D01*
X156015741Y-79120211D01*
X156029323Y-79150219D01*
X156035017Y-79157257D01*
X156042715Y-79137211D01*
X156053871Y-79090867D01*
X156067951Y-79021540D01*
X156084422Y-78932546D01*
X156102751Y-78827202D01*
X156122405Y-78708823D01*
X156142849Y-78580724D01*
X156163551Y-78446223D01*
X156183977Y-78308635D01*
X156203594Y-78171276D01*
X156221868Y-78037462D01*
X156238266Y-77910508D01*
X156246746Y-77841000D01*
X156280727Y-77540558D01*
X156308774Y-77258135D01*
X156331399Y-76985882D01*
X156349109Y-76715949D01*
X156362414Y-76440487D01*
X156371822Y-76151644D01*
X156377844Y-75841572D01*
X156378217Y-75813941D01*
X156380325Y-75625854D01*
X156381217Y-75462706D01*
X156380662Y-75319567D01*
X156378431Y-75191509D01*
X156374293Y-75073605D01*
X156368018Y-74960925D01*
X156359377Y-74848542D01*
X156348139Y-74731528D01*
X156334074Y-74604954D01*
X156316954Y-74463893D01*
X156314196Y-74441882D01*
X156285361Y-74227290D01*
X156250695Y-73994110D01*
X156211499Y-73749840D01*
X156169075Y-73501976D01*
X156124723Y-73258014D01*
X156079743Y-73025452D01*
X156035438Y-72811786D01*
X156016034Y-72723647D01*
X156007891Y-72686489D01*
X155994477Y-72624137D01*
X155976652Y-72540643D01*
X155955278Y-72440060D01*
X155931215Y-72326440D01*
X155905325Y-72203835D01*
X155881068Y-72088647D01*
X155812621Y-71762083D01*
X155750473Y-71462658D01*
X155694377Y-71188357D01*
X155644083Y-70937163D01*
X155599345Y-70707060D01*
X155559914Y-70496030D01*
X155525543Y-70302058D01*
X155495983Y-70123127D01*
X155470987Y-69957220D01*
X155450307Y-69802322D01*
X155433694Y-69656415D01*
X155420901Y-69517484D01*
X155411681Y-69383511D01*
X155405784Y-69252480D01*
X155402964Y-69122375D01*
X155402972Y-68991179D01*
X155405560Y-68856876D01*
X155410480Y-68717450D01*
X155417486Y-68570883D01*
X155426327Y-68415160D01*
X155427353Y-68398176D01*
X155470273Y-67905315D01*
X155538516Y-67418872D01*
X155631404Y-66942820D01*
X155748259Y-66481137D01*
X155764136Y-66425941D01*
X155786573Y-66349101D01*
X155803953Y-66290569D01*
X155818828Y-66242675D01*
X155833749Y-66197751D01*
X155851266Y-66148125D01*
X155873932Y-66086129D01*
X155904297Y-66004093D01*
X155905770Y-66000118D01*
X155936730Y-65917842D01*
X155960087Y-65860041D01*
X155978024Y-65822953D01*
X155992726Y-65802819D01*
X156006379Y-65795879D01*
X156021166Y-65798373D01*
X156022658Y-65798944D01*
X156043324Y-65806047D01*
X156088054Y-65820757D01*
X156152426Y-65841643D01*
X156232021Y-65867273D01*
X156322420Y-65896217D01*
X156367647Y-65910643D01*
X156571866Y-65975795D01*
X156748218Y-66032256D01*
X156896604Y-66079994D01*
X157016926Y-66118976D01*
X157109085Y-66149171D01*
X157172983Y-66170547D01*
X157208521Y-66183072D01*
X157216428Y-66186507D01*
X157210658Y-66200037D01*
X157190818Y-66231668D01*
X157160675Y-66275530D01*
X157147537Y-66293861D01*
X156964063Y-66571781D01*
X156801011Y-66870276D01*
X156659042Y-67187506D01*
X156538816Y-67521631D01*
X156440993Y-67870811D01*
X156366234Y-68233207D01*
X156315198Y-68606978D01*
X156314309Y-68615696D01*
X156305357Y-68731236D01*
X156298958Y-68873037D01*
X156295035Y-69037594D01*
X156293514Y-69221402D01*
X156294317Y-69420956D01*
X156297368Y-69632751D01*
X156302592Y-69853281D01*
X156309912Y-70079042D01*
X156319253Y-70306528D01*
X156330537Y-70532233D01*
X156343689Y-70752654D01*
X156358633Y-70964285D01*
X156367773Y-71077862D01*
X156385194Y-71265996D01*
X156407570Y-71478167D01*
X156434222Y-71709069D01*
X156464468Y-71953394D01*
X156497628Y-72205833D01*
X156533022Y-72461078D01*
X156569970Y-72713822D01*
X156607792Y-72958757D01*
X156613193Y-72992588D01*
X156625014Y-73069849D01*
X156639288Y-73168814D01*
X156655357Y-73284403D01*
X156672563Y-73411537D01*
X156690247Y-73545134D01*
X156707752Y-73680115D01*
X156724419Y-73811399D01*
X156739589Y-73933905D01*
X156752606Y-74042555D01*
X156762810Y-74132266D01*
X156769544Y-74197960D01*
X156769984Y-74202824D01*
X156782863Y-74350510D01*
X156793501Y-74481154D01*
X156802099Y-74599925D01*
X156808856Y-74711997D01*
X156813971Y-74822541D01*
X156817645Y-74936730D01*
X156820077Y-75059736D01*
X156821466Y-75196729D01*
X156822012Y-75352884D01*
X156821915Y-75533371D01*
X156821889Y-75547529D01*
X156819996Y-75844440D01*
X156815334Y-76118143D01*
X156807610Y-76375207D01*
X156796530Y-76622205D01*
X156781800Y-76865707D01*
X156763126Y-77112283D01*
X156740752Y-77362882D01*
X156707154Y-77686449D01*
X156667927Y-78012604D01*
X156623799Y-78336868D01*
X156575495Y-78654760D01*
X156523743Y-78961797D01*
X156469268Y-79253500D01*
X156412799Y-79525386D01*
X156355061Y-79772976D01*
X156340750Y-79829631D01*
X156298159Y-79995438D01*
X156340476Y-80165807D01*
X156406875Y-80451509D01*
X156470629Y-80762017D01*
X156530981Y-81092316D01*
X156587176Y-81437388D01*
X156638455Y-81792219D01*
X156684061Y-82151791D01*
X156723238Y-82511089D01*
X156755229Y-82865095D01*
X156763037Y-82965824D01*
X156781452Y-83232771D01*
X156795723Y-83486691D01*
X156806169Y-83736499D01*
X156813111Y-83991112D01*
X156816868Y-84259448D01*
X156817797Y-84489824D01*
X156817068Y-84705892D01*
X156814535Y-84907317D01*
X156809875Y-85097885D01*
X156802763Y-85281379D01*
X156792876Y-85461585D01*
X156779889Y-85642288D01*
X156763478Y-85827273D01*
X156743320Y-86020324D01*
X156719090Y-86225228D01*
X156690463Y-86445768D01*
X156657117Y-86685730D01*
X156618727Y-86948899D01*
X156592013Y-87126941D01*
X156553183Y-87385532D01*
X156518948Y-87618215D01*
X156488873Y-87828539D01*
X156462521Y-88020052D01*
X156439457Y-88196302D01*
X156419244Y-88360838D01*
X156401446Y-88517208D01*
X156385626Y-88668960D01*
X156371349Y-88819642D01*
X156358179Y-88972803D01*
X156345900Y-89129059D01*
X156332276Y-89327931D01*
X156320478Y-89537224D01*
X156310560Y-89753257D01*
X156302574Y-89972347D01*
X156296572Y-90190811D01*
X156292607Y-90404966D01*
X156290732Y-90611129D01*
X156290998Y-90805619D01*
X156293460Y-90984752D01*
X156298168Y-91144845D01*
X156305177Y-91282217D01*
X156313682Y-91385176D01*
X156352783Y-91671242D01*
X156410017Y-91963514D01*
X156483200Y-92253337D01*
X156570149Y-92532058D01*
X156668100Y-92789647D01*
X156732167Y-92931702D01*
X156809030Y-93085180D01*
X156894540Y-93242817D01*
X156984545Y-93397348D01*
X157074894Y-93541509D01*
X157161436Y-93668036D01*
X157198512Y-93717909D01*
X157263053Y-93801994D01*
X157200085Y-93824685D01*
X157200085Y-93824685D01*
G37*
X157200085Y-93824685D02*
X157163945Y-93836882D01*
X157105829Y-93855546D01*
X157032392Y-93878580D01*
X156950288Y-93903888D01*
X156905529Y-93917507D01*
X156818753Y-93943941D01*
X156712070Y-93976683D01*
X156594081Y-94013078D01*
X156473387Y-94050472D01*
X156358588Y-94086212D01*
X156340613Y-94091827D01*
X156245455Y-94121135D01*
X156159477Y-94146787D01*
X156086876Y-94167598D01*
X156031854Y-94182382D01*
X155998608Y-94189953D01*
X155990897Y-94190554D01*
X155976486Y-94173123D01*
X155955510Y-94130346D01*
X155929111Y-94065744D01*
X155898432Y-93982842D01*
X155864615Y-93885163D01*
X155828805Y-93776231D01*
X155792143Y-93659569D01*
X155755773Y-93538701D01*
X155720838Y-93417150D01*
X155688481Y-93298439D01*
X155659844Y-93186093D01*
X155645525Y-93125824D01*
X155583653Y-92832029D01*
X155529763Y-92525094D01*
X155484336Y-92210320D01*
X155447854Y-91893009D01*
X155420798Y-91578465D01*
X155403651Y-91271990D01*
X155396894Y-90978886D01*
X155401010Y-90704456D01*
X155410020Y-90534680D01*
X155426686Y-90348554D01*
X155452339Y-90134493D01*
X155486885Y-89893032D01*
X155530229Y-89624706D01*
X155582277Y-89330049D01*
X155642936Y-89009596D01*
X155712111Y-88663881D01*
X155789709Y-88293440D01*
X155864605Y-87948706D01*
X155882802Y-87865304D01*
X155901523Y-87777976D01*
X155918124Y-87699125D01*
X155926716Y-87657353D01*
X155938364Y-87600369D01*
X155954423Y-87522541D01*
X155973154Y-87432269D01*
X155992815Y-87337949D01*
X156002577Y-87291294D01*
X156071625Y-86954315D01*
X156132580Y-86640427D01*
X156186379Y-86344234D01*
X156233955Y-86060341D01*
X156276243Y-85783351D01*
X156314177Y-85507869D01*
X156322142Y-85446059D01*
X156348719Y-85192099D01*
X156367362Y-84911974D01*
X156378093Y-84608326D01*
X156380934Y-84283794D01*
X156375908Y-83941018D01*
X156363035Y-83582638D01*
X156342339Y-83211294D01*
X156313842Y-82829625D01*
X156298876Y-82659529D01*
X156278960Y-82459085D01*
X156255095Y-82245698D01*
X156228108Y-82025359D01*
X156198823Y-81804060D01*
X156168069Y-81587791D01*
X156136670Y-81382545D01*
X156105453Y-81194312D01*
X156075243Y-81029084D01*
X156071221Y-81008529D01*
X156029906Y-80799353D01*
X156002982Y-80881529D01*
X155939993Y-81057087D01*
X155863010Y-81244716D01*
X155776974Y-81433468D01*
X155686825Y-81612394D01*
X155615331Y-81740647D01*
X155548338Y-81848865D01*
X155469132Y-81967319D01*
X155381896Y-82090464D01*
X155290812Y-82212756D01*
X155200061Y-82328647D01*
X155113825Y-82432595D01*
X155036286Y-82519053D01*
X155001635Y-82554431D01*
X154918353Y-82636097D01*
X154918353Y-88593394D01*
X154918348Y-89096072D01*
X154918333Y-89569729D01*
X154918303Y-90015226D01*
X154918254Y-90433425D01*
X154918183Y-90825187D01*
X154918086Y-91191374D01*
X154917959Y-91532847D01*
X154917798Y-91850467D01*
X154917600Y-92145095D01*
X154917361Y-92417594D01*
X154917076Y-92668824D01*
X154916743Y-92899647D01*
X154916357Y-93110925D01*
X154915915Y-93303517D01*
X154915413Y-93478287D01*
X154914847Y-93636096D01*
X154914213Y-93777804D01*
X154913508Y-93904273D01*
X154912727Y-94016364D01*
X154911868Y-94114940D01*
X154910926Y-94200861D01*
X154909897Y-94274988D01*
X154908778Y-94338184D01*
X154907565Y-94391308D01*
X154906254Y-94435224D01*
X154904841Y-94470792D01*
X154903323Y-94498873D01*
X154901696Y-94520330D01*
X154899955Y-94536023D01*
X154898098Y-94546813D01*
X154896121Y-94553563D01*
X154894019Y-94557132D01*
X154892206Y-94558290D01*
X154858361Y-94568241D01*
X154801661Y-94585037D01*
X154727879Y-94606958D01*
X154642786Y-94632284D01*
X154552155Y-94659294D01*
X154461760Y-94686269D01*
X154377373Y-94711487D01*
X154304766Y-94733228D01*
X154253470Y-94748640D01*
X154186994Y-94769036D01*
X154127974Y-94787807D01*
X154084410Y-94802374D01*
X154068168Y-94808368D01*
X154036860Y-94815120D01*
X154019698Y-94810498D01*
X154018834Y-94794842D01*
X154018003Y-94750291D01*
X154017206Y-94677833D01*
X154016444Y-94578455D01*
X154015719Y-94453146D01*
X154015033Y-94302892D01*
X154014387Y-94128682D01*
X154013781Y-93931503D01*
X154013219Y-93712343D01*
X154012700Y-93472189D01*
X154012228Y-93212029D01*
X154011802Y-92932850D01*
X154011424Y-92635641D01*
X154011097Y-92321389D01*
X154010820Y-91991082D01*
X154010596Y-91645706D01*
X154010427Y-91286250D01*
X154010313Y-90913702D01*
X154010256Y-90529049D01*
X154010257Y-90133278D01*
X154010318Y-89727378D01*
X154010440Y-89312336D01*
X154010625Y-88889139D01*
X154010765Y-88635342D01*
X154014411Y-82472765D01*
X154126470Y-82434262D01*
X154373949Y-82333632D01*
X154609456Y-82206730D01*
X154830760Y-82055533D01*
X155035628Y-81882021D01*
X155221829Y-81688170D01*
X155387130Y-81475959D01*
X155529298Y-81247367D01*
X155583511Y-81143000D01*
X155691395Y-80889234D01*
X155770526Y-80627971D01*
X155820761Y-80360337D01*
X155841958Y-80087459D01*
X155833976Y-79810461D01*
X155796673Y-79530470D01*
X155790835Y-79499850D01*
X155724895Y-79238980D01*
X155632320Y-78988614D01*
X155514649Y-78750746D01*
X155373422Y-78527372D01*
X155210179Y-78320487D01*
X155026460Y-78132086D01*
X154823804Y-77964165D01*
X154603751Y-77818718D01*
X154417823Y-77720641D01*
X154338366Y-77684501D01*
X154253724Y-77648267D01*
X154175653Y-77616869D01*
X154130244Y-77600069D01*
X154007018Y-77557118D01*
X154006980Y-71367735D01*
X154007004Y-70939372D01*
X154007080Y-70518634D01*
X154007207Y-70106503D01*
X154007383Y-69703963D01*
X154007606Y-69311995D01*
X154007874Y-68931583D01*
X154008186Y-68563710D01*
X154008539Y-68209357D01*
X154008933Y-67869509D01*
X154009364Y-67545147D01*
X154009832Y-67237255D01*
X154010335Y-66946815D01*
X154010870Y-66674810D01*
X154011437Y-66422223D01*
X154012033Y-66190036D01*
X154012656Y-65979233D01*
X154013305Y-65790795D01*
X154013979Y-65625706D01*
X154014674Y-65484949D01*
X154015390Y-65369505D01*
X154016124Y-65280359D01*
X154016876Y-65218492D01*
X154017642Y-65184888D01*
X154018147Y-65178666D01*
X154037110Y-65182698D01*
X154080194Y-65194551D01*
X154148192Y-65214464D01*
X154241901Y-65242673D01*
X154362114Y-65279417D01*
X154509626Y-65324935D01*
X154586140Y-65348658D01*
X154678428Y-65377211D01*
X154760828Y-65402521D01*
X154829170Y-65423321D01*
X154879286Y-65438347D01*
X154907005Y-65446333D01*
X154911111Y-65447294D01*
X154911621Y-65462068D01*
X154912122Y-65505725D01*
X154912612Y-65577262D01*
X154913091Y-65675679D01*
X154913557Y-65799976D01*
X154914009Y-65949153D01*
X154914445Y-66122207D01*
X154914865Y-66318140D01*
X154915267Y-66535950D01*
X154915650Y-66774636D01*
X154916013Y-67033197D01*
X154916355Y-67310634D01*
X154916674Y-67605946D01*
X154916969Y-67918131D01*
X154917239Y-68246189D01*
X154917483Y-68589120D01*
X154917699Y-68945923D01*
X154917886Y-69315597D01*
X154918044Y-69697141D01*
X154918171Y-70089555D01*
X154918265Y-70491839D01*
X154918326Y-70902991D01*
X154918352Y-71322011D01*
X154918353Y-71417941D01*
X154918353Y-77388588D01*
X154981853Y-77451988D01*
X155186645Y-77672813D01*
X155378738Y-77912462D01*
X155554976Y-78165983D01*
X155712203Y-78428424D01*
X155847266Y-78694834D01*
X155957009Y-78960261D01*
X155974861Y-79010528D01*
X155996847Y-79071841D01*
X156015741Y-79120211D01*
X156029323Y-79150219D01*
X156035017Y-79157257D01*
X156042715Y-79137211D01*
X156053871Y-79090867D01*
X156067951Y-79021540D01*
X156084422Y-78932546D01*
X156102751Y-78827202D01*
X156122405Y-78708823D01*
X156142849Y-78580724D01*
X156163551Y-78446223D01*
X156183977Y-78308635D01*
X156203594Y-78171276D01*
X156221868Y-78037462D01*
X156238266Y-77910508D01*
X156246746Y-77841000D01*
X156280727Y-77540558D01*
X156308774Y-77258135D01*
X156331399Y-76985882D01*
X156349109Y-76715949D01*
X156362414Y-76440487D01*
X156371822Y-76151644D01*
X156377844Y-75841572D01*
X156378217Y-75813941D01*
X156380325Y-75625854D01*
X156381217Y-75462706D01*
X156380662Y-75319567D01*
X156378431Y-75191509D01*
X156374293Y-75073605D01*
X156368018Y-74960925D01*
X156359377Y-74848542D01*
X156348139Y-74731528D01*
X156334074Y-74604954D01*
X156316954Y-74463893D01*
X156314196Y-74441882D01*
X156285361Y-74227290D01*
X156250695Y-73994110D01*
X156211499Y-73749840D01*
X156169075Y-73501976D01*
X156124723Y-73258014D01*
X156079743Y-73025452D01*
X156035438Y-72811786D01*
X156016034Y-72723647D01*
X156007891Y-72686489D01*
X155994477Y-72624137D01*
X155976652Y-72540643D01*
X155955278Y-72440060D01*
X155931215Y-72326440D01*
X155905325Y-72203835D01*
X155881068Y-72088647D01*
X155812621Y-71762083D01*
X155750473Y-71462658D01*
X155694377Y-71188357D01*
X155644083Y-70937163D01*
X155599345Y-70707060D01*
X155559914Y-70496030D01*
X155525543Y-70302058D01*
X155495983Y-70123127D01*
X155470987Y-69957220D01*
X155450307Y-69802322D01*
X155433694Y-69656415D01*
X155420901Y-69517484D01*
X155411681Y-69383511D01*
X155405784Y-69252480D01*
X155402964Y-69122375D01*
X155402972Y-68991179D01*
X155405560Y-68856876D01*
X155410480Y-68717450D01*
X155417486Y-68570883D01*
X155426327Y-68415160D01*
X155427353Y-68398176D01*
X155470273Y-67905315D01*
X155538516Y-67418872D01*
X155631404Y-66942820D01*
X155748259Y-66481137D01*
X155764136Y-66425941D01*
X155786573Y-66349101D01*
X155803953Y-66290569D01*
X155818828Y-66242675D01*
X155833749Y-66197751D01*
X155851266Y-66148125D01*
X155873932Y-66086129D01*
X155904297Y-66004093D01*
X155905770Y-66000118D01*
X155936730Y-65917842D01*
X155960087Y-65860041D01*
X155978024Y-65822953D01*
X155992726Y-65802819D01*
X156006379Y-65795879D01*
X156021166Y-65798373D01*
X156022658Y-65798944D01*
X156043324Y-65806047D01*
X156088054Y-65820757D01*
X156152426Y-65841643D01*
X156232021Y-65867273D01*
X156322420Y-65896217D01*
X156367647Y-65910643D01*
X156571866Y-65975795D01*
X156748218Y-66032256D01*
X156896604Y-66079994D01*
X157016926Y-66118976D01*
X157109085Y-66149171D01*
X157172983Y-66170547D01*
X157208521Y-66183072D01*
X157216428Y-66186507D01*
X157210658Y-66200037D01*
X157190818Y-66231668D01*
X157160675Y-66275530D01*
X157147537Y-66293861D01*
X156964063Y-66571781D01*
X156801011Y-66870276D01*
X156659042Y-67187506D01*
X156538816Y-67521631D01*
X156440993Y-67870811D01*
X156366234Y-68233207D01*
X156315198Y-68606978D01*
X156314309Y-68615696D01*
X156305357Y-68731236D01*
X156298958Y-68873037D01*
X156295035Y-69037594D01*
X156293514Y-69221402D01*
X156294317Y-69420956D01*
X156297368Y-69632751D01*
X156302592Y-69853281D01*
X156309912Y-70079042D01*
X156319253Y-70306528D01*
X156330537Y-70532233D01*
X156343689Y-70752654D01*
X156358633Y-70964285D01*
X156367773Y-71077862D01*
X156385194Y-71265996D01*
X156407570Y-71478167D01*
X156434222Y-71709069D01*
X156464468Y-71953394D01*
X156497628Y-72205833D01*
X156533022Y-72461078D01*
X156569970Y-72713822D01*
X156607792Y-72958757D01*
X156613193Y-72992588D01*
X156625014Y-73069849D01*
X156639288Y-73168814D01*
X156655357Y-73284403D01*
X156672563Y-73411537D01*
X156690247Y-73545134D01*
X156707752Y-73680115D01*
X156724419Y-73811399D01*
X156739589Y-73933905D01*
X156752606Y-74042555D01*
X156762810Y-74132266D01*
X156769544Y-74197960D01*
X156769984Y-74202824D01*
X156782863Y-74350510D01*
X156793501Y-74481154D01*
X156802099Y-74599925D01*
X156808856Y-74711997D01*
X156813971Y-74822541D01*
X156817645Y-74936730D01*
X156820077Y-75059736D01*
X156821466Y-75196729D01*
X156822012Y-75352884D01*
X156821915Y-75533371D01*
X156821889Y-75547529D01*
X156819996Y-75844440D01*
X156815334Y-76118143D01*
X156807610Y-76375207D01*
X156796530Y-76622205D01*
X156781800Y-76865707D01*
X156763126Y-77112283D01*
X156740752Y-77362882D01*
X156707154Y-77686449D01*
X156667927Y-78012604D01*
X156623799Y-78336868D01*
X156575495Y-78654760D01*
X156523743Y-78961797D01*
X156469268Y-79253500D01*
X156412799Y-79525386D01*
X156355061Y-79772976D01*
X156340750Y-79829631D01*
X156298159Y-79995438D01*
X156340476Y-80165807D01*
X156406875Y-80451509D01*
X156470629Y-80762017D01*
X156530981Y-81092316D01*
X156587176Y-81437388D01*
X156638455Y-81792219D01*
X156684061Y-82151791D01*
X156723238Y-82511089D01*
X156755229Y-82865095D01*
X156763037Y-82965824D01*
X156781452Y-83232771D01*
X156795723Y-83486691D01*
X156806169Y-83736499D01*
X156813111Y-83991112D01*
X156816868Y-84259448D01*
X156817797Y-84489824D01*
X156817068Y-84705892D01*
X156814535Y-84907317D01*
X156809875Y-85097885D01*
X156802763Y-85281379D01*
X156792876Y-85461585D01*
X156779889Y-85642288D01*
X156763478Y-85827273D01*
X156743320Y-86020324D01*
X156719090Y-86225228D01*
X156690463Y-86445768D01*
X156657117Y-86685730D01*
X156618727Y-86948899D01*
X156592013Y-87126941D01*
X156553183Y-87385532D01*
X156518948Y-87618215D01*
X156488873Y-87828539D01*
X156462521Y-88020052D01*
X156439457Y-88196302D01*
X156419244Y-88360838D01*
X156401446Y-88517208D01*
X156385626Y-88668960D01*
X156371349Y-88819642D01*
X156358179Y-88972803D01*
X156345900Y-89129059D01*
X156332276Y-89327931D01*
X156320478Y-89537224D01*
X156310560Y-89753257D01*
X156302574Y-89972347D01*
X156296572Y-90190811D01*
X156292607Y-90404966D01*
X156290732Y-90611129D01*
X156290998Y-90805619D01*
X156293460Y-90984752D01*
X156298168Y-91144845D01*
X156305177Y-91282217D01*
X156313682Y-91385176D01*
X156352783Y-91671242D01*
X156410017Y-91963514D01*
X156483200Y-92253337D01*
X156570149Y-92532058D01*
X156668100Y-92789647D01*
X156732167Y-92931702D01*
X156809030Y-93085180D01*
X156894540Y-93242817D01*
X156984545Y-93397348D01*
X157074894Y-93541509D01*
X157161436Y-93668036D01*
X157198512Y-93717909D01*
X157263053Y-93801994D01*
X157200085Y-93824685D01*
G36*
X153391412Y-94531458D02*
X153242464Y-94650562D01*
X153073339Y-94749221D01*
X152883169Y-94827847D01*
X152671085Y-94886854D01*
X152623369Y-94896854D01*
X152559307Y-94908335D01*
X152492954Y-94917354D01*
X152418758Y-94924339D01*
X152331170Y-94929716D01*
X152224638Y-94933911D01*
X152097868Y-94937257D01*
X151735207Y-94945342D01*
X151743353Y-94380882D01*
X151881558Y-94376586D01*
X152019764Y-94372290D01*
X152019764Y-94104471D01*
X151735882Y-94104471D01*
X151735882Y-93547495D01*
X152098206Y-93555662D01*
X152309353Y-93564045D01*
X152373716Y-93569479D01*
X152373716Y-94110118D01*
X152345090Y-94114480D01*
X152344151Y-94114979D01*
X152339191Y-94132099D01*
X152336386Y-94171532D01*
X152336170Y-94225758D01*
X152336680Y-94243919D01*
X152341000Y-94365941D01*
X152423149Y-94370586D01*
X152517440Y-94369715D01*
X152629473Y-94358912D01*
X152749447Y-94339824D01*
X152867555Y-94314097D01*
X152973996Y-94283380D01*
X153002840Y-94273194D01*
X153040512Y-94256851D01*
X153052947Y-94243086D01*
X153039013Y-94229049D01*
X152997576Y-94211888D01*
X152975478Y-94204318D01*
X152915813Y-94187322D01*
X152840605Y-94170246D01*
X152755404Y-94153877D01*
X152665757Y-94139001D01*
X152577216Y-94126401D01*
X152495329Y-94116863D01*
X152425646Y-94111174D01*
X152373716Y-94110118D01*
X152373716Y-93569479D01*
X152495275Y-93579742D01*
X152659964Y-93603792D01*
X152807411Y-93637233D01*
X152941608Y-93681106D01*
X153066547Y-93736449D01*
X153186218Y-93804301D01*
X153270526Y-93860890D01*
X153328592Y-93902789D01*
X153371102Y-93937363D01*
X153400545Y-93970375D01*
X153419409Y-94007593D01*
X153430181Y-94054782D01*
X153435351Y-94117708D01*
X153437404Y-94202137D01*
X153437978Y-94248960D01*
X153440765Y-94485539D01*
X153391412Y-94531458D01*
X153391412Y-94531458D01*
G37*
X153391412Y-94531458D02*
X153242464Y-94650562D01*
X153073339Y-94749221D01*
X152883169Y-94827847D01*
X152671085Y-94886854D01*
X152623369Y-94896854D01*
X152559307Y-94908335D01*
X152492954Y-94917354D01*
X152418758Y-94924339D01*
X152331170Y-94929716D01*
X152224638Y-94933911D01*
X152097868Y-94937257D01*
X151735207Y-94945342D01*
X151743353Y-94380882D01*
X151881558Y-94376586D01*
X152019764Y-94372290D01*
X152019764Y-94104471D01*
X151735882Y-94104471D01*
X151735882Y-93547495D01*
X152098206Y-93555662D01*
X152309353Y-93564045D01*
X152373716Y-93569479D01*
X152373716Y-94110118D01*
X152345090Y-94114480D01*
X152344151Y-94114979D01*
X152339191Y-94132099D01*
X152336386Y-94171532D01*
X152336170Y-94225758D01*
X152336680Y-94243919D01*
X152341000Y-94365941D01*
X152423149Y-94370586D01*
X152517440Y-94369715D01*
X152629473Y-94358912D01*
X152749447Y-94339824D01*
X152867555Y-94314097D01*
X152973996Y-94283380D01*
X153002840Y-94273194D01*
X153040512Y-94256851D01*
X153052947Y-94243086D01*
X153039013Y-94229049D01*
X152997576Y-94211888D01*
X152975478Y-94204318D01*
X152915813Y-94187322D01*
X152840605Y-94170246D01*
X152755404Y-94153877D01*
X152665757Y-94139001D01*
X152577216Y-94126401D01*
X152495329Y-94116863D01*
X152425646Y-94111174D01*
X152373716Y-94110118D01*
X152373716Y-93569479D01*
X152495275Y-93579742D01*
X152659964Y-93603792D01*
X152807411Y-93637233D01*
X152941608Y-93681106D01*
X153066547Y-93736449D01*
X153186218Y-93804301D01*
X153270526Y-93860890D01*
X153328592Y-93902789D01*
X153371102Y-93937363D01*
X153400545Y-93970375D01*
X153419409Y-94007593D01*
X153430181Y-94054782D01*
X153435351Y-94117708D01*
X153437404Y-94202137D01*
X153437978Y-94248960D01*
X153440765Y-94485539D01*
X153391412Y-94531458D01*
G36*
X152064588Y-92849412D02*
X152064588Y-93432118D01*
X151735882Y-93432118D01*
X151735882Y-92297092D01*
X152553911Y-92293105D01*
X152708423Y-92292453D01*
X152854619Y-92292030D01*
X152989645Y-92291832D01*
X153110650Y-92291853D01*
X153214778Y-92292089D01*
X153299177Y-92292535D01*
X153360993Y-92293185D01*
X153397373Y-92294035D01*
X153405558Y-92294595D01*
X153417393Y-92297271D01*
X153426062Y-92303611D01*
X153432059Y-92317719D01*
X153435876Y-92343701D01*
X153438005Y-92385659D01*
X153438938Y-92447699D01*
X153439170Y-92533926D01*
X153439176Y-92574742D01*
X153439176Y-92849412D01*
X152064588Y-92849412D01*
X152064588Y-92849412D01*
G37*
X152064588Y-92849412D02*
X152064588Y-93432118D01*
X151735882Y-93432118D01*
X151735882Y-92297092D01*
X152553911Y-92293105D01*
X152708423Y-92292453D01*
X152854619Y-92292030D01*
X152989645Y-92291832D01*
X153110650Y-92291853D01*
X153214778Y-92292089D01*
X153299177Y-92292535D01*
X153360993Y-92293185D01*
X153397373Y-92294035D01*
X153405558Y-92294595D01*
X153417393Y-92297271D01*
X153426062Y-92303611D01*
X153432059Y-92317719D01*
X153435876Y-92343701D01*
X153438005Y-92385659D01*
X153438938Y-92447699D01*
X153439170Y-92533926D01*
X153439176Y-92574742D01*
X153439176Y-92849412D01*
X152064588Y-92849412D01*
G36*
X153316249Y-90290980D02*
X153158484Y-90266745D01*
X153011230Y-90214695D01*
X152875631Y-90135238D01*
X152870720Y-90131680D01*
X152767213Y-90056160D01*
X152699600Y-90101791D01*
X152589019Y-90162232D01*
X152453279Y-90212152D01*
X152295464Y-90250783D01*
X152118661Y-90277358D01*
X151940985Y-90290535D01*
X151735206Y-90298932D01*
X151739279Y-90016554D01*
X151743353Y-89734176D01*
X151972429Y-89723776D01*
X152103122Y-89716278D01*
X152208712Y-89706439D01*
X152293936Y-89693513D01*
X152363531Y-89676754D01*
X152422234Y-89655417D01*
X152430647Y-89651659D01*
X152483421Y-89626656D01*
X152512293Y-89607535D01*
X152520512Y-89587702D01*
X152511329Y-89560561D01*
X152492209Y-89526720D01*
X152452114Y-89458303D01*
X152097734Y-89454299D01*
X151743353Y-89450294D01*
X151739280Y-89177618D01*
X151735208Y-88904941D01*
X153439850Y-88904941D01*
X153435778Y-89177618D01*
X153431706Y-89450294D01*
X153103899Y-89457765D01*
X152776092Y-89465235D01*
X152848053Y-89528547D01*
X152948762Y-89599861D01*
X153071956Y-89658159D01*
X153212354Y-89701465D01*
X153364674Y-89727805D01*
X153386882Y-89730048D01*
X153431706Y-89734176D01*
X153435778Y-90016451D01*
X153439851Y-90298725D01*
X153316249Y-90290980D01*
X153316249Y-90290980D01*
G37*
X153316249Y-90290980D02*
X153158484Y-90266745D01*
X153011230Y-90214695D01*
X152875631Y-90135238D01*
X152870720Y-90131680D01*
X152767213Y-90056160D01*
X152699600Y-90101791D01*
X152589019Y-90162232D01*
X152453279Y-90212152D01*
X152295464Y-90250783D01*
X152118661Y-90277358D01*
X151940985Y-90290535D01*
X151735206Y-90298932D01*
X151739279Y-90016554D01*
X151743353Y-89734176D01*
X151972429Y-89723776D01*
X152103122Y-89716278D01*
X152208712Y-89706439D01*
X152293936Y-89693513D01*
X152363531Y-89676754D01*
X152422234Y-89655417D01*
X152430647Y-89651659D01*
X152483421Y-89626656D01*
X152512293Y-89607535D01*
X152520512Y-89587702D01*
X152511329Y-89560561D01*
X152492209Y-89526720D01*
X152452114Y-89458303D01*
X152097734Y-89454299D01*
X151743353Y-89450294D01*
X151739280Y-89177618D01*
X151735208Y-88904941D01*
X153439850Y-88904941D01*
X153435778Y-89177618D01*
X153431706Y-89450294D01*
X153103899Y-89457765D01*
X152776092Y-89465235D01*
X152848053Y-89528547D01*
X152948762Y-89599861D01*
X153071956Y-89658159D01*
X153212354Y-89701465D01*
X153364674Y-89727805D01*
X153386882Y-89730048D01*
X153431706Y-89734176D01*
X153435778Y-90016451D01*
X153439851Y-90298725D01*
X153316249Y-90290980D01*
G36*
X153126422Y-87007412D02*
X153122182Y-86846794D01*
X153117941Y-86686176D01*
X152426911Y-86682292D01*
X151735882Y-86678407D01*
X151735882Y-86125882D01*
X152407013Y-86125882D01*
X152546440Y-86125686D01*
X152677108Y-86125123D01*
X152795891Y-86124235D01*
X152899662Y-86123062D01*
X152985296Y-86121645D01*
X153049666Y-86120026D01*
X153089646Y-86118244D01*
X153101778Y-86116813D01*
X153112695Y-86107647D01*
X153119747Y-86086712D01*
X153123688Y-86048772D01*
X153125269Y-85988593D01*
X153125411Y-85952460D01*
X153125411Y-85797176D01*
X153439176Y-85797176D01*
X153439176Y-87007412D01*
X153126422Y-87007412D01*
X153126422Y-87007412D01*
G37*
X153126422Y-87007412D02*
X153122182Y-86846794D01*
X153117941Y-86686176D01*
X152426911Y-86682292D01*
X151735882Y-86678407D01*
X151735882Y-86125882D01*
X152407013Y-86125882D01*
X152546440Y-86125686D01*
X152677108Y-86125123D01*
X152795891Y-86124235D01*
X152899662Y-86123062D01*
X152985296Y-86121645D01*
X153049666Y-86120026D01*
X153089646Y-86118244D01*
X153101778Y-86116813D01*
X153112695Y-86107647D01*
X153119747Y-86086712D01*
X153123688Y-86048772D01*
X153125269Y-85988593D01*
X153125411Y-85952460D01*
X153125411Y-85797176D01*
X153439176Y-85797176D01*
X153439176Y-87007412D01*
X153126422Y-87007412D01*
G36*
X153343931Y-80152392D02*
X153209340Y-80252405D01*
X153072643Y-80331063D01*
X152975473Y-80374745D01*
X152873294Y-80413181D01*
X152771721Y-80444256D01*
X152665719Y-80468784D01*
X152550250Y-80487579D01*
X152420277Y-80501456D01*
X152270763Y-80511230D01*
X152096672Y-80517715D01*
X152090397Y-80517884D01*
X151735207Y-80527335D01*
X151743353Y-79962647D01*
X151881558Y-79958351D01*
X152019764Y-79954055D01*
X152019764Y-79686235D01*
X151735882Y-79686235D01*
X151735882Y-79129526D01*
X152105676Y-79138247D01*
X152268353Y-79143310D01*
X152404113Y-79150590D01*
X152404113Y-79688683D01*
X152360911Y-79690526D01*
X152346788Y-79694746D01*
X152340295Y-79712991D01*
X152336001Y-79753681D01*
X152334565Y-79809417D01*
X152334822Y-79829515D01*
X152337592Y-79955176D01*
X152421472Y-79954903D01*
X152512142Y-79950490D01*
X152617189Y-79938810D01*
X152728107Y-79921412D01*
X152836390Y-79899845D01*
X152933533Y-79875655D01*
X153011031Y-79850393D01*
X153023562Y-79845290D01*
X153073117Y-79824151D01*
X153016646Y-79799632D01*
X152965364Y-79781565D01*
X152895878Y-79762979D01*
X152813679Y-79744733D01*
X152724256Y-79727686D01*
X152633099Y-79712698D01*
X152545696Y-79700628D01*
X152467538Y-79692337D01*
X152404113Y-79688683D01*
X152404113Y-79150590D01*
X152406335Y-79150710D01*
X152524772Y-79161267D01*
X152628811Y-79175800D01*
X152723603Y-79195129D01*
X152814296Y-79220075D01*
X152906039Y-79251456D01*
X152968529Y-79275636D01*
X153093826Y-79333517D01*
X153214601Y-79403406D01*
X153320448Y-79479015D01*
X153358010Y-79511019D01*
X153436645Y-79582332D01*
X153438427Y-79827764D01*
X153440210Y-80073196D01*
X153343931Y-80152392D01*
X153343931Y-80152392D01*
G37*
X153343931Y-80152392D02*
X153209340Y-80252405D01*
X153072643Y-80331063D01*
X152975473Y-80374745D01*
X152873294Y-80413181D01*
X152771721Y-80444256D01*
X152665719Y-80468784D01*
X152550250Y-80487579D01*
X152420277Y-80501456D01*
X152270763Y-80511230D01*
X152096672Y-80517715D01*
X152090397Y-80517884D01*
X151735207Y-80527335D01*
X151743353Y-79962647D01*
X151881558Y-79958351D01*
X152019764Y-79954055D01*
X152019764Y-79686235D01*
X151735882Y-79686235D01*
X151735882Y-79129526D01*
X152105676Y-79138247D01*
X152268353Y-79143310D01*
X152404113Y-79150590D01*
X152404113Y-79688683D01*
X152360911Y-79690526D01*
X152346788Y-79694746D01*
X152340295Y-79712991D01*
X152336001Y-79753681D01*
X152334565Y-79809417D01*
X152334822Y-79829515D01*
X152337592Y-79955176D01*
X152421472Y-79954903D01*
X152512142Y-79950490D01*
X152617189Y-79938810D01*
X152728107Y-79921412D01*
X152836390Y-79899845D01*
X152933533Y-79875655D01*
X153011031Y-79850393D01*
X153023562Y-79845290D01*
X153073117Y-79824151D01*
X153016646Y-79799632D01*
X152965364Y-79781565D01*
X152895878Y-79762979D01*
X152813679Y-79744733D01*
X152724256Y-79727686D01*
X152633099Y-79712698D01*
X152545696Y-79700628D01*
X152467538Y-79692337D01*
X152404113Y-79688683D01*
X152404113Y-79150590D01*
X152406335Y-79150710D01*
X152524772Y-79161267D01*
X152628811Y-79175800D01*
X152723603Y-79195129D01*
X152814296Y-79220075D01*
X152906039Y-79251456D01*
X152968529Y-79275636D01*
X153093826Y-79333517D01*
X153214601Y-79403406D01*
X153320448Y-79479015D01*
X153358010Y-79511019D01*
X153436645Y-79582332D01*
X153438427Y-79827764D01*
X153440210Y-80073196D01*
X153343931Y-80152392D01*
G36*
X152064588Y-75951243D02*
X152064588Y-76534658D01*
X151903970Y-76530417D01*
X151743353Y-76526176D01*
X151739437Y-75961747D01*
X151738590Y-75810591D01*
X151738389Y-75686943D01*
X151738896Y-75588438D01*
X151740172Y-75512706D01*
X151742280Y-75457381D01*
X151745281Y-75420095D01*
X151749238Y-75398481D01*
X151754212Y-75390171D01*
X151754378Y-75390102D01*
X151772462Y-75388824D01*
X151817660Y-75387755D01*
X151887205Y-75386907D01*
X151978332Y-75386291D01*
X152088272Y-75385916D01*
X152214258Y-75385795D01*
X152353525Y-75385937D01*
X152503304Y-75386354D01*
X152602470Y-75386766D01*
X153431706Y-75390647D01*
X153431706Y-75943471D01*
X152064588Y-75951243D01*
X152064588Y-75951243D01*
G37*
X152064588Y-75951243D02*
X152064588Y-76534658D01*
X151903970Y-76530417D01*
X151743353Y-76526176D01*
X151739437Y-75961747D01*
X151738590Y-75810591D01*
X151738389Y-75686943D01*
X151738896Y-75588438D01*
X151740172Y-75512706D01*
X151742280Y-75457381D01*
X151745281Y-75420095D01*
X151749238Y-75398481D01*
X151754212Y-75390171D01*
X151754378Y-75390102D01*
X151772462Y-75388824D01*
X151817660Y-75387755D01*
X151887205Y-75386907D01*
X151978332Y-75386291D01*
X152088272Y-75385916D01*
X152214258Y-75385795D01*
X152353525Y-75385937D01*
X152503304Y-75386354D01*
X152602470Y-75386766D01*
X153431706Y-75390647D01*
X153431706Y-75943471D01*
X152064588Y-75951243D01*
G36*
X151735882Y-75024588D02*
X151735882Y-74471765D01*
X153439176Y-74471765D01*
X153439176Y-75024588D01*
X151735882Y-75024588D01*
X151735882Y-75024588D01*
G37*
X151735882Y-75024588D02*
X151735882Y-74471765D01*
X153439176Y-74471765D01*
X153439176Y-75024588D01*
X151735882Y-75024588D01*
G36*
X153431965Y-73609525D02*
X153422968Y-73760560D01*
X153409378Y-73883901D01*
X153391247Y-73978758D01*
X153383848Y-74005050D01*
X153345050Y-74090638D01*
X153289764Y-74160396D01*
X153229904Y-74211869D01*
X153162631Y-74247202D01*
X153082327Y-74268052D01*
X152983371Y-74276077D01*
X152901211Y-74275000D01*
X152830255Y-74271208D01*
X152780768Y-74265365D01*
X152744341Y-74255589D01*
X152712562Y-74239999D01*
X152694909Y-74228856D01*
X152631297Y-74170609D01*
X152578395Y-74089695D01*
X152540166Y-73992559D01*
X152533242Y-73965968D01*
X152525313Y-73919791D01*
X152517346Y-73851970D01*
X152510147Y-73770729D01*
X152504521Y-73684293D01*
X152503380Y-73661206D01*
X152493287Y-73440824D01*
X151735882Y-73440824D01*
X151735882Y-73164412D01*
X151736265Y-73077230D01*
X151737330Y-73001324D01*
X151738951Y-72941349D01*
X151741003Y-72901958D01*
X151743353Y-72887808D01*
X151759260Y-72887770D01*
X151802351Y-72887726D01*
X151869926Y-72887680D01*
X151959288Y-72887632D01*
X152067736Y-72887583D01*
X152192573Y-72887535D01*
X152331099Y-72887488D01*
X152480616Y-72887445D01*
X152591264Y-72887417D01*
X153125411Y-72887291D01*
X153125411Y-73425882D01*
X152796706Y-73425882D01*
X152796706Y-73523742D01*
X152800336Y-73586950D01*
X152809977Y-73640261D01*
X152818519Y-73663784D01*
X152844573Y-73696812D01*
X152874548Y-73715132D01*
X152918280Y-73721941D01*
X152972619Y-73724195D01*
X153023955Y-73721874D01*
X153057507Y-73715425D01*
X153089791Y-73687672D01*
X153112474Y-73635184D01*
X153124137Y-73561965D01*
X153125411Y-73523742D01*
X153125411Y-73425882D01*
X153125411Y-72887291D01*
X153431706Y-72887218D01*
X153435967Y-73227521D01*
X153436316Y-73431582D01*
X153431965Y-73609525D01*
X153431965Y-73609525D01*
G37*
X153431965Y-73609525D02*
X153422968Y-73760560D01*
X153409378Y-73883901D01*
X153391247Y-73978758D01*
X153383848Y-74005050D01*
X153345050Y-74090638D01*
X153289764Y-74160396D01*
X153229904Y-74211869D01*
X153162631Y-74247202D01*
X153082327Y-74268052D01*
X152983371Y-74276077D01*
X152901211Y-74275000D01*
X152830255Y-74271208D01*
X152780768Y-74265365D01*
X152744341Y-74255589D01*
X152712562Y-74239999D01*
X152694909Y-74228856D01*
X152631297Y-74170609D01*
X152578395Y-74089695D01*
X152540166Y-73992559D01*
X152533242Y-73965968D01*
X152525313Y-73919791D01*
X152517346Y-73851970D01*
X152510147Y-73770729D01*
X152504521Y-73684293D01*
X152503380Y-73661206D01*
X152493287Y-73440824D01*
X151735882Y-73440824D01*
X151735882Y-73164412D01*
X151736265Y-73077230D01*
X151737330Y-73001324D01*
X151738951Y-72941349D01*
X151741003Y-72901958D01*
X151743353Y-72887808D01*
X151759260Y-72887770D01*
X151802351Y-72887726D01*
X151869926Y-72887680D01*
X151959288Y-72887632D01*
X152067736Y-72887583D01*
X152192573Y-72887535D01*
X152331099Y-72887488D01*
X152480616Y-72887445D01*
X152591264Y-72887417D01*
X153125411Y-72887291D01*
X153125411Y-73425882D01*
X152796706Y-73425882D01*
X152796706Y-73523742D01*
X152800336Y-73586950D01*
X152809977Y-73640261D01*
X152818519Y-73663784D01*
X152844573Y-73696812D01*
X152874548Y-73715132D01*
X152918280Y-73721941D01*
X152972619Y-73724195D01*
X153023955Y-73721874D01*
X153057507Y-73715425D01*
X153089791Y-73687672D01*
X153112474Y-73635184D01*
X153124137Y-73561965D01*
X153125411Y-73523742D01*
X153125411Y-73425882D01*
X153125411Y-72887291D01*
X153431706Y-72887218D01*
X153435967Y-73227521D01*
X153436316Y-73431582D01*
X153431965Y-73609525D01*
G36*
X153278558Y-70987258D02*
X153125411Y-70991516D01*
X153125411Y-70661765D01*
X151735882Y-70661765D01*
X151735882Y-70387843D01*
X151736401Y-70300242D01*
X151737844Y-70223141D01*
X151740038Y-70161440D01*
X151742811Y-70120040D01*
X151745843Y-70103961D01*
X151762375Y-70101924D01*
X151805776Y-70100027D01*
X151873036Y-70098313D01*
X151961141Y-70096826D01*
X152067079Y-70095608D01*
X152187838Y-70094703D01*
X152320406Y-70094154D01*
X152440608Y-70094000D01*
X153125411Y-70094000D01*
X153125411Y-69764249D01*
X153278558Y-69768507D01*
X153431706Y-69772765D01*
X153431706Y-70983000D01*
X153278558Y-70987258D01*
X153278558Y-70987258D01*
G37*
X153278558Y-70987258D02*
X153125411Y-70991516D01*
X153125411Y-70661765D01*
X151735882Y-70661765D01*
X151735882Y-70387843D01*
X151736401Y-70300242D01*
X151737844Y-70223141D01*
X151740038Y-70161440D01*
X151742811Y-70120040D01*
X151745843Y-70103961D01*
X151762375Y-70101924D01*
X151805776Y-70100027D01*
X151873036Y-70098313D01*
X151961141Y-70096826D01*
X152067079Y-70095608D01*
X152187838Y-70094703D01*
X152320406Y-70094154D01*
X152440608Y-70094000D01*
X153125411Y-70094000D01*
X153125411Y-69764249D01*
X153278558Y-69768507D01*
X153431706Y-69772765D01*
X153431706Y-70983000D01*
X153278558Y-70987258D01*
G36*
X153398088Y-68697382D02*
X153360778Y-68729353D01*
X153307028Y-68771259D01*
X153244366Y-68817671D01*
X153180323Y-68863160D01*
X153122427Y-68902296D01*
X153078208Y-68929649D01*
X153069382Y-68934417D01*
X153037467Y-68954339D01*
X153021311Y-68971486D01*
X153020823Y-68973795D01*
X153035158Y-68979643D01*
X153075776Y-68984183D01*
X153139095Y-68987167D01*
X153221535Y-68988344D01*
X153230000Y-68988353D01*
X153439176Y-68988353D01*
X153439176Y-69541176D01*
X151735882Y-69541176D01*
X151735882Y-68993059D01*
X151993617Y-68983272D01*
X152143429Y-68975181D01*
X152270051Y-68962170D01*
X152380007Y-68942490D01*
X152479819Y-68914397D01*
X152576011Y-68876143D01*
X152675107Y-68825982D01*
X152755617Y-68779281D01*
X152798992Y-68751496D01*
X152829874Y-68728704D01*
X152841529Y-68715921D01*
X152827136Y-68713328D01*
X152786150Y-68710940D01*
X152721858Y-68708827D01*
X152637550Y-68707055D01*
X152536514Y-68705693D01*
X152422038Y-68704809D01*
X152297411Y-68704472D01*
X152288706Y-68704471D01*
X151735882Y-68704471D01*
X151735882Y-68151647D01*
X153439176Y-68151647D01*
X153439176Y-68658438D01*
X153398088Y-68697382D01*
X153398088Y-68697382D01*
G37*
X153398088Y-68697382D02*
X153360778Y-68729353D01*
X153307028Y-68771259D01*
X153244366Y-68817671D01*
X153180323Y-68863160D01*
X153122427Y-68902296D01*
X153078208Y-68929649D01*
X153069382Y-68934417D01*
X153037467Y-68954339D01*
X153021311Y-68971486D01*
X153020823Y-68973795D01*
X153035158Y-68979643D01*
X153075776Y-68984183D01*
X153139095Y-68987167D01*
X153221535Y-68988344D01*
X153230000Y-68988353D01*
X153439176Y-68988353D01*
X153439176Y-69541176D01*
X151735882Y-69541176D01*
X151735882Y-68993059D01*
X151993617Y-68983272D01*
X152143429Y-68975181D01*
X152270051Y-68962170D01*
X152380007Y-68942490D01*
X152479819Y-68914397D01*
X152576011Y-68876143D01*
X152675107Y-68825982D01*
X152755617Y-68779281D01*
X152798992Y-68751496D01*
X152829874Y-68728704D01*
X152841529Y-68715921D01*
X152827136Y-68713328D01*
X152786150Y-68710940D01*
X152721858Y-68708827D01*
X152637550Y-68707055D01*
X152536514Y-68705693D01*
X152422038Y-68704809D01*
X152297411Y-68704472D01*
X152288706Y-68704471D01*
X151735882Y-68704471D01*
X151735882Y-68151647D01*
X153439176Y-68151647D01*
X153439176Y-68658438D01*
X153398088Y-68697382D01*
G36*
X153111116Y-67852824D02*
X153103000Y-67277588D01*
X152826588Y-67268996D01*
X152826588Y-67837882D01*
X152497882Y-67837882D01*
X152497882Y-67270118D01*
X152064588Y-67270118D01*
X152064588Y-67882706D01*
X151735882Y-67882706D01*
X151735882Y-66717294D01*
X153439176Y-66717294D01*
X153439176Y-67852824D01*
X153111116Y-67852824D01*
X153111116Y-67852824D01*
G37*
X153111116Y-67852824D02*
X153103000Y-67277588D01*
X152826588Y-67268996D01*
X152826588Y-67837882D01*
X152497882Y-67837882D01*
X152497882Y-67270118D01*
X152064588Y-67270118D01*
X152064588Y-67882706D01*
X151735882Y-67882706D01*
X151735882Y-66717294D01*
X153439176Y-66717294D01*
X153439176Y-67852824D01*
X153111116Y-67852824D01*
G36*
X153431706Y-65619118D02*
X153334588Y-65622403D01*
X153293233Y-65623549D01*
X153227186Y-65625068D01*
X153141632Y-65626857D01*
X153041758Y-65628811D01*
X152932749Y-65630823D01*
X152834058Y-65632548D01*
X152687517Y-65635695D01*
X152566688Y-65640031D01*
X152467410Y-65646096D01*
X152385521Y-65654433D01*
X152316858Y-65665583D01*
X152257259Y-65680086D01*
X152202562Y-65698486D01*
X152148604Y-65721323D01*
X152147393Y-65721880D01*
X152072058Y-65756563D01*
X152131823Y-65782163D01*
X152215325Y-65813047D01*
X152310301Y-65838473D01*
X152419628Y-65858768D01*
X152546183Y-65874260D01*
X152692841Y-65885275D01*
X152862481Y-65892139D01*
X153057978Y-65895178D01*
X153129147Y-65895398D01*
X153439176Y-65895529D01*
X153439176Y-66448353D01*
X153088644Y-66448353D01*
X152893138Y-66446265D01*
X152723421Y-66439647D01*
X152575667Y-66427970D01*
X152446053Y-66410705D01*
X152330753Y-66387322D01*
X152225944Y-66357292D01*
X152127799Y-66320085D01*
X152111765Y-66313125D01*
X152047423Y-66279759D01*
X151971518Y-66233022D01*
X151894372Y-66179890D01*
X151826307Y-66127343D01*
X151791911Y-66096890D01*
X151735882Y-66043059D01*
X151735882Y-65464117D01*
X151791911Y-65410286D01*
X151848580Y-65361843D01*
X151921018Y-65308295D01*
X151998904Y-65256618D01*
X152071917Y-65213791D01*
X152111765Y-65194052D01*
X152209106Y-65155613D01*
X152312457Y-65124433D01*
X152425641Y-65099982D01*
X152552483Y-65081731D01*
X152696808Y-65069150D01*
X152862438Y-65061711D01*
X153053198Y-65058884D01*
X153088974Y-65058824D01*
X153439836Y-65058824D01*
X153431706Y-65619118D01*
X153431706Y-65619118D01*
G37*
X153431706Y-65619118D02*
X153334588Y-65622403D01*
X153293233Y-65623549D01*
X153227186Y-65625068D01*
X153141632Y-65626857D01*
X153041758Y-65628811D01*
X152932749Y-65630823D01*
X152834058Y-65632548D01*
X152687517Y-65635695D01*
X152566688Y-65640031D01*
X152467410Y-65646096D01*
X152385521Y-65654433D01*
X152316858Y-65665583D01*
X152257259Y-65680086D01*
X152202562Y-65698486D01*
X152148604Y-65721323D01*
X152147393Y-65721880D01*
X152072058Y-65756563D01*
X152131823Y-65782163D01*
X152215325Y-65813047D01*
X152310301Y-65838473D01*
X152419628Y-65858768D01*
X152546183Y-65874260D01*
X152692841Y-65885275D01*
X152862481Y-65892139D01*
X153057978Y-65895178D01*
X153129147Y-65895398D01*
X153439176Y-65895529D01*
X153439176Y-66448353D01*
X153088644Y-66448353D01*
X152893138Y-66446265D01*
X152723421Y-66439647D01*
X152575667Y-66427970D01*
X152446053Y-66410705D01*
X152330753Y-66387322D01*
X152225944Y-66357292D01*
X152127799Y-66320085D01*
X152111765Y-66313125D01*
X152047423Y-66279759D01*
X151971518Y-66233022D01*
X151894372Y-66179890D01*
X151826307Y-66127343D01*
X151791911Y-66096890D01*
X151735882Y-66043059D01*
X151735882Y-65464117D01*
X151791911Y-65410286D01*
X151848580Y-65361843D01*
X151921018Y-65308295D01*
X151998904Y-65256618D01*
X152071917Y-65213791D01*
X152111765Y-65194052D01*
X152209106Y-65155613D01*
X152312457Y-65124433D01*
X152425641Y-65099982D01*
X152552483Y-65081731D01*
X152696808Y-65069150D01*
X152862438Y-65061711D01*
X153053198Y-65058884D01*
X153088974Y-65058824D01*
X153439836Y-65058824D01*
X153431706Y-65619118D01*
G36*
X153448600Y-91386345D02*
X153435727Y-91510049D01*
X153414658Y-91620345D01*
X153385920Y-91709717D01*
X153383373Y-91715585D01*
X153332793Y-91804583D01*
X153267903Y-91872459D01*
X153185277Y-91921437D01*
X153081491Y-91953743D01*
X152995725Y-91967480D01*
X152925316Y-91973305D01*
X152833455Y-91977617D01*
X152726881Y-91980412D01*
X152612330Y-91981689D01*
X152496540Y-91981444D01*
X152386249Y-91979674D01*
X152288193Y-91976376D01*
X152209110Y-91971548D01*
X152172893Y-91967828D01*
X152053647Y-91943995D01*
X151957025Y-91904871D01*
X151880278Y-91847784D01*
X151820658Y-91770064D01*
X151775417Y-91669043D01*
X151743595Y-91550681D01*
X151731452Y-91467438D01*
X151724574Y-91364998D01*
X151722959Y-91253579D01*
X151726607Y-91143398D01*
X151735517Y-91044673D01*
X151743640Y-90993914D01*
X151778359Y-90866824D01*
X151827842Y-90764842D01*
X151893844Y-90686177D01*
X151978118Y-90629035D01*
X152082418Y-90591625D01*
X152149977Y-90578662D01*
X152203749Y-90573488D01*
X152281306Y-90569492D01*
X152376574Y-90566677D01*
X152483477Y-90565045D01*
X152595941Y-90564598D01*
X152707893Y-90565338D01*
X152718151Y-90565525D01*
X152718151Y-91138589D01*
X152591042Y-91138647D01*
X152451071Y-91138872D01*
X152338175Y-91139619D01*
X152249547Y-91141001D01*
X152182383Y-91143129D01*
X152133877Y-91146114D01*
X152101225Y-91150068D01*
X152081619Y-91155102D01*
X152074363Y-91159153D01*
X152058817Y-91187646D01*
X152050352Y-91234176D01*
X152049097Y-91287717D01*
X152055181Y-91337243D01*
X152068733Y-91371729D01*
X152071829Y-91375342D01*
X152093982Y-91388024D01*
X152133700Y-91398077D01*
X152192982Y-91405623D01*
X152273829Y-91410784D01*
X152378241Y-91413681D01*
X152508216Y-91414436D01*
X152665756Y-91413171D01*
X152688280Y-91412865D01*
X152813842Y-91410943D01*
X152912715Y-91408447D01*
X152988086Y-91404361D01*
X153043146Y-91397669D01*
X153081083Y-91387357D01*
X153105086Y-91372408D01*
X153118345Y-91351807D01*
X153124048Y-91324538D01*
X153125385Y-91289587D01*
X153125411Y-91273658D01*
X153125650Y-91238161D01*
X153124450Y-91209487D01*
X153118937Y-91186910D01*
X153106237Y-91169704D01*
X153083476Y-91157143D01*
X153047779Y-91148500D01*
X152996272Y-91143049D01*
X152926082Y-91140064D01*
X152834333Y-91138820D01*
X152718151Y-91138589D01*
X152718151Y-90565525D01*
X152813257Y-90567267D01*
X152905959Y-90570388D01*
X152979925Y-90574703D01*
X153016673Y-90578353D01*
X153133744Y-90603574D01*
X153229733Y-90647146D01*
X153306397Y-90710886D01*
X153365489Y-90796615D01*
X153408764Y-90906153D01*
X153432783Y-91009945D01*
X153447655Y-91128777D01*
X153452752Y-91256749D01*
X153448600Y-91386345D01*
X153448600Y-91386345D01*
G37*
X153448600Y-91386345D02*
X153435727Y-91510049D01*
X153414658Y-91620345D01*
X153385920Y-91709717D01*
X153383373Y-91715585D01*
X153332793Y-91804583D01*
X153267903Y-91872459D01*
X153185277Y-91921437D01*
X153081491Y-91953743D01*
X152995725Y-91967480D01*
X152925316Y-91973305D01*
X152833455Y-91977617D01*
X152726881Y-91980412D01*
X152612330Y-91981689D01*
X152496540Y-91981444D01*
X152386249Y-91979674D01*
X152288193Y-91976376D01*
X152209110Y-91971548D01*
X152172893Y-91967828D01*
X152053647Y-91943995D01*
X151957025Y-91904871D01*
X151880278Y-91847784D01*
X151820658Y-91770064D01*
X151775417Y-91669043D01*
X151743595Y-91550681D01*
X151731452Y-91467438D01*
X151724574Y-91364998D01*
X151722959Y-91253579D01*
X151726607Y-91143398D01*
X151735517Y-91044673D01*
X151743640Y-90993914D01*
X151778359Y-90866824D01*
X151827842Y-90764842D01*
X151893844Y-90686177D01*
X151978118Y-90629035D01*
X152082418Y-90591625D01*
X152149977Y-90578662D01*
X152203749Y-90573488D01*
X152281306Y-90569492D01*
X152376574Y-90566677D01*
X152483477Y-90565045D01*
X152595941Y-90564598D01*
X152707893Y-90565338D01*
X152718151Y-90565525D01*
X152718151Y-91138589D01*
X152591042Y-91138647D01*
X152451071Y-91138872D01*
X152338175Y-91139619D01*
X152249547Y-91141001D01*
X152182383Y-91143129D01*
X152133877Y-91146114D01*
X152101225Y-91150068D01*
X152081619Y-91155102D01*
X152074363Y-91159153D01*
X152058817Y-91187646D01*
X152050352Y-91234176D01*
X152049097Y-91287717D01*
X152055181Y-91337243D01*
X152068733Y-91371729D01*
X152071829Y-91375342D01*
X152093982Y-91388024D01*
X152133700Y-91398077D01*
X152192982Y-91405623D01*
X152273829Y-91410784D01*
X152378241Y-91413681D01*
X152508216Y-91414436D01*
X152665756Y-91413171D01*
X152688280Y-91412865D01*
X152813842Y-91410943D01*
X152912715Y-91408447D01*
X152988086Y-91404361D01*
X153043146Y-91397669D01*
X153081083Y-91387357D01*
X153105086Y-91372408D01*
X153118345Y-91351807D01*
X153124048Y-91324538D01*
X153125385Y-91289587D01*
X153125411Y-91273658D01*
X153125650Y-91238161D01*
X153124450Y-91209487D01*
X153118937Y-91186910D01*
X153106237Y-91169704D01*
X153083476Y-91157143D01*
X153047779Y-91148500D01*
X152996272Y-91143049D01*
X152926082Y-91140064D01*
X152834333Y-91138820D01*
X152718151Y-91138589D01*
X152718151Y-90565525D01*
X152813257Y-90567267D01*
X152905959Y-90570388D01*
X152979925Y-90574703D01*
X153016673Y-90578353D01*
X153133744Y-90603574D01*
X153229733Y-90647146D01*
X153306397Y-90710886D01*
X153365489Y-90796615D01*
X153408764Y-90906153D01*
X153432783Y-91009945D01*
X153447655Y-91128777D01*
X153452752Y-91256749D01*
X153448600Y-91386345D01*
G36*
X153449617Y-87970370D02*
X153438532Y-88124674D01*
X153417714Y-88252444D01*
X153385575Y-88355896D01*
X153340523Y-88437249D01*
X153280971Y-88498719D01*
X153205328Y-88542524D01*
X153112005Y-88570880D01*
X153008804Y-88585261D01*
X152886353Y-88595473D01*
X152886353Y-88068235D01*
X152964794Y-88067760D01*
X153036514Y-88058829D01*
X153085722Y-88031551D01*
X153114579Y-87983677D01*
X153125246Y-87912960D01*
X153125411Y-87900718D01*
X153116512Y-87834815D01*
X153090794Y-87790690D01*
X153049727Y-87770489D01*
X153035401Y-87769412D01*
X153007804Y-87776136D01*
X152977370Y-87797800D01*
X152942451Y-87836643D01*
X152901401Y-87894904D01*
X152852572Y-87974821D01*
X152794317Y-88078634D01*
X152757411Y-88147198D01*
X152690781Y-88267387D01*
X152631368Y-88362914D01*
X152576400Y-88437282D01*
X152523107Y-88493994D01*
X152468718Y-88536552D01*
X152432696Y-88557646D01*
X152390180Y-88577662D01*
X152350494Y-88589716D01*
X152303498Y-88595731D01*
X152239051Y-88597630D01*
X152221470Y-88597686D01*
X152102459Y-88588942D01*
X152003382Y-88561215D01*
X151921653Y-88512464D01*
X151854685Y-88440650D01*
X151799893Y-88343734D01*
X151758615Y-88232588D01*
X151748924Y-88186245D01*
X151740340Y-88117718D01*
X151733257Y-88034698D01*
X151728069Y-87944876D01*
X151725171Y-87855942D01*
X151724958Y-87775587D01*
X151727823Y-87711500D01*
X151730648Y-87687235D01*
X151745421Y-87613469D01*
X151765886Y-87535216D01*
X151788766Y-87463774D01*
X151810784Y-87410442D01*
X151811108Y-87409804D01*
X151855372Y-87346658D01*
X151917931Y-87287085D01*
X151988452Y-87239640D01*
X152045761Y-87215560D01*
X152092626Y-87206681D01*
X152158326Y-87199664D01*
X152231827Y-87195544D01*
X152266294Y-87194900D01*
X152415706Y-87194176D01*
X152418762Y-87472169D01*
X152421818Y-87750161D01*
X152278052Y-87758738D01*
X152189681Y-87767175D01*
X152126516Y-87781607D01*
X152084146Y-87804052D01*
X152058159Y-87836526D01*
X152047965Y-87863968D01*
X152042858Y-87928034D01*
X152061344Y-87979849D01*
X152098611Y-88016442D01*
X152149846Y-88034840D01*
X152210239Y-88032073D01*
X152274976Y-88005170D01*
X152275807Y-88004659D01*
X152301330Y-87988265D01*
X152323883Y-87971270D01*
X152345667Y-87950579D01*
X152368886Y-87923094D01*
X152395743Y-87885721D01*
X152428440Y-87835364D01*
X152469181Y-87768926D01*
X152520168Y-87683312D01*
X152583605Y-87575426D01*
X152594701Y-87556497D01*
X152668819Y-87438680D01*
X152738488Y-87347471D01*
X152806620Y-87280518D01*
X152876127Y-87235466D01*
X152949920Y-87209963D01*
X153030912Y-87201655D01*
X153033777Y-87201647D01*
X153123411Y-87209663D01*
X153197294Y-87236446D01*
X153265710Y-87286101D01*
X153280715Y-87300176D01*
X153347746Y-87385190D01*
X153398092Y-87493981D01*
X153431831Y-87626851D01*
X153449037Y-87784103D01*
X153449787Y-87966040D01*
X153449617Y-87970370D01*
X153449617Y-87970370D01*
G37*
X153449617Y-87970370D02*
X153438532Y-88124674D01*
X153417714Y-88252444D01*
X153385575Y-88355896D01*
X153340523Y-88437249D01*
X153280971Y-88498719D01*
X153205328Y-88542524D01*
X153112005Y-88570880D01*
X153008804Y-88585261D01*
X152886353Y-88595473D01*
X152886353Y-88068235D01*
X152964794Y-88067760D01*
X153036514Y-88058829D01*
X153085722Y-88031551D01*
X153114579Y-87983677D01*
X153125246Y-87912960D01*
X153125411Y-87900718D01*
X153116512Y-87834815D01*
X153090794Y-87790690D01*
X153049727Y-87770489D01*
X153035401Y-87769412D01*
X153007804Y-87776136D01*
X152977370Y-87797800D01*
X152942451Y-87836643D01*
X152901401Y-87894904D01*
X152852572Y-87974821D01*
X152794317Y-88078634D01*
X152757411Y-88147198D01*
X152690781Y-88267387D01*
X152631368Y-88362914D01*
X152576400Y-88437282D01*
X152523107Y-88493994D01*
X152468718Y-88536552D01*
X152432696Y-88557646D01*
X152390180Y-88577662D01*
X152350494Y-88589716D01*
X152303498Y-88595731D01*
X152239051Y-88597630D01*
X152221470Y-88597686D01*
X152102459Y-88588942D01*
X152003382Y-88561215D01*
X151921653Y-88512464D01*
X151854685Y-88440650D01*
X151799893Y-88343734D01*
X151758615Y-88232588D01*
X151748924Y-88186245D01*
X151740340Y-88117718D01*
X151733257Y-88034698D01*
X151728069Y-87944876D01*
X151725171Y-87855942D01*
X151724958Y-87775587D01*
X151727823Y-87711500D01*
X151730648Y-87687235D01*
X151745421Y-87613469D01*
X151765886Y-87535216D01*
X151788766Y-87463774D01*
X151810784Y-87410442D01*
X151811108Y-87409804D01*
X151855372Y-87346658D01*
X151917931Y-87287085D01*
X151988452Y-87239640D01*
X152045761Y-87215560D01*
X152092626Y-87206681D01*
X152158326Y-87199664D01*
X152231827Y-87195544D01*
X152266294Y-87194900D01*
X152415706Y-87194176D01*
X152418762Y-87472169D01*
X152421818Y-87750161D01*
X152278052Y-87758738D01*
X152189681Y-87767175D01*
X152126516Y-87781607D01*
X152084146Y-87804052D01*
X152058159Y-87836526D01*
X152047965Y-87863968D01*
X152042858Y-87928034D01*
X152061344Y-87979849D01*
X152098611Y-88016442D01*
X152149846Y-88034840D01*
X152210239Y-88032073D01*
X152274976Y-88005170D01*
X152275807Y-88004659D01*
X152301330Y-87988265D01*
X152323883Y-87971270D01*
X152345667Y-87950579D01*
X152368886Y-87923094D01*
X152395743Y-87885721D01*
X152428440Y-87835364D01*
X152469181Y-87768926D01*
X152520168Y-87683312D01*
X152583605Y-87575426D01*
X152594701Y-87556497D01*
X152668819Y-87438680D01*
X152738488Y-87347471D01*
X152806620Y-87280518D01*
X152876127Y-87235466D01*
X152949920Y-87209963D01*
X153030912Y-87201655D01*
X153033777Y-87201647D01*
X153123411Y-87209663D01*
X153197294Y-87236446D01*
X153265710Y-87286101D01*
X153280715Y-87300176D01*
X153347746Y-87385190D01*
X153398092Y-87493981D01*
X153431831Y-87626851D01*
X153449037Y-87784103D01*
X153449787Y-87966040D01*
X153449617Y-87970370D01*
G36*
X153446826Y-85020097D02*
X153441347Y-85118745D01*
X153432191Y-85202678D01*
X153419358Y-85264503D01*
X153419266Y-85264805D01*
X153373607Y-85377869D01*
X153312706Y-85465548D01*
X153235134Y-85528897D01*
X153139463Y-85568966D01*
X153024265Y-85586809D01*
X152980758Y-85588000D01*
X152886353Y-85588000D01*
X152886353Y-85083443D01*
X152970534Y-85072925D01*
X153042952Y-85057027D01*
X153090495Y-85028342D01*
X153116768Y-84983127D01*
X153125377Y-84917641D01*
X153125411Y-84912180D01*
X153117803Y-84840677D01*
X153095675Y-84792133D01*
X153060071Y-84768382D01*
X153042388Y-84766235D01*
X153013259Y-84772683D01*
X152982014Y-84793592D01*
X152946883Y-84831307D01*
X152906097Y-84888176D01*
X152857885Y-84966544D01*
X152800479Y-85068759D01*
X152766310Y-85132294D01*
X152716781Y-85224411D01*
X152677201Y-85295021D01*
X152644168Y-85349353D01*
X152614283Y-85392635D01*
X152584146Y-85430095D01*
X152550355Y-85466961D01*
X152545126Y-85472386D01*
X152461798Y-85540387D01*
X152366568Y-85583047D01*
X152255889Y-85601773D01*
X152216101Y-85602941D01*
X152095086Y-85590537D01*
X151990772Y-85553475D01*
X151903317Y-85491981D01*
X151832877Y-85406283D01*
X151779609Y-85296607D01*
X151743670Y-85163178D01*
X151725216Y-85006224D01*
X151722688Y-84890130D01*
X151724645Y-84814268D01*
X151728497Y-84740863D01*
X151733603Y-84680401D01*
X151737090Y-84654176D01*
X151769038Y-84518634D01*
X151815132Y-84408504D01*
X151876326Y-84322387D01*
X151953573Y-84258883D01*
X152031495Y-84222015D01*
X152079104Y-84211038D01*
X152148489Y-84202715D01*
X152231596Y-84197938D01*
X152254586Y-84197384D01*
X152415706Y-84194617D01*
X152415706Y-84758765D01*
X152272984Y-84766235D01*
X152178182Y-84775361D01*
X152110294Y-84792637D01*
X152067001Y-84820033D01*
X152045980Y-84859520D01*
X152044910Y-84913067D01*
X152052940Y-84953000D01*
X152074719Y-85000079D01*
X152113066Y-85026432D01*
X152172652Y-85035147D01*
X152177293Y-85035176D01*
X152218249Y-85031498D01*
X152256806Y-85018821D01*
X152295175Y-84994687D01*
X152335564Y-84956635D01*
X152380186Y-84902205D01*
X152431249Y-84828936D01*
X152490965Y-84734368D01*
X152561544Y-84616042D01*
X152575833Y-84591583D01*
X152649166Y-84471837D01*
X152715536Y-84377713D01*
X152777769Y-84306598D01*
X152838690Y-84255881D01*
X152901123Y-84222949D01*
X152967894Y-84205189D01*
X152997511Y-84201660D01*
X153100675Y-84205498D01*
X153191182Y-84235466D01*
X153269500Y-84291964D01*
X153336092Y-84375393D01*
X153391422Y-84486152D01*
X153419127Y-84564979D01*
X153432008Y-84626270D01*
X153441220Y-84709822D01*
X153446761Y-84808241D01*
X153448631Y-84914131D01*
X153446826Y-85020097D01*
X153446826Y-85020097D01*
G37*
X153446826Y-85020097D02*
X153441347Y-85118745D01*
X153432191Y-85202678D01*
X153419358Y-85264503D01*
X153419266Y-85264805D01*
X153373607Y-85377869D01*
X153312706Y-85465548D01*
X153235134Y-85528897D01*
X153139463Y-85568966D01*
X153024265Y-85586809D01*
X152980758Y-85588000D01*
X152886353Y-85588000D01*
X152886353Y-85083443D01*
X152970534Y-85072925D01*
X153042952Y-85057027D01*
X153090495Y-85028342D01*
X153116768Y-84983127D01*
X153125377Y-84917641D01*
X153125411Y-84912180D01*
X153117803Y-84840677D01*
X153095675Y-84792133D01*
X153060071Y-84768382D01*
X153042388Y-84766235D01*
X153013259Y-84772683D01*
X152982014Y-84793592D01*
X152946883Y-84831307D01*
X152906097Y-84888176D01*
X152857885Y-84966544D01*
X152800479Y-85068759D01*
X152766310Y-85132294D01*
X152716781Y-85224411D01*
X152677201Y-85295021D01*
X152644168Y-85349353D01*
X152614283Y-85392635D01*
X152584146Y-85430095D01*
X152550355Y-85466961D01*
X152545126Y-85472386D01*
X152461798Y-85540387D01*
X152366568Y-85583047D01*
X152255889Y-85601773D01*
X152216101Y-85602941D01*
X152095086Y-85590537D01*
X151990772Y-85553475D01*
X151903317Y-85491981D01*
X151832877Y-85406283D01*
X151779609Y-85296607D01*
X151743670Y-85163178D01*
X151725216Y-85006224D01*
X151722688Y-84890130D01*
X151724645Y-84814268D01*
X151728497Y-84740863D01*
X151733603Y-84680401D01*
X151737090Y-84654176D01*
X151769038Y-84518634D01*
X151815132Y-84408504D01*
X151876326Y-84322387D01*
X151953573Y-84258883D01*
X152031495Y-84222015D01*
X152079104Y-84211038D01*
X152148489Y-84202715D01*
X152231596Y-84197938D01*
X152254586Y-84197384D01*
X152415706Y-84194617D01*
X152415706Y-84758765D01*
X152272984Y-84766235D01*
X152178182Y-84775361D01*
X152110294Y-84792637D01*
X152067001Y-84820033D01*
X152045980Y-84859520D01*
X152044910Y-84913067D01*
X152052940Y-84953000D01*
X152074719Y-85000079D01*
X152113066Y-85026432D01*
X152172652Y-85035147D01*
X152177293Y-85035176D01*
X152218249Y-85031498D01*
X152256806Y-85018821D01*
X152295175Y-84994687D01*
X152335564Y-84956635D01*
X152380186Y-84902205D01*
X152431249Y-84828936D01*
X152490965Y-84734368D01*
X152561544Y-84616042D01*
X152575833Y-84591583D01*
X152649166Y-84471837D01*
X152715536Y-84377713D01*
X152777769Y-84306598D01*
X152838690Y-84255881D01*
X152901123Y-84222949D01*
X152967894Y-84205189D01*
X152997511Y-84201660D01*
X153100675Y-84205498D01*
X153191182Y-84235466D01*
X153269500Y-84291964D01*
X153336092Y-84375393D01*
X153391422Y-84486152D01*
X153419127Y-84564979D01*
X153432008Y-84626270D01*
X153441220Y-84709822D01*
X153446761Y-84808241D01*
X153448631Y-84914131D01*
X153446826Y-85020097D01*
G36*
X153451212Y-83293506D02*
X153442277Y-83404278D01*
X153437766Y-83435247D01*
X153408097Y-83567878D01*
X153366809Y-83674824D01*
X153312520Y-83758476D01*
X153243849Y-83821225D01*
X153199128Y-83847854D01*
X153139768Y-83870930D01*
X153062589Y-83891373D01*
X152979657Y-83906589D01*
X152903037Y-83913984D01*
X152890088Y-83914292D01*
X152856470Y-83914588D01*
X152856470Y-83351115D01*
X152964039Y-83341117D01*
X153036264Y-83331395D01*
X153083586Y-83315520D01*
X153110916Y-83289361D01*
X153123166Y-83248791D01*
X153125411Y-83205422D01*
X153125353Y-83166723D01*
X153123052Y-83136229D01*
X153115320Y-83112917D01*
X153098968Y-83095763D01*
X153070809Y-83083743D01*
X153027654Y-83075832D01*
X152966314Y-83071006D01*
X152883601Y-83068241D01*
X152776328Y-83066513D01*
X152689604Y-83065432D01*
X152534557Y-83063779D01*
X152406758Y-83063539D01*
X152303581Y-83065349D01*
X152222404Y-83069846D01*
X152160601Y-83077667D01*
X152115548Y-83089449D01*
X152084621Y-83105830D01*
X152065195Y-83127446D01*
X152054645Y-83154935D01*
X152050347Y-83188934D01*
X152049647Y-83220806D01*
X152052293Y-83272611D01*
X152059078Y-83315448D01*
X152064764Y-83332211D01*
X152092303Y-83358186D01*
X152143970Y-83376495D01*
X152221390Y-83387492D01*
X152326187Y-83391529D01*
X152337264Y-83391564D01*
X152482941Y-83391647D01*
X152482941Y-83242235D01*
X152768619Y-83242235D01*
X152763986Y-83574676D01*
X152759353Y-83907118D01*
X151750823Y-83914986D01*
X151750823Y-83792485D01*
X151751945Y-83728680D01*
X151756390Y-83686794D01*
X151765772Y-83658912D01*
X151781709Y-83637118D01*
X151782786Y-83635962D01*
X151814748Y-83601940D01*
X151784114Y-83530411D01*
X151753194Y-83434139D01*
X151732413Y-83318425D01*
X151722334Y-83192133D01*
X151723519Y-83064126D01*
X151736529Y-82943268D01*
X151744307Y-82902797D01*
X151781485Y-82780555D01*
X151834991Y-82682712D01*
X151906571Y-82607586D01*
X151997966Y-82553496D01*
X152110920Y-82518761D01*
X152149626Y-82511808D01*
X152197200Y-82506814D01*
X152268347Y-82502420D01*
X152356760Y-82498865D01*
X152456132Y-82496389D01*
X152560157Y-82495232D01*
X152587529Y-82495176D01*
X152691730Y-82495947D01*
X152792939Y-82498099D01*
X152884849Y-82501393D01*
X152961154Y-82505589D01*
X153015546Y-82510448D01*
X153025432Y-82511808D01*
X153141338Y-82539122D01*
X153235485Y-82583117D01*
X153310036Y-82646076D01*
X153367157Y-82730283D01*
X153409012Y-82838023D01*
X153432783Y-82941710D01*
X153446335Y-83049344D01*
X153452522Y-83170902D01*
X153451212Y-83293506D01*
X153451212Y-83293506D01*
G37*
X153451212Y-83293506D02*
X153442277Y-83404278D01*
X153437766Y-83435247D01*
X153408097Y-83567878D01*
X153366809Y-83674824D01*
X153312520Y-83758476D01*
X153243849Y-83821225D01*
X153199128Y-83847854D01*
X153139768Y-83870930D01*
X153062589Y-83891373D01*
X152979657Y-83906589D01*
X152903037Y-83913984D01*
X152890088Y-83914292D01*
X152856470Y-83914588D01*
X152856470Y-83351115D01*
X152964039Y-83341117D01*
X153036264Y-83331395D01*
X153083586Y-83315520D01*
X153110916Y-83289361D01*
X153123166Y-83248791D01*
X153125411Y-83205422D01*
X153125353Y-83166723D01*
X153123052Y-83136229D01*
X153115320Y-83112917D01*
X153098968Y-83095763D01*
X153070809Y-83083743D01*
X153027654Y-83075832D01*
X152966314Y-83071006D01*
X152883601Y-83068241D01*
X152776328Y-83066513D01*
X152689604Y-83065432D01*
X152534557Y-83063779D01*
X152406758Y-83063539D01*
X152303581Y-83065349D01*
X152222404Y-83069846D01*
X152160601Y-83077667D01*
X152115548Y-83089449D01*
X152084621Y-83105830D01*
X152065195Y-83127446D01*
X152054645Y-83154935D01*
X152050347Y-83188934D01*
X152049647Y-83220806D01*
X152052293Y-83272611D01*
X152059078Y-83315448D01*
X152064764Y-83332211D01*
X152092303Y-83358186D01*
X152143970Y-83376495D01*
X152221390Y-83387492D01*
X152326187Y-83391529D01*
X152337264Y-83391564D01*
X152482941Y-83391647D01*
X152482941Y-83242235D01*
X152768619Y-83242235D01*
X152763986Y-83574676D01*
X152759353Y-83907118D01*
X151750823Y-83914986D01*
X151750823Y-83792485D01*
X151751945Y-83728680D01*
X151756390Y-83686794D01*
X151765772Y-83658912D01*
X151781709Y-83637118D01*
X151782786Y-83635962D01*
X151814748Y-83601940D01*
X151784114Y-83530411D01*
X151753194Y-83434139D01*
X151732413Y-83318425D01*
X151722334Y-83192133D01*
X151723519Y-83064126D01*
X151736529Y-82943268D01*
X151744307Y-82902797D01*
X151781485Y-82780555D01*
X151834991Y-82682712D01*
X151906571Y-82607586D01*
X151997966Y-82553496D01*
X152110920Y-82518761D01*
X152149626Y-82511808D01*
X152197200Y-82506814D01*
X152268347Y-82502420D01*
X152356760Y-82498865D01*
X152456132Y-82496389D01*
X152560157Y-82495232D01*
X152587529Y-82495176D01*
X152691730Y-82495947D01*
X152792939Y-82498099D01*
X152884849Y-82501393D01*
X152961154Y-82505589D01*
X153015546Y-82510448D01*
X153025432Y-82511808D01*
X153141338Y-82539122D01*
X153235485Y-82583117D01*
X153310036Y-82646076D01*
X153367157Y-82730283D01*
X153409012Y-82838023D01*
X153432783Y-82941710D01*
X153446335Y-83049344D01*
X153452522Y-83170902D01*
X153451212Y-83293506D01*
G36*
X152800771Y-82196176D02*
X152633145Y-82195991D01*
X152492434Y-82195342D01*
X152375672Y-82193939D01*
X152279892Y-82191489D01*
X152202128Y-82187702D01*
X152139412Y-82182286D01*
X152088779Y-82174948D01*
X152047261Y-82165398D01*
X152011892Y-82153345D01*
X151979705Y-82138496D01*
X151947734Y-82120561D01*
X151931601Y-82110775D01*
X151873290Y-82059808D01*
X151820916Y-81984895D01*
X151777581Y-81891838D01*
X151746386Y-81786438D01*
X151739533Y-81751393D01*
X151729282Y-81665780D01*
X151723942Y-81564036D01*
X151723419Y-81455988D01*
X151727621Y-81351461D01*
X151736455Y-81260281D01*
X151744614Y-81212930D01*
X151779867Y-81089664D01*
X151827594Y-80992032D01*
X151890714Y-80917356D01*
X151972148Y-80862956D01*
X152074814Y-80826152D01*
X152188263Y-80805801D01*
X152231697Y-80802508D01*
X152300717Y-80799698D01*
X152391033Y-80797439D01*
X152498353Y-80795798D01*
X152618384Y-80794842D01*
X152746833Y-80794636D01*
X152871411Y-80795188D01*
X153431706Y-80799353D01*
X153439836Y-81359647D01*
X152777948Y-81359647D01*
X152611543Y-81359583D01*
X152472558Y-81359692D01*
X152358533Y-81360424D01*
X152267005Y-81362231D01*
X152195514Y-81365564D01*
X152141599Y-81370874D01*
X152102799Y-81378611D01*
X152076653Y-81389228D01*
X152060700Y-81403175D01*
X152052479Y-81420903D01*
X152049529Y-81442864D01*
X152049388Y-81469507D01*
X152049647Y-81493135D01*
X152052974Y-81552190D01*
X152063876Y-81588011D01*
X152074340Y-81600612D01*
X152085780Y-81605740D01*
X152108374Y-81610144D01*
X152144483Y-81613919D01*
X152196467Y-81617161D01*
X152266686Y-81619965D01*
X152357500Y-81622428D01*
X152471269Y-81624644D01*
X152610355Y-81626709D01*
X152765369Y-81628588D01*
X153431706Y-81636059D01*
X153439836Y-82196353D01*
X152800771Y-82196176D01*
X152800771Y-82196176D01*
G37*
X152800771Y-82196176D02*
X152633145Y-82195991D01*
X152492434Y-82195342D01*
X152375672Y-82193939D01*
X152279892Y-82191489D01*
X152202128Y-82187702D01*
X152139412Y-82182286D01*
X152088779Y-82174948D01*
X152047261Y-82165398D01*
X152011892Y-82153345D01*
X151979705Y-82138496D01*
X151947734Y-82120561D01*
X151931601Y-82110775D01*
X151873290Y-82059808D01*
X151820916Y-81984895D01*
X151777581Y-81891838D01*
X151746386Y-81786438D01*
X151739533Y-81751393D01*
X151729282Y-81665780D01*
X151723942Y-81564036D01*
X151723419Y-81455988D01*
X151727621Y-81351461D01*
X151736455Y-81260281D01*
X151744614Y-81212930D01*
X151779867Y-81089664D01*
X151827594Y-80992032D01*
X151890714Y-80917356D01*
X151972148Y-80862956D01*
X152074814Y-80826152D01*
X152188263Y-80805801D01*
X152231697Y-80802508D01*
X152300717Y-80799698D01*
X152391033Y-80797439D01*
X152498353Y-80795798D01*
X152618384Y-80794842D01*
X152746833Y-80794636D01*
X152871411Y-80795188D01*
X153431706Y-80799353D01*
X153439836Y-81359647D01*
X152777948Y-81359647D01*
X152611543Y-81359583D01*
X152472558Y-81359692D01*
X152358533Y-81360424D01*
X152267005Y-81362231D01*
X152195514Y-81365564D01*
X152141599Y-81370874D01*
X152102799Y-81378611D01*
X152076653Y-81389228D01*
X152060700Y-81403175D01*
X152052479Y-81420903D01*
X152049529Y-81442864D01*
X152049388Y-81469507D01*
X152049647Y-81493135D01*
X152052974Y-81552190D01*
X152063876Y-81588011D01*
X152074340Y-81600612D01*
X152085780Y-81605740D01*
X152108374Y-81610144D01*
X152144483Y-81613919D01*
X152196467Y-81617161D01*
X152266686Y-81619965D01*
X152357500Y-81622428D01*
X152471269Y-81624644D01*
X152610355Y-81626709D01*
X152765369Y-81628588D01*
X153431706Y-81636059D01*
X153439836Y-82196353D01*
X152800771Y-82196176D01*
G36*
X153449457Y-77437588D02*
X153442169Y-77561201D01*
X153430316Y-77660919D01*
X153412629Y-77742549D01*
X153387839Y-77811897D01*
X153354678Y-77874768D01*
X153353558Y-77876587D01*
X153305218Y-77940746D01*
X153247785Y-77987600D01*
X153176064Y-78019630D01*
X153084861Y-78039314D01*
X152994676Y-78047820D01*
X152886353Y-78054157D01*
X152886353Y-77534706D01*
X152952885Y-77534706D01*
X153028215Y-77526796D01*
X153080274Y-77501378D01*
X153111584Y-77455924D01*
X153124664Y-77387901D01*
X153125411Y-77361500D01*
X153120086Y-77308852D01*
X153100919Y-77271129D01*
X153088738Y-77257615D01*
X153059084Y-77232745D01*
X153035742Y-77221067D01*
X153034130Y-77220941D01*
X153007230Y-77233754D01*
X152970511Y-77269555D01*
X152927079Y-77324389D01*
X152880039Y-77394304D01*
X152832496Y-77475343D01*
X152828262Y-77483113D01*
X152768430Y-77593313D01*
X152720453Y-77680634D01*
X152682171Y-77748589D01*
X152651423Y-77800688D01*
X152626047Y-77840445D01*
X152603882Y-77871372D01*
X152582766Y-77896979D01*
X152560538Y-77920779D01*
X152556179Y-77925216D01*
X152511944Y-77966318D01*
X152467747Y-78001521D01*
X152440013Y-78019314D01*
X152349160Y-78051817D01*
X152243637Y-78065423D01*
X152132800Y-78058998D01*
X152123761Y-78057547D01*
X152017422Y-78028384D01*
X151929522Y-77978792D01*
X151857985Y-77906791D01*
X151800737Y-77810400D01*
X151763707Y-77714000D01*
X151747378Y-77642817D01*
X151735305Y-77550367D01*
X151727777Y-77445000D01*
X151725085Y-77335067D01*
X151727518Y-77228919D01*
X151735366Y-77134906D01*
X151742106Y-77091344D01*
X151775863Y-76962118D01*
X151823904Y-76857576D01*
X151887762Y-76775374D01*
X151968969Y-76713173D01*
X152000732Y-76696198D01*
X152036620Y-76680615D01*
X152072742Y-76670425D01*
X152116830Y-76664513D01*
X152176616Y-76661760D01*
X152243882Y-76661076D01*
X152415706Y-76660647D01*
X152418623Y-76940794D01*
X152421541Y-77220941D01*
X152316916Y-77220941D01*
X152220827Y-77225674D01*
X152144179Y-77239295D01*
X152090463Y-77260937D01*
X152066583Y-77283063D01*
X152050804Y-77327834D01*
X152047676Y-77382024D01*
X152056800Y-77432266D01*
X152071838Y-77459756D01*
X152118067Y-77490117D01*
X152177978Y-77500126D01*
X152233555Y-77490825D01*
X152266639Y-77476697D01*
X152299130Y-77454989D01*
X152333135Y-77422966D01*
X152370762Y-77377894D01*
X152414119Y-77317040D01*
X152465312Y-77237669D01*
X152526451Y-77137047D01*
X152591344Y-77026706D01*
X152666967Y-76905991D01*
X152738450Y-76812229D01*
X152808380Y-76743259D01*
X152879345Y-76696919D01*
X152953932Y-76671047D01*
X153026134Y-76663478D01*
X153131047Y-76675518D01*
X153221603Y-76713426D01*
X153297537Y-76776716D01*
X153358584Y-76864906D01*
X153404480Y-76977510D01*
X153434960Y-77114047D01*
X153449759Y-77274032D01*
X153449457Y-77437588D01*
X153449457Y-77437588D01*
G37*
X153449457Y-77437588D02*
X153442169Y-77561201D01*
X153430316Y-77660919D01*
X153412629Y-77742549D01*
X153387839Y-77811897D01*
X153354678Y-77874768D01*
X153353558Y-77876587D01*
X153305218Y-77940746D01*
X153247785Y-77987600D01*
X153176064Y-78019630D01*
X153084861Y-78039314D01*
X152994676Y-78047820D01*
X152886353Y-78054157D01*
X152886353Y-77534706D01*
X152952885Y-77534706D01*
X153028215Y-77526796D01*
X153080274Y-77501378D01*
X153111584Y-77455924D01*
X153124664Y-77387901D01*
X153125411Y-77361500D01*
X153120086Y-77308852D01*
X153100919Y-77271129D01*
X153088738Y-77257615D01*
X153059084Y-77232745D01*
X153035742Y-77221067D01*
X153034130Y-77220941D01*
X153007230Y-77233754D01*
X152970511Y-77269555D01*
X152927079Y-77324389D01*
X152880039Y-77394304D01*
X152832496Y-77475343D01*
X152828262Y-77483113D01*
X152768430Y-77593313D01*
X152720453Y-77680634D01*
X152682171Y-77748589D01*
X152651423Y-77800688D01*
X152626047Y-77840445D01*
X152603882Y-77871372D01*
X152582766Y-77896979D01*
X152560538Y-77920779D01*
X152556179Y-77925216D01*
X152511944Y-77966318D01*
X152467747Y-78001521D01*
X152440013Y-78019314D01*
X152349160Y-78051817D01*
X152243637Y-78065423D01*
X152132800Y-78058998D01*
X152123761Y-78057547D01*
X152017422Y-78028384D01*
X151929522Y-77978792D01*
X151857985Y-77906791D01*
X151800737Y-77810400D01*
X151763707Y-77714000D01*
X151747378Y-77642817D01*
X151735305Y-77550367D01*
X151727777Y-77445000D01*
X151725085Y-77335067D01*
X151727518Y-77228919D01*
X151735366Y-77134906D01*
X151742106Y-77091344D01*
X151775863Y-76962118D01*
X151823904Y-76857576D01*
X151887762Y-76775374D01*
X151968969Y-76713173D01*
X152000732Y-76696198D01*
X152036620Y-76680615D01*
X152072742Y-76670425D01*
X152116830Y-76664513D01*
X152176616Y-76661760D01*
X152243882Y-76661076D01*
X152415706Y-76660647D01*
X152418623Y-76940794D01*
X152421541Y-77220941D01*
X152316916Y-77220941D01*
X152220827Y-77225674D01*
X152144179Y-77239295D01*
X152090463Y-77260937D01*
X152066583Y-77283063D01*
X152050804Y-77327834D01*
X152047676Y-77382024D01*
X152056800Y-77432266D01*
X152071838Y-77459756D01*
X152118067Y-77490117D01*
X152177978Y-77500126D01*
X152233555Y-77490825D01*
X152266639Y-77476697D01*
X152299130Y-77454989D01*
X152333135Y-77422966D01*
X152370762Y-77377894D01*
X152414119Y-77317040D01*
X152465312Y-77237669D01*
X152526451Y-77137047D01*
X152591344Y-77026706D01*
X152666967Y-76905991D01*
X152738450Y-76812229D01*
X152808380Y-76743259D01*
X152879345Y-76696919D01*
X152953932Y-76671047D01*
X153026134Y-76663478D01*
X153131047Y-76675518D01*
X153221603Y-76713426D01*
X153297537Y-76776716D01*
X153358584Y-76864906D01*
X153404480Y-76977510D01*
X153434960Y-77114047D01*
X153449759Y-77274032D01*
X153449457Y-77437588D01*
G36*
X153447525Y-72054347D02*
X153427922Y-72195712D01*
X153394324Y-72312148D01*
X153345975Y-72404766D01*
X153282117Y-72474676D01*
X153201994Y-72522990D01*
X153104848Y-72550819D01*
X152995750Y-72559294D01*
X152886353Y-72559294D01*
X152886353Y-72051294D01*
X152943888Y-72051294D01*
X153022522Y-72043112D01*
X153077655Y-72017443D01*
X153111146Y-71972603D01*
X153124857Y-71906907D01*
X153125411Y-71886941D01*
X153117704Y-71819457D01*
X153096428Y-71771608D01*
X153064349Y-71746195D01*
X153024235Y-71746022D01*
X152998555Y-71758473D01*
X152974579Y-71777937D01*
X152948088Y-71807723D01*
X152917107Y-71850872D01*
X152879662Y-71910423D01*
X152833781Y-71989419D01*
X152777488Y-72090900D01*
X152750275Y-72140941D01*
X152679918Y-72264976D01*
X152616657Y-72363220D01*
X152558362Y-72438308D01*
X152502902Y-72492870D01*
X152448147Y-72529541D01*
X152428274Y-72538836D01*
X152328226Y-72568266D01*
X152219323Y-72579841D01*
X152131036Y-72574107D01*
X152022724Y-72545343D01*
X151932944Y-72496440D01*
X151860337Y-72425849D01*
X151803543Y-72332023D01*
X151761201Y-72213414D01*
X151742617Y-72132074D01*
X151730044Y-72037314D01*
X151723838Y-71925482D01*
X151723977Y-71808072D01*
X151730439Y-71696577D01*
X151743202Y-71602489D01*
X151743640Y-71600267D01*
X151777986Y-71472001D01*
X151825552Y-71369009D01*
X151887724Y-71289126D01*
X151965884Y-71230189D01*
X151987639Y-71218692D01*
X152028254Y-71200260D01*
X152066228Y-71187828D01*
X152109634Y-71179943D01*
X152166548Y-71175153D01*
X152245045Y-71172004D01*
X152247617Y-71171926D01*
X152423176Y-71166617D01*
X152423176Y-71737529D01*
X152295696Y-71737529D01*
X152200139Y-71741554D01*
X152130492Y-71754880D01*
X152083719Y-71779386D01*
X152056783Y-71816953D01*
X152046649Y-71869458D01*
X152046510Y-71891752D01*
X152059480Y-71951175D01*
X152091337Y-71991779D01*
X152137360Y-72013063D01*
X152192828Y-72014527D01*
X152253021Y-71995672D01*
X152313216Y-71955996D01*
X152346061Y-71923485D01*
X152373640Y-71887811D01*
X152412077Y-71832130D01*
X152457458Y-71762412D01*
X152505868Y-71684624D01*
X152539383Y-71628703D01*
X152617212Y-71501054D01*
X152686207Y-71398616D01*
X152748971Y-71318993D01*
X152808106Y-71259787D01*
X152866216Y-71218604D01*
X152925904Y-71193048D01*
X152989774Y-71180721D01*
X153028294Y-71178704D01*
X153131152Y-71190749D01*
X153220499Y-71229016D01*
X153295964Y-71292891D01*
X153357180Y-71381760D01*
X153403776Y-71495009D01*
X153435383Y-71632022D01*
X153451632Y-71792186D01*
X153453892Y-71886941D01*
X153447525Y-72054347D01*
X153447525Y-72054347D01*
G37*
X153447525Y-72054347D02*
X153427922Y-72195712D01*
X153394324Y-72312148D01*
X153345975Y-72404766D01*
X153282117Y-72474676D01*
X153201994Y-72522990D01*
X153104848Y-72550819D01*
X152995750Y-72559294D01*
X152886353Y-72559294D01*
X152886353Y-72051294D01*
X152943888Y-72051294D01*
X153022522Y-72043112D01*
X153077655Y-72017443D01*
X153111146Y-71972603D01*
X153124857Y-71906907D01*
X153125411Y-71886941D01*
X153117704Y-71819457D01*
X153096428Y-71771608D01*
X153064349Y-71746195D01*
X153024235Y-71746022D01*
X152998555Y-71758473D01*
X152974579Y-71777937D01*
X152948088Y-71807723D01*
X152917107Y-71850872D01*
X152879662Y-71910423D01*
X152833781Y-71989419D01*
X152777488Y-72090900D01*
X152750275Y-72140941D01*
X152679918Y-72264976D01*
X152616657Y-72363220D01*
X152558362Y-72438308D01*
X152502902Y-72492870D01*
X152448147Y-72529541D01*
X152428274Y-72538836D01*
X152328226Y-72568266D01*
X152219323Y-72579841D01*
X152131036Y-72574107D01*
X152022724Y-72545343D01*
X151932944Y-72496440D01*
X151860337Y-72425849D01*
X151803543Y-72332023D01*
X151761201Y-72213414D01*
X151742617Y-72132074D01*
X151730044Y-72037314D01*
X151723838Y-71925482D01*
X151723977Y-71808072D01*
X151730439Y-71696577D01*
X151743202Y-71602489D01*
X151743640Y-71600267D01*
X151777986Y-71472001D01*
X151825552Y-71369009D01*
X151887724Y-71289126D01*
X151965884Y-71230189D01*
X151987639Y-71218692D01*
X152028254Y-71200260D01*
X152066228Y-71187828D01*
X152109634Y-71179943D01*
X152166548Y-71175153D01*
X152245045Y-71172004D01*
X152247617Y-71171926D01*
X152423176Y-71166617D01*
X152423176Y-71737529D01*
X152295696Y-71737529D01*
X152200139Y-71741554D01*
X152130492Y-71754880D01*
X152083719Y-71779386D01*
X152056783Y-71816953D01*
X152046649Y-71869458D01*
X152046510Y-71891752D01*
X152059480Y-71951175D01*
X152091337Y-71991779D01*
X152137360Y-72013063D01*
X152192828Y-72014527D01*
X152253021Y-71995672D01*
X152313216Y-71955996D01*
X152346061Y-71923485D01*
X152373640Y-71887811D01*
X152412077Y-71832130D01*
X152457458Y-71762412D01*
X152505868Y-71684624D01*
X152539383Y-71628703D01*
X152617212Y-71501054D01*
X152686207Y-71398616D01*
X152748971Y-71318993D01*
X152808106Y-71259787D01*
X152866216Y-71218604D01*
X152925904Y-71193048D01*
X152989774Y-71180721D01*
X153028294Y-71178704D01*
X153131152Y-71190749D01*
X153220499Y-71229016D01*
X153295964Y-71292891D01*
X153357180Y-71381760D01*
X153403776Y-71495009D01*
X153435383Y-71632022D01*
X153451632Y-71792186D01*
X153453892Y-71886941D01*
X153447525Y-72054347D01*
D11*
G04 #@! TO.C,D1*
X151810127Y-61453015D02*
X151936333Y-61544710D01*
X149936443Y-60091704D02*
X150062650Y-60183399D01*
X153338901Y-59348560D02*
G75*
G02X152115210Y-61033104I-1485568J-207580D01*
G01*
X151591687Y-58079136D02*
G75*
G03X150367733Y-59763487I261646J-1477004D01*
G01*
X153708919Y-58837182D02*
G75*
G02X151935942Y-61544425I-1855586J-718958D01*
G01*
X151963694Y-57569203D02*
G75*
G03X149936835Y-60091989I-110361J-1986937D01*
G01*
X159883288Y-73700348D02*
X159931495Y-73848713D01*
X159167605Y-71497701D02*
X159215811Y-71646066D01*
X162357059Y-72896400D02*
G75*
G02X160376923Y-73539956I-1323861J705260D01*
G01*
X161689683Y-70842427D02*
G75*
G03X159709447Y-71485674I-656485J-1348713D01*
G01*
X162956991Y-72700178D02*
G75*
G02X159931345Y-73848252I-1923793J509038D01*
G01*
X162290374Y-70648542D02*
G75*
G03X159167754Y-71498161I-1257176J-1542598D01*
G01*
X159215811Y-88353934D02*
X159167605Y-88502299D01*
X159931495Y-86151287D02*
X159883288Y-86299652D01*
X161689683Y-89157573D02*
G75*
G02X159709447Y-88514326I-656485J1348713D01*
G01*
X162357059Y-87103600D02*
G75*
G03X160376923Y-86460044I-1323861J-705260D01*
G01*
X162290374Y-89351458D02*
G75*
G02X159167754Y-88501839I-1257176J1542598D01*
G01*
X162956991Y-87299822D02*
G75*
G03X159931345Y-86151748I-1923793J-509038D01*
G01*
X150062650Y-99816601D02*
X149936443Y-99908296D01*
X151936333Y-98455290D02*
X151810127Y-98546985D01*
X151591687Y-101920864D02*
G75*
G02X150367733Y-100236513I261646J1477004D01*
G01*
X153338901Y-100651440D02*
G75*
G03X152115210Y-98966896I-1485568J207580D01*
G01*
X151963694Y-102430797D02*
G75*
G02X149936835Y-99908011I-110361J1986937D01*
G01*
X153708919Y-101162818D02*
G75*
G03X151935942Y-98455575I-1855586J718958D01*
G01*
X135920000Y-103710000D02*
X135764000Y-103710000D01*
X138236000Y-103710000D02*
X138080000Y-103710000D01*
X135920163Y-106311130D02*
G75*
G02X135920000Y-104229039I1079837J1041130D01*
G01*
X138079837Y-106311130D02*
G75*
G03X138080000Y-104229039I-1079837J1041130D01*
G01*
X135921392Y-106942335D02*
G75*
G02X135764484Y-103710000I1078608J1672335D01*
G01*
X138078608Y-106942335D02*
G75*
G03X138235516Y-103710000I-1078608J1672335D01*
G01*
X122189873Y-98546985D02*
X122063667Y-98455290D01*
X124063557Y-99908296D02*
X123937350Y-99816601D01*
X120661099Y-100651440D02*
G75*
G02X121884790Y-98966896I1485568J207580D01*
G01*
X122408313Y-101920864D02*
G75*
G03X123632267Y-100236513I-261646J1477004D01*
G01*
X120291081Y-101162818D02*
G75*
G02X122064058Y-98455575I1855586J718958D01*
G01*
X122036306Y-102430797D02*
G75*
G03X124063165Y-99908011I110361J1986937D01*
G01*
X114116712Y-86299652D02*
X114068505Y-86151287D01*
X114832395Y-88502299D02*
X114784189Y-88353934D01*
X111642941Y-87103600D02*
G75*
G02X113623077Y-86460044I1323861J-705260D01*
G01*
X112310317Y-89157573D02*
G75*
G03X114290553Y-88514326I656485J1348713D01*
G01*
X111043009Y-87299822D02*
G75*
G02X114068655Y-86151748I1923793J-509038D01*
G01*
X111709626Y-89351458D02*
G75*
G03X114832246Y-88501839I1257176J1542598D01*
G01*
X114784189Y-71646066D02*
X114832395Y-71497701D01*
X114068505Y-73848713D02*
X114116712Y-73700348D01*
X112310317Y-70842427D02*
G75*
G02X114290553Y-71485674I656485J-1348713D01*
G01*
X111642941Y-72896400D02*
G75*
G03X113623077Y-73539956I1323861J705260D01*
G01*
X111709626Y-70648542D02*
G75*
G02X114832246Y-71498161I1257176J-1542598D01*
G01*
X111043009Y-72700178D02*
G75*
G03X114068655Y-73848252I1923793J509038D01*
G01*
X123937350Y-60183399D02*
X124063557Y-60091704D01*
X122063667Y-61544710D02*
X122189873Y-61453015D01*
X122408313Y-58079136D02*
G75*
G02X123632267Y-59763487I-261646J-1477004D01*
G01*
X120661099Y-59348560D02*
G75*
G03X121884790Y-61033104I1485568J-207580D01*
G01*
X122036306Y-57569203D02*
G75*
G02X124063165Y-60091989I110361J-1986937D01*
G01*
X120291081Y-58837182D02*
G75*
G03X122064058Y-61544425I1855586J-718958D01*
G01*
G04 #@! TO.C,BT1*
X120550000Y-90800000D02*
X120550000Y-92000000D01*
X150036170Y-88927687D02*
G75*
G02X124850000Y-92500000I-12836170J-72313D01*
G01*
X124851754Y-92526384D02*
G75*
G03X124100000Y-92000000I-751754J-273616D01*
G01*
X150036170Y-89072313D02*
G75*
G03X124850000Y-85500000I-12836170J72313D01*
G01*
X124851754Y-85473616D02*
G75*
G02X124100000Y-86000000I-751754J273616D01*
G01*
X120550000Y-86000000D02*
X124150000Y-86000000D01*
X120550000Y-87200000D02*
X120550000Y-86000000D01*
X120550000Y-92000000D02*
X124150000Y-92000000D01*
G04 #@! TO.C,R1*
X133920000Y-63960000D02*
X133920000Y-63630000D01*
X133920000Y-63630000D02*
X140460000Y-63630000D01*
X140460000Y-63630000D02*
X140460000Y-63960000D01*
X133920000Y-66040000D02*
X133920000Y-66370000D01*
X133920000Y-66370000D02*
X140460000Y-66370000D01*
X140460000Y-66370000D02*
X140460000Y-66040000D01*
G04 #@! TO.C,R2*
X147150000Y-66250000D02*
X147150000Y-63200000D01*
X142850000Y-66250000D02*
X142850000Y-63200000D01*
X142834474Y-66228234D02*
G75*
G03X147150000Y-66250000I2165526J1528234D01*
G01*
X147118249Y-63155487D02*
G75*
G03X142850000Y-63200000I-2118249J-1544513D01*
G01*
G04 #@! TO.C,R3*
X133920000Y-60630000D02*
X133920000Y-60960000D01*
X140460000Y-60630000D02*
X133920000Y-60630000D01*
X140460000Y-60960000D02*
X140460000Y-60630000D01*
X133920000Y-63370000D02*
X133920000Y-63040000D01*
X140460000Y-63370000D02*
X133920000Y-63370000D01*
X140460000Y-63040000D02*
X140460000Y-63370000D01*
G04 #@! TO.C,R4*
X133920000Y-66960000D02*
X133920000Y-66630000D01*
X133920000Y-66630000D02*
X140460000Y-66630000D01*
X140460000Y-66630000D02*
X140460000Y-66960000D01*
X133920000Y-69040000D02*
X133920000Y-69370000D01*
X133920000Y-69370000D02*
X140460000Y-69370000D01*
X140460000Y-69370000D02*
X140460000Y-69040000D01*
G04 #@! TO.C,D1*
X135921392Y-53057665D02*
G75*
G03X135764484Y-56290000I1078608J-1672335D01*
G01*
X138078608Y-53057665D02*
G75*
G02X138235516Y-56290000I-1078608J-1672335D01*
G01*
X135920163Y-53688870D02*
G75*
G03X135920000Y-55770961I1079837J-1041130D01*
G01*
X138079837Y-53688870D02*
G75*
G02X138080000Y-55770961I-1079837J-1041130D01*
G01*
X135764000Y-56290000D02*
X135920000Y-56290000D01*
X138080000Y-56290000D02*
X138236000Y-56290000D01*
G04 #@! TO.C,SW1*
X140870000Y-74330000D02*
X140870000Y-71670000D01*
X135730000Y-74330000D02*
X140870000Y-74330000D01*
X135730000Y-71670000D02*
X140870000Y-71670000D01*
X135730000Y-74330000D02*
X135730000Y-71670000D01*
X134460000Y-74330000D02*
X133130000Y-74330000D01*
X133130000Y-74330000D02*
X133130000Y-73000000D01*
G04 #@! TO.C,Q1*
D13*
X125987619Y-65095238D02*
X125940000Y-65190476D01*
X125844761Y-65285714D01*
X125701904Y-65428571D01*
X125654285Y-65523809D01*
X125654285Y-65619047D01*
X125892380Y-65571428D02*
X125844761Y-65666666D01*
X125749523Y-65761904D01*
X125559047Y-65809523D01*
X125225714Y-65809523D01*
X125035238Y-65761904D01*
X124940000Y-65666666D01*
X124892380Y-65571428D01*
X124892380Y-65380952D01*
X124940000Y-65285714D01*
X125035238Y-65190476D01*
X125225714Y-65142857D01*
X125559047Y-65142857D01*
X125749523Y-65190476D01*
X125844761Y-65285714D01*
X125892380Y-65380952D01*
X125892380Y-65571428D01*
X125892380Y-64190476D02*
X125892380Y-64761904D01*
X125892380Y-64476190D02*
X124892380Y-64476190D01*
X125035238Y-64571428D01*
X125130476Y-64666666D01*
X125178095Y-64761904D01*
G04 #@! TO.C,D1*
X149390785Y-58679330D02*
X148581768Y-58091545D01*
X148721717Y-57898922D01*
X148844211Y-57811338D01*
X148977239Y-57790268D01*
X149082278Y-57807723D01*
X149264367Y-57881157D01*
X149379941Y-57965127D01*
X149506049Y-58115610D01*
X149555109Y-58210114D01*
X149576178Y-58343143D01*
X149530734Y-58486707D01*
X149390785Y-58679330D01*
X150286458Y-57446542D02*
X149950580Y-57908838D01*
X150118519Y-57677690D02*
X149309502Y-57089905D01*
X149369096Y-57250923D01*
X149390166Y-57383952D01*
X149372711Y-57488991D01*
X159556330Y-70034336D02*
X159247313Y-69083280D01*
X159473755Y-69009704D01*
X159624335Y-69010847D01*
X159744342Y-69071994D01*
X159819061Y-69147856D01*
X159923209Y-69314294D01*
X159967355Y-69450160D01*
X159980927Y-69646028D01*
X159965068Y-69751320D01*
X159903922Y-69871327D01*
X159782772Y-69960761D01*
X159556330Y-70034336D01*
X161005559Y-69563453D02*
X160462098Y-69740034D01*
X160733828Y-69651744D02*
X160424811Y-68700687D01*
X160378380Y-68865983D01*
X160317233Y-68985990D01*
X160241371Y-69060708D01*
X161106124Y-85195887D02*
X161415141Y-84244831D01*
X161641583Y-84318406D01*
X161762733Y-84407840D01*
X161823880Y-84527847D01*
X161839738Y-84633139D01*
X161826166Y-84829008D01*
X161782021Y-84964873D01*
X161677872Y-85131311D01*
X161603153Y-85207173D01*
X161483146Y-85268320D01*
X161332566Y-85269463D01*
X161106124Y-85195887D01*
X162555353Y-85666770D02*
X162011892Y-85490189D01*
X162283622Y-85578480D02*
X162592639Y-84627423D01*
X162457917Y-84733858D01*
X162337910Y-84795005D01*
X162232618Y-84810863D01*
X153448198Y-98372786D02*
X154257215Y-97785001D01*
X154397164Y-97977624D01*
X154442609Y-98121187D01*
X154421539Y-98254216D01*
X154372480Y-98348720D01*
X154246371Y-98499204D01*
X154130797Y-98583173D01*
X153948709Y-98656608D01*
X153843670Y-98674063D01*
X153710641Y-98652993D01*
X153588147Y-98565409D01*
X153448198Y-98372786D01*
X154343871Y-99605574D02*
X154007994Y-99143278D01*
X154175932Y-99374426D02*
X154984949Y-98786641D01*
X154813396Y-98793561D01*
X154680367Y-98772491D01*
X154585863Y-98723432D01*
X140412380Y-106008095D02*
X139412380Y-106008095D01*
X139412380Y-105770000D01*
X139460000Y-105627142D01*
X139555238Y-105531904D01*
X139650476Y-105484285D01*
X139840952Y-105436666D01*
X139983809Y-105436666D01*
X140174285Y-105484285D01*
X140269523Y-105531904D01*
X140364761Y-105627142D01*
X140412380Y-105770000D01*
X140412380Y-106008095D01*
X140412380Y-104484285D02*
X140412380Y-105055714D01*
X140412380Y-104770000D02*
X139412380Y-104770000D01*
X139555238Y-104865238D01*
X139650476Y-104960476D01*
X139698095Y-105055714D01*
X124473499Y-103046738D02*
X123664482Y-102458953D01*
X123804431Y-102266330D01*
X123926925Y-102178746D01*
X124059953Y-102157676D01*
X124164992Y-102175131D01*
X124347081Y-102248565D01*
X124462655Y-102332535D01*
X124588763Y-102483018D01*
X124637823Y-102577522D01*
X124658892Y-102710551D01*
X124613448Y-102854115D01*
X124473499Y-103046738D01*
X125369172Y-101813950D02*
X125033294Y-102276246D01*
X125201233Y-102045098D02*
X124392216Y-101457313D01*
X124451810Y-101618331D01*
X124472880Y-101751360D01*
X124455425Y-101856399D01*
X113319316Y-91282310D02*
X113010299Y-90331254D01*
X113236741Y-90257678D01*
X113387321Y-90258821D01*
X113507328Y-90319968D01*
X113582047Y-90395830D01*
X113686195Y-90562268D01*
X113730341Y-90698134D01*
X113743913Y-90894002D01*
X113728054Y-90999294D01*
X113666908Y-91119301D01*
X113545758Y-91208735D01*
X113319316Y-91282310D01*
X114768545Y-90811427D02*
X114225084Y-90988008D01*
X114496814Y-90899718D02*
X114187797Y-89948661D01*
X114141366Y-90113957D01*
X114080219Y-90233964D01*
X114004357Y-90308682D01*
X111210348Y-75208423D02*
X111519365Y-74257367D01*
X111745807Y-74330942D01*
X111866957Y-74420376D01*
X111928104Y-74540383D01*
X111943962Y-74645675D01*
X111930390Y-74841544D01*
X111886245Y-74977409D01*
X111782096Y-75143847D01*
X111707377Y-75219709D01*
X111587370Y-75280856D01*
X111436790Y-75281999D01*
X111210348Y-75208423D01*
X112659577Y-75679306D02*
X112116116Y-75502725D01*
X112387846Y-75591016D02*
X112696863Y-74639959D01*
X112562141Y-74746394D01*
X112442134Y-74807541D01*
X112336842Y-74823399D01*
X118952150Y-60964756D02*
X119761167Y-60376971D01*
X119901116Y-60569594D01*
X119946561Y-60713157D01*
X119925491Y-60846186D01*
X119876432Y-60940690D01*
X119750323Y-61091174D01*
X119634749Y-61175143D01*
X119452661Y-61248578D01*
X119347622Y-61266033D01*
X119214593Y-61244963D01*
X119092099Y-61157379D01*
X118952150Y-60964756D01*
X119847823Y-62197544D02*
X119511946Y-61735248D01*
X119679884Y-61966396D02*
X120488901Y-61378611D01*
X120317348Y-61385531D01*
X120184319Y-61364461D01*
X120089815Y-61315402D01*
G04 #@! TO.C,BT1*
X124178571Y-89107142D02*
X125321428Y-89107142D01*
X124750000Y-89678571D02*
X124750000Y-88535714D01*
G04 #@! TO.C,R1*
X136833333Y-65452380D02*
X136500000Y-64976190D01*
X136261904Y-65452380D02*
X136261904Y-64452380D01*
X136642857Y-64452380D01*
X136738095Y-64500000D01*
X136785714Y-64547619D01*
X136833333Y-64642857D01*
X136833333Y-64785714D01*
X136785714Y-64880952D01*
X136738095Y-64928571D01*
X136642857Y-64976190D01*
X136261904Y-64976190D01*
X137785714Y-65452380D02*
X137214285Y-65452380D01*
X137500000Y-65452380D02*
X137500000Y-64452380D01*
X137404761Y-64595238D01*
X137309523Y-64690476D01*
X137214285Y-64738095D01*
G04 #@! TO.C,R2*
X144222380Y-64866666D02*
X143746190Y-65200000D01*
X144222380Y-65438095D02*
X143222380Y-65438095D01*
X143222380Y-65057142D01*
X143270000Y-64961904D01*
X143317619Y-64914285D01*
X143412857Y-64866666D01*
X143555714Y-64866666D01*
X143650952Y-64914285D01*
X143698571Y-64961904D01*
X143746190Y-65057142D01*
X143746190Y-65438095D01*
X143317619Y-64485714D02*
X143270000Y-64438095D01*
X143222380Y-64342857D01*
X143222380Y-64104761D01*
X143270000Y-64009523D01*
X143317619Y-63961904D01*
X143412857Y-63914285D01*
X143508095Y-63914285D01*
X143650952Y-63961904D01*
X144222380Y-64533333D01*
X144222380Y-63914285D01*
G04 #@! TO.C,R3*
X136833333Y-62452380D02*
X136500000Y-61976190D01*
X136261904Y-62452380D02*
X136261904Y-61452380D01*
X136642857Y-61452380D01*
X136738095Y-61500000D01*
X136785714Y-61547619D01*
X136833333Y-61642857D01*
X136833333Y-61785714D01*
X136785714Y-61880952D01*
X136738095Y-61928571D01*
X136642857Y-61976190D01*
X136261904Y-61976190D01*
X137166666Y-61452380D02*
X137785714Y-61452380D01*
X137452380Y-61833333D01*
X137595238Y-61833333D01*
X137690476Y-61880952D01*
X137738095Y-61928571D01*
X137785714Y-62023809D01*
X137785714Y-62261904D01*
X137738095Y-62357142D01*
X137690476Y-62404761D01*
X137595238Y-62452380D01*
X137309523Y-62452380D01*
X137214285Y-62404761D01*
X137166666Y-62357142D01*
G04 #@! TO.C,R4*
X136833333Y-68472380D02*
X136500000Y-67996190D01*
X136261904Y-68472380D02*
X136261904Y-67472380D01*
X136642857Y-67472380D01*
X136738095Y-67520000D01*
X136785714Y-67567619D01*
X136833333Y-67662857D01*
X136833333Y-67805714D01*
X136785714Y-67900952D01*
X136738095Y-67948571D01*
X136642857Y-67996190D01*
X136261904Y-67996190D01*
X137690476Y-67805714D02*
X137690476Y-68472380D01*
X137452380Y-67424761D02*
X137214285Y-68139047D01*
X137833333Y-68139047D01*
G04 #@! TO.C,D1*
X134492380Y-55468095D02*
X133492380Y-55468095D01*
X133492380Y-55230000D01*
X133540000Y-55087142D01*
X133635238Y-54991904D01*
X133730476Y-54944285D01*
X133920952Y-54896666D01*
X134063809Y-54896666D01*
X134254285Y-54944285D01*
X134349523Y-54991904D01*
X134444761Y-55087142D01*
X134492380Y-55230000D01*
X134492380Y-55468095D01*
X134492380Y-53944285D02*
X134492380Y-54515714D01*
X134492380Y-54230000D02*
X133492380Y-54230000D01*
X133635238Y-54325238D01*
X133730476Y-54420476D01*
X133778095Y-54515714D01*
G04 #@! TO.C,SW1*
X132534761Y-74333333D02*
X132582380Y-74190476D01*
X132582380Y-73952380D01*
X132534761Y-73857142D01*
X132487142Y-73809523D01*
X132391904Y-73761904D01*
X132296666Y-73761904D01*
X132201428Y-73809523D01*
X132153809Y-73857142D01*
X132106190Y-73952380D01*
X132058571Y-74142857D01*
X132010952Y-74238095D01*
X131963333Y-74285714D01*
X131868095Y-74333333D01*
X131772857Y-74333333D01*
X131677619Y-74285714D01*
X131630000Y-74238095D01*
X131582380Y-74142857D01*
X131582380Y-73904761D01*
X131630000Y-73761904D01*
X131582380Y-73428571D02*
X132582380Y-73190476D01*
X131868095Y-73000000D01*
X132582380Y-72809523D01*
X131582380Y-72571428D01*
X132582380Y-71666666D02*
X132582380Y-72238095D01*
X132582380Y-71952380D02*
X131582380Y-71952380D01*
X131725238Y-72047619D01*
X131820476Y-72142857D01*
X131868095Y-72238095D01*
G04 #@! TD*
%LPC*%
D14*
G04 #@! TO.C,Q1*
X129000000Y-66270000D03*
D15*
X129000000Y-63730000D03*
X129000000Y-65000000D03*
G04 #@! TD*
D16*
G04 #@! TO.C,D1*
X152599821Y-58528689D03*
X151106846Y-60583592D03*
D17*
G36*
X151350201Y-62120074D02*
X149570364Y-60826947D01*
X150863491Y-59047110D01*
X152643328Y-60340237D01*
X151350201Y-62120074D01*
X151350201Y-62120074D01*
G37*
G04 #@! TD*
D16*
G04 #@! TO.C,D1*
X162241040Y-71798689D03*
X159825356Y-72583592D03*
D17*
G36*
X159119113Y-73969673D02*
X158439275Y-71877349D01*
X160531599Y-71197511D01*
X161211437Y-73289835D01*
X159119113Y-73969673D01*
X159119113Y-73969673D01*
G37*
G04 #@! TD*
D16*
G04 #@! TO.C,D1*
X162241040Y-88201311D03*
X159825356Y-87416408D03*
D17*
G36*
X158439275Y-88122651D02*
X159119113Y-86030327D01*
X161211437Y-86710165D01*
X160531599Y-88802489D01*
X158439275Y-88122651D01*
X158439275Y-88122651D01*
G37*
G04 #@! TD*
D16*
G04 #@! TO.C,D1*
X152599821Y-101471311D03*
X151106846Y-99416408D03*
D17*
G36*
X149570364Y-99173053D02*
X151350201Y-97879926D01*
X152643328Y-99659763D01*
X150863491Y-100952890D01*
X149570364Y-99173053D01*
X149570364Y-99173053D01*
G37*
G04 #@! TD*
D16*
G04 #@! TO.C,D1*
X137000000Y-106540000D03*
D18*
X137000000Y-104000000D03*
G04 #@! TD*
D16*
G04 #@! TO.C,D1*
X121400179Y-101471311D03*
X122893154Y-99416408D03*
D17*
G36*
X122649799Y-97879926D02*
X124429636Y-99173053D01*
X123136509Y-100952890D01*
X121356672Y-99659763D01*
X122649799Y-97879926D01*
X122649799Y-97879926D01*
G37*
G04 #@! TD*
D16*
G04 #@! TO.C,D1*
X111758960Y-88201311D03*
X114174644Y-87416408D03*
D17*
G36*
X114880887Y-86030327D02*
X115560725Y-88122651D01*
X113468401Y-88802489D01*
X112788563Y-86710165D01*
X114880887Y-86030327D01*
X114880887Y-86030327D01*
G37*
G04 #@! TD*
D16*
G04 #@! TO.C,D1*
X111758960Y-71798689D03*
X114174644Y-72583592D03*
D17*
G36*
X115560725Y-71877349D02*
X114880887Y-73969673D01*
X112788563Y-73289835D01*
X113468401Y-71197511D01*
X115560725Y-71877349D01*
X115560725Y-71877349D01*
G37*
G04 #@! TD*
D16*
G04 #@! TO.C,D1*
X121400179Y-58528689D03*
X122893154Y-60583592D03*
D17*
G36*
X124429636Y-60826947D02*
X122649799Y-62120074D01*
X121356672Y-60340237D01*
X123136509Y-59047110D01*
X124429636Y-60826947D01*
X124429636Y-60826947D01*
G37*
G04 #@! TD*
D19*
G04 #@! TO.C,BT1*
X142490000Y-89000000D03*
D20*
X122000000Y-89000000D03*
G04 #@! TD*
D21*
G04 #@! TO.C,R1*
X133380000Y-65000000D03*
D22*
X141000000Y-65000000D03*
G04 #@! TD*
D23*
G04 #@! TO.C,R2*
X145000000Y-66400000D03*
X145000000Y-63000000D03*
G04 #@! TD*
D22*
G04 #@! TO.C,R3*
X133380000Y-62000000D03*
D21*
X141000000Y-62000000D03*
G04 #@! TD*
G04 #@! TO.C,R4*
X133380000Y-68000000D03*
D22*
X141000000Y-68000000D03*
G04 #@! TD*
D18*
G04 #@! TO.C,D1*
X137000000Y-56000000D03*
D16*
X137000000Y-53460000D03*
G04 #@! TD*
D24*
G04 #@! TO.C,SW1*
X134460000Y-73000000D03*
D25*
X137000000Y-73000000D03*
X139540000Y-73000000D03*
G04 #@! TD*
D26*
G04 #@! TO.C,REF\002A\002A*
X163000000Y-80000000D03*
G04 #@! TD*
M02*
