G04 #@! TF.GenerationSoftware,KiCad,Pcbnew,(5.0.0)*
G04 #@! TF.CreationDate,2019-03-21T10:25:12+02:00*
G04 #@! TF.ProjectId,LED_badge,4C45445F62616467652E6B696361645F,rev?*
G04 #@! TF.SameCoordinates,Original*
G04 #@! TF.FileFunction,Legend,Bot*
G04 #@! TF.FilePolarity,Positive*
%FSLAX46Y46*%
G04 Gerber Fmt 4.6, Leading zero omitted, Abs format (unit mm)*
G04 Created by KiCad (PCBNEW (5.0.0)) date 03/21/19 10:25:12*
%MOMM*%
%LPD*%
G01*
G04 APERTURE LIST*
%ADD10C,0.300000*%
%ADD11C,0.010000*%
%ADD12R,1.900000X1.450000*%
%ADD13O,1.900000X1.450000*%
%ADD14C,2.200000*%
%ADD15C,0.100000*%
%ADD16R,2.200000X2.200000*%
%ADD17C,3.400000*%
%ADD18R,3.400000X3.400000*%
%ADD19C,2.000000*%
%ADD20O,2.000000X2.000000*%
%ADD21C,1.900000*%
%ADD22R,2.100000X2.100000*%
%ADD23O,2.100000X2.100000*%
%ADD24C,5.400000*%
G04 APERTURE END LIST*
D10*
X147984761Y-68748095D02*
X149603809Y-68748095D01*
X149794285Y-68843333D01*
X149889523Y-68938571D01*
X149984761Y-69129047D01*
X149984761Y-69510000D01*
X149889523Y-69700476D01*
X149794285Y-69795714D01*
X149603809Y-69890952D01*
X147984761Y-69890952D01*
X148651428Y-70843333D02*
X149984761Y-70843333D01*
X148841904Y-70843333D02*
X148746666Y-70938571D01*
X148651428Y-71129047D01*
X148651428Y-71414761D01*
X148746666Y-71605238D01*
X148937142Y-71700476D01*
X149984761Y-71700476D01*
X149984761Y-75033809D02*
X148937142Y-75033809D01*
X148746666Y-74938571D01*
X148651428Y-74748095D01*
X148651428Y-74367142D01*
X148746666Y-74176666D01*
X149889523Y-75033809D02*
X149984761Y-74843333D01*
X149984761Y-74367142D01*
X149889523Y-74176666D01*
X149699047Y-74081428D01*
X149508571Y-74081428D01*
X149318095Y-74176666D01*
X149222857Y-74367142D01*
X149222857Y-74843333D01*
X149127619Y-75033809D01*
X149984761Y-75986190D02*
X148651428Y-75986190D01*
X149032380Y-75986190D02*
X148841904Y-76081428D01*
X148746666Y-76176666D01*
X148651428Y-76367142D01*
X148651428Y-76557619D01*
X149984761Y-77224285D02*
X148651428Y-77224285D01*
X148080000Y-76748095D02*
X148080000Y-77700476D01*
X149984761Y-79700476D02*
X147984761Y-79700476D01*
X149222857Y-79890952D02*
X149984761Y-80462380D01*
X148651428Y-80462380D02*
X149413333Y-79700476D01*
X149984761Y-82176666D02*
X148937142Y-82176666D01*
X148746666Y-82081428D01*
X148651428Y-81890952D01*
X148651428Y-81510000D01*
X148746666Y-81319523D01*
X149889523Y-82176666D02*
X149984761Y-81986190D01*
X149984761Y-81510000D01*
X149889523Y-81319523D01*
X149699047Y-81224285D01*
X149508571Y-81224285D01*
X149318095Y-81319523D01*
X149222857Y-81510000D01*
X149222857Y-81986190D01*
X149127619Y-82176666D01*
X149984761Y-83129047D02*
X148651428Y-83129047D01*
X149032380Y-83129047D02*
X148841904Y-83224285D01*
X148746666Y-83319523D01*
X148651428Y-83510000D01*
X148651428Y-83700476D01*
X148651428Y-84081428D02*
X148651428Y-84843333D01*
X147984761Y-84367142D02*
X149699047Y-84367142D01*
X149889523Y-84462380D01*
X149984761Y-84652857D01*
X149984761Y-84843333D01*
X148651428Y-86367142D02*
X149984761Y-86367142D01*
X148651428Y-85510000D02*
X149699047Y-85510000D01*
X149889523Y-85605238D01*
X149984761Y-85795714D01*
X149984761Y-86081428D01*
X149889523Y-86271904D01*
X149794285Y-86367142D01*
X148651428Y-87319523D02*
X150651428Y-87319523D01*
X148746666Y-87319523D02*
X148651428Y-87510000D01*
X148651428Y-87890952D01*
X148746666Y-88081428D01*
X148841904Y-88176666D01*
X149032380Y-88271904D01*
X149603809Y-88271904D01*
X149794285Y-88176666D01*
X149889523Y-88081428D01*
X149984761Y-87890952D01*
X149984761Y-87510000D01*
X149889523Y-87319523D01*
X149889523Y-89890952D02*
X149984761Y-89700476D01*
X149984761Y-89319523D01*
X149889523Y-89129047D01*
X149699047Y-89033809D01*
X148937142Y-89033809D01*
X148746666Y-89129047D01*
X148651428Y-89319523D01*
X148651428Y-89700476D01*
X148746666Y-89890952D01*
X148937142Y-89986190D01*
X149127619Y-89986190D01*
X149318095Y-89033809D01*
X149984761Y-91129047D02*
X149889523Y-90938571D01*
X149699047Y-90843333D01*
X147984761Y-90843333D01*
X150080000Y-90843333D02*
X150175238Y-91033809D01*
X150365714Y-91129047D01*
X150556190Y-91033809D01*
X150651428Y-90843333D01*
X150651428Y-90557619D01*
X149984761Y-91890952D02*
X147984761Y-91890952D01*
X148746666Y-91890952D02*
X148651428Y-92081428D01*
X148651428Y-92462380D01*
X148746666Y-92652857D01*
X148841904Y-92748095D01*
X149032380Y-92843333D01*
X149603809Y-92843333D01*
X149794285Y-92748095D01*
X149889523Y-92652857D01*
X149984761Y-92462380D01*
X149984761Y-92081428D01*
X149889523Y-91890952D01*
X149984761Y-93986190D02*
X149889523Y-93795714D01*
X149794285Y-93700476D01*
X149603809Y-93605238D01*
X149032380Y-93605238D01*
X148841904Y-93700476D01*
X148746666Y-93795714D01*
X148651428Y-93986190D01*
X148651428Y-94271904D01*
X148746666Y-94462380D01*
X148841904Y-94557619D01*
X149032380Y-94652857D01*
X149603809Y-94652857D01*
X149794285Y-94557619D01*
X149889523Y-94462380D01*
X149984761Y-94271904D01*
X149984761Y-93986190D01*
X148651428Y-95224285D02*
X148651428Y-95986190D01*
X147984761Y-95510000D02*
X149699047Y-95510000D01*
X149889523Y-95605238D01*
X149984761Y-95795714D01*
X149984761Y-95986190D01*
X149889523Y-96557619D02*
X149984761Y-96748095D01*
X149984761Y-97129047D01*
X149889523Y-97319523D01*
X149699047Y-97414761D01*
X149603809Y-97414761D01*
X149413333Y-97319523D01*
X149318095Y-97129047D01*
X149318095Y-96843333D01*
X149222857Y-96652857D01*
X149032380Y-96557619D01*
X148937142Y-96557619D01*
X148746666Y-96652857D01*
X148651428Y-96843333D01*
X148651428Y-97129047D01*
X148746666Y-97319523D01*
X149889523Y-98367142D02*
X149984761Y-98367142D01*
X150175238Y-98271904D01*
X150270476Y-98176666D01*
X151951428Y-71795714D02*
X153665714Y-71795714D01*
X153856190Y-71700476D01*
X153951428Y-71510000D01*
X153951428Y-71414761D01*
X151284761Y-71795714D02*
X151380000Y-71700476D01*
X151475238Y-71795714D01*
X151380000Y-71890952D01*
X151284761Y-71795714D01*
X151475238Y-71795714D01*
X153284761Y-73033809D02*
X153189523Y-72843333D01*
X153094285Y-72748095D01*
X152903809Y-72652857D01*
X152332380Y-72652857D01*
X152141904Y-72748095D01*
X152046666Y-72843333D01*
X151951428Y-73033809D01*
X151951428Y-73319523D01*
X152046666Y-73510000D01*
X152141904Y-73605238D01*
X152332380Y-73700476D01*
X152903809Y-73700476D01*
X153094285Y-73605238D01*
X153189523Y-73510000D01*
X153284761Y-73319523D01*
X153284761Y-73033809D01*
X153284761Y-76081428D02*
X151284761Y-76081428D01*
X152522857Y-76271904D02*
X153284761Y-76843333D01*
X151951428Y-76843333D02*
X152713333Y-76081428D01*
X153284761Y-78557619D02*
X152237142Y-78557619D01*
X152046666Y-78462380D01*
X151951428Y-78271904D01*
X151951428Y-77890952D01*
X152046666Y-77700476D01*
X153189523Y-78557619D02*
X153284761Y-78367142D01*
X153284761Y-77890952D01*
X153189523Y-77700476D01*
X152999047Y-77605238D01*
X152808571Y-77605238D01*
X152618095Y-77700476D01*
X152522857Y-77890952D01*
X152522857Y-78367142D01*
X152427619Y-78557619D01*
X151951428Y-79510000D02*
X153951428Y-79510000D01*
X152046666Y-79510000D02*
X151951428Y-79700476D01*
X151951428Y-80081428D01*
X152046666Y-80271904D01*
X152141904Y-80367142D01*
X152332380Y-80462380D01*
X152903809Y-80462380D01*
X153094285Y-80367142D01*
X153189523Y-80271904D01*
X153284761Y-80081428D01*
X153284761Y-79700476D01*
X153189523Y-79510000D01*
X153189523Y-82081428D02*
X153284761Y-81890952D01*
X153284761Y-81509999D01*
X153189523Y-81319523D01*
X152999047Y-81224285D01*
X152237142Y-81224285D01*
X152046666Y-81319523D01*
X151951428Y-81509999D01*
X151951428Y-81890952D01*
X152046666Y-82081428D01*
X152237142Y-82176666D01*
X152427619Y-82176666D01*
X152618095Y-81224285D01*
X151380000Y-81224285D02*
X151380000Y-82176666D01*
X153189523Y-83890952D02*
X153284761Y-83700476D01*
X153284761Y-83319523D01*
X153189523Y-83129047D01*
X153094285Y-83033809D01*
X152903809Y-82938571D01*
X152332380Y-82938571D01*
X152141904Y-83033809D01*
X152046666Y-83129047D01*
X151951428Y-83319523D01*
X151951428Y-83700476D01*
X152046666Y-83890952D01*
X153189523Y-84843333D02*
X153284761Y-84843333D01*
X153475238Y-84748095D01*
X153570476Y-84652857D01*
X151951428Y-88081428D02*
X153570476Y-88081428D01*
X153760952Y-87986190D01*
X153856190Y-87890952D01*
X153951428Y-87700476D01*
X153951428Y-87414761D01*
X153856190Y-87224285D01*
X153189523Y-88081428D02*
X153284761Y-87890952D01*
X153284761Y-87509999D01*
X153189523Y-87319523D01*
X153094285Y-87224285D01*
X152903809Y-87129047D01*
X152332380Y-87129047D01*
X152141904Y-87224285D01*
X152046666Y-87319523D01*
X151951428Y-87509999D01*
X151951428Y-87890952D01*
X152046666Y-88081428D01*
X153284761Y-89890952D02*
X152237142Y-89890952D01*
X152046666Y-89795714D01*
X151951428Y-89605238D01*
X151951428Y-89224285D01*
X152046666Y-89033809D01*
X153189523Y-89890952D02*
X153284761Y-89700476D01*
X153284761Y-89224285D01*
X153189523Y-89033809D01*
X152999047Y-88938571D01*
X152808571Y-88938571D01*
X152618095Y-89033809D01*
X152522857Y-89224285D01*
X152522857Y-89700476D01*
X152427619Y-89890952D01*
X151951428Y-90843333D02*
X153284761Y-90843333D01*
X152141904Y-90843333D02*
X152046666Y-90938571D01*
X151951428Y-91129047D01*
X151951428Y-91414761D01*
X152046666Y-91605238D01*
X152237142Y-91700476D01*
X153284761Y-91700476D01*
X151951428Y-94176666D02*
X153284761Y-94176666D01*
X152141904Y-94176666D02*
X152046666Y-94271904D01*
X151951428Y-94462380D01*
X151951428Y-94748095D01*
X152046666Y-94938571D01*
X152237142Y-95033809D01*
X153284761Y-95033809D01*
X153189523Y-96748095D02*
X153284761Y-96557619D01*
X153284761Y-96176666D01*
X153189523Y-95986190D01*
X152999047Y-95890952D01*
X152237142Y-95890952D01*
X152046666Y-95986190D01*
X151951428Y-96176666D01*
X151951428Y-96557619D01*
X152046666Y-96748095D01*
X152237142Y-96843333D01*
X152427619Y-96843333D01*
X152618095Y-95890952D01*
X118110476Y-60036190D02*
X118215238Y-60350476D01*
X118215238Y-60874285D01*
X118110476Y-61083809D01*
X118005714Y-61188571D01*
X117796190Y-61293333D01*
X117586666Y-61293333D01*
X117377142Y-61188571D01*
X117272380Y-61083809D01*
X117167619Y-60874285D01*
X117062857Y-60455238D01*
X116958095Y-60245714D01*
X116853333Y-60140952D01*
X116643809Y-60036190D01*
X116434285Y-60036190D01*
X116224761Y-60140952D01*
X116120000Y-60245714D01*
X116015238Y-60455238D01*
X116015238Y-60979047D01*
X116120000Y-61293333D01*
X115177142Y-60245714D02*
X115491428Y-60664761D01*
X115177142Y-61083809D01*
X118110476Y-63074285D02*
X118215238Y-62864761D01*
X118215238Y-62445714D01*
X118110476Y-62236190D01*
X117900952Y-62131428D01*
X117062857Y-62131428D01*
X116853333Y-62236190D01*
X116748571Y-62445714D01*
X116748571Y-62864761D01*
X116853333Y-63074285D01*
X117062857Y-63179047D01*
X117272380Y-63179047D01*
X117481904Y-62131428D01*
X118215238Y-64121904D02*
X116748571Y-64121904D01*
X116015238Y-64121904D02*
X116120000Y-64017142D01*
X116224761Y-64121904D01*
X116120000Y-64226666D01*
X116015238Y-64121904D01*
X116224761Y-64121904D01*
X116748571Y-64855238D02*
X116748571Y-65693333D01*
X116015238Y-65169523D02*
X117900952Y-65169523D01*
X118110476Y-65274285D01*
X118215238Y-65483809D01*
X118215238Y-65693333D01*
X118215238Y-68102857D02*
X116748571Y-68102857D01*
X116015238Y-68102857D02*
X116120000Y-67998095D01*
X116224761Y-68102857D01*
X116120000Y-68207619D01*
X116015238Y-68102857D01*
X116224761Y-68102857D01*
X118215238Y-69150476D02*
X116748571Y-69150476D01*
X117167619Y-69150476D02*
X116958095Y-69255238D01*
X116853333Y-69360000D01*
X116748571Y-69569523D01*
X116748571Y-69779047D01*
X118110476Y-72083809D02*
X118215238Y-72293333D01*
X118215238Y-72712380D01*
X118110476Y-72921904D01*
X117900952Y-73026666D01*
X117796190Y-73026666D01*
X117586666Y-72921904D01*
X117481904Y-72712380D01*
X117481904Y-72398095D01*
X117377142Y-72188571D01*
X117167619Y-72083809D01*
X117062857Y-72083809D01*
X116853333Y-72188571D01*
X116748571Y-72398095D01*
X116748571Y-72712380D01*
X116853333Y-72921904D01*
X118215238Y-73969523D02*
X116015238Y-73969523D01*
X118215238Y-74912380D02*
X117062857Y-74912380D01*
X116853333Y-74807619D01*
X116748571Y-74598095D01*
X116748571Y-74283809D01*
X116853333Y-74074285D01*
X116958095Y-73969523D01*
X118110476Y-76798095D02*
X118215238Y-76588571D01*
X118215238Y-76169523D01*
X118110476Y-75960000D01*
X117900952Y-75855238D01*
X117062857Y-75855238D01*
X116853333Y-75960000D01*
X116748571Y-76169523D01*
X116748571Y-76588571D01*
X116853333Y-76798095D01*
X117062857Y-76902857D01*
X117272380Y-76902857D01*
X117481904Y-75855238D01*
X116120000Y-75855238D02*
X116120000Y-76902857D01*
X118215238Y-77845714D02*
X116748571Y-77845714D01*
X116958095Y-77845714D02*
X116853333Y-77950476D01*
X116748571Y-78160000D01*
X116748571Y-78474285D01*
X116853333Y-78683809D01*
X117062857Y-78788571D01*
X118215238Y-78788571D01*
X117062857Y-78788571D02*
X116853333Y-78893333D01*
X116748571Y-79102857D01*
X116748571Y-79417142D01*
X116853333Y-79626666D01*
X117062857Y-79731428D01*
X118215238Y-79731428D01*
X118215238Y-81721904D02*
X117062857Y-81721904D01*
X116853333Y-81617142D01*
X116748571Y-81407619D01*
X116748571Y-80988571D01*
X116853333Y-80779047D01*
X118110476Y-81721904D02*
X118215238Y-81512380D01*
X118215238Y-80988571D01*
X118110476Y-80779047D01*
X117900952Y-80674285D01*
X117691428Y-80674285D01*
X117481904Y-80779047D01*
X117377142Y-80988571D01*
X117377142Y-81512380D01*
X117272380Y-81721904D01*
X118110476Y-82874285D02*
X118215238Y-82874285D01*
X118424761Y-82769523D01*
X118529523Y-82664761D01*
X118215238Y-83817142D02*
X116015238Y-83817142D01*
X117377142Y-84026666D02*
X118215238Y-84655238D01*
X116748571Y-84655238D02*
X117586666Y-83817142D01*
X118215238Y-85912380D02*
X118110476Y-85702857D01*
X118005714Y-85598095D01*
X117796190Y-85493333D01*
X117167619Y-85493333D01*
X116958095Y-85598095D01*
X116853333Y-85702857D01*
X116748571Y-85912380D01*
X116748571Y-86226666D01*
X116853333Y-86436190D01*
X116958095Y-86540952D01*
X117167619Y-86645714D01*
X117796190Y-86645714D01*
X118005714Y-86540952D01*
X118110476Y-86436190D01*
X118215238Y-86226666D01*
X118215238Y-85912380D01*
X118110476Y-89160000D02*
X118215238Y-89369523D01*
X118215238Y-89788571D01*
X118110476Y-89998095D01*
X117900952Y-90102857D01*
X117796190Y-90102857D01*
X117586666Y-89998095D01*
X117481904Y-89788571D01*
X117481904Y-89474285D01*
X117377142Y-89264761D01*
X117167619Y-89160000D01*
X117062857Y-89160000D01*
X116853333Y-89264761D01*
X116748571Y-89474285D01*
X116748571Y-89788571D01*
X116853333Y-89998095D01*
X115910476Y-89160000D02*
X116224761Y-89579047D01*
X115910476Y-89998095D01*
X118215238Y-91360000D02*
X118110476Y-91150476D01*
X118005714Y-91045714D01*
X117796190Y-90940952D01*
X117167619Y-90940952D01*
X116958095Y-91045714D01*
X116853333Y-91150476D01*
X116748571Y-91360000D01*
X116748571Y-91674285D01*
X116853333Y-91883809D01*
X116958095Y-91988571D01*
X117167619Y-92093333D01*
X117796190Y-92093333D01*
X118005714Y-91988571D01*
X118110476Y-91883809D01*
X118215238Y-91674285D01*
X118215238Y-91360000D01*
X118215238Y-93979047D02*
X116015238Y-93979047D01*
X118110476Y-93979047D02*
X118215238Y-93769523D01*
X118215238Y-93350476D01*
X118110476Y-93140952D01*
X118005714Y-93036190D01*
X117796190Y-92931428D01*
X117167619Y-92931428D01*
X116958095Y-93036190D01*
X116853333Y-93140952D01*
X116748571Y-93350476D01*
X116748571Y-93769523D01*
X116853333Y-93979047D01*
X118215238Y-95026666D02*
X116748571Y-95026666D01*
X116015238Y-95026666D02*
X116120000Y-94921904D01*
X116224761Y-95026666D01*
X116120000Y-95131428D01*
X116015238Y-95026666D01*
X116224761Y-95026666D01*
X118110476Y-96912380D02*
X118215238Y-96702857D01*
X118215238Y-96283809D01*
X118110476Y-96074285D01*
X117900952Y-95969523D01*
X117062857Y-95969523D01*
X116853333Y-96074285D01*
X116748571Y-96283809D01*
X116748571Y-96702857D01*
X116853333Y-96912380D01*
X117062857Y-97017142D01*
X117272380Y-97017142D01*
X117481904Y-95969523D01*
X116748571Y-97960000D02*
X118215238Y-97960000D01*
X116958095Y-97960000D02*
X116853333Y-98064761D01*
X116748571Y-98274285D01*
X116748571Y-98588571D01*
X116853333Y-98798095D01*
X117062857Y-98902857D01*
X118215238Y-98902857D01*
X121710476Y-73812380D02*
X121815238Y-74021904D01*
X121815238Y-74440952D01*
X121710476Y-74650476D01*
X121500952Y-74755238D01*
X121396190Y-74755238D01*
X121186666Y-74650476D01*
X121081904Y-74440952D01*
X121081904Y-74126666D01*
X120977142Y-73917142D01*
X120767619Y-73812380D01*
X120662857Y-73812380D01*
X120453333Y-73917142D01*
X120348571Y-74126666D01*
X120348571Y-74440952D01*
X120453333Y-74650476D01*
X121815238Y-76640952D02*
X120662857Y-76640952D01*
X120453333Y-76536190D01*
X120348571Y-76326666D01*
X120348571Y-75907619D01*
X120453333Y-75698095D01*
X121710476Y-76640952D02*
X121815238Y-76431428D01*
X121815238Y-75907619D01*
X121710476Y-75698095D01*
X121500952Y-75593333D01*
X121291428Y-75593333D01*
X121081904Y-75698095D01*
X120977142Y-75907619D01*
X120977142Y-76431428D01*
X120872380Y-76640952D01*
X121815238Y-78002857D02*
X121710476Y-77793333D01*
X121500952Y-77688571D01*
X119615238Y-77688571D01*
X121815238Y-79155238D02*
X121710476Y-78945714D01*
X121605714Y-78840952D01*
X121396190Y-78736190D01*
X120767619Y-78736190D01*
X120558095Y-78840952D01*
X120453333Y-78945714D01*
X120348571Y-79155238D01*
X120348571Y-79469523D01*
X120453333Y-79679047D01*
X120558095Y-79783809D01*
X120767619Y-79888571D01*
X121396190Y-79888571D01*
X121605714Y-79783809D01*
X121710476Y-79679047D01*
X121815238Y-79469523D01*
X121815238Y-79155238D01*
X121815238Y-81774285D02*
X119615238Y-81774285D01*
X121710476Y-81774285D02*
X121815238Y-81564761D01*
X121815238Y-81145714D01*
X121710476Y-80936190D01*
X121605714Y-80831428D01*
X121396190Y-80726666D01*
X120767619Y-80726666D01*
X120558095Y-80831428D01*
X120453333Y-80936190D01*
X120348571Y-81145714D01*
X120348571Y-81564761D01*
X120453333Y-81774285D01*
X121710476Y-83660000D02*
X121815238Y-83450476D01*
X121815238Y-83031428D01*
X121710476Y-82821904D01*
X121500952Y-82717142D01*
X120662857Y-82717142D01*
X120453333Y-82821904D01*
X120348571Y-83031428D01*
X120348571Y-83450476D01*
X120453333Y-83660000D01*
X120662857Y-83764761D01*
X120872380Y-83764761D01*
X121081904Y-82717142D01*
X119720000Y-82717142D02*
X119720000Y-83764761D01*
X120348571Y-84707619D02*
X122234285Y-84707619D01*
X122443809Y-84602857D01*
X122548571Y-84393333D01*
X122548571Y-84288571D01*
X119615238Y-84707619D02*
X119720000Y-84602857D01*
X119824761Y-84707619D01*
X119720000Y-84812380D01*
X119615238Y-84707619D01*
X119824761Y-84707619D01*
X121815238Y-85755238D02*
X120348571Y-85755238D01*
X119615238Y-85755238D02*
X119720000Y-85650476D01*
X119824761Y-85755238D01*
X119720000Y-85860000D01*
X119615238Y-85755238D01*
X119824761Y-85755238D01*
X121605714Y-86802857D02*
X121710476Y-86907619D01*
X121815238Y-86802857D01*
X121710476Y-86698095D01*
X121605714Y-86802857D01*
X121815238Y-86802857D01*
D11*
G04 #@! TO.C,G\002A\002A\002A*
G36*
X125467536Y-96195464D02*
X125569518Y-96332764D01*
X125761522Y-96548753D01*
X126043906Y-96843841D01*
X126245932Y-97048083D01*
X127110429Y-97914125D01*
X126721286Y-97932420D01*
X126488375Y-97952710D01*
X126369439Y-97982140D01*
X126358453Y-98014716D01*
X126449391Y-98044445D01*
X126636225Y-98065334D01*
X126861309Y-98071667D01*
X127360238Y-98071667D01*
X127377604Y-97585064D01*
X127380947Y-97353126D01*
X127374383Y-97169946D01*
X127359331Y-97067282D01*
X127354049Y-97057542D01*
X127282934Y-97034493D01*
X127234503Y-97125011D01*
X127210987Y-97323451D01*
X127209048Y-97424307D01*
X127209048Y-97767665D01*
X126369026Y-96929252D01*
X126042459Y-96609383D01*
X125783632Y-96368962D01*
X125596115Y-96211085D01*
X125483480Y-96138852D01*
X125455220Y-96136440D01*
X125467536Y-96195464D01*
X125467536Y-96195464D01*
G37*
X125467536Y-96195464D02*
X125569518Y-96332764D01*
X125761522Y-96548753D01*
X126043906Y-96843841D01*
X126245932Y-97048083D01*
X127110429Y-97914125D01*
X126721286Y-97932420D01*
X126488375Y-97952710D01*
X126369439Y-97982140D01*
X126358453Y-98014716D01*
X126449391Y-98044445D01*
X126636225Y-98065334D01*
X126861309Y-98071667D01*
X127360238Y-98071667D01*
X127377604Y-97585064D01*
X127380947Y-97353126D01*
X127374383Y-97169946D01*
X127359331Y-97067282D01*
X127354049Y-97057542D01*
X127282934Y-97034493D01*
X127234503Y-97125011D01*
X127210987Y-97323451D01*
X127209048Y-97424307D01*
X127209048Y-97767665D01*
X126369026Y-96929252D01*
X126042459Y-96609383D01*
X125783632Y-96368962D01*
X125596115Y-96211085D01*
X125483480Y-96138852D01*
X125455220Y-96136440D01*
X125467536Y-96195464D01*
G36*
X125467536Y-94683559D02*
X125569518Y-94820860D01*
X125761522Y-95036848D01*
X126043906Y-95331936D01*
X126245932Y-95536178D01*
X127110429Y-96402220D01*
X126721286Y-96420515D01*
X126488375Y-96440805D01*
X126369439Y-96470235D01*
X126358453Y-96502811D01*
X126449391Y-96532540D01*
X126636225Y-96553430D01*
X126861309Y-96559762D01*
X127360238Y-96559762D01*
X127377604Y-96073159D01*
X127380947Y-95841221D01*
X127374383Y-95658041D01*
X127359331Y-95555377D01*
X127354049Y-95545637D01*
X127282934Y-95522588D01*
X127234503Y-95613106D01*
X127210987Y-95811547D01*
X127209048Y-95912402D01*
X127209048Y-96255761D01*
X126369026Y-95417347D01*
X126042459Y-95097479D01*
X125783632Y-94857057D01*
X125596115Y-94699181D01*
X125483480Y-94626947D01*
X125455220Y-94624535D01*
X125467536Y-94683559D01*
X125467536Y-94683559D01*
G37*
X125467536Y-94683559D02*
X125569518Y-94820860D01*
X125761522Y-95036848D01*
X126043906Y-95331936D01*
X126245932Y-95536178D01*
X127110429Y-96402220D01*
X126721286Y-96420515D01*
X126488375Y-96440805D01*
X126369439Y-96470235D01*
X126358453Y-96502811D01*
X126449391Y-96532540D01*
X126636225Y-96553430D01*
X126861309Y-96559762D01*
X127360238Y-96559762D01*
X127377604Y-96073159D01*
X127380947Y-95841221D01*
X127374383Y-95658041D01*
X127359331Y-95555377D01*
X127354049Y-95545637D01*
X127282934Y-95522588D01*
X127234503Y-95613106D01*
X127210987Y-95811547D01*
X127209048Y-95912402D01*
X127209048Y-96255761D01*
X126369026Y-95417347D01*
X126042459Y-95097479D01*
X125783632Y-94857057D01*
X125596115Y-94699181D01*
X125483480Y-94626947D01*
X125455220Y-94624535D01*
X125467536Y-94683559D01*
G36*
X126840271Y-93482928D02*
X127007786Y-93494902D01*
X127245683Y-93502917D01*
X127517676Y-93505714D01*
X128229479Y-93505714D01*
X128248430Y-93702262D01*
X128277638Y-93836142D01*
X128323317Y-93898270D01*
X128327857Y-93898810D01*
X128356127Y-93844016D01*
X128380408Y-93702331D01*
X128398877Y-93507792D01*
X128409712Y-93294441D01*
X128411091Y-93096318D01*
X128401191Y-92947464D01*
X128382145Y-92884684D01*
X128309902Y-92863441D01*
X128257807Y-92944789D01*
X128237158Y-93110694D01*
X128237143Y-93116188D01*
X128237143Y-93324286D01*
X127084474Y-93324286D01*
X127218917Y-93142442D01*
X127303410Y-92992626D01*
X127295026Y-92902265D01*
X127294969Y-92902208D01*
X127222402Y-92910615D01*
X127094295Y-93017085D01*
X126983770Y-93137310D01*
X126859406Y-93293231D01*
X126782165Y-93413060D01*
X126768417Y-93468259D01*
X126840271Y-93482928D01*
X126840271Y-93482928D01*
G37*
X126840271Y-93482928D02*
X127007786Y-93494902D01*
X127245683Y-93502917D01*
X127517676Y-93505714D01*
X128229479Y-93505714D01*
X128248430Y-93702262D01*
X128277638Y-93836142D01*
X128323317Y-93898270D01*
X128327857Y-93898810D01*
X128356127Y-93844016D01*
X128380408Y-93702331D01*
X128398877Y-93507792D01*
X128409712Y-93294441D01*
X128411091Y-93096318D01*
X128401191Y-92947464D01*
X128382145Y-92884684D01*
X128309902Y-92863441D01*
X128257807Y-92944789D01*
X128237158Y-93110694D01*
X128237143Y-93116188D01*
X128237143Y-93324286D01*
X127084474Y-93324286D01*
X127218917Y-93142442D01*
X127303410Y-92992626D01*
X127295026Y-92902265D01*
X127294969Y-92902208D01*
X127222402Y-92910615D01*
X127094295Y-93017085D01*
X126983770Y-93137310D01*
X126859406Y-93293231D01*
X126782165Y-93413060D01*
X126768417Y-93468259D01*
X126840271Y-93482928D01*
G36*
X126737777Y-91873298D02*
X126779070Y-91991480D01*
X126882233Y-92120066D01*
X126967310Y-92205640D01*
X127109030Y-92336756D01*
X127224432Y-92409147D01*
X127359716Y-92440202D01*
X127561086Y-92447304D01*
X127609704Y-92447381D01*
X127827437Y-92443115D01*
X127967273Y-92419555D01*
X128072226Y-92360554D01*
X128185312Y-92249968D01*
X128211552Y-92221483D01*
X128348095Y-92047010D01*
X128408581Y-91885584D01*
X128418571Y-91750895D01*
X128399798Y-91577019D01*
X128350183Y-91481697D01*
X128339622Y-91475908D01*
X128251402Y-91465598D01*
X128068545Y-91459621D01*
X127817304Y-91458394D01*
X127571905Y-91461689D01*
X127571905Y-91630952D01*
X127862347Y-91631732D01*
X128052892Y-91637192D01*
X128164595Y-91652009D01*
X128218510Y-91680862D01*
X128235694Y-91728429D01*
X128237143Y-91778771D01*
X128198436Y-91923771D01*
X128103966Y-92080851D01*
X128091189Y-92096271D01*
X127987808Y-92197129D01*
X127872954Y-92247967D01*
X127700819Y-92264984D01*
X127611350Y-92265952D01*
X127399501Y-92256012D01*
X127256212Y-92214428D01*
X127129903Y-92123558D01*
X127092066Y-92088328D01*
X126974373Y-91943705D01*
X126910535Y-91803044D01*
X126906667Y-91770828D01*
X126911142Y-91709750D01*
X126938601Y-91669678D01*
X127010090Y-91646187D01*
X127146655Y-91634852D01*
X127369344Y-91631247D01*
X127571905Y-91630952D01*
X127571905Y-91461689D01*
X127523929Y-91462334D01*
X127508074Y-91462687D01*
X126755476Y-91479762D01*
X126737611Y-91721830D01*
X126737777Y-91873298D01*
X126737777Y-91873298D01*
G37*
X126737777Y-91873298D02*
X126779070Y-91991480D01*
X126882233Y-92120066D01*
X126967310Y-92205640D01*
X127109030Y-92336756D01*
X127224432Y-92409147D01*
X127359716Y-92440202D01*
X127561086Y-92447304D01*
X127609704Y-92447381D01*
X127827437Y-92443115D01*
X127967273Y-92419555D01*
X128072226Y-92360554D01*
X128185312Y-92249968D01*
X128211552Y-92221483D01*
X128348095Y-92047010D01*
X128408581Y-91885584D01*
X128418571Y-91750895D01*
X128399798Y-91577019D01*
X128350183Y-91481697D01*
X128339622Y-91475908D01*
X128251402Y-91465598D01*
X128068545Y-91459621D01*
X127817304Y-91458394D01*
X127571905Y-91461689D01*
X127571905Y-91630952D01*
X127862347Y-91631732D01*
X128052892Y-91637192D01*
X128164595Y-91652009D01*
X128218510Y-91680862D01*
X128235694Y-91728429D01*
X128237143Y-91778771D01*
X128198436Y-91923771D01*
X128103966Y-92080851D01*
X128091189Y-92096271D01*
X127987808Y-92197129D01*
X127872954Y-92247967D01*
X127700819Y-92264984D01*
X127611350Y-92265952D01*
X127399501Y-92256012D01*
X127256212Y-92214428D01*
X127129903Y-92123558D01*
X127092066Y-92088328D01*
X126974373Y-91943705D01*
X126910535Y-91803044D01*
X126906667Y-91770828D01*
X126911142Y-91709750D01*
X126938601Y-91669678D01*
X127010090Y-91646187D01*
X127146655Y-91634852D01*
X127369344Y-91631247D01*
X127571905Y-91630952D01*
X127571905Y-91461689D01*
X127523929Y-91462334D01*
X127508074Y-91462687D01*
X126755476Y-91479762D01*
X126737611Y-91721830D01*
X126737777Y-91873298D01*
G36*
X126754834Y-81653813D02*
X126804301Y-81739350D01*
X126889329Y-81728823D01*
X127016123Y-81630128D01*
X127066446Y-81581300D01*
X127284686Y-81363060D01*
X127464798Y-81568197D01*
X127672464Y-81732717D01*
X127894837Y-81782467D01*
X128114812Y-81716679D01*
X128256066Y-81603715D01*
X128359773Y-81469723D01*
X128407821Y-81319119D01*
X128418571Y-81124225D01*
X128395157Y-80873608D01*
X128326974Y-80722907D01*
X128322981Y-80718764D01*
X128217207Y-80653504D01*
X128154384Y-80680207D01*
X128164689Y-80781022D01*
X128176503Y-80805409D01*
X128230076Y-80986929D01*
X128233726Y-81198848D01*
X128191218Y-81389458D01*
X128126547Y-81491817D01*
X127956924Y-81578899D01*
X127776847Y-81573258D01*
X127621445Y-81489104D01*
X127525845Y-81340648D01*
X127511428Y-81242974D01*
X127482717Y-81110328D01*
X127397311Y-81083881D01*
X127256303Y-81163577D01*
X127146089Y-81261710D01*
X126912620Y-81489686D01*
X126894524Y-81086676D01*
X126873721Y-80835693D01*
X126842993Y-80701874D01*
X126808044Y-80682447D01*
X126774572Y-80774637D01*
X126748281Y-80975672D01*
X126737758Y-81162948D01*
X126734721Y-81464311D01*
X126754834Y-81653813D01*
X126754834Y-81653813D01*
G37*
X126754834Y-81653813D02*
X126804301Y-81739350D01*
X126889329Y-81728823D01*
X127016123Y-81630128D01*
X127066446Y-81581300D01*
X127284686Y-81363060D01*
X127464798Y-81568197D01*
X127672464Y-81732717D01*
X127894837Y-81782467D01*
X128114812Y-81716679D01*
X128256066Y-81603715D01*
X128359773Y-81469723D01*
X128407821Y-81319119D01*
X128418571Y-81124225D01*
X128395157Y-80873608D01*
X128326974Y-80722907D01*
X128322981Y-80718764D01*
X128217207Y-80653504D01*
X128154384Y-80680207D01*
X128164689Y-80781022D01*
X128176503Y-80805409D01*
X128230076Y-80986929D01*
X128233726Y-81198848D01*
X128191218Y-81389458D01*
X128126547Y-81491817D01*
X127956924Y-81578899D01*
X127776847Y-81573258D01*
X127621445Y-81489104D01*
X127525845Y-81340648D01*
X127511428Y-81242974D01*
X127482717Y-81110328D01*
X127397311Y-81083881D01*
X127256303Y-81163577D01*
X127146089Y-81261710D01*
X126912620Y-81489686D01*
X126894524Y-81086676D01*
X126873721Y-80835693D01*
X126842993Y-80701874D01*
X126808044Y-80682447D01*
X126774572Y-80774637D01*
X126748281Y-80975672D01*
X126737758Y-81162948D01*
X126734721Y-81464311D01*
X126754834Y-81653813D01*
G36*
X126759929Y-79885673D02*
X126853493Y-80101234D01*
X126998028Y-80250997D01*
X127174020Y-80323156D01*
X127361959Y-80305907D01*
X127542331Y-80187446D01*
X127590408Y-80132513D01*
X127738629Y-79943120D01*
X128018632Y-80135768D01*
X128182152Y-80234793D01*
X128310483Y-80288311D01*
X128361540Y-80289538D01*
X128390303Y-80231785D01*
X128328156Y-80142571D01*
X128168229Y-80014599D01*
X127990590Y-79895589D01*
X127803347Y-79754861D01*
X127704251Y-79633829D01*
X127692857Y-79589886D01*
X127709405Y-79523067D01*
X127777915Y-79488432D01*
X127926683Y-79476123D01*
X128021907Y-79475238D01*
X128220872Y-79461973D01*
X128356581Y-79427894D01*
X128411087Y-79381570D01*
X128366444Y-79331575D01*
X128343455Y-79321665D01*
X128253683Y-79310785D01*
X128069444Y-79304344D01*
X127817153Y-79302806D01*
X127523231Y-79306636D01*
X127508074Y-79306973D01*
X127209048Y-79313757D01*
X127209048Y-79475238D01*
X127511428Y-79475238D01*
X127511428Y-79690881D01*
X127494024Y-79872229D01*
X127451831Y-80017634D01*
X127448824Y-80023500D01*
X127339448Y-80120110D01*
X127190725Y-80131189D01*
X127047068Y-80058465D01*
X127000810Y-80006068D01*
X126932915Y-79847885D01*
X126906667Y-79673448D01*
X126912079Y-79556145D01*
X126949135Y-79497655D01*
X127049065Y-79477507D01*
X127209048Y-79475238D01*
X127209048Y-79313757D01*
X126755476Y-79324048D01*
X126736847Y-79616118D01*
X126759929Y-79885673D01*
X126759929Y-79885673D01*
G37*
X126759929Y-79885673D02*
X126853493Y-80101234D01*
X126998028Y-80250997D01*
X127174020Y-80323156D01*
X127361959Y-80305907D01*
X127542331Y-80187446D01*
X127590408Y-80132513D01*
X127738629Y-79943120D01*
X128018632Y-80135768D01*
X128182152Y-80234793D01*
X128310483Y-80288311D01*
X128361540Y-80289538D01*
X128390303Y-80231785D01*
X128328156Y-80142571D01*
X128168229Y-80014599D01*
X127990590Y-79895589D01*
X127803347Y-79754861D01*
X127704251Y-79633829D01*
X127692857Y-79589886D01*
X127709405Y-79523067D01*
X127777915Y-79488432D01*
X127926683Y-79476123D01*
X128021907Y-79475238D01*
X128220872Y-79461973D01*
X128356581Y-79427894D01*
X128411087Y-79381570D01*
X128366444Y-79331575D01*
X128343455Y-79321665D01*
X128253683Y-79310785D01*
X128069444Y-79304344D01*
X127817153Y-79302806D01*
X127523231Y-79306636D01*
X127508074Y-79306973D01*
X127209048Y-79313757D01*
X127209048Y-79475238D01*
X127511428Y-79475238D01*
X127511428Y-79690881D01*
X127494024Y-79872229D01*
X127451831Y-80017634D01*
X127448824Y-80023500D01*
X127339448Y-80120110D01*
X127190725Y-80131189D01*
X127047068Y-80058465D01*
X127000810Y-80006068D01*
X126932915Y-79847885D01*
X126906667Y-79673448D01*
X126912079Y-79556145D01*
X126949135Y-79497655D01*
X127049065Y-79477507D01*
X127209048Y-79475238D01*
X127209048Y-79313757D01*
X126755476Y-79324048D01*
X126736847Y-79616118D01*
X126759929Y-79885673D01*
G36*
X129864080Y-79875785D02*
X130031596Y-79887759D01*
X130269492Y-79895774D01*
X130541486Y-79898571D01*
X131253289Y-79898571D01*
X131272240Y-80095119D01*
X131301447Y-80229000D01*
X131347127Y-80291127D01*
X131351667Y-80291667D01*
X131379937Y-80236874D01*
X131404218Y-80095188D01*
X131422687Y-79900649D01*
X131433522Y-79687299D01*
X131434900Y-79489176D01*
X131425000Y-79340321D01*
X131405954Y-79277542D01*
X131333711Y-79256298D01*
X131281617Y-79337646D01*
X131260968Y-79503551D01*
X131260952Y-79509045D01*
X131260952Y-79717143D01*
X130108284Y-79717143D01*
X130242727Y-79535299D01*
X130327220Y-79385483D01*
X130318836Y-79295122D01*
X130318779Y-79295065D01*
X130246212Y-79303472D01*
X130118105Y-79409942D01*
X130007580Y-79530167D01*
X129883215Y-79686088D01*
X129805974Y-79805917D01*
X129792227Y-79861116D01*
X129864080Y-79875785D01*
X129864080Y-79875785D01*
G37*
X129864080Y-79875785D02*
X130031596Y-79887759D01*
X130269492Y-79895774D01*
X130541486Y-79898571D01*
X131253289Y-79898571D01*
X131272240Y-80095119D01*
X131301447Y-80229000D01*
X131347127Y-80291127D01*
X131351667Y-80291667D01*
X131379937Y-80236874D01*
X131404218Y-80095188D01*
X131422687Y-79900649D01*
X131433522Y-79687299D01*
X131434900Y-79489176D01*
X131425000Y-79340321D01*
X131405954Y-79277542D01*
X131333711Y-79256298D01*
X131281617Y-79337646D01*
X131260968Y-79503551D01*
X131260952Y-79509045D01*
X131260952Y-79717143D01*
X130108284Y-79717143D01*
X130242727Y-79535299D01*
X130327220Y-79385483D01*
X130318836Y-79295122D01*
X130318779Y-79295065D01*
X130246212Y-79303472D01*
X130118105Y-79409942D01*
X130007580Y-79530167D01*
X129883215Y-79686088D01*
X129805974Y-79805917D01*
X129792227Y-79861116D01*
X129864080Y-79875785D01*
G36*
X129783738Y-78434245D02*
X129877303Y-78649806D01*
X130021837Y-78799568D01*
X130197830Y-78871728D01*
X130385768Y-78854479D01*
X130566140Y-78736017D01*
X130614217Y-78681084D01*
X130762439Y-78491692D01*
X131042442Y-78684339D01*
X131205962Y-78783365D01*
X131334293Y-78836882D01*
X131385350Y-78838109D01*
X131414113Y-78780357D01*
X131351966Y-78691143D01*
X131192039Y-78563170D01*
X131014399Y-78444160D01*
X130827157Y-78303433D01*
X130728060Y-78182401D01*
X130716667Y-78138458D01*
X130733215Y-78071638D01*
X130801724Y-78037003D01*
X130950493Y-78024694D01*
X131045716Y-78023810D01*
X131244682Y-78010545D01*
X131380391Y-77976465D01*
X131434897Y-77930142D01*
X131390254Y-77880146D01*
X131367264Y-77870236D01*
X131277493Y-77859357D01*
X131093253Y-77852916D01*
X130840963Y-77851378D01*
X130547040Y-77855207D01*
X130531883Y-77855544D01*
X130232857Y-77862328D01*
X130232857Y-78023810D01*
X130535238Y-78023810D01*
X130535238Y-78239452D01*
X130517833Y-78420801D01*
X130475641Y-78566205D01*
X130472634Y-78572071D01*
X130363257Y-78668682D01*
X130214534Y-78679761D01*
X130070877Y-78607037D01*
X130024620Y-78554639D01*
X129956724Y-78396456D01*
X129930476Y-78222020D01*
X129935888Y-78104716D01*
X129972945Y-78046226D01*
X130072874Y-78026078D01*
X130232857Y-78023810D01*
X130232857Y-77862328D01*
X129779286Y-77872619D01*
X129760657Y-78164690D01*
X129783738Y-78434245D01*
X129783738Y-78434245D01*
G37*
X129783738Y-78434245D02*
X129877303Y-78649806D01*
X130021837Y-78799568D01*
X130197830Y-78871728D01*
X130385768Y-78854479D01*
X130566140Y-78736017D01*
X130614217Y-78681084D01*
X130762439Y-78491692D01*
X131042442Y-78684339D01*
X131205962Y-78783365D01*
X131334293Y-78836882D01*
X131385350Y-78838109D01*
X131414113Y-78780357D01*
X131351966Y-78691143D01*
X131192039Y-78563170D01*
X131014399Y-78444160D01*
X130827157Y-78303433D01*
X130728060Y-78182401D01*
X130716667Y-78138458D01*
X130733215Y-78071638D01*
X130801724Y-78037003D01*
X130950493Y-78024694D01*
X131045716Y-78023810D01*
X131244682Y-78010545D01*
X131380391Y-77976465D01*
X131434897Y-77930142D01*
X131390254Y-77880146D01*
X131367264Y-77870236D01*
X131277493Y-77859357D01*
X131093253Y-77852916D01*
X130840963Y-77851378D01*
X130547040Y-77855207D01*
X130531883Y-77855544D01*
X130232857Y-77862328D01*
X130232857Y-78023810D01*
X130535238Y-78023810D01*
X130535238Y-78239452D01*
X130517833Y-78420801D01*
X130475641Y-78566205D01*
X130472634Y-78572071D01*
X130363257Y-78668682D01*
X130214534Y-78679761D01*
X130070877Y-78607037D01*
X130024620Y-78554639D01*
X129956724Y-78396456D01*
X129930476Y-78222020D01*
X129935888Y-78104716D01*
X129972945Y-78046226D01*
X130072874Y-78026078D01*
X130232857Y-78023810D01*
X130232857Y-77862328D01*
X129779286Y-77872619D01*
X129760657Y-78164690D01*
X129783738Y-78434245D01*
G36*
X132307052Y-94817480D02*
X132436913Y-94845763D01*
X132634524Y-94863380D01*
X132772857Y-94866429D01*
X133005829Y-94857346D01*
X133171797Y-94834093D01*
X133259042Y-94802657D01*
X133255845Y-94769027D01*
X133150485Y-94739194D01*
X133046263Y-94726707D01*
X132833333Y-94707937D01*
X132833333Y-93562569D01*
X133015177Y-93697012D01*
X133164993Y-93781505D01*
X133255354Y-93773122D01*
X133255411Y-93773065D01*
X133247004Y-93700498D01*
X133140534Y-93572390D01*
X133020309Y-93461866D01*
X132864388Y-93337501D01*
X132744559Y-93260260D01*
X132689360Y-93246513D01*
X132674691Y-93318366D01*
X132662717Y-93485882D01*
X132654702Y-93723778D01*
X132651905Y-93995772D01*
X132651905Y-94707575D01*
X132455357Y-94726525D01*
X132303135Y-94752072D01*
X132258080Y-94784320D01*
X132307052Y-94817480D01*
X132307052Y-94817480D01*
G37*
X132307052Y-94817480D02*
X132436913Y-94845763D01*
X132634524Y-94863380D01*
X132772857Y-94866429D01*
X133005829Y-94857346D01*
X133171797Y-94834093D01*
X133259042Y-94802657D01*
X133255845Y-94769027D01*
X133150485Y-94739194D01*
X133046263Y-94726707D01*
X132833333Y-94707937D01*
X132833333Y-93562569D01*
X133015177Y-93697012D01*
X133164993Y-93781505D01*
X133255354Y-93773122D01*
X133255411Y-93773065D01*
X133247004Y-93700498D01*
X133140534Y-93572390D01*
X133020309Y-93461866D01*
X132864388Y-93337501D01*
X132744559Y-93260260D01*
X132689360Y-93246513D01*
X132674691Y-93318366D01*
X132662717Y-93485882D01*
X132654702Y-93723778D01*
X132651905Y-93995772D01*
X132651905Y-94707575D01*
X132455357Y-94726525D01*
X132303135Y-94752072D01*
X132258080Y-94784320D01*
X132307052Y-94817480D01*
G36*
X132761141Y-85711210D02*
X132884654Y-85709015D01*
X133078962Y-85668054D01*
X133255545Y-85613953D01*
X133473227Y-85541964D01*
X133646391Y-85488493D01*
X133743438Y-85463206D01*
X133751069Y-85462381D01*
X133782508Y-85516004D01*
X133799798Y-85649723D01*
X133800952Y-85700635D01*
X133793672Y-85854711D01*
X133749471Y-85925898D01*
X133634804Y-85952210D01*
X133574167Y-85957659D01*
X133407005Y-85990305D01*
X133353925Y-86039506D01*
X133415612Y-86087766D01*
X133567971Y-86115781D01*
X133734345Y-86151493D01*
X133812737Y-86232910D01*
X133820924Y-86257938D01*
X133876524Y-86337186D01*
X133945232Y-86322308D01*
X133982146Y-86225312D01*
X133982381Y-86214764D01*
X134034778Y-86148583D01*
X134190478Y-86127619D01*
X134357444Y-86108113D01*
X134442444Y-86057372D01*
X134426379Y-85987060D01*
X134424229Y-85984864D01*
X134342474Y-85958338D01*
X134196228Y-85946261D01*
X134183968Y-85946191D01*
X133982381Y-85946191D01*
X133982381Y-85617141D01*
X133971836Y-85427540D01*
X133944725Y-85291320D01*
X133920435Y-85249806D01*
X133839753Y-85251427D01*
X133678073Y-85286146D01*
X133467445Y-85344047D01*
X133239918Y-85415216D01*
X133027541Y-85489738D01*
X132862363Y-85557699D01*
X132785413Y-85600939D01*
X132723152Y-85675049D01*
X132761141Y-85711210D01*
X132761141Y-85711210D01*
G37*
X132761141Y-85711210D02*
X132884654Y-85709015D01*
X133078962Y-85668054D01*
X133255545Y-85613953D01*
X133473227Y-85541964D01*
X133646391Y-85488493D01*
X133743438Y-85463206D01*
X133751069Y-85462381D01*
X133782508Y-85516004D01*
X133799798Y-85649723D01*
X133800952Y-85700635D01*
X133793672Y-85854711D01*
X133749471Y-85925898D01*
X133634804Y-85952210D01*
X133574167Y-85957659D01*
X133407005Y-85990305D01*
X133353925Y-86039506D01*
X133415612Y-86087766D01*
X133567971Y-86115781D01*
X133734345Y-86151493D01*
X133812737Y-86232910D01*
X133820924Y-86257938D01*
X133876524Y-86337186D01*
X133945232Y-86322308D01*
X133982146Y-86225312D01*
X133982381Y-86214764D01*
X134034778Y-86148583D01*
X134190478Y-86127619D01*
X134357444Y-86108113D01*
X134442444Y-86057372D01*
X134426379Y-85987060D01*
X134424229Y-85984864D01*
X134342474Y-85958338D01*
X134196228Y-85946261D01*
X134183968Y-85946191D01*
X133982381Y-85946191D01*
X133982381Y-85617141D01*
X133971836Y-85427540D01*
X133944725Y-85291320D01*
X133920435Y-85249806D01*
X133839753Y-85251427D01*
X133678073Y-85286146D01*
X133467445Y-85344047D01*
X133239918Y-85415216D01*
X133027541Y-85489738D01*
X132862363Y-85557699D01*
X132785413Y-85600939D01*
X132723152Y-85675049D01*
X132761141Y-85711210D01*
G36*
X132807548Y-84421388D02*
X132901112Y-84636949D01*
X133045647Y-84786711D01*
X133221640Y-84858870D01*
X133409578Y-84841622D01*
X133589950Y-84723160D01*
X133638027Y-84668227D01*
X133786248Y-84478835D01*
X134066251Y-84671482D01*
X134229771Y-84770508D01*
X134358102Y-84824025D01*
X134409159Y-84825252D01*
X134437922Y-84767500D01*
X134375776Y-84678286D01*
X134215848Y-84550313D01*
X134038209Y-84431303D01*
X133850966Y-84290575D01*
X133751870Y-84169544D01*
X133740476Y-84125600D01*
X133757024Y-84058781D01*
X133825534Y-84024146D01*
X133974302Y-84011837D01*
X134069526Y-84010952D01*
X134268491Y-83997688D01*
X134404200Y-83963608D01*
X134458706Y-83917285D01*
X134414063Y-83867289D01*
X134391074Y-83857379D01*
X134301303Y-83846500D01*
X134117063Y-83840059D01*
X133864772Y-83838520D01*
X133570850Y-83842350D01*
X133555693Y-83842687D01*
X133256667Y-83849471D01*
X133256667Y-84010952D01*
X133559048Y-84010952D01*
X133559048Y-84226595D01*
X133541643Y-84407944D01*
X133499450Y-84553348D01*
X133496444Y-84559214D01*
X133387067Y-84655824D01*
X133238344Y-84666904D01*
X133094687Y-84594180D01*
X133048429Y-84541782D01*
X132980534Y-84383599D01*
X132954286Y-84209163D01*
X132959698Y-84091859D01*
X132996754Y-84033369D01*
X133096684Y-84013221D01*
X133256667Y-84010952D01*
X133256667Y-83849471D01*
X132803095Y-83859762D01*
X132784466Y-84151833D01*
X132807548Y-84421388D01*
X132807548Y-84421388D01*
G37*
X132807548Y-84421388D02*
X132901112Y-84636949D01*
X133045647Y-84786711D01*
X133221640Y-84858870D01*
X133409578Y-84841622D01*
X133589950Y-84723160D01*
X133638027Y-84668227D01*
X133786248Y-84478835D01*
X134066251Y-84671482D01*
X134229771Y-84770508D01*
X134358102Y-84824025D01*
X134409159Y-84825252D01*
X134437922Y-84767500D01*
X134375776Y-84678286D01*
X134215848Y-84550313D01*
X134038209Y-84431303D01*
X133850966Y-84290575D01*
X133751870Y-84169544D01*
X133740476Y-84125600D01*
X133757024Y-84058781D01*
X133825534Y-84024146D01*
X133974302Y-84011837D01*
X134069526Y-84010952D01*
X134268491Y-83997688D01*
X134404200Y-83963608D01*
X134458706Y-83917285D01*
X134414063Y-83867289D01*
X134391074Y-83857379D01*
X134301303Y-83846500D01*
X134117063Y-83840059D01*
X133864772Y-83838520D01*
X133570850Y-83842350D01*
X133555693Y-83842687D01*
X133256667Y-83849471D01*
X133256667Y-84010952D01*
X133559048Y-84010952D01*
X133559048Y-84226595D01*
X133541643Y-84407944D01*
X133499450Y-84553348D01*
X133496444Y-84559214D01*
X133387067Y-84655824D01*
X133238344Y-84666904D01*
X133094687Y-84594180D01*
X133048429Y-84541782D01*
X132980534Y-84383599D01*
X132954286Y-84209163D01*
X132959698Y-84091859D01*
X132996754Y-84033369D01*
X133096684Y-84013221D01*
X133256667Y-84010952D01*
X133256667Y-83849471D01*
X132803095Y-83859762D01*
X132784466Y-84151833D01*
X132807548Y-84421388D01*
G36*
X133677142Y-95038952D02*
X133767319Y-95051339D01*
X133862891Y-94986057D01*
X134012849Y-94904382D01*
X134229119Y-94887643D01*
X134249312Y-94888746D01*
X134456453Y-94880076D01*
X134614791Y-94809713D01*
X134684159Y-94755396D01*
X134771714Y-94670444D01*
X134825742Y-94578830D01*
X134856381Y-94447504D01*
X134873769Y-94243416D01*
X134880079Y-94116667D01*
X134902300Y-93627348D01*
X134690293Y-93415340D01*
X134471845Y-93248129D01*
X134337290Y-93217127D01*
X134337290Y-93387302D01*
X134515778Y-93473660D01*
X134582753Y-93544108D01*
X134664686Y-93722013D01*
X134706707Y-93968030D01*
X134705502Y-94234985D01*
X134657759Y-94475708D01*
X134649758Y-94497945D01*
X134549493Y-94631106D01*
X134440686Y-94689216D01*
X134278470Y-94714162D01*
X134216280Y-94691311D01*
X134261360Y-94632110D01*
X134366695Y-94572268D01*
X134497278Y-94494386D01*
X134556593Y-94426355D01*
X134554739Y-94409354D01*
X134457393Y-94355283D01*
X134300745Y-94393242D01*
X134154544Y-94479931D01*
X134027676Y-94553481D01*
X133943488Y-94572004D01*
X133935335Y-94567399D01*
X133911831Y-94490644D01*
X133889129Y-94328529D01*
X133872559Y-94122349D01*
X133865936Y-93888794D01*
X133883323Y-93734612D01*
X133932403Y-93619331D01*
X133980989Y-93551071D01*
X134150639Y-93413203D01*
X134337290Y-93387302D01*
X134337290Y-93217127D01*
X134263384Y-93200098D01*
X134054745Y-93271167D01*
X133885619Y-93408952D01*
X133775805Y-93527416D01*
X133714189Y-93633544D01*
X133686990Y-93768962D01*
X133680423Y-93975297D01*
X133680372Y-94028833D01*
X133693590Y-94281144D01*
X133728215Y-94495269D01*
X133765337Y-94605235D01*
X133816309Y-94729140D01*
X133793036Y-94811837D01*
X133733297Y-94872925D01*
X133657720Y-94979446D01*
X133677142Y-95038952D01*
X133677142Y-95038952D01*
G37*
X133677142Y-95038952D02*
X133767319Y-95051339D01*
X133862891Y-94986057D01*
X134012849Y-94904382D01*
X134229119Y-94887643D01*
X134249312Y-94888746D01*
X134456453Y-94880076D01*
X134614791Y-94809713D01*
X134684159Y-94755396D01*
X134771714Y-94670444D01*
X134825742Y-94578830D01*
X134856381Y-94447504D01*
X134873769Y-94243416D01*
X134880079Y-94116667D01*
X134902300Y-93627348D01*
X134690293Y-93415340D01*
X134471845Y-93248129D01*
X134337290Y-93217127D01*
X134337290Y-93387302D01*
X134515778Y-93473660D01*
X134582753Y-93544108D01*
X134664686Y-93722013D01*
X134706707Y-93968030D01*
X134705502Y-94234985D01*
X134657759Y-94475708D01*
X134649758Y-94497945D01*
X134549493Y-94631106D01*
X134440686Y-94689216D01*
X134278470Y-94714162D01*
X134216280Y-94691311D01*
X134261360Y-94632110D01*
X134366695Y-94572268D01*
X134497278Y-94494386D01*
X134556593Y-94426355D01*
X134554739Y-94409354D01*
X134457393Y-94355283D01*
X134300745Y-94393242D01*
X134154544Y-94479931D01*
X134027676Y-94553481D01*
X133943488Y-94572004D01*
X133935335Y-94567399D01*
X133911831Y-94490644D01*
X133889129Y-94328529D01*
X133872559Y-94122349D01*
X133865936Y-93888794D01*
X133883323Y-93734612D01*
X133932403Y-93619331D01*
X133980989Y-93551071D01*
X134150639Y-93413203D01*
X134337290Y-93387302D01*
X134337290Y-93217127D01*
X134263384Y-93200098D01*
X134054745Y-93271167D01*
X133885619Y-93408952D01*
X133775805Y-93527416D01*
X133714189Y-93633544D01*
X133686990Y-93768962D01*
X133680423Y-93975297D01*
X133680372Y-94028833D01*
X133693590Y-94281144D01*
X133728215Y-94495269D01*
X133765337Y-94605235D01*
X133816309Y-94729140D01*
X133793036Y-94811837D01*
X133733297Y-94872925D01*
X133657720Y-94979446D01*
X133677142Y-95038952D01*
G36*
X136859320Y-94608662D02*
X136953669Y-94787413D01*
X136973203Y-94808701D01*
X137129423Y-94928569D01*
X137288500Y-94964710D01*
X137466863Y-94912740D01*
X137680945Y-94768276D01*
X137916147Y-94557086D01*
X138330534Y-94157030D01*
X138348719Y-94541967D01*
X138366728Y-94739846D01*
X138395910Y-94878759D01*
X138427381Y-94926905D01*
X138460759Y-94872161D01*
X138485842Y-94730413D01*
X138501704Y-94535384D01*
X138507421Y-94320795D01*
X138502065Y-94120371D01*
X138484713Y-93967835D01*
X138455636Y-93897584D01*
X138386277Y-93920055D01*
X138251640Y-94015960D01*
X138069918Y-94171200D01*
X137915930Y-94315887D01*
X137665140Y-94548874D01*
X137474829Y-94695279D01*
X137329031Y-94762250D01*
X137211782Y-94756935D01*
X137107114Y-94686484D01*
X137101224Y-94680680D01*
X137027310Y-94534872D01*
X137009461Y-94336852D01*
X137051095Y-94143301D01*
X137066830Y-94110171D01*
X137093335Y-93998022D01*
X137041335Y-93956804D01*
X136941005Y-94004368D01*
X136920352Y-94023526D01*
X136839480Y-94179449D01*
X136820196Y-94390250D01*
X136859320Y-94608662D01*
X136859320Y-94608662D01*
G37*
X136859320Y-94608662D02*
X136953669Y-94787413D01*
X136973203Y-94808701D01*
X137129423Y-94928569D01*
X137288500Y-94964710D01*
X137466863Y-94912740D01*
X137680945Y-94768276D01*
X137916147Y-94557086D01*
X138330534Y-94157030D01*
X138348719Y-94541967D01*
X138366728Y-94739846D01*
X138395910Y-94878759D01*
X138427381Y-94926905D01*
X138460759Y-94872161D01*
X138485842Y-94730413D01*
X138501704Y-94535384D01*
X138507421Y-94320795D01*
X138502065Y-94120371D01*
X138484713Y-93967835D01*
X138455636Y-93897584D01*
X138386277Y-93920055D01*
X138251640Y-94015960D01*
X138069918Y-94171200D01*
X137915930Y-94315887D01*
X137665140Y-94548874D01*
X137474829Y-94695279D01*
X137329031Y-94762250D01*
X137211782Y-94756935D01*
X137107114Y-94686484D01*
X137101224Y-94680680D01*
X137027310Y-94534872D01*
X137009461Y-94336852D01*
X137051095Y-94143301D01*
X137066830Y-94110171D01*
X137093335Y-93998022D01*
X137041335Y-93956804D01*
X136941005Y-94004368D01*
X136920352Y-94023526D01*
X136839480Y-94179449D01*
X136820196Y-94390250D01*
X136859320Y-94608662D01*
G36*
X141932369Y-79994783D02*
X142043712Y-80128613D01*
X142187480Y-80246014D01*
X142315266Y-80314602D01*
X142352539Y-80321905D01*
X142440077Y-80281665D01*
X142588419Y-80173200D01*
X142773935Y-80014893D01*
X142906133Y-79891193D01*
X143350328Y-79460482D01*
X143368378Y-79876074D01*
X143385739Y-80088403D01*
X143413734Y-80230481D01*
X143446905Y-80276914D01*
X143480216Y-80213155D01*
X143505205Y-80062707D01*
X143520984Y-79859604D01*
X143526666Y-79637881D01*
X143521364Y-79431572D01*
X143504190Y-79274711D01*
X143474934Y-79201730D01*
X143406167Y-79224765D01*
X143271196Y-79321819D01*
X143087238Y-79479330D01*
X142905518Y-79650322D01*
X142702762Y-79843664D01*
X142528806Y-80001057D01*
X142402976Y-80105572D01*
X142346026Y-80140476D01*
X142246244Y-80091113D01*
X142137573Y-79972293D01*
X142053300Y-79827920D01*
X142025714Y-79718007D01*
X142065974Y-79557939D01*
X142122353Y-79468692D01*
X142192366Y-79350953D01*
X142170982Y-79285749D01*
X142083447Y-79293620D01*
X141989096Y-79360279D01*
X141861687Y-79552453D01*
X141843304Y-79771359D01*
X141932369Y-79994783D01*
X141932369Y-79994783D01*
G37*
X141932369Y-79994783D02*
X142043712Y-80128613D01*
X142187480Y-80246014D01*
X142315266Y-80314602D01*
X142352539Y-80321905D01*
X142440077Y-80281665D01*
X142588419Y-80173200D01*
X142773935Y-80014893D01*
X142906133Y-79891193D01*
X143350328Y-79460482D01*
X143368378Y-79876074D01*
X143385739Y-80088403D01*
X143413734Y-80230481D01*
X143446905Y-80276914D01*
X143480216Y-80213155D01*
X143505205Y-80062707D01*
X143520984Y-79859604D01*
X143526666Y-79637881D01*
X143521364Y-79431572D01*
X143504190Y-79274711D01*
X143474934Y-79201730D01*
X143406167Y-79224765D01*
X143271196Y-79321819D01*
X143087238Y-79479330D01*
X142905518Y-79650322D01*
X142702762Y-79843664D01*
X142528806Y-80001057D01*
X142402976Y-80105572D01*
X142346026Y-80140476D01*
X142246244Y-80091113D01*
X142137573Y-79972293D01*
X142053300Y-79827920D01*
X142025714Y-79718007D01*
X142065974Y-79557939D01*
X142122353Y-79468692D01*
X142192366Y-79350953D01*
X142170982Y-79285749D01*
X142083447Y-79293620D01*
X141989096Y-79360279D01*
X141861687Y-79552453D01*
X141843304Y-79771359D01*
X141932369Y-79994783D01*
G36*
X141878976Y-78434245D02*
X141972541Y-78649806D01*
X142117075Y-78799568D01*
X142293068Y-78871728D01*
X142481007Y-78854479D01*
X142661378Y-78736017D01*
X142709455Y-78681084D01*
X142857677Y-78491692D01*
X143137680Y-78684339D01*
X143301200Y-78783365D01*
X143429531Y-78836882D01*
X143480588Y-78838109D01*
X143509351Y-78780357D01*
X143447204Y-78691143D01*
X143287277Y-78563170D01*
X143109637Y-78444160D01*
X142922395Y-78303433D01*
X142823298Y-78182401D01*
X142811905Y-78138458D01*
X142828453Y-78071638D01*
X142896962Y-78037003D01*
X143045731Y-78024694D01*
X143140955Y-78023810D01*
X143339920Y-78010545D01*
X143475629Y-77976465D01*
X143530135Y-77930142D01*
X143485492Y-77880146D01*
X143462502Y-77870236D01*
X143372731Y-77859357D01*
X143188491Y-77852916D01*
X142936201Y-77851378D01*
X142642278Y-77855207D01*
X142627122Y-77855544D01*
X142328095Y-77862328D01*
X142328095Y-78023810D01*
X142630476Y-78023810D01*
X142630476Y-78239452D01*
X142613071Y-78420801D01*
X142570879Y-78566205D01*
X142567872Y-78572071D01*
X142458495Y-78668682D01*
X142309773Y-78679761D01*
X142166115Y-78607037D01*
X142119858Y-78554639D01*
X142051962Y-78396456D01*
X142025714Y-78222020D01*
X142031127Y-78104716D01*
X142068183Y-78046226D01*
X142168112Y-78026078D01*
X142328095Y-78023810D01*
X142328095Y-77862328D01*
X141874524Y-77872619D01*
X141855895Y-78164690D01*
X141878976Y-78434245D01*
X141878976Y-78434245D01*
G37*
X141878976Y-78434245D02*
X141972541Y-78649806D01*
X142117075Y-78799568D01*
X142293068Y-78871728D01*
X142481007Y-78854479D01*
X142661378Y-78736017D01*
X142709455Y-78681084D01*
X142857677Y-78491692D01*
X143137680Y-78684339D01*
X143301200Y-78783365D01*
X143429531Y-78836882D01*
X143480588Y-78838109D01*
X143509351Y-78780357D01*
X143447204Y-78691143D01*
X143287277Y-78563170D01*
X143109637Y-78444160D01*
X142922395Y-78303433D01*
X142823298Y-78182401D01*
X142811905Y-78138458D01*
X142828453Y-78071638D01*
X142896962Y-78037003D01*
X143045731Y-78024694D01*
X143140955Y-78023810D01*
X143339920Y-78010545D01*
X143475629Y-77976465D01*
X143530135Y-77930142D01*
X143485492Y-77880146D01*
X143462502Y-77870236D01*
X143372731Y-77859357D01*
X143188491Y-77852916D01*
X142936201Y-77851378D01*
X142642278Y-77855207D01*
X142627122Y-77855544D01*
X142328095Y-77862328D01*
X142328095Y-78023810D01*
X142630476Y-78023810D01*
X142630476Y-78239452D01*
X142613071Y-78420801D01*
X142570879Y-78566205D01*
X142567872Y-78572071D01*
X142458495Y-78668682D01*
X142309773Y-78679761D01*
X142166115Y-78607037D01*
X142119858Y-78554639D01*
X142051962Y-78396456D01*
X142025714Y-78222020D01*
X142031127Y-78104716D01*
X142068183Y-78046226D01*
X142168112Y-78026078D01*
X142328095Y-78023810D01*
X142328095Y-77862328D01*
X141874524Y-77872619D01*
X141855895Y-78164690D01*
X141878976Y-78434245D01*
G36*
X124835189Y-69949677D02*
X125000494Y-69965756D01*
X125237003Y-69976580D01*
X125515452Y-69980476D01*
X126233765Y-69980476D01*
X126252716Y-70177024D01*
X126281923Y-70310904D01*
X126327603Y-70373032D01*
X126332143Y-70373571D01*
X126361282Y-70318956D01*
X126386091Y-70178505D01*
X126404568Y-69987315D01*
X126414712Y-69780481D01*
X126414522Y-69593098D01*
X126401999Y-69460262D01*
X126386504Y-69419997D01*
X126313711Y-69399556D01*
X126260256Y-69478596D01*
X126241428Y-69621188D01*
X126241428Y-69799048D01*
X125071297Y-69799048D01*
X125209127Y-69652334D01*
X125291833Y-69532683D01*
X125305962Y-69440107D01*
X125303318Y-69435010D01*
X125235654Y-69430086D01*
X125101053Y-69525471D01*
X124997223Y-69621980D01*
X124863831Y-69765104D01*
X124780973Y-69878173D01*
X124765953Y-69930018D01*
X124835189Y-69949677D01*
X124835189Y-69949677D01*
G37*
X124835189Y-69949677D02*
X125000494Y-69965756D01*
X125237003Y-69976580D01*
X125515452Y-69980476D01*
X126233765Y-69980476D01*
X126252716Y-70177024D01*
X126281923Y-70310904D01*
X126327603Y-70373032D01*
X126332143Y-70373571D01*
X126361282Y-70318956D01*
X126386091Y-70178505D01*
X126404568Y-69987315D01*
X126414712Y-69780481D01*
X126414522Y-69593098D01*
X126401999Y-69460262D01*
X126386504Y-69419997D01*
X126313711Y-69399556D01*
X126260256Y-69478596D01*
X126241428Y-69621188D01*
X126241428Y-69799048D01*
X125071297Y-69799048D01*
X125209127Y-69652334D01*
X125291833Y-69532683D01*
X125305962Y-69440107D01*
X125303318Y-69435010D01*
X125235654Y-69430086D01*
X125101053Y-69525471D01*
X124997223Y-69621980D01*
X124863831Y-69765104D01*
X124780973Y-69878173D01*
X124765953Y-69930018D01*
X124835189Y-69949677D01*
G36*
X127787892Y-60983900D02*
X127882241Y-61162651D01*
X127901775Y-61183939D01*
X128057995Y-61303807D01*
X128217071Y-61339948D01*
X128395435Y-61287978D01*
X128609516Y-61143514D01*
X128844718Y-60932324D01*
X129259105Y-60532268D01*
X129277291Y-60917205D01*
X129295299Y-61115084D01*
X129324482Y-61253997D01*
X129355952Y-61302143D01*
X129389330Y-61247400D01*
X129414413Y-61105652D01*
X129430276Y-60910622D01*
X129435992Y-60696033D01*
X129430637Y-60495609D01*
X129413284Y-60343073D01*
X129384207Y-60272822D01*
X129314848Y-60295293D01*
X129180212Y-60391198D01*
X128998490Y-60546438D01*
X128844502Y-60691125D01*
X128593711Y-60924113D01*
X128403400Y-61070517D01*
X128257603Y-61137488D01*
X128140353Y-61132173D01*
X128035686Y-61061722D01*
X128029796Y-61055918D01*
X127955881Y-60910110D01*
X127938032Y-60712090D01*
X127979666Y-60518539D01*
X127995402Y-60485409D01*
X128021907Y-60373260D01*
X127969906Y-60332042D01*
X127869576Y-60379606D01*
X127848923Y-60398764D01*
X127768051Y-60554687D01*
X127748768Y-60765489D01*
X127787892Y-60983900D01*
X127787892Y-60983900D01*
G37*
X127787892Y-60983900D02*
X127882241Y-61162651D01*
X127901775Y-61183939D01*
X128057995Y-61303807D01*
X128217071Y-61339948D01*
X128395435Y-61287978D01*
X128609516Y-61143514D01*
X128844718Y-60932324D01*
X129259105Y-60532268D01*
X129277291Y-60917205D01*
X129295299Y-61115084D01*
X129324482Y-61253997D01*
X129355952Y-61302143D01*
X129389330Y-61247400D01*
X129414413Y-61105652D01*
X129430276Y-60910622D01*
X129435992Y-60696033D01*
X129430637Y-60495609D01*
X129413284Y-60343073D01*
X129384207Y-60272822D01*
X129314848Y-60295293D01*
X129180212Y-60391198D01*
X128998490Y-60546438D01*
X128844502Y-60691125D01*
X128593711Y-60924113D01*
X128403400Y-61070517D01*
X128257603Y-61137488D01*
X128140353Y-61132173D01*
X128035686Y-61061722D01*
X128029796Y-61055918D01*
X127955881Y-60910110D01*
X127938032Y-60712090D01*
X127979666Y-60518539D01*
X127995402Y-60485409D01*
X128021907Y-60373260D01*
X127969906Y-60332042D01*
X127869576Y-60379606D01*
X127848923Y-60398764D01*
X127768051Y-60554687D01*
X127748768Y-60765489D01*
X127787892Y-60983900D01*
G36*
X130809382Y-70295808D02*
X130862635Y-70372425D01*
X130952655Y-70353183D01*
X131085348Y-70245942D01*
X131097884Y-70233893D01*
X131297908Y-70040022D01*
X131472173Y-70221916D01*
X131682088Y-70365562D01*
X131922713Y-70414207D01*
X132158419Y-70366446D01*
X132322035Y-70255368D01*
X132429734Y-70079131D01*
X132477100Y-69855350D01*
X132462747Y-69629205D01*
X132385292Y-69445876D01*
X132348095Y-69404659D01*
X132229761Y-69333890D01*
X132164103Y-69355516D01*
X132146024Y-69436699D01*
X132195770Y-69494540D01*
X132263962Y-69617069D01*
X132287020Y-69798282D01*
X132265093Y-69984703D01*
X132198330Y-70122861D01*
X132194013Y-70127347D01*
X132040987Y-70210851D01*
X131858292Y-70217693D01*
X131683001Y-70159870D01*
X131552186Y-70049378D01*
X131502857Y-69903688D01*
X131470197Y-69790162D01*
X131378475Y-69775841D01*
X131237078Y-69860212D01*
X131168128Y-69922045D01*
X130964802Y-70119116D01*
X130946568Y-69732296D01*
X130925356Y-69494986D01*
X130893770Y-69373940D01*
X130857929Y-69365600D01*
X130823958Y-69466409D01*
X130797977Y-69672808D01*
X130789549Y-69823549D01*
X130786989Y-70115470D01*
X130809382Y-70295808D01*
X130809382Y-70295808D01*
G37*
X130809382Y-70295808D02*
X130862635Y-70372425D01*
X130952655Y-70353183D01*
X131085348Y-70245942D01*
X131097884Y-70233893D01*
X131297908Y-70040022D01*
X131472173Y-70221916D01*
X131682088Y-70365562D01*
X131922713Y-70414207D01*
X132158419Y-70366446D01*
X132322035Y-70255368D01*
X132429734Y-70079131D01*
X132477100Y-69855350D01*
X132462747Y-69629205D01*
X132385292Y-69445876D01*
X132348095Y-69404659D01*
X132229761Y-69333890D01*
X132164103Y-69355516D01*
X132146024Y-69436699D01*
X132195770Y-69494540D01*
X132263962Y-69617069D01*
X132287020Y-69798282D01*
X132265093Y-69984703D01*
X132198330Y-70122861D01*
X132194013Y-70127347D01*
X132040987Y-70210851D01*
X131858292Y-70217693D01*
X131683001Y-70159870D01*
X131552186Y-70049378D01*
X131502857Y-69903688D01*
X131470197Y-69790162D01*
X131378475Y-69775841D01*
X131237078Y-69860212D01*
X131168128Y-69922045D01*
X130964802Y-70119116D01*
X130946568Y-69732296D01*
X130925356Y-69494986D01*
X130893770Y-69373940D01*
X130857929Y-69365600D01*
X130823958Y-69466409D01*
X130797977Y-69672808D01*
X130789549Y-69823549D01*
X130786989Y-70115470D01*
X130809382Y-70295808D01*
G36*
X131706885Y-101895311D02*
X131837837Y-101923796D01*
X132036255Y-101940316D01*
X132137857Y-101942143D01*
X132360974Y-101932657D01*
X132522228Y-101908476D01*
X132608443Y-101876018D01*
X132606442Y-101841701D01*
X132503048Y-101811942D01*
X132425119Y-101802240D01*
X132228571Y-101783289D01*
X132228571Y-100620821D01*
X132380563Y-100763610D01*
X132512351Y-100856230D01*
X132591979Y-100846973D01*
X132587768Y-100768718D01*
X132484539Y-100629066D01*
X132390953Y-100531936D01*
X132247638Y-100403722D01*
X132136966Y-100327454D01*
X132088823Y-100318003D01*
X132072489Y-100391593D01*
X132059160Y-100560651D01*
X132050243Y-100799702D01*
X132047143Y-101071486D01*
X132047143Y-101783289D01*
X131850595Y-101802240D01*
X131700087Y-101828116D01*
X131656576Y-101861279D01*
X131706885Y-101895311D01*
X131706885Y-101895311D01*
G37*
X131706885Y-101895311D02*
X131837837Y-101923796D01*
X132036255Y-101940316D01*
X132137857Y-101942143D01*
X132360974Y-101932657D01*
X132522228Y-101908476D01*
X132608443Y-101876018D01*
X132606442Y-101841701D01*
X132503048Y-101811942D01*
X132425119Y-101802240D01*
X132228571Y-101783289D01*
X132228571Y-100620821D01*
X132380563Y-100763610D01*
X132512351Y-100856230D01*
X132591979Y-100846973D01*
X132587768Y-100768718D01*
X132484539Y-100629066D01*
X132390953Y-100531936D01*
X132247638Y-100403722D01*
X132136966Y-100327454D01*
X132088823Y-100318003D01*
X132072489Y-100391593D01*
X132059160Y-100560651D01*
X132050243Y-100799702D01*
X132047143Y-101071486D01*
X132047143Y-101783289D01*
X131850595Y-101802240D01*
X131700087Y-101828116D01*
X131656576Y-101861279D01*
X131706885Y-101895311D01*
G36*
X135884928Y-67699480D02*
X136026293Y-67768762D01*
X136233899Y-67851720D01*
X136482307Y-67940082D01*
X136746081Y-68025578D01*
X136999782Y-68099939D01*
X137217971Y-68154894D01*
X137375211Y-68182173D01*
X137444556Y-68175348D01*
X137457255Y-68116839D01*
X137368858Y-68051827D01*
X137289041Y-68015576D01*
X137150733Y-67947982D01*
X137086180Y-67868999D01*
X137067520Y-67733095D01*
X137066667Y-67652143D01*
X137074937Y-67480142D01*
X137117448Y-67383823D01*
X137220750Y-67318157D01*
X137278333Y-67293183D01*
X137436561Y-67215973D01*
X137484150Y-67158344D01*
X137427869Y-67110795D01*
X137412625Y-67104608D01*
X137327338Y-67111421D01*
X137159246Y-67152918D01*
X136934258Y-67220106D01*
X136800818Y-67263835D01*
X136800818Y-67459930D01*
X136858849Y-67470260D01*
X136883128Y-67573158D01*
X136885238Y-67649748D01*
X136877876Y-67793539D01*
X136841631Y-67844601D01*
X136755263Y-67830915D01*
X136749167Y-67829008D01*
X136595581Y-67778810D01*
X136413645Y-67717237D01*
X136409278Y-67715731D01*
X136205460Y-67645406D01*
X136460930Y-67568866D01*
X136638140Y-67514223D01*
X136773664Y-67469742D01*
X136800818Y-67459930D01*
X136800818Y-67263835D01*
X136678282Y-67303991D01*
X136417228Y-67395580D01*
X136177002Y-67485879D01*
X135983515Y-67565896D01*
X135862674Y-67626637D01*
X135835243Y-67652143D01*
X135884928Y-67699480D01*
X135884928Y-67699480D01*
G37*
X135884928Y-67699480D02*
X136026293Y-67768762D01*
X136233899Y-67851720D01*
X136482307Y-67940082D01*
X136746081Y-68025578D01*
X136999782Y-68099939D01*
X137217971Y-68154894D01*
X137375211Y-68182173D01*
X137444556Y-68175348D01*
X137457255Y-68116839D01*
X137368858Y-68051827D01*
X137289041Y-68015576D01*
X137150733Y-67947982D01*
X137086180Y-67868999D01*
X137067520Y-67733095D01*
X137066667Y-67652143D01*
X137074937Y-67480142D01*
X137117448Y-67383823D01*
X137220750Y-67318157D01*
X137278333Y-67293183D01*
X137436561Y-67215973D01*
X137484150Y-67158344D01*
X137427869Y-67110795D01*
X137412625Y-67104608D01*
X137327338Y-67111421D01*
X137159246Y-67152918D01*
X136934258Y-67220106D01*
X136800818Y-67263835D01*
X136800818Y-67459930D01*
X136858849Y-67470260D01*
X136883128Y-67573158D01*
X136885238Y-67649748D01*
X136877876Y-67793539D01*
X136841631Y-67844601D01*
X136755263Y-67830915D01*
X136749167Y-67829008D01*
X136595581Y-67778810D01*
X136413645Y-67717237D01*
X136409278Y-67715731D01*
X136205460Y-67645406D01*
X136460930Y-67568866D01*
X136638140Y-67514223D01*
X136773664Y-67469742D01*
X136800818Y-67459930D01*
X136800818Y-67263835D01*
X136678282Y-67303991D01*
X136417228Y-67395580D01*
X136177002Y-67485879D01*
X135983515Y-67565896D01*
X135862674Y-67626637D01*
X135835243Y-67652143D01*
X135884928Y-67699480D01*
G36*
X135837664Y-66306548D02*
X135905035Y-66324206D01*
X136068686Y-66338652D01*
X136303956Y-66348385D01*
X136582775Y-66351905D01*
X137301270Y-66351905D01*
X137320040Y-66564835D01*
X137347833Y-66709671D01*
X137391663Y-66788276D01*
X137399286Y-66791621D01*
X137427457Y-66743492D01*
X137451745Y-66607901D01*
X137470332Y-66418318D01*
X137481404Y-66208215D01*
X137483142Y-66011064D01*
X137473731Y-65860336D01*
X137453573Y-65791351D01*
X137380831Y-65770977D01*
X137327397Y-65850047D01*
X137308571Y-65992617D01*
X137308571Y-66170476D01*
X136217212Y-66170476D01*
X136314533Y-66021945D01*
X136372441Y-65895729D01*
X136372578Y-65809864D01*
X136316016Y-65816078D01*
X136208660Y-65887633D01*
X136078751Y-65998308D01*
X135954526Y-66121882D01*
X135864224Y-66232137D01*
X135836084Y-66302849D01*
X135837664Y-66306548D01*
X135837664Y-66306548D01*
G37*
X135837664Y-66306548D02*
X135905035Y-66324206D01*
X136068686Y-66338652D01*
X136303956Y-66348385D01*
X136582775Y-66351905D01*
X137301270Y-66351905D01*
X137320040Y-66564835D01*
X137347833Y-66709671D01*
X137391663Y-66788276D01*
X137399286Y-66791621D01*
X137427457Y-66743492D01*
X137451745Y-66607901D01*
X137470332Y-66418318D01*
X137481404Y-66208215D01*
X137483142Y-66011064D01*
X137473731Y-65860336D01*
X137453573Y-65791351D01*
X137380831Y-65770977D01*
X137327397Y-65850047D01*
X137308571Y-65992617D01*
X137308571Y-66170476D01*
X136217212Y-66170476D01*
X136314533Y-66021945D01*
X136372441Y-65895729D01*
X136372578Y-65809864D01*
X136316016Y-65816078D01*
X136208660Y-65887633D01*
X136078751Y-65998308D01*
X135954526Y-66121882D01*
X135864224Y-66232137D01*
X135836084Y-66302849D01*
X135837664Y-66306548D01*
G36*
X135839842Y-65391175D02*
X135924648Y-65403593D01*
X136110383Y-65383505D01*
X136382056Y-65332939D01*
X136556930Y-65294204D01*
X136948746Y-65199721D01*
X137226776Y-65121686D01*
X137396271Y-65055118D01*
X137462484Y-64995035D01*
X137430666Y-64936455D01*
X137306071Y-64874399D01*
X137093950Y-64803882D01*
X137078708Y-64799320D01*
X136734048Y-64696574D01*
X137058735Y-64622004D01*
X137309409Y-64552241D01*
X137440469Y-64485022D01*
X137453200Y-64419241D01*
X137363128Y-64359740D01*
X137203768Y-64303794D01*
X136980478Y-64241799D01*
X136720823Y-64179416D01*
X136452366Y-64122303D01*
X136202670Y-64076122D01*
X135999297Y-64046533D01*
X135869811Y-64039195D01*
X135839842Y-64046920D01*
X135826034Y-64102804D01*
X135902425Y-64161113D01*
X136077869Y-64225701D01*
X136361223Y-64300419D01*
X136492143Y-64330718D01*
X136975952Y-64439806D01*
X136651265Y-64514043D01*
X136400466Y-64580759D01*
X136266454Y-64643207D01*
X136249816Y-64706780D01*
X136351140Y-64776874D01*
X136571014Y-64858882D01*
X136692928Y-64896419D01*
X137028499Y-64996036D01*
X136518416Y-65105541D01*
X136185548Y-65183186D01*
X135964388Y-65250379D01*
X135846504Y-65310669D01*
X135823463Y-65367605D01*
X135839842Y-65391175D01*
X135839842Y-65391175D01*
G37*
X135839842Y-65391175D02*
X135924648Y-65403593D01*
X136110383Y-65383505D01*
X136382056Y-65332939D01*
X136556930Y-65294204D01*
X136948746Y-65199721D01*
X137226776Y-65121686D01*
X137396271Y-65055118D01*
X137462484Y-64995035D01*
X137430666Y-64936455D01*
X137306071Y-64874399D01*
X137093950Y-64803882D01*
X137078708Y-64799320D01*
X136734048Y-64696574D01*
X137058735Y-64622004D01*
X137309409Y-64552241D01*
X137440469Y-64485022D01*
X137453200Y-64419241D01*
X137363128Y-64359740D01*
X137203768Y-64303794D01*
X136980478Y-64241799D01*
X136720823Y-64179416D01*
X136452366Y-64122303D01*
X136202670Y-64076122D01*
X135999297Y-64046533D01*
X135869811Y-64039195D01*
X135839842Y-64046920D01*
X135826034Y-64102804D01*
X135902425Y-64161113D01*
X136077869Y-64225701D01*
X136361223Y-64300419D01*
X136492143Y-64330718D01*
X136975952Y-64439806D01*
X136651265Y-64514043D01*
X136400466Y-64580759D01*
X136266454Y-64643207D01*
X136249816Y-64706780D01*
X136351140Y-64776874D01*
X136571014Y-64858882D01*
X136692928Y-64896419D01*
X137028499Y-64996036D01*
X136518416Y-65105541D01*
X136185548Y-65183186D01*
X135964388Y-65250379D01*
X135846504Y-65310669D01*
X135823463Y-65367605D01*
X135839842Y-65391175D01*
G36*
X135815370Y-63375891D02*
X135911615Y-63534328D01*
X136014875Y-63585765D01*
X136083517Y-63559868D01*
X136083436Y-63482806D01*
X136045397Y-63431683D01*
X135987070Y-63300920D01*
X135985317Y-63123091D01*
X136035609Y-62955511D01*
X136088690Y-62883897D01*
X136248894Y-62788772D01*
X136384944Y-62810561D01*
X136491886Y-62946757D01*
X136548593Y-63116429D01*
X136639468Y-63323582D01*
X136789501Y-63498593D01*
X136965423Y-63608885D01*
X137073592Y-63630476D01*
X137242090Y-63576164D01*
X137377038Y-63433934D01*
X137466653Y-63234846D01*
X137499152Y-63009960D01*
X137462750Y-62790337D01*
X137423968Y-62706942D01*
X137351266Y-62627130D01*
X137299277Y-62653434D01*
X137276818Y-62771604D01*
X137286829Y-62928569D01*
X137289382Y-63189537D01*
X137227389Y-63361932D01*
X137121512Y-63443021D01*
X136992418Y-63430069D01*
X136860769Y-63320344D01*
X136747230Y-63111111D01*
X136713004Y-63004471D01*
X136604903Y-62772264D01*
X136445438Y-62636562D01*
X136254957Y-62603889D01*
X136053809Y-62680768D01*
X135956104Y-62761818D01*
X135838857Y-62945251D01*
X135791115Y-63164365D01*
X135815370Y-63375891D01*
X135815370Y-63375891D01*
G37*
X135815370Y-63375891D02*
X135911615Y-63534328D01*
X136014875Y-63585765D01*
X136083517Y-63559868D01*
X136083436Y-63482806D01*
X136045397Y-63431683D01*
X135987070Y-63300920D01*
X135985317Y-63123091D01*
X136035609Y-62955511D01*
X136088690Y-62883897D01*
X136248894Y-62788772D01*
X136384944Y-62810561D01*
X136491886Y-62946757D01*
X136548593Y-63116429D01*
X136639468Y-63323582D01*
X136789501Y-63498593D01*
X136965423Y-63608885D01*
X137073592Y-63630476D01*
X137242090Y-63576164D01*
X137377038Y-63433934D01*
X137466653Y-63234846D01*
X137499152Y-63009960D01*
X137462750Y-62790337D01*
X137423968Y-62706942D01*
X137351266Y-62627130D01*
X137299277Y-62653434D01*
X137276818Y-62771604D01*
X137286829Y-62928569D01*
X137289382Y-63189537D01*
X137227389Y-63361932D01*
X137121512Y-63443021D01*
X136992418Y-63430069D01*
X136860769Y-63320344D01*
X136747230Y-63111111D01*
X136713004Y-63004471D01*
X136604903Y-62772264D01*
X136445438Y-62636562D01*
X136254957Y-62603889D01*
X136053809Y-62680768D01*
X135956104Y-62761818D01*
X135838857Y-62945251D01*
X135791115Y-63164365D01*
X135815370Y-63375891D01*
G36*
X139475094Y-59080211D02*
X139553753Y-59121367D01*
X139721154Y-59142075D01*
X139739554Y-59143303D01*
X140023633Y-59161605D01*
X140041935Y-59445684D01*
X140061622Y-59621599D01*
X140100573Y-59706357D01*
X140173350Y-59729662D01*
X140181190Y-59729762D01*
X140257354Y-59710144D01*
X140298509Y-59631485D01*
X140319218Y-59464084D01*
X140320445Y-59445684D01*
X140338748Y-59161605D01*
X140622282Y-59143303D01*
X140820520Y-59114327D01*
X140913652Y-59057000D01*
X140923570Y-59031337D01*
X140915847Y-58923786D01*
X140898916Y-58895265D01*
X140816852Y-58869029D01*
X140662037Y-58854137D01*
X140597758Y-58852857D01*
X140339008Y-58852857D01*
X140320575Y-58565595D01*
X140301051Y-58388509D01*
X140262746Y-58302682D01*
X140191292Y-58278501D01*
X140181190Y-58278333D01*
X140105027Y-58297952D01*
X140063871Y-58376610D01*
X140043163Y-58544012D01*
X140041935Y-58562412D01*
X140023633Y-58846490D01*
X139739554Y-58864793D01*
X139563639Y-58884479D01*
X139478881Y-58923431D01*
X139455576Y-58996207D01*
X139455476Y-59004048D01*
X139475094Y-59080211D01*
X139475094Y-59080211D01*
G37*
X139475094Y-59080211D02*
X139553753Y-59121367D01*
X139721154Y-59142075D01*
X139739554Y-59143303D01*
X140023633Y-59161605D01*
X140041935Y-59445684D01*
X140061622Y-59621599D01*
X140100573Y-59706357D01*
X140173350Y-59729662D01*
X140181190Y-59729762D01*
X140257354Y-59710144D01*
X140298509Y-59631485D01*
X140319218Y-59464084D01*
X140320445Y-59445684D01*
X140338748Y-59161605D01*
X140622282Y-59143303D01*
X140820520Y-59114327D01*
X140913652Y-59057000D01*
X140923570Y-59031337D01*
X140915847Y-58923786D01*
X140898916Y-58895265D01*
X140816852Y-58869029D01*
X140662037Y-58854137D01*
X140597758Y-58852857D01*
X140339008Y-58852857D01*
X140320575Y-58565595D01*
X140301051Y-58388509D01*
X140262746Y-58302682D01*
X140191292Y-58278501D01*
X140181190Y-58278333D01*
X140105027Y-58297952D01*
X140063871Y-58376610D01*
X140043163Y-58544012D01*
X140041935Y-58562412D01*
X140023633Y-58846490D01*
X139739554Y-58864793D01*
X139563639Y-58884479D01*
X139478881Y-58923431D01*
X139455576Y-58996207D01*
X139455476Y-59004048D01*
X139475094Y-59080211D01*
G36*
X140724800Y-101640501D02*
X140843680Y-101823939D01*
X141019917Y-101931639D01*
X141243697Y-101979004D01*
X141469842Y-101964652D01*
X141653172Y-101887197D01*
X141694388Y-101850000D01*
X141765157Y-101731666D01*
X141743532Y-101666008D01*
X141662349Y-101647929D01*
X141604508Y-101697675D01*
X141481978Y-101765867D01*
X141300766Y-101788925D01*
X141114344Y-101766998D01*
X140976187Y-101700235D01*
X140971701Y-101695918D01*
X140888197Y-101542892D01*
X140881355Y-101360197D01*
X140939178Y-101184906D01*
X141049669Y-101054091D01*
X141195359Y-101004762D01*
X141308855Y-100972204D01*
X141322964Y-100880508D01*
X141238251Y-100738642D01*
X141173983Y-100666917D01*
X140973892Y-100460476D01*
X141345044Y-100460476D01*
X141594937Y-100447698D01*
X141736531Y-100410436D01*
X141765343Y-100350304D01*
X141741848Y-100317721D01*
X141658500Y-100293247D01*
X141494012Y-100280524D01*
X141284708Y-100278589D01*
X141066910Y-100286479D01*
X140876941Y-100303231D01*
X140751125Y-100327883D01*
X140722247Y-100344749D01*
X140736027Y-100423538D01*
X140817910Y-100546412D01*
X140871035Y-100605856D01*
X141060429Y-100801261D01*
X140877833Y-100963954D01*
X140734955Y-101163726D01*
X140683431Y-101402143D01*
X140724800Y-101640501D01*
X140724800Y-101640501D01*
G37*
X140724800Y-101640501D02*
X140843680Y-101823939D01*
X141019917Y-101931639D01*
X141243697Y-101979004D01*
X141469842Y-101964652D01*
X141653172Y-101887197D01*
X141694388Y-101850000D01*
X141765157Y-101731666D01*
X141743532Y-101666008D01*
X141662349Y-101647929D01*
X141604508Y-101697675D01*
X141481978Y-101765867D01*
X141300766Y-101788925D01*
X141114344Y-101766998D01*
X140976187Y-101700235D01*
X140971701Y-101695918D01*
X140888197Y-101542892D01*
X140881355Y-101360197D01*
X140939178Y-101184906D01*
X141049669Y-101054091D01*
X141195359Y-101004762D01*
X141308855Y-100972204D01*
X141322964Y-100880508D01*
X141238251Y-100738642D01*
X141173983Y-100666917D01*
X140973892Y-100460476D01*
X141345044Y-100460476D01*
X141594937Y-100447698D01*
X141736531Y-100410436D01*
X141765343Y-100350304D01*
X141741848Y-100317721D01*
X141658500Y-100293247D01*
X141494012Y-100280524D01*
X141284708Y-100278589D01*
X141066910Y-100286479D01*
X140876941Y-100303231D01*
X140751125Y-100327883D01*
X140722247Y-100344749D01*
X140736027Y-100423538D01*
X140817910Y-100546412D01*
X140871035Y-100605856D01*
X141060429Y-100801261D01*
X140877833Y-100963954D01*
X140734955Y-101163726D01*
X140683431Y-101402143D01*
X140724800Y-101640501D01*
G36*
X140592992Y-71095411D02*
X140700217Y-71231965D01*
X140892978Y-71447821D01*
X141169809Y-71741389D01*
X141529245Y-72111079D01*
X141969821Y-72555300D01*
X141969857Y-72555337D01*
X143439616Y-74026014D01*
X143050165Y-74044316D01*
X142817129Y-74064608D01*
X142698082Y-74094040D01*
X142687011Y-74126618D01*
X142777903Y-74156348D01*
X142964745Y-74177239D01*
X143189881Y-74183571D01*
X143688809Y-74183571D01*
X143706175Y-73696969D01*
X143709518Y-73465031D01*
X143702955Y-73281850D01*
X143687902Y-73179187D01*
X143682621Y-73169446D01*
X143611501Y-73146402D01*
X143563054Y-73236863D01*
X143539544Y-73435118D01*
X143537619Y-73535350D01*
X143537619Y-73877847D01*
X142091528Y-72436341D01*
X141661300Y-72010935D01*
X141297574Y-71658569D01*
X141003617Y-71382247D01*
X140782696Y-71184973D01*
X140638080Y-71069753D01*
X140573035Y-71039591D01*
X140572768Y-71039747D01*
X140592992Y-71095411D01*
X140592992Y-71095411D01*
G37*
X140592992Y-71095411D02*
X140700217Y-71231965D01*
X140892978Y-71447821D01*
X141169809Y-71741389D01*
X141529245Y-72111079D01*
X141969821Y-72555300D01*
X141969857Y-72555337D01*
X143439616Y-74026014D01*
X143050165Y-74044316D01*
X142817129Y-74064608D01*
X142698082Y-74094040D01*
X142687011Y-74126618D01*
X142777903Y-74156348D01*
X142964745Y-74177239D01*
X143189881Y-74183571D01*
X143688809Y-74183571D01*
X143706175Y-73696969D01*
X143709518Y-73465031D01*
X143702955Y-73281850D01*
X143687902Y-73179187D01*
X143682621Y-73169446D01*
X143611501Y-73146402D01*
X143563054Y-73236863D01*
X143539544Y-73435118D01*
X143537619Y-73535350D01*
X143537619Y-73877847D01*
X142091528Y-72436341D01*
X141661300Y-72010935D01*
X141297574Y-71658569D01*
X141003617Y-71382247D01*
X140782696Y-71184973D01*
X140638080Y-71069753D01*
X140573035Y-71039591D01*
X140572768Y-71039747D01*
X140592992Y-71095411D01*
G36*
X142407278Y-71095411D02*
X142514503Y-71231965D01*
X142707264Y-71447821D01*
X142984095Y-71741389D01*
X143343531Y-72111079D01*
X143784107Y-72555300D01*
X143784143Y-72555337D01*
X145253901Y-74026014D01*
X144864451Y-74044316D01*
X144631415Y-74064608D01*
X144512368Y-74094040D01*
X144501297Y-74126618D01*
X144592189Y-74156348D01*
X144779031Y-74177239D01*
X145004167Y-74183571D01*
X145503095Y-74183571D01*
X145520461Y-73696969D01*
X145523804Y-73465031D01*
X145517240Y-73281850D01*
X145502188Y-73179187D01*
X145496907Y-73169446D01*
X145425787Y-73146402D01*
X145377340Y-73236863D01*
X145353830Y-73435118D01*
X145351905Y-73535350D01*
X145351905Y-73877847D01*
X143905814Y-72436341D01*
X143475586Y-72010935D01*
X143111860Y-71658569D01*
X142817903Y-71382247D01*
X142596982Y-71184973D01*
X142452366Y-71069753D01*
X142387321Y-71039591D01*
X142387054Y-71039747D01*
X142407278Y-71095411D01*
X142407278Y-71095411D01*
G37*
X142407278Y-71095411D02*
X142514503Y-71231965D01*
X142707264Y-71447821D01*
X142984095Y-71741389D01*
X143343531Y-72111079D01*
X143784107Y-72555300D01*
X143784143Y-72555337D01*
X145253901Y-74026014D01*
X144864451Y-74044316D01*
X144631415Y-74064608D01*
X144512368Y-74094040D01*
X144501297Y-74126618D01*
X144592189Y-74156348D01*
X144779031Y-74177239D01*
X145004167Y-74183571D01*
X145503095Y-74183571D01*
X145520461Y-73696969D01*
X145523804Y-73465031D01*
X145517240Y-73281850D01*
X145502188Y-73179187D01*
X145496907Y-73169446D01*
X145425787Y-73146402D01*
X145377340Y-73236863D01*
X145353830Y-73435118D01*
X145351905Y-73535350D01*
X145351905Y-73877847D01*
X143905814Y-72436341D01*
X143475586Y-72010935D01*
X143111860Y-71658569D01*
X142817903Y-71382247D01*
X142596982Y-71184973D01*
X142452366Y-71069753D01*
X142387321Y-71039591D01*
X142387054Y-71039747D01*
X142407278Y-71095411D01*
G36*
X144983128Y-61370070D02*
X145150643Y-61382044D01*
X145388540Y-61390060D01*
X145660533Y-61392857D01*
X146372337Y-61392857D01*
X146391287Y-61589405D01*
X146420495Y-61723285D01*
X146466174Y-61785413D01*
X146470714Y-61785952D01*
X146498985Y-61731159D01*
X146523265Y-61589473D01*
X146541734Y-61394935D01*
X146552569Y-61181584D01*
X146553948Y-60983461D01*
X146544048Y-60834607D01*
X146525002Y-60771827D01*
X146452759Y-60750583D01*
X146400664Y-60831932D01*
X146380016Y-60997837D01*
X146380000Y-61003331D01*
X146380000Y-61211429D01*
X145227331Y-61211429D01*
X145361774Y-61029585D01*
X145446267Y-60879768D01*
X145437883Y-60789407D01*
X145437827Y-60789351D01*
X145365260Y-60797758D01*
X145237152Y-60904227D01*
X145126627Y-61024453D01*
X145002263Y-61180373D01*
X144925022Y-61300203D01*
X144911274Y-61355402D01*
X144983128Y-61370070D01*
X144983128Y-61370070D01*
G37*
X144983128Y-61370070D02*
X145150643Y-61382044D01*
X145388540Y-61390060D01*
X145660533Y-61392857D01*
X146372337Y-61392857D01*
X146391287Y-61589405D01*
X146420495Y-61723285D01*
X146466174Y-61785413D01*
X146470714Y-61785952D01*
X146498985Y-61731159D01*
X146523265Y-61589473D01*
X146541734Y-61394935D01*
X146552569Y-61181584D01*
X146553948Y-60983461D01*
X146544048Y-60834607D01*
X146525002Y-60771827D01*
X146452759Y-60750583D01*
X146400664Y-60831932D01*
X146380016Y-60997837D01*
X146380000Y-61003331D01*
X146380000Y-61211429D01*
X145227331Y-61211429D01*
X145361774Y-61029585D01*
X145446267Y-60879768D01*
X145437883Y-60789407D01*
X145437827Y-60789351D01*
X145365260Y-60797758D01*
X145237152Y-60904227D01*
X145126627Y-61024453D01*
X145002263Y-61180373D01*
X144925022Y-61300203D01*
X144911274Y-61355402D01*
X144983128Y-61370070D01*
G36*
X144907819Y-60194784D02*
X144932000Y-60356038D01*
X144964458Y-60442253D01*
X144998775Y-60440252D01*
X145028534Y-60336858D01*
X145038236Y-60258929D01*
X145057187Y-60062381D01*
X145775501Y-60062381D01*
X146127003Y-60057241D01*
X146366783Y-60040689D01*
X146503679Y-60011030D01*
X146546530Y-59966567D01*
X146519467Y-59919626D01*
X146447113Y-59904477D01*
X146279153Y-59892113D01*
X146040924Y-59883837D01*
X145768990Y-59880952D01*
X145057187Y-59880952D01*
X145038236Y-59684405D01*
X145012360Y-59533897D01*
X144979197Y-59490386D01*
X144945165Y-59540694D01*
X144916680Y-59671646D01*
X144900160Y-59870065D01*
X144898333Y-59971667D01*
X144907819Y-60194784D01*
X144907819Y-60194784D01*
G37*
X144907819Y-60194784D02*
X144932000Y-60356038D01*
X144964458Y-60442253D01*
X144998775Y-60440252D01*
X145028534Y-60336858D01*
X145038236Y-60258929D01*
X145057187Y-60062381D01*
X145775501Y-60062381D01*
X146127003Y-60057241D01*
X146366783Y-60040689D01*
X146503679Y-60011030D01*
X146546530Y-59966567D01*
X146519467Y-59919626D01*
X146447113Y-59904477D01*
X146279153Y-59892113D01*
X146040924Y-59883837D01*
X145768990Y-59880952D01*
X145057187Y-59880952D01*
X145038236Y-59684405D01*
X145012360Y-59533897D01*
X144979197Y-59490386D01*
X144945165Y-59540694D01*
X144916680Y-59671646D01*
X144900160Y-59870065D01*
X144898333Y-59971667D01*
X144907819Y-60194784D01*
G36*
X144879751Y-58665285D02*
X144928696Y-58798552D01*
X145049017Y-58943016D01*
X145057507Y-58951809D01*
X145225161Y-59099524D01*
X145359169Y-59147668D01*
X145485739Y-59101774D01*
X145544324Y-59054577D01*
X145629519Y-58992098D01*
X145701800Y-59005645D01*
X145794888Y-59084815D01*
X145988940Y-59198031D01*
X146195743Y-59207398D01*
X146381226Y-59114428D01*
X146436087Y-59056368D01*
X146506770Y-58913540D01*
X146551237Y-58721619D01*
X146567400Y-58518535D01*
X146553170Y-58342219D01*
X146506457Y-58230601D01*
X146482479Y-58214003D01*
X146394259Y-58203693D01*
X146211402Y-58197716D01*
X146077619Y-58197063D01*
X146077619Y-58369048D01*
X146380000Y-58369048D01*
X146380000Y-58584690D01*
X146362595Y-58766039D01*
X146320403Y-58911443D01*
X146317396Y-58917309D01*
X146208019Y-59013920D01*
X146059296Y-59024999D01*
X145915639Y-58952275D01*
X145869382Y-58899877D01*
X145801486Y-58741694D01*
X145775238Y-58567258D01*
X145780650Y-58449954D01*
X145817707Y-58391464D01*
X145917636Y-58371317D01*
X146077619Y-58369048D01*
X146077619Y-58197063D01*
X145960161Y-58196489D01*
X145666786Y-58200430D01*
X145650931Y-58200782D01*
X145321667Y-58208252D01*
X145321667Y-58369048D01*
X145488898Y-58373777D01*
X145568090Y-58404273D01*
X145592149Y-58484995D01*
X145593809Y-58571341D01*
X145549077Y-58777530D01*
X145472223Y-58883669D01*
X145384114Y-58952412D01*
X145314749Y-58948303D01*
X145214297Y-58865588D01*
X145200080Y-58852262D01*
X145080044Y-58679605D01*
X145049524Y-58539934D01*
X145058393Y-58434775D01*
X145106826Y-58384961D01*
X145227558Y-58369938D01*
X145321667Y-58369048D01*
X145321667Y-58208252D01*
X144898333Y-58217857D01*
X144879334Y-58483118D01*
X144879751Y-58665285D01*
X144879751Y-58665285D01*
G37*
X144879751Y-58665285D02*
X144928696Y-58798552D01*
X145049017Y-58943016D01*
X145057507Y-58951809D01*
X145225161Y-59099524D01*
X145359169Y-59147668D01*
X145485739Y-59101774D01*
X145544324Y-59054577D01*
X145629519Y-58992098D01*
X145701800Y-59005645D01*
X145794888Y-59084815D01*
X145988940Y-59198031D01*
X146195743Y-59207398D01*
X146381226Y-59114428D01*
X146436087Y-59056368D01*
X146506770Y-58913540D01*
X146551237Y-58721619D01*
X146567400Y-58518535D01*
X146553170Y-58342219D01*
X146506457Y-58230601D01*
X146482479Y-58214003D01*
X146394259Y-58203693D01*
X146211402Y-58197716D01*
X146077619Y-58197063D01*
X146077619Y-58369048D01*
X146380000Y-58369048D01*
X146380000Y-58584690D01*
X146362595Y-58766039D01*
X146320403Y-58911443D01*
X146317396Y-58917309D01*
X146208019Y-59013920D01*
X146059296Y-59024999D01*
X145915639Y-58952275D01*
X145869382Y-58899877D01*
X145801486Y-58741694D01*
X145775238Y-58567258D01*
X145780650Y-58449954D01*
X145817707Y-58391464D01*
X145917636Y-58371317D01*
X146077619Y-58369048D01*
X146077619Y-58197063D01*
X145960161Y-58196489D01*
X145666786Y-58200430D01*
X145650931Y-58200782D01*
X145321667Y-58208252D01*
X145321667Y-58369048D01*
X145488898Y-58373777D01*
X145568090Y-58404273D01*
X145592149Y-58484995D01*
X145593809Y-58571341D01*
X145549077Y-58777530D01*
X145472223Y-58883669D01*
X145384114Y-58952412D01*
X145314749Y-58948303D01*
X145214297Y-58865588D01*
X145200080Y-58852262D01*
X145080044Y-58679605D01*
X145049524Y-58539934D01*
X145058393Y-58434775D01*
X145106826Y-58384961D01*
X145227558Y-58369938D01*
X145321667Y-58369048D01*
X145321667Y-58208252D01*
X144898333Y-58217857D01*
X144879334Y-58483118D01*
X144879751Y-58665285D01*
G36*
X122998470Y-94122887D02*
X123078101Y-94147486D01*
X123231654Y-94162408D01*
X123476175Y-94169553D01*
X123731102Y-94170952D01*
X124486490Y-94170952D01*
X124502173Y-97179643D01*
X124517857Y-100188333D01*
X129067656Y-100203835D01*
X133617456Y-100219336D01*
X133736912Y-100453491D01*
X133951612Y-100773521D01*
X134259168Y-101094917D01*
X134633370Y-101397778D01*
X135048005Y-101662201D01*
X135476863Y-101868285D01*
X135705952Y-101948552D01*
X136051545Y-102019081D01*
X136466265Y-102053496D01*
X136903817Y-102051838D01*
X137317904Y-102014147D01*
X137641190Y-101946846D01*
X138064167Y-101783209D01*
X138488329Y-101549684D01*
X138887279Y-101266287D01*
X139234624Y-100953038D01*
X139503968Y-100629955D01*
X139610194Y-100453563D01*
X139729614Y-100219479D01*
X143523497Y-100203906D01*
X147317381Y-100188333D01*
X147332652Y-88381832D01*
X147347923Y-76575330D01*
X147528176Y-76482118D01*
X147698320Y-76345068D01*
X147829335Y-76152277D01*
X147888773Y-75953755D01*
X147889483Y-75925265D01*
X147859598Y-75794499D01*
X147797236Y-75650879D01*
X147676781Y-75502634D01*
X147527717Y-75392407D01*
X147348025Y-75299485D01*
X147332703Y-66516766D01*
X147317381Y-57734048D01*
X145429070Y-57718069D01*
X143540760Y-57702091D01*
X143524070Y-56780688D01*
X143507381Y-55859286D01*
X143128539Y-55841258D01*
X142749697Y-55823231D01*
X142765682Y-57716020D01*
X142781667Y-59608810D01*
X143507381Y-59608810D01*
X143524160Y-58747024D01*
X143540940Y-57885238D01*
X147166190Y-57885238D01*
X147166190Y-75299275D01*
X146985785Y-75392566D01*
X146826252Y-75516202D01*
X146712090Y-75666262D01*
X146650688Y-75767404D01*
X146575991Y-75821402D01*
X146451200Y-75842928D01*
X146259610Y-75846667D01*
X145900422Y-75846667D01*
X145865952Y-74606905D01*
X139848571Y-74606905D01*
X139848571Y-74879048D01*
X145593809Y-74879048D01*
X145593809Y-76995714D01*
X139848571Y-76995714D01*
X139848571Y-74879048D01*
X139848571Y-74606905D01*
X139576428Y-74606905D01*
X139559194Y-75226786D01*
X139541959Y-75846667D01*
X137311677Y-75846667D01*
X137311677Y-76028095D01*
X139541959Y-76028095D01*
X139559194Y-76647976D01*
X139576428Y-77267857D01*
X145865952Y-77267857D01*
X145900422Y-76028095D01*
X146259610Y-76028095D01*
X146463348Y-76032666D01*
X146583007Y-76056158D01*
X146655387Y-76113244D01*
X146712090Y-76208500D01*
X146835725Y-76368034D01*
X146985785Y-76482196D01*
X147166190Y-76575487D01*
X147166190Y-100037143D01*
X139861254Y-100037143D01*
X139982668Y-99659167D01*
X140063006Y-99302963D01*
X140106280Y-98879036D01*
X140111951Y-98432705D01*
X140079480Y-98009289D01*
X140008326Y-97654108D01*
X140006601Y-97648333D01*
X139779870Y-97089965D01*
X139454320Y-96567913D01*
X139048441Y-96105376D01*
X138580720Y-95725556D01*
X138372097Y-95597292D01*
X137889753Y-95382280D01*
X137320287Y-95224196D01*
X136991071Y-95165966D01*
X136764286Y-95133091D01*
X136764286Y-95430321D01*
X137021309Y-95469965D01*
X137631187Y-95608914D01*
X138162397Y-95829437D01*
X138632783Y-96140201D01*
X138904617Y-96384907D01*
X139298815Y-96862511D01*
X139589713Y-97401995D01*
X139774855Y-97998455D01*
X139810155Y-98192619D01*
X139826146Y-98443255D01*
X139815420Y-98761569D01*
X139782143Y-99098294D01*
X139730483Y-99404167D01*
X139696161Y-99540007D01*
X139634679Y-99707855D01*
X139575198Y-99808439D01*
X139541518Y-99822589D01*
X139491652Y-99756313D01*
X139402404Y-99605117D01*
X139287288Y-99392852D01*
X139183333Y-99190476D01*
X139057560Y-98946381D01*
X138947191Y-98744153D01*
X138865553Y-98607496D01*
X138829381Y-98560980D01*
X138748406Y-98570580D01*
X138629245Y-98640943D01*
X138625592Y-98643794D01*
X138476967Y-98760703D01*
X138182304Y-98461542D01*
X137887642Y-98162381D01*
X138493154Y-98162381D01*
X138809874Y-98156615D01*
X139024631Y-98134670D01*
X139156066Y-98089572D01*
X139222816Y-98014349D01*
X139243523Y-97902028D01*
X139243809Y-97881572D01*
X139230899Y-97776279D01*
X139182817Y-97696169D01*
X139085539Y-97637936D01*
X138925040Y-97598274D01*
X138687295Y-97573876D01*
X138358280Y-97561437D01*
X137923969Y-97557649D01*
X137869639Y-97557619D01*
X136764286Y-97557619D01*
X136764286Y-95430321D01*
X136764286Y-95133091D01*
X136764286Y-88188041D01*
X138004048Y-88153571D01*
X138004048Y-81864048D01*
X136764286Y-81829578D01*
X136764286Y-76575487D01*
X136944690Y-76482196D01*
X137104224Y-76358560D01*
X137218386Y-76208500D01*
X137311677Y-76028095D01*
X137311677Y-75846667D01*
X137218386Y-75666262D01*
X137085511Y-75500524D01*
X136897805Y-75368605D01*
X136705724Y-75304204D01*
X136673571Y-75302381D01*
X136486242Y-75350507D01*
X136293903Y-75472419D01*
X136147010Y-75634419D01*
X136128756Y-75666262D01*
X136035465Y-75846667D01*
X133805184Y-75846667D01*
X133770714Y-74606905D01*
X127753333Y-74606905D01*
X127753333Y-74879048D01*
X133498571Y-74879048D01*
X133498571Y-76995714D01*
X127753333Y-76995714D01*
X127753333Y-74879048D01*
X127753333Y-74606905D01*
X127481190Y-74606905D01*
X127463956Y-75226786D01*
X127446721Y-75846667D01*
X125216439Y-75846667D01*
X125216439Y-76028095D01*
X127446721Y-76028095D01*
X127463956Y-76647976D01*
X127481190Y-77267857D01*
X133770714Y-77267857D01*
X133805184Y-76028095D01*
X136035465Y-76028095D01*
X136128756Y-76208500D01*
X136252392Y-76368034D01*
X136402452Y-76482196D01*
X136582857Y-76575487D01*
X136582857Y-81829578D01*
X135615238Y-81856481D01*
X135615238Y-82136191D01*
X137731905Y-82136191D01*
X137731905Y-87881429D01*
X135615238Y-87881429D01*
X135615238Y-82136191D01*
X135615238Y-81856481D01*
X135343095Y-81864048D01*
X135343095Y-88153571D01*
X136582857Y-88188041D01*
X136582857Y-95131160D01*
X136582857Y-95439523D01*
X136582857Y-97557619D01*
X135767804Y-97557619D01*
X135767804Y-98162381D01*
X137644977Y-98162381D01*
X138002671Y-98523847D01*
X138360365Y-98885312D01*
X138221227Y-99033417D01*
X138137958Y-99151523D01*
X138120377Y-99242129D01*
X138123384Y-99248337D01*
X138190948Y-99300040D01*
X138344630Y-99391730D01*
X138561751Y-99510546D01*
X138819635Y-99643624D01*
X138825196Y-99646415D01*
X139078580Y-99775965D01*
X139286996Y-99887232D01*
X139429603Y-99968751D01*
X139485564Y-100009056D01*
X139485714Y-100009819D01*
X139460617Y-100078794D01*
X139397626Y-100213590D01*
X139367994Y-100272711D01*
X139211341Y-100507309D01*
X138977997Y-100768432D01*
X138698826Y-101027275D01*
X138404693Y-101255036D01*
X138145956Y-101413110D01*
X137577196Y-101638752D01*
X136982791Y-101752632D01*
X136380442Y-101755073D01*
X135787848Y-101646400D01*
X135222710Y-101426935D01*
X135092333Y-101357364D01*
X134839863Y-101187806D01*
X134570672Y-100963074D01*
X134315727Y-100713262D01*
X134105996Y-100468462D01*
X133982100Y-100278497D01*
X133869541Y-100057863D01*
X134818672Y-99110122D01*
X135767804Y-98162381D01*
X135767804Y-97557619D01*
X135507742Y-97557619D01*
X135066223Y-97560857D01*
X134731417Y-97572839D01*
X134489202Y-97596971D01*
X134325455Y-97636655D01*
X134226056Y-97695297D01*
X134176882Y-97776300D01*
X134163809Y-97881572D01*
X134179176Y-97999944D01*
X134237695Y-98080244D01*
X134357995Y-98129427D01*
X134558707Y-98154448D01*
X134858459Y-98162263D01*
X134915956Y-98162381D01*
X135522959Y-98162381D01*
X134646837Y-99040968D01*
X133770714Y-99919554D01*
X133656300Y-99570134D01*
X133578990Y-99224939D01*
X133541012Y-98812368D01*
X133542727Y-98379546D01*
X133584496Y-97973600D01*
X133642104Y-97715866D01*
X133873450Y-97150046D01*
X134211931Y-96640102D01*
X134442526Y-96384907D01*
X134896159Y-96004930D01*
X135401061Y-95725887D01*
X135971418Y-95540932D01*
X136325833Y-95475742D01*
X136582857Y-95439523D01*
X136582857Y-95131160D01*
X136295595Y-95169856D01*
X135653884Y-95313497D01*
X135063852Y-95559758D01*
X134535762Y-95900033D01*
X134079877Y-96325715D01*
X133706459Y-96828195D01*
X133425770Y-97398866D01*
X133340541Y-97648333D01*
X133268650Y-98001784D01*
X133235450Y-98424328D01*
X133240404Y-98870647D01*
X133282971Y-99295419D01*
X133362612Y-99653327D01*
X133364475Y-99659167D01*
X133485888Y-100037143D01*
X124669048Y-100037143D01*
X124669048Y-94170952D01*
X125429434Y-94170952D01*
X125744796Y-94169578D01*
X125957975Y-94163668D01*
X126087724Y-94150541D01*
X126152798Y-94127513D01*
X126171952Y-94091905D01*
X126169544Y-94065119D01*
X126146562Y-94018227D01*
X126085062Y-93986114D01*
X125964309Y-93965133D01*
X125763569Y-93951638D01*
X125470784Y-93942197D01*
X124792301Y-93925108D01*
X125496595Y-92515003D01*
X125725134Y-92050582D01*
X125909262Y-91661927D01*
X126045863Y-91356104D01*
X126131821Y-91140176D01*
X126164021Y-91021207D01*
X126162580Y-91005068D01*
X126130142Y-90962134D01*
X126058350Y-90933329D01*
X125926918Y-90916007D01*
X125715560Y-90907525D01*
X125403988Y-90905239D01*
X125396660Y-90905238D01*
X125273809Y-90905238D01*
X125273809Y-91147143D01*
X125527233Y-91151353D01*
X125727754Y-91162706D01*
X125849954Y-91179286D01*
X125875350Y-91192500D01*
X125848172Y-91257472D01*
X125773906Y-91413938D01*
X125660513Y-91645693D01*
X125515953Y-91936530D01*
X125348186Y-92270244D01*
X125273809Y-92417143D01*
X124675489Y-93596429D01*
X124672268Y-92371786D01*
X124669048Y-91147143D01*
X125273809Y-91147143D01*
X125273809Y-90905238D01*
X124669048Y-90905238D01*
X124669048Y-83652327D01*
X125288928Y-83635092D01*
X125908809Y-83617857D01*
X125908809Y-77328333D01*
X125288928Y-77311099D01*
X124669048Y-77293864D01*
X124669048Y-76934676D01*
X124673618Y-76730938D01*
X124697110Y-76611278D01*
X124754196Y-76538898D01*
X124849452Y-76482196D01*
X125008986Y-76358560D01*
X125123148Y-76208500D01*
X125216439Y-76028095D01*
X125216439Y-75846667D01*
X125123148Y-75666262D01*
X124999512Y-75506728D01*
X124849452Y-75392566D01*
X124669047Y-75299275D01*
X124669047Y-68465578D01*
X124814431Y-68410303D01*
X125037583Y-68267545D01*
X125186947Y-68055128D01*
X125249562Y-67805156D01*
X125212465Y-67549734D01*
X125186297Y-67489201D01*
X125122619Y-67346091D01*
X125092705Y-67248413D01*
X125092381Y-67242936D01*
X125123777Y-67180034D01*
X125213018Y-67027346D01*
X125352681Y-66796916D01*
X125535345Y-66500790D01*
X125753587Y-66151013D01*
X125999987Y-65759631D01*
X126223181Y-65407704D01*
X126526449Y-64932113D01*
X126772728Y-64549139D01*
X126969230Y-64248891D01*
X127123170Y-64021482D01*
X127241760Y-63857021D01*
X127332213Y-63745619D01*
X127401744Y-63677386D01*
X127457565Y-63642433D01*
X127506889Y-63630871D01*
X127519482Y-63630476D01*
X127814992Y-63578946D01*
X128052945Y-63434591D01*
X128213615Y-63212768D01*
X128264400Y-63050573D01*
X128257156Y-62785947D01*
X128148618Y-62544705D01*
X127957260Y-62363256D01*
X127899851Y-62332074D01*
X127692857Y-62233849D01*
X127692857Y-59944535D01*
X127873262Y-59851244D01*
X128032796Y-59727608D01*
X128146958Y-59577548D01*
X128240249Y-59397143D01*
X135070952Y-59397143D01*
X135070952Y-71310952D01*
X130716667Y-71310952D01*
X130716667Y-68465578D01*
X130862050Y-68410303D01*
X131083934Y-68270663D01*
X131227055Y-68068751D01*
X131289879Y-67832665D01*
X131270870Y-67590503D01*
X131168494Y-67370362D01*
X130981216Y-67200341D01*
X130929639Y-67173007D01*
X130679715Y-67089133D01*
X130649021Y-67091062D01*
X130649021Y-67259048D01*
X130823996Y-67307458D01*
X130940332Y-67395119D01*
X131092273Y-67609647D01*
X131130367Y-67806092D01*
X131055793Y-68003766D01*
X130983433Y-68101074D01*
X130797472Y-68253341D01*
X130599325Y-68285721D01*
X130392917Y-68198202D01*
X130281606Y-68103291D01*
X130163340Y-67965280D01*
X130123594Y-67845037D01*
X130135003Y-67725315D01*
X130224416Y-67518309D01*
X130384980Y-67354193D01*
X130580361Y-67265925D01*
X130649021Y-67259048D01*
X130649021Y-67091062D01*
X130461439Y-67102855D01*
X130288522Y-67180795D01*
X130093408Y-67360922D01*
X129977777Y-67603796D01*
X129960378Y-67868283D01*
X129964327Y-67892035D01*
X130049231Y-68104250D01*
X130201159Y-68297399D01*
X130382163Y-68425789D01*
X130419348Y-68439940D01*
X130454767Y-68457758D01*
X130482263Y-68495507D01*
X130503052Y-68567515D01*
X130518352Y-68688111D01*
X130529382Y-68871623D01*
X130537359Y-69132378D01*
X130543501Y-69484706D01*
X130549025Y-69942934D01*
X130549309Y-69969100D01*
X130565476Y-71462143D01*
X135222143Y-71462143D01*
X135222143Y-59245952D01*
X131730942Y-59230343D01*
X128239741Y-59214733D01*
X128146704Y-59034819D01*
X128023292Y-58875679D01*
X127873262Y-58761614D01*
X127775637Y-58703363D01*
X127721588Y-58633553D01*
X127698287Y-58517717D01*
X127692911Y-58321386D01*
X127692857Y-58276780D01*
X127692857Y-57885238D01*
X142023400Y-57885238D01*
X142039676Y-59230833D01*
X142055952Y-60576429D01*
X142479286Y-60576429D01*
X142479286Y-55012619D01*
X142252500Y-54993849D01*
X142025714Y-54975080D01*
X142025714Y-57703320D01*
X134783690Y-57718684D01*
X127625211Y-57733870D01*
X127625211Y-62420952D01*
X127800186Y-62469363D01*
X127916522Y-62557024D01*
X128068464Y-62771552D01*
X128106558Y-62967997D01*
X128031983Y-63165670D01*
X127959624Y-63262979D01*
X127773663Y-63415246D01*
X127575516Y-63447626D01*
X127369108Y-63360106D01*
X127257797Y-63265196D01*
X127139530Y-63127185D01*
X127099785Y-63006941D01*
X127111194Y-62887220D01*
X127200607Y-62680214D01*
X127361171Y-62516097D01*
X127556551Y-62427830D01*
X127625211Y-62420952D01*
X127625211Y-57733870D01*
X127541667Y-57734048D01*
X127524008Y-58202498D01*
X127512500Y-58440079D01*
X127493017Y-58587045D01*
X127454983Y-58673706D01*
X127387825Y-58730371D01*
X127328484Y-58762927D01*
X127164448Y-58895015D01*
X127033338Y-59082318D01*
X126969018Y-59273901D01*
X126967143Y-59306429D01*
X127015269Y-59493758D01*
X127137181Y-59686097D01*
X127299180Y-59832990D01*
X127331024Y-59851244D01*
X127511428Y-59944535D01*
X127511428Y-62212019D01*
X127302948Y-62324293D01*
X127096167Y-62495019D01*
X126970626Y-62722062D01*
X126932451Y-62974122D01*
X126987767Y-63219901D01*
X127095791Y-63382899D01*
X127125503Y-63417756D01*
X127142832Y-63456333D01*
X127142124Y-63509189D01*
X127117729Y-63586887D01*
X127063995Y-63699985D01*
X126975269Y-63859046D01*
X126845901Y-64074628D01*
X126670237Y-64357293D01*
X126442627Y-64717602D01*
X126157419Y-65166113D01*
X126057298Y-65323342D01*
X124901656Y-67138038D01*
X124670141Y-67101017D01*
X124578590Y-67104497D01*
X124578590Y-67259048D01*
X124724453Y-67299509D01*
X124868400Y-67395119D01*
X125034924Y-67596900D01*
X125084417Y-67789311D01*
X125018312Y-67987378D01*
X124935814Y-68101074D01*
X124749853Y-68253341D01*
X124551706Y-68285721D01*
X124345298Y-68198202D01*
X124233987Y-68103291D01*
X124115721Y-67965280D01*
X124075975Y-67845037D01*
X124087384Y-67725315D01*
X124171431Y-67527814D01*
X124321299Y-67364443D01*
X124500434Y-67269901D01*
X124578590Y-67259048D01*
X124578590Y-67104497D01*
X124409250Y-67110934D01*
X124191326Y-67213935D01*
X124027971Y-67386290D01*
X123930786Y-67604266D01*
X123911371Y-67844135D01*
X123981329Y-68082164D01*
X124107015Y-68252903D01*
X124243137Y-68367221D01*
X124367137Y-68438367D01*
X124372777Y-68440273D01*
X124397298Y-68451762D01*
X124418058Y-68475661D01*
X124435370Y-68521355D01*
X124449546Y-68598230D01*
X124460899Y-68715670D01*
X124469742Y-68883060D01*
X124476387Y-69109787D01*
X124481146Y-69405234D01*
X124484334Y-69778786D01*
X124486261Y-70239830D01*
X124487241Y-70797750D01*
X124487586Y-71461931D01*
X124487619Y-71887999D01*
X124487619Y-75299275D01*
X124307214Y-75392566D01*
X124141476Y-75525442D01*
X124009557Y-75713148D01*
X123945156Y-75905228D01*
X123943333Y-75937381D01*
X123991459Y-76124710D01*
X124113372Y-76317050D01*
X124275371Y-76463943D01*
X124307214Y-76482196D01*
X124408356Y-76543598D01*
X124462354Y-76618295D01*
X124483881Y-76743085D01*
X124487619Y-76934676D01*
X124487619Y-77293864D01*
X123867738Y-77311099D01*
X123520000Y-77320766D01*
X123520000Y-77600476D01*
X125636667Y-77600476D01*
X125636667Y-83345714D01*
X123520000Y-83345714D01*
X123520000Y-77600476D01*
X123520000Y-77320766D01*
X123247857Y-77328333D01*
X123247857Y-83617857D01*
X124487619Y-83652327D01*
X124487619Y-90905238D01*
X123882857Y-90905238D01*
X123882857Y-91147143D01*
X124487619Y-91147143D01*
X124481177Y-93596429D01*
X123882857Y-92417143D01*
X123707813Y-92070421D01*
X123552679Y-91759866D01*
X123425417Y-91501684D01*
X123333986Y-91312081D01*
X123286346Y-91207262D01*
X123281316Y-91192500D01*
X123336102Y-91173471D01*
X123486407Y-91158371D01*
X123706814Y-91149118D01*
X123882857Y-91147143D01*
X123882857Y-90905238D01*
X123827327Y-90905238D01*
X123484029Y-90908550D01*
X123244467Y-90920602D01*
X123091552Y-90944566D01*
X123008195Y-90983619D01*
X122977308Y-91040932D01*
X122975714Y-91063403D01*
X123001861Y-91138636D01*
X123075460Y-91306338D01*
X123189248Y-91551110D01*
X123335961Y-91857550D01*
X123508338Y-92210260D01*
X123671442Y-92538599D01*
X124367171Y-93929048D01*
X123767103Y-93929048D01*
X123436734Y-93932955D01*
X123209772Y-93946982D01*
X123068858Y-93974588D01*
X122996631Y-94019230D01*
X122975730Y-94084369D01*
X122975714Y-94086708D01*
X122998470Y-94122887D01*
X122998470Y-94122887D01*
G37*
X122998470Y-94122887D02*
X123078101Y-94147486D01*
X123231654Y-94162408D01*
X123476175Y-94169553D01*
X123731102Y-94170952D01*
X124486490Y-94170952D01*
X124502173Y-97179643D01*
X124517857Y-100188333D01*
X129067656Y-100203835D01*
X133617456Y-100219336D01*
X133736912Y-100453491D01*
X133951612Y-100773521D01*
X134259168Y-101094917D01*
X134633370Y-101397778D01*
X135048005Y-101662201D01*
X135476863Y-101868285D01*
X135705952Y-101948552D01*
X136051545Y-102019081D01*
X136466265Y-102053496D01*
X136903817Y-102051838D01*
X137317904Y-102014147D01*
X137641190Y-101946846D01*
X138064167Y-101783209D01*
X138488329Y-101549684D01*
X138887279Y-101266287D01*
X139234624Y-100953038D01*
X139503968Y-100629955D01*
X139610194Y-100453563D01*
X139729614Y-100219479D01*
X143523497Y-100203906D01*
X147317381Y-100188333D01*
X147332652Y-88381832D01*
X147347923Y-76575330D01*
X147528176Y-76482118D01*
X147698320Y-76345068D01*
X147829335Y-76152277D01*
X147888773Y-75953755D01*
X147889483Y-75925265D01*
X147859598Y-75794499D01*
X147797236Y-75650879D01*
X147676781Y-75502634D01*
X147527717Y-75392407D01*
X147348025Y-75299485D01*
X147332703Y-66516766D01*
X147317381Y-57734048D01*
X145429070Y-57718069D01*
X143540760Y-57702091D01*
X143524070Y-56780688D01*
X143507381Y-55859286D01*
X143128539Y-55841258D01*
X142749697Y-55823231D01*
X142765682Y-57716020D01*
X142781667Y-59608810D01*
X143507381Y-59608810D01*
X143524160Y-58747024D01*
X143540940Y-57885238D01*
X147166190Y-57885238D01*
X147166190Y-75299275D01*
X146985785Y-75392566D01*
X146826252Y-75516202D01*
X146712090Y-75666262D01*
X146650688Y-75767404D01*
X146575991Y-75821402D01*
X146451200Y-75842928D01*
X146259610Y-75846667D01*
X145900422Y-75846667D01*
X145865952Y-74606905D01*
X139848571Y-74606905D01*
X139848571Y-74879048D01*
X145593809Y-74879048D01*
X145593809Y-76995714D01*
X139848571Y-76995714D01*
X139848571Y-74879048D01*
X139848571Y-74606905D01*
X139576428Y-74606905D01*
X139559194Y-75226786D01*
X139541959Y-75846667D01*
X137311677Y-75846667D01*
X137311677Y-76028095D01*
X139541959Y-76028095D01*
X139559194Y-76647976D01*
X139576428Y-77267857D01*
X145865952Y-77267857D01*
X145900422Y-76028095D01*
X146259610Y-76028095D01*
X146463348Y-76032666D01*
X146583007Y-76056158D01*
X146655387Y-76113244D01*
X146712090Y-76208500D01*
X146835725Y-76368034D01*
X146985785Y-76482196D01*
X147166190Y-76575487D01*
X147166190Y-100037143D01*
X139861254Y-100037143D01*
X139982668Y-99659167D01*
X140063006Y-99302963D01*
X140106280Y-98879036D01*
X140111951Y-98432705D01*
X140079480Y-98009289D01*
X140008326Y-97654108D01*
X140006601Y-97648333D01*
X139779870Y-97089965D01*
X139454320Y-96567913D01*
X139048441Y-96105376D01*
X138580720Y-95725556D01*
X138372097Y-95597292D01*
X137889753Y-95382280D01*
X137320287Y-95224196D01*
X136991071Y-95165966D01*
X136764286Y-95133091D01*
X136764286Y-95430321D01*
X137021309Y-95469965D01*
X137631187Y-95608914D01*
X138162397Y-95829437D01*
X138632783Y-96140201D01*
X138904617Y-96384907D01*
X139298815Y-96862511D01*
X139589713Y-97401995D01*
X139774855Y-97998455D01*
X139810155Y-98192619D01*
X139826146Y-98443255D01*
X139815420Y-98761569D01*
X139782143Y-99098294D01*
X139730483Y-99404167D01*
X139696161Y-99540007D01*
X139634679Y-99707855D01*
X139575198Y-99808439D01*
X139541518Y-99822589D01*
X139491652Y-99756313D01*
X139402404Y-99605117D01*
X139287288Y-99392852D01*
X139183333Y-99190476D01*
X139057560Y-98946381D01*
X138947191Y-98744153D01*
X138865553Y-98607496D01*
X138829381Y-98560980D01*
X138748406Y-98570580D01*
X138629245Y-98640943D01*
X138625592Y-98643794D01*
X138476967Y-98760703D01*
X138182304Y-98461542D01*
X137887642Y-98162381D01*
X138493154Y-98162381D01*
X138809874Y-98156615D01*
X139024631Y-98134670D01*
X139156066Y-98089572D01*
X139222816Y-98014349D01*
X139243523Y-97902028D01*
X139243809Y-97881572D01*
X139230899Y-97776279D01*
X139182817Y-97696169D01*
X139085539Y-97637936D01*
X138925040Y-97598274D01*
X138687295Y-97573876D01*
X138358280Y-97561437D01*
X137923969Y-97557649D01*
X137869639Y-97557619D01*
X136764286Y-97557619D01*
X136764286Y-95430321D01*
X136764286Y-95133091D01*
X136764286Y-88188041D01*
X138004048Y-88153571D01*
X138004048Y-81864048D01*
X136764286Y-81829578D01*
X136764286Y-76575487D01*
X136944690Y-76482196D01*
X137104224Y-76358560D01*
X137218386Y-76208500D01*
X137311677Y-76028095D01*
X137311677Y-75846667D01*
X137218386Y-75666262D01*
X137085511Y-75500524D01*
X136897805Y-75368605D01*
X136705724Y-75304204D01*
X136673571Y-75302381D01*
X136486242Y-75350507D01*
X136293903Y-75472419D01*
X136147010Y-75634419D01*
X136128756Y-75666262D01*
X136035465Y-75846667D01*
X133805184Y-75846667D01*
X133770714Y-74606905D01*
X127753333Y-74606905D01*
X127753333Y-74879048D01*
X133498571Y-74879048D01*
X133498571Y-76995714D01*
X127753333Y-76995714D01*
X127753333Y-74879048D01*
X127753333Y-74606905D01*
X127481190Y-74606905D01*
X127463956Y-75226786D01*
X127446721Y-75846667D01*
X125216439Y-75846667D01*
X125216439Y-76028095D01*
X127446721Y-76028095D01*
X127463956Y-76647976D01*
X127481190Y-77267857D01*
X133770714Y-77267857D01*
X133805184Y-76028095D01*
X136035465Y-76028095D01*
X136128756Y-76208500D01*
X136252392Y-76368034D01*
X136402452Y-76482196D01*
X136582857Y-76575487D01*
X136582857Y-81829578D01*
X135615238Y-81856481D01*
X135615238Y-82136191D01*
X137731905Y-82136191D01*
X137731905Y-87881429D01*
X135615238Y-87881429D01*
X135615238Y-82136191D01*
X135615238Y-81856481D01*
X135343095Y-81864048D01*
X135343095Y-88153571D01*
X136582857Y-88188041D01*
X136582857Y-95131160D01*
X136582857Y-95439523D01*
X136582857Y-97557619D01*
X135767804Y-97557619D01*
X135767804Y-98162381D01*
X137644977Y-98162381D01*
X138002671Y-98523847D01*
X138360365Y-98885312D01*
X138221227Y-99033417D01*
X138137958Y-99151523D01*
X138120377Y-99242129D01*
X138123384Y-99248337D01*
X138190948Y-99300040D01*
X138344630Y-99391730D01*
X138561751Y-99510546D01*
X138819635Y-99643624D01*
X138825196Y-99646415D01*
X139078580Y-99775965D01*
X139286996Y-99887232D01*
X139429603Y-99968751D01*
X139485564Y-100009056D01*
X139485714Y-100009819D01*
X139460617Y-100078794D01*
X139397626Y-100213590D01*
X139367994Y-100272711D01*
X139211341Y-100507309D01*
X138977997Y-100768432D01*
X138698826Y-101027275D01*
X138404693Y-101255036D01*
X138145956Y-101413110D01*
X137577196Y-101638752D01*
X136982791Y-101752632D01*
X136380442Y-101755073D01*
X135787848Y-101646400D01*
X135222710Y-101426935D01*
X135092333Y-101357364D01*
X134839863Y-101187806D01*
X134570672Y-100963074D01*
X134315727Y-100713262D01*
X134105996Y-100468462D01*
X133982100Y-100278497D01*
X133869541Y-100057863D01*
X134818672Y-99110122D01*
X135767804Y-98162381D01*
X135767804Y-97557619D01*
X135507742Y-97557619D01*
X135066223Y-97560857D01*
X134731417Y-97572839D01*
X134489202Y-97596971D01*
X134325455Y-97636655D01*
X134226056Y-97695297D01*
X134176882Y-97776300D01*
X134163809Y-97881572D01*
X134179176Y-97999944D01*
X134237695Y-98080244D01*
X134357995Y-98129427D01*
X134558707Y-98154448D01*
X134858459Y-98162263D01*
X134915956Y-98162381D01*
X135522959Y-98162381D01*
X134646837Y-99040968D01*
X133770714Y-99919554D01*
X133656300Y-99570134D01*
X133578990Y-99224939D01*
X133541012Y-98812368D01*
X133542727Y-98379546D01*
X133584496Y-97973600D01*
X133642104Y-97715866D01*
X133873450Y-97150046D01*
X134211931Y-96640102D01*
X134442526Y-96384907D01*
X134896159Y-96004930D01*
X135401061Y-95725887D01*
X135971418Y-95540932D01*
X136325833Y-95475742D01*
X136582857Y-95439523D01*
X136582857Y-95131160D01*
X136295595Y-95169856D01*
X135653884Y-95313497D01*
X135063852Y-95559758D01*
X134535762Y-95900033D01*
X134079877Y-96325715D01*
X133706459Y-96828195D01*
X133425770Y-97398866D01*
X133340541Y-97648333D01*
X133268650Y-98001784D01*
X133235450Y-98424328D01*
X133240404Y-98870647D01*
X133282971Y-99295419D01*
X133362612Y-99653327D01*
X133364475Y-99659167D01*
X133485888Y-100037143D01*
X124669048Y-100037143D01*
X124669048Y-94170952D01*
X125429434Y-94170952D01*
X125744796Y-94169578D01*
X125957975Y-94163668D01*
X126087724Y-94150541D01*
X126152798Y-94127513D01*
X126171952Y-94091905D01*
X126169544Y-94065119D01*
X126146562Y-94018227D01*
X126085062Y-93986114D01*
X125964309Y-93965133D01*
X125763569Y-93951638D01*
X125470784Y-93942197D01*
X124792301Y-93925108D01*
X125496595Y-92515003D01*
X125725134Y-92050582D01*
X125909262Y-91661927D01*
X126045863Y-91356104D01*
X126131821Y-91140176D01*
X126164021Y-91021207D01*
X126162580Y-91005068D01*
X126130142Y-90962134D01*
X126058350Y-90933329D01*
X125926918Y-90916007D01*
X125715560Y-90907525D01*
X125403988Y-90905239D01*
X125396660Y-90905238D01*
X125273809Y-90905238D01*
X125273809Y-91147143D01*
X125527233Y-91151353D01*
X125727754Y-91162706D01*
X125849954Y-91179286D01*
X125875350Y-91192500D01*
X125848172Y-91257472D01*
X125773906Y-91413938D01*
X125660513Y-91645693D01*
X125515953Y-91936530D01*
X125348186Y-92270244D01*
X125273809Y-92417143D01*
X124675489Y-93596429D01*
X124672268Y-92371786D01*
X124669048Y-91147143D01*
X125273809Y-91147143D01*
X125273809Y-90905238D01*
X124669048Y-90905238D01*
X124669048Y-83652327D01*
X125288928Y-83635092D01*
X125908809Y-83617857D01*
X125908809Y-77328333D01*
X125288928Y-77311099D01*
X124669048Y-77293864D01*
X124669048Y-76934676D01*
X124673618Y-76730938D01*
X124697110Y-76611278D01*
X124754196Y-76538898D01*
X124849452Y-76482196D01*
X125008986Y-76358560D01*
X125123148Y-76208500D01*
X125216439Y-76028095D01*
X125216439Y-75846667D01*
X125123148Y-75666262D01*
X124999512Y-75506728D01*
X124849452Y-75392566D01*
X124669047Y-75299275D01*
X124669047Y-68465578D01*
X124814431Y-68410303D01*
X125037583Y-68267545D01*
X125186947Y-68055128D01*
X125249562Y-67805156D01*
X125212465Y-67549734D01*
X125186297Y-67489201D01*
X125122619Y-67346091D01*
X125092705Y-67248413D01*
X125092381Y-67242936D01*
X125123777Y-67180034D01*
X125213018Y-67027346D01*
X125352681Y-66796916D01*
X125535345Y-66500790D01*
X125753587Y-66151013D01*
X125999987Y-65759631D01*
X126223181Y-65407704D01*
X126526449Y-64932113D01*
X126772728Y-64549139D01*
X126969230Y-64248891D01*
X127123170Y-64021482D01*
X127241760Y-63857021D01*
X127332213Y-63745619D01*
X127401744Y-63677386D01*
X127457565Y-63642433D01*
X127506889Y-63630871D01*
X127519482Y-63630476D01*
X127814992Y-63578946D01*
X128052945Y-63434591D01*
X128213615Y-63212768D01*
X128264400Y-63050573D01*
X128257156Y-62785947D01*
X128148618Y-62544705D01*
X127957260Y-62363256D01*
X127899851Y-62332074D01*
X127692857Y-62233849D01*
X127692857Y-59944535D01*
X127873262Y-59851244D01*
X128032796Y-59727608D01*
X128146958Y-59577548D01*
X128240249Y-59397143D01*
X135070952Y-59397143D01*
X135070952Y-71310952D01*
X130716667Y-71310952D01*
X130716667Y-68465578D01*
X130862050Y-68410303D01*
X131083934Y-68270663D01*
X131227055Y-68068751D01*
X131289879Y-67832665D01*
X131270870Y-67590503D01*
X131168494Y-67370362D01*
X130981216Y-67200341D01*
X130929639Y-67173007D01*
X130679715Y-67089133D01*
X130649021Y-67091062D01*
X130649021Y-67259048D01*
X130823996Y-67307458D01*
X130940332Y-67395119D01*
X131092273Y-67609647D01*
X131130367Y-67806092D01*
X131055793Y-68003766D01*
X130983433Y-68101074D01*
X130797472Y-68253341D01*
X130599325Y-68285721D01*
X130392917Y-68198202D01*
X130281606Y-68103291D01*
X130163340Y-67965280D01*
X130123594Y-67845037D01*
X130135003Y-67725315D01*
X130224416Y-67518309D01*
X130384980Y-67354193D01*
X130580361Y-67265925D01*
X130649021Y-67259048D01*
X130649021Y-67091062D01*
X130461439Y-67102855D01*
X130288522Y-67180795D01*
X130093408Y-67360922D01*
X129977777Y-67603796D01*
X129960378Y-67868283D01*
X129964327Y-67892035D01*
X130049231Y-68104250D01*
X130201159Y-68297399D01*
X130382163Y-68425789D01*
X130419348Y-68439940D01*
X130454767Y-68457758D01*
X130482263Y-68495507D01*
X130503052Y-68567515D01*
X130518352Y-68688111D01*
X130529382Y-68871623D01*
X130537359Y-69132378D01*
X130543501Y-69484706D01*
X130549025Y-69942934D01*
X130549309Y-69969100D01*
X130565476Y-71462143D01*
X135222143Y-71462143D01*
X135222143Y-59245952D01*
X131730942Y-59230343D01*
X128239741Y-59214733D01*
X128146704Y-59034819D01*
X128023292Y-58875679D01*
X127873262Y-58761614D01*
X127775637Y-58703363D01*
X127721588Y-58633553D01*
X127698287Y-58517717D01*
X127692911Y-58321386D01*
X127692857Y-58276780D01*
X127692857Y-57885238D01*
X142023400Y-57885238D01*
X142039676Y-59230833D01*
X142055952Y-60576429D01*
X142479286Y-60576429D01*
X142479286Y-55012619D01*
X142252500Y-54993849D01*
X142025714Y-54975080D01*
X142025714Y-57703320D01*
X134783690Y-57718684D01*
X127625211Y-57733870D01*
X127625211Y-62420952D01*
X127800186Y-62469363D01*
X127916522Y-62557024D01*
X128068464Y-62771552D01*
X128106558Y-62967997D01*
X128031983Y-63165670D01*
X127959624Y-63262979D01*
X127773663Y-63415246D01*
X127575516Y-63447626D01*
X127369108Y-63360106D01*
X127257797Y-63265196D01*
X127139530Y-63127185D01*
X127099785Y-63006941D01*
X127111194Y-62887220D01*
X127200607Y-62680214D01*
X127361171Y-62516097D01*
X127556551Y-62427830D01*
X127625211Y-62420952D01*
X127625211Y-57733870D01*
X127541667Y-57734048D01*
X127524008Y-58202498D01*
X127512500Y-58440079D01*
X127493017Y-58587045D01*
X127454983Y-58673706D01*
X127387825Y-58730371D01*
X127328484Y-58762927D01*
X127164448Y-58895015D01*
X127033338Y-59082318D01*
X126969018Y-59273901D01*
X126967143Y-59306429D01*
X127015269Y-59493758D01*
X127137181Y-59686097D01*
X127299180Y-59832990D01*
X127331024Y-59851244D01*
X127511428Y-59944535D01*
X127511428Y-62212019D01*
X127302948Y-62324293D01*
X127096167Y-62495019D01*
X126970626Y-62722062D01*
X126932451Y-62974122D01*
X126987767Y-63219901D01*
X127095791Y-63382899D01*
X127125503Y-63417756D01*
X127142832Y-63456333D01*
X127142124Y-63509189D01*
X127117729Y-63586887D01*
X127063995Y-63699985D01*
X126975269Y-63859046D01*
X126845901Y-64074628D01*
X126670237Y-64357293D01*
X126442627Y-64717602D01*
X126157419Y-65166113D01*
X126057298Y-65323342D01*
X124901656Y-67138038D01*
X124670141Y-67101017D01*
X124578590Y-67104497D01*
X124578590Y-67259048D01*
X124724453Y-67299509D01*
X124868400Y-67395119D01*
X125034924Y-67596900D01*
X125084417Y-67789311D01*
X125018312Y-67987378D01*
X124935814Y-68101074D01*
X124749853Y-68253341D01*
X124551706Y-68285721D01*
X124345298Y-68198202D01*
X124233987Y-68103291D01*
X124115721Y-67965280D01*
X124075975Y-67845037D01*
X124087384Y-67725315D01*
X124171431Y-67527814D01*
X124321299Y-67364443D01*
X124500434Y-67269901D01*
X124578590Y-67259048D01*
X124578590Y-67104497D01*
X124409250Y-67110934D01*
X124191326Y-67213935D01*
X124027971Y-67386290D01*
X123930786Y-67604266D01*
X123911371Y-67844135D01*
X123981329Y-68082164D01*
X124107015Y-68252903D01*
X124243137Y-68367221D01*
X124367137Y-68438367D01*
X124372777Y-68440273D01*
X124397298Y-68451762D01*
X124418058Y-68475661D01*
X124435370Y-68521355D01*
X124449546Y-68598230D01*
X124460899Y-68715670D01*
X124469742Y-68883060D01*
X124476387Y-69109787D01*
X124481146Y-69405234D01*
X124484334Y-69778786D01*
X124486261Y-70239830D01*
X124487241Y-70797750D01*
X124487586Y-71461931D01*
X124487619Y-71887999D01*
X124487619Y-75299275D01*
X124307214Y-75392566D01*
X124141476Y-75525442D01*
X124009557Y-75713148D01*
X123945156Y-75905228D01*
X123943333Y-75937381D01*
X123991459Y-76124710D01*
X124113372Y-76317050D01*
X124275371Y-76463943D01*
X124307214Y-76482196D01*
X124408356Y-76543598D01*
X124462354Y-76618295D01*
X124483881Y-76743085D01*
X124487619Y-76934676D01*
X124487619Y-77293864D01*
X123867738Y-77311099D01*
X123520000Y-77320766D01*
X123520000Y-77600476D01*
X125636667Y-77600476D01*
X125636667Y-83345714D01*
X123520000Y-83345714D01*
X123520000Y-77600476D01*
X123520000Y-77320766D01*
X123247857Y-77328333D01*
X123247857Y-83617857D01*
X124487619Y-83652327D01*
X124487619Y-90905238D01*
X123882857Y-90905238D01*
X123882857Y-91147143D01*
X124487619Y-91147143D01*
X124481177Y-93596429D01*
X123882857Y-92417143D01*
X123707813Y-92070421D01*
X123552679Y-91759866D01*
X123425417Y-91501684D01*
X123333986Y-91312081D01*
X123286346Y-91207262D01*
X123281316Y-91192500D01*
X123336102Y-91173471D01*
X123486407Y-91158371D01*
X123706814Y-91149118D01*
X123882857Y-91147143D01*
X123882857Y-90905238D01*
X123827327Y-90905238D01*
X123484029Y-90908550D01*
X123244467Y-90920602D01*
X123091552Y-90944566D01*
X123008195Y-90983619D01*
X122977308Y-91040932D01*
X122975714Y-91063403D01*
X123001861Y-91138636D01*
X123075460Y-91306338D01*
X123189248Y-91551110D01*
X123335961Y-91857550D01*
X123508338Y-92210260D01*
X123671442Y-92538599D01*
X124367171Y-93929048D01*
X123767103Y-93929048D01*
X123436734Y-93932955D01*
X123209772Y-93946982D01*
X123068858Y-93974588D01*
X122996631Y-94019230D01*
X122975730Y-94084369D01*
X122975714Y-94086708D01*
X122998470Y-94122887D01*
G36*
X150134794Y-65357221D02*
X150158000Y-65360667D01*
X150240466Y-65331780D01*
X150242667Y-65323330D01*
X150183338Y-65251044D01*
X150158000Y-65233667D01*
X150079981Y-65240380D01*
X150073334Y-65271003D01*
X150134794Y-65357221D01*
X150134794Y-65357221D01*
G37*
X150134794Y-65357221D02*
X150158000Y-65360667D01*
X150240466Y-65331780D01*
X150242667Y-65323330D01*
X150183338Y-65251044D01*
X150158000Y-65233667D01*
X150079981Y-65240380D01*
X150073334Y-65271003D01*
X150134794Y-65357221D01*
G36*
X151589958Y-66927997D02*
X151792808Y-66951955D01*
X152077678Y-66956787D01*
X152084167Y-66956648D01*
X152330628Y-66946135D01*
X152456625Y-66930020D01*
X152439456Y-66911518D01*
X152422834Y-66908691D01*
X152257060Y-66859392D01*
X152198450Y-66750690D01*
X152228785Y-66538925D01*
X152243985Y-66480126D01*
X152325777Y-66338675D01*
X152447371Y-66335403D01*
X152590143Y-66335888D01*
X152667131Y-66267422D01*
X152631454Y-66177503D01*
X152614715Y-66165854D01*
X152535833Y-66174048D01*
X152528667Y-66207334D01*
X152477092Y-66262546D01*
X152444000Y-66249667D01*
X152365922Y-66116243D01*
X152381394Y-65925733D01*
X152480925Y-65755426D01*
X152507500Y-65732527D01*
X152585095Y-65645722D01*
X152555881Y-65617360D01*
X152423116Y-65670124D01*
X152310501Y-65760262D01*
X152196178Y-65854006D01*
X152114073Y-65820337D01*
X152040126Y-65717928D01*
X151899972Y-65574400D01*
X151766941Y-65534789D01*
X151688102Y-65607102D01*
X151682000Y-65657000D01*
X151752177Y-65760931D01*
X151846337Y-65784000D01*
X152034430Y-65821527D01*
X152079502Y-65922308D01*
X151987262Y-66068642D01*
X151763417Y-66242827D01*
X151682705Y-66291447D01*
X151605507Y-66381904D01*
X151619539Y-66427095D01*
X151715937Y-66418276D01*
X151869494Y-66313932D01*
X151893667Y-66292000D01*
X152063127Y-66160405D01*
X152154642Y-66166988D01*
X152175675Y-66319348D01*
X152147008Y-66549902D01*
X152101724Y-66770766D01*
X152035922Y-66864826D01*
X151903732Y-66872703D01*
X151799935Y-66857263D01*
X151609399Y-66846434D01*
X151514911Y-66880447D01*
X151512667Y-66889990D01*
X151589958Y-66927997D01*
X151589958Y-66927997D01*
G37*
X151589958Y-66927997D02*
X151792808Y-66951955D01*
X152077678Y-66956787D01*
X152084167Y-66956648D01*
X152330628Y-66946135D01*
X152456625Y-66930020D01*
X152439456Y-66911518D01*
X152422834Y-66908691D01*
X152257060Y-66859392D01*
X152198450Y-66750690D01*
X152228785Y-66538925D01*
X152243985Y-66480126D01*
X152325777Y-66338675D01*
X152447371Y-66335403D01*
X152590143Y-66335888D01*
X152667131Y-66267422D01*
X152631454Y-66177503D01*
X152614715Y-66165854D01*
X152535833Y-66174048D01*
X152528667Y-66207334D01*
X152477092Y-66262546D01*
X152444000Y-66249667D01*
X152365922Y-66116243D01*
X152381394Y-65925733D01*
X152480925Y-65755426D01*
X152507500Y-65732527D01*
X152585095Y-65645722D01*
X152555881Y-65617360D01*
X152423116Y-65670124D01*
X152310501Y-65760262D01*
X152196178Y-65854006D01*
X152114073Y-65820337D01*
X152040126Y-65717928D01*
X151899972Y-65574400D01*
X151766941Y-65534789D01*
X151688102Y-65607102D01*
X151682000Y-65657000D01*
X151752177Y-65760931D01*
X151846337Y-65784000D01*
X152034430Y-65821527D01*
X152079502Y-65922308D01*
X151987262Y-66068642D01*
X151763417Y-66242827D01*
X151682705Y-66291447D01*
X151605507Y-66381904D01*
X151619539Y-66427095D01*
X151715937Y-66418276D01*
X151869494Y-66313932D01*
X151893667Y-66292000D01*
X152063127Y-66160405D01*
X152154642Y-66166988D01*
X152175675Y-66319348D01*
X152147008Y-66549902D01*
X152101724Y-66770766D01*
X152035922Y-66864826D01*
X151903732Y-66872703D01*
X151799935Y-66857263D01*
X151609399Y-66846434D01*
X151514911Y-66880447D01*
X151512667Y-66889990D01*
X151589958Y-66927997D01*
G36*
X152847096Y-65781540D02*
X152867334Y-65784000D01*
X152949540Y-65719571D01*
X152952000Y-65699334D01*
X152887571Y-65617127D01*
X152867334Y-65614667D01*
X152785127Y-65679096D01*
X152782667Y-65699334D01*
X152847096Y-65781540D01*
X152847096Y-65781540D01*
G37*
X152847096Y-65781540D02*
X152867334Y-65784000D01*
X152949540Y-65719571D01*
X152952000Y-65699334D01*
X152887571Y-65617127D01*
X152867334Y-65614667D01*
X152785127Y-65679096D01*
X152782667Y-65699334D01*
X152847096Y-65781540D01*
G36*
X151720279Y-65209927D02*
X151951907Y-65259631D01*
X152175064Y-65302675D01*
X152279371Y-65401729D01*
X152300210Y-65471298D01*
X152328134Y-65598699D01*
X152341032Y-65562753D01*
X152347803Y-65459773D01*
X152378537Y-65324495D01*
X152483142Y-65295311D01*
X152602598Y-65315976D01*
X152809567Y-65325349D01*
X152890456Y-65253198D01*
X152878026Y-65182105D01*
X152750957Y-65148348D01*
X152517187Y-65142996D01*
X152215245Y-65122528D01*
X152045260Y-65054771D01*
X152028684Y-65034836D01*
X151905298Y-64954750D01*
X151751902Y-64968096D01*
X151648919Y-65059785D01*
X151639667Y-65107826D01*
X151720279Y-65209927D01*
X151720279Y-65209927D01*
G37*
X151720279Y-65209927D02*
X151951907Y-65259631D01*
X152175064Y-65302675D01*
X152279371Y-65401729D01*
X152300210Y-65471298D01*
X152328134Y-65598699D01*
X152341032Y-65562753D01*
X152347803Y-65459773D01*
X152378537Y-65324495D01*
X152483142Y-65295311D01*
X152602598Y-65315976D01*
X152809567Y-65325349D01*
X152890456Y-65253198D01*
X152878026Y-65182105D01*
X152750957Y-65148348D01*
X152517187Y-65142996D01*
X152215245Y-65122528D01*
X152045260Y-65054771D01*
X152028684Y-65034836D01*
X151905298Y-64954750D01*
X151751902Y-64968096D01*
X151648919Y-65059785D01*
X151639667Y-65107826D01*
X151720279Y-65209927D01*
G36*
X153111046Y-67159296D02*
X153286434Y-67210747D01*
X153494980Y-67187966D01*
X153754372Y-67081958D01*
X153919469Y-66903585D01*
X153968827Y-66693823D01*
X153881001Y-66493649D01*
X153866400Y-66478267D01*
X153714000Y-66405835D01*
X153714000Y-66546000D01*
X153851904Y-66598940D01*
X153883334Y-66673000D01*
X153812747Y-66776428D01*
X153714000Y-66800000D01*
X153634330Y-66769417D01*
X153634330Y-66884667D01*
X153711720Y-66949246D01*
X153714000Y-66969334D01*
X153645085Y-67043638D01*
X153582003Y-67054000D01*
X153494369Y-67012954D01*
X153502334Y-66969334D01*
X153610576Y-66887896D01*
X153634330Y-66884667D01*
X153634330Y-66769417D01*
X153576096Y-66747061D01*
X153544667Y-66673000D01*
X153615253Y-66569572D01*
X153714000Y-66546000D01*
X153714000Y-66405835D01*
X153713886Y-66405780D01*
X153498952Y-66376667D01*
X153375334Y-66390588D01*
X153375334Y-66503667D01*
X153447817Y-66522861D01*
X153460000Y-66583337D01*
X153415796Y-66699179D01*
X153375334Y-66715334D01*
X153293090Y-66654566D01*
X153290667Y-66635664D01*
X153352211Y-66520996D01*
X153375334Y-66503667D01*
X153375334Y-66390588D01*
X153322226Y-66396569D01*
X153247046Y-66460216D01*
X153247046Y-66834369D01*
X153290667Y-66842334D01*
X153372104Y-66950576D01*
X153375334Y-66974330D01*
X153310755Y-67051720D01*
X153290667Y-67054000D01*
X153216362Y-66985085D01*
X153206000Y-66922003D01*
X153247046Y-66834369D01*
X153247046Y-66460216D01*
X153215743Y-66486717D01*
X153128857Y-66692772D01*
X153120494Y-66717876D01*
X153059202Y-66999360D01*
X153111046Y-67159296D01*
X153111046Y-67159296D01*
G37*
X153111046Y-67159296D02*
X153286434Y-67210747D01*
X153494980Y-67187966D01*
X153754372Y-67081958D01*
X153919469Y-66903585D01*
X153968827Y-66693823D01*
X153881001Y-66493649D01*
X153866400Y-66478267D01*
X153714000Y-66405835D01*
X153714000Y-66546000D01*
X153851904Y-66598940D01*
X153883334Y-66673000D01*
X153812747Y-66776428D01*
X153714000Y-66800000D01*
X153634330Y-66769417D01*
X153634330Y-66884667D01*
X153711720Y-66949246D01*
X153714000Y-66969334D01*
X153645085Y-67043638D01*
X153582003Y-67054000D01*
X153494369Y-67012954D01*
X153502334Y-66969334D01*
X153610576Y-66887896D01*
X153634330Y-66884667D01*
X153634330Y-66769417D01*
X153576096Y-66747061D01*
X153544667Y-66673000D01*
X153615253Y-66569572D01*
X153714000Y-66546000D01*
X153714000Y-66405835D01*
X153713886Y-66405780D01*
X153498952Y-66376667D01*
X153375334Y-66390588D01*
X153375334Y-66503667D01*
X153447817Y-66522861D01*
X153460000Y-66583337D01*
X153415796Y-66699179D01*
X153375334Y-66715334D01*
X153293090Y-66654566D01*
X153290667Y-66635664D01*
X153352211Y-66520996D01*
X153375334Y-66503667D01*
X153375334Y-66390588D01*
X153322226Y-66396569D01*
X153247046Y-66460216D01*
X153247046Y-66834369D01*
X153290667Y-66842334D01*
X153372104Y-66950576D01*
X153375334Y-66974330D01*
X153310755Y-67051720D01*
X153290667Y-67054000D01*
X153216362Y-66985085D01*
X153206000Y-66922003D01*
X153247046Y-66834369D01*
X153247046Y-66460216D01*
X153215743Y-66486717D01*
X153128857Y-66692772D01*
X153120494Y-66717876D01*
X153059202Y-66999360D01*
X153111046Y-67159296D01*
G36*
X153692509Y-64970020D02*
X153784711Y-65100195D01*
X153992784Y-65221188D01*
X153993997Y-65221781D01*
X154201711Y-65309106D01*
X154339160Y-65340758D01*
X154360949Y-65334607D01*
X154411888Y-65203158D01*
X154441963Y-64979503D01*
X154446778Y-64739964D01*
X154421933Y-64560866D01*
X154407357Y-64529308D01*
X154263730Y-64454584D01*
X154034079Y-64445870D01*
X154034079Y-64565659D01*
X154137334Y-64574135D01*
X154285261Y-64650156D01*
X154278413Y-64741736D01*
X154222000Y-64775224D01*
X154222000Y-64852667D01*
X154290125Y-64923793D01*
X154306667Y-65026997D01*
X154274074Y-65144067D01*
X154222000Y-65149000D01*
X154144096Y-65026498D01*
X154137334Y-64974670D01*
X154184672Y-64865243D01*
X154222000Y-64852667D01*
X154222000Y-64775224D01*
X154187944Y-64795441D01*
X154032667Y-64795552D01*
X153968613Y-64656688D01*
X153968000Y-64634816D01*
X153968000Y-65022000D01*
X154037690Y-65052978D01*
X154024445Y-65078445D01*
X153923965Y-65088578D01*
X153911556Y-65078445D01*
X153923178Y-65028110D01*
X153968000Y-65022000D01*
X153968000Y-64634816D01*
X154034079Y-64565659D01*
X154034079Y-64445870D01*
X154001716Y-64444641D01*
X153788370Y-64473130D01*
X153755046Y-64498172D01*
X153755046Y-64717702D01*
X153798667Y-64725667D01*
X153880104Y-64833910D01*
X153883334Y-64857664D01*
X153818755Y-64935053D01*
X153798667Y-64937334D01*
X153724362Y-64868418D01*
X153714000Y-64805337D01*
X153755046Y-64717702D01*
X153755046Y-64498172D01*
X153694935Y-64543345D01*
X153672116Y-64703582D01*
X153671667Y-64768000D01*
X153692509Y-64970020D01*
X153692509Y-64970020D01*
G37*
X153692509Y-64970020D02*
X153784711Y-65100195D01*
X153992784Y-65221188D01*
X153993997Y-65221781D01*
X154201711Y-65309106D01*
X154339160Y-65340758D01*
X154360949Y-65334607D01*
X154411888Y-65203158D01*
X154441963Y-64979503D01*
X154446778Y-64739964D01*
X154421933Y-64560866D01*
X154407357Y-64529308D01*
X154263730Y-64454584D01*
X154034079Y-64445870D01*
X154034079Y-64565659D01*
X154137334Y-64574135D01*
X154285261Y-64650156D01*
X154278413Y-64741736D01*
X154222000Y-64775224D01*
X154222000Y-64852667D01*
X154290125Y-64923793D01*
X154306667Y-65026997D01*
X154274074Y-65144067D01*
X154222000Y-65149000D01*
X154144096Y-65026498D01*
X154137334Y-64974670D01*
X154184672Y-64865243D01*
X154222000Y-64852667D01*
X154222000Y-64775224D01*
X154187944Y-64795441D01*
X154032667Y-64795552D01*
X153968613Y-64656688D01*
X153968000Y-64634816D01*
X153968000Y-65022000D01*
X154037690Y-65052978D01*
X154024445Y-65078445D01*
X153923965Y-65088578D01*
X153911556Y-65078445D01*
X153923178Y-65028110D01*
X153968000Y-65022000D01*
X153968000Y-64634816D01*
X154034079Y-64565659D01*
X154034079Y-64445870D01*
X154001716Y-64444641D01*
X153788370Y-64473130D01*
X153755046Y-64498172D01*
X153755046Y-64717702D01*
X153798667Y-64725667D01*
X153880104Y-64833910D01*
X153883334Y-64857664D01*
X153818755Y-64935053D01*
X153798667Y-64937334D01*
X153724362Y-64868418D01*
X153714000Y-64805337D01*
X153755046Y-64717702D01*
X153755046Y-64498172D01*
X153694935Y-64543345D01*
X153672116Y-64703582D01*
X153671667Y-64768000D01*
X153692509Y-64970020D01*
G36*
X154288690Y-66029076D02*
X154332121Y-66038000D01*
X154491322Y-66071986D01*
X154683705Y-66152065D01*
X154841707Y-66245425D01*
X154898673Y-66313167D01*
X154969942Y-66365822D01*
X155059057Y-66376667D01*
X155200475Y-66305025D01*
X155258750Y-66143834D01*
X155312018Y-65912535D01*
X155361810Y-65763547D01*
X155364493Y-65619079D01*
X155282632Y-65561500D01*
X155124607Y-65555160D01*
X155098924Y-65560279D01*
X155098924Y-65646554D01*
X155218256Y-65710666D01*
X155238000Y-65777256D01*
X155167146Y-65813332D01*
X155068667Y-65806418D01*
X155068667Y-66080334D01*
X155146686Y-66087046D01*
X155153334Y-66117670D01*
X155091873Y-66203888D01*
X155068667Y-66207334D01*
X154986201Y-66178447D01*
X154984000Y-66169997D01*
X155043329Y-66097711D01*
X155068667Y-66080334D01*
X155068667Y-65806418D01*
X155015770Y-65802703D01*
X154872092Y-65763329D01*
X154880223Y-65715297D01*
X154931774Y-65682862D01*
X155098924Y-65646554D01*
X155098924Y-65560279D01*
X154889410Y-65602047D01*
X154629985Y-65683842D01*
X154623705Y-65686519D01*
X154623705Y-65808174D01*
X154751282Y-65853246D01*
X154779571Y-65874674D01*
X154861451Y-65978166D01*
X154816542Y-66023264D01*
X154673181Y-66001385D01*
X154622403Y-65964270D01*
X154564576Y-65854400D01*
X154623705Y-65808174D01*
X154623705Y-65686519D01*
X154399272Y-65782222D01*
X154250216Y-65878869D01*
X154222000Y-65928533D01*
X154288690Y-66029076D01*
X154288690Y-66029076D01*
G37*
X154288690Y-66029076D02*
X154332121Y-66038000D01*
X154491322Y-66071986D01*
X154683705Y-66152065D01*
X154841707Y-66245425D01*
X154898673Y-66313167D01*
X154969942Y-66365822D01*
X155059057Y-66376667D01*
X155200475Y-66305025D01*
X155258750Y-66143834D01*
X155312018Y-65912535D01*
X155361810Y-65763547D01*
X155364493Y-65619079D01*
X155282632Y-65561500D01*
X155124607Y-65555160D01*
X155098924Y-65560279D01*
X155098924Y-65646554D01*
X155218256Y-65710666D01*
X155238000Y-65777256D01*
X155167146Y-65813332D01*
X155068667Y-65806418D01*
X155068667Y-66080334D01*
X155146686Y-66087046D01*
X155153334Y-66117670D01*
X155091873Y-66203888D01*
X155068667Y-66207334D01*
X154986201Y-66178447D01*
X154984000Y-66169997D01*
X155043329Y-66097711D01*
X155068667Y-66080334D01*
X155068667Y-65806418D01*
X155015770Y-65802703D01*
X154872092Y-65763329D01*
X154880223Y-65715297D01*
X154931774Y-65682862D01*
X155098924Y-65646554D01*
X155098924Y-65560279D01*
X154889410Y-65602047D01*
X154629985Y-65683842D01*
X154623705Y-65686519D01*
X154623705Y-65808174D01*
X154751282Y-65853246D01*
X154779571Y-65874674D01*
X154861451Y-65978166D01*
X154816542Y-66023264D01*
X154673181Y-66001385D01*
X154622403Y-65964270D01*
X154564576Y-65854400D01*
X154623705Y-65808174D01*
X154623705Y-65686519D01*
X154399272Y-65782222D01*
X154250216Y-65878869D01*
X154222000Y-65928533D01*
X154288690Y-66029076D01*
G36*
X156062765Y-66976879D02*
X156137801Y-67084064D01*
X156284827Y-67155624D01*
X156508000Y-67222558D01*
X156827162Y-67295040D01*
X157032965Y-67290169D01*
X157163279Y-67206772D01*
X157167144Y-67202167D01*
X157245389Y-67029669D01*
X157318715Y-66731481D01*
X157380135Y-66351237D01*
X157422661Y-65932566D01*
X157439305Y-65519102D01*
X157439334Y-65502657D01*
X157439334Y-64913747D01*
X157127355Y-64950696D01*
X157127355Y-65072429D01*
X157257653Y-65128186D01*
X157309601Y-65247380D01*
X157344242Y-65444350D01*
X157357124Y-65655532D01*
X157343795Y-65817364D01*
X157309519Y-65868667D01*
X157240777Y-65846604D01*
X157240777Y-65953806D01*
X157300652Y-66028631D01*
X157299201Y-66256727D01*
X157292628Y-66313167D01*
X157261871Y-66536987D01*
X157238972Y-66673264D01*
X157234102Y-66690194D01*
X157158609Y-66664094D01*
X156973283Y-66579094D01*
X156743111Y-66465893D01*
X156743111Y-66889173D01*
X156947303Y-66903071D01*
X157068332Y-66949288D01*
X157079540Y-66990500D01*
X156975293Y-67096004D01*
X156894696Y-67125337D01*
X156713033Y-67129060D01*
X156466867Y-67099785D01*
X156436045Y-67094048D01*
X156248802Y-67050048D01*
X156211244Y-67011494D01*
X156296334Y-66965162D01*
X156508530Y-66909301D01*
X156743111Y-66889173D01*
X156743111Y-66465893D01*
X156727983Y-66458452D01*
X156496513Y-66328558D01*
X156360522Y-66225481D01*
X156348813Y-66171153D01*
X156350065Y-66170707D01*
X156570330Y-66104761D01*
X156834625Y-66035968D01*
X157076862Y-65980422D01*
X157230953Y-65954217D01*
X157240777Y-65953806D01*
X157240777Y-65846604D01*
X157190577Y-65830491D01*
X156992988Y-65735239D01*
X156768095Y-65611823D01*
X156567240Y-65489158D01*
X156441763Y-65396157D01*
X156423334Y-65369608D01*
X156497811Y-65244447D01*
X156680609Y-65141439D01*
X156910775Y-65078220D01*
X157127355Y-65072429D01*
X157127355Y-64950696D01*
X156999945Y-64965786D01*
X156728150Y-65015401D01*
X156519810Y-65084556D01*
X156454538Y-65125746D01*
X156394460Y-65250150D01*
X156315791Y-65501063D01*
X156230075Y-65838362D01*
X156169909Y-66114981D01*
X156088788Y-66524996D01*
X156049751Y-66801409D01*
X156062765Y-66976879D01*
X156062765Y-66976879D01*
G37*
X156062765Y-66976879D02*
X156137801Y-67084064D01*
X156284827Y-67155624D01*
X156508000Y-67222558D01*
X156827162Y-67295040D01*
X157032965Y-67290169D01*
X157163279Y-67206772D01*
X157167144Y-67202167D01*
X157245389Y-67029669D01*
X157318715Y-66731481D01*
X157380135Y-66351237D01*
X157422661Y-65932566D01*
X157439305Y-65519102D01*
X157439334Y-65502657D01*
X157439334Y-64913747D01*
X157127355Y-64950696D01*
X157127355Y-65072429D01*
X157257653Y-65128186D01*
X157309601Y-65247380D01*
X157344242Y-65444350D01*
X157357124Y-65655532D01*
X157343795Y-65817364D01*
X157309519Y-65868667D01*
X157240777Y-65846604D01*
X157240777Y-65953806D01*
X157300652Y-66028631D01*
X157299201Y-66256727D01*
X157292628Y-66313167D01*
X157261871Y-66536987D01*
X157238972Y-66673264D01*
X157234102Y-66690194D01*
X157158609Y-66664094D01*
X156973283Y-66579094D01*
X156743111Y-66465893D01*
X156743111Y-66889173D01*
X156947303Y-66903071D01*
X157068332Y-66949288D01*
X157079540Y-66990500D01*
X156975293Y-67096004D01*
X156894696Y-67125337D01*
X156713033Y-67129060D01*
X156466867Y-67099785D01*
X156436045Y-67094048D01*
X156248802Y-67050048D01*
X156211244Y-67011494D01*
X156296334Y-66965162D01*
X156508530Y-66909301D01*
X156743111Y-66889173D01*
X156743111Y-66465893D01*
X156727983Y-66458452D01*
X156496513Y-66328558D01*
X156360522Y-66225481D01*
X156348813Y-66171153D01*
X156350065Y-66170707D01*
X156570330Y-66104761D01*
X156834625Y-66035968D01*
X157076862Y-65980422D01*
X157230953Y-65954217D01*
X157240777Y-65953806D01*
X157240777Y-65846604D01*
X157190577Y-65830491D01*
X156992988Y-65735239D01*
X156768095Y-65611823D01*
X156567240Y-65489158D01*
X156441763Y-65396157D01*
X156423334Y-65369608D01*
X156497811Y-65244447D01*
X156680609Y-65141439D01*
X156910775Y-65078220D01*
X157127355Y-65072429D01*
X157127355Y-64950696D01*
X156999945Y-64965786D01*
X156728150Y-65015401D01*
X156519810Y-65084556D01*
X156454538Y-65125746D01*
X156394460Y-65250150D01*
X156315791Y-65501063D01*
X156230075Y-65838362D01*
X156169909Y-66114981D01*
X156088788Y-66524996D01*
X156049751Y-66801409D01*
X156062765Y-66976879D01*
G36*
X155730125Y-61947170D02*
X155862449Y-61957264D01*
X155892403Y-61940486D01*
X155867152Y-61902004D01*
X155781278Y-61896018D01*
X155690936Y-61916695D01*
X155730125Y-61947170D01*
X155730125Y-61947170D01*
G37*
X155730125Y-61947170D02*
X155862449Y-61957264D01*
X155892403Y-61940486D01*
X155867152Y-61902004D01*
X155781278Y-61896018D01*
X155690936Y-61916695D01*
X155730125Y-61947170D01*
G36*
X155610358Y-61367467D02*
X155714961Y-61525740D01*
X155937921Y-61847000D01*
X155886120Y-61570381D01*
X155874270Y-61317280D01*
X155905314Y-61005040D01*
X155929063Y-60883311D01*
X155978973Y-60600493D01*
X155964348Y-60394778D01*
X155885333Y-60195283D01*
X155800594Y-60005981D01*
X155798937Y-59901729D01*
X155880914Y-59819718D01*
X155888688Y-59813998D01*
X155979150Y-59727978D01*
X155930967Y-59659868D01*
X155851492Y-59614479D01*
X155635961Y-59524333D01*
X155531488Y-59555485D01*
X155522514Y-59716794D01*
X155536526Y-59793834D01*
X155598361Y-60008151D01*
X155667886Y-60146819D01*
X155670253Y-60149434D01*
X155736953Y-60324207D01*
X155724668Y-60565000D01*
X155639796Y-60791602D01*
X155616307Y-60826016D01*
X155516802Y-60996469D01*
X155512396Y-61159764D01*
X155610358Y-61367467D01*
X155610358Y-61367467D01*
G37*
X155610358Y-61367467D02*
X155714961Y-61525740D01*
X155937921Y-61847000D01*
X155886120Y-61570381D01*
X155874270Y-61317280D01*
X155905314Y-61005040D01*
X155929063Y-60883311D01*
X155978973Y-60600493D01*
X155964348Y-60394778D01*
X155885333Y-60195283D01*
X155800594Y-60005981D01*
X155798937Y-59901729D01*
X155880914Y-59819718D01*
X155888688Y-59813998D01*
X155979150Y-59727978D01*
X155930967Y-59659868D01*
X155851492Y-59614479D01*
X155635961Y-59524333D01*
X155531488Y-59555485D01*
X155522514Y-59716794D01*
X155536526Y-59793834D01*
X155598361Y-60008151D01*
X155667886Y-60146819D01*
X155670253Y-60149434D01*
X155736953Y-60324207D01*
X155724668Y-60565000D01*
X155639796Y-60791602D01*
X155616307Y-60826016D01*
X155516802Y-60996469D01*
X155512396Y-61159764D01*
X155610358Y-61367467D01*
G36*
X149671565Y-66325643D02*
X149729332Y-66515004D01*
X149781801Y-66611828D01*
X149975442Y-66772274D01*
X150196978Y-66775772D01*
X150361466Y-66669106D01*
X150445833Y-66515293D01*
X150453627Y-66271060D01*
X150442108Y-66171586D01*
X150429758Y-65907970D01*
X150459979Y-65694946D01*
X150478079Y-65650888D01*
X150526915Y-65602724D01*
X150565457Y-65672119D01*
X150600278Y-65878772D01*
X150622927Y-66084908D01*
X150739496Y-66953272D01*
X150907745Y-67684456D01*
X151138400Y-68305584D01*
X151442186Y-68843784D01*
X151829827Y-69326180D01*
X151955701Y-69455786D01*
X152380166Y-69843611D01*
X152805633Y-70153001D01*
X153282044Y-70414049D01*
X153859340Y-70656848D01*
X154088525Y-70740965D01*
X154420734Y-70867950D01*
X154686795Y-70985428D01*
X154849780Y-71076270D01*
X154882270Y-71109144D01*
X154845662Y-71221433D01*
X154715431Y-71387393D01*
X154652840Y-71449655D01*
X154456545Y-71662432D01*
X154404133Y-71811180D01*
X154492571Y-71916066D01*
X154576964Y-71954126D01*
X154698442Y-72006251D01*
X154673883Y-72041542D01*
X154534631Y-72080011D01*
X154363856Y-72178904D01*
X154304780Y-72325609D01*
X154369169Y-72462851D01*
X154446663Y-72508272D01*
X154535943Y-72560299D01*
X154492847Y-72632101D01*
X154425496Y-72686720D01*
X154320440Y-72782345D01*
X154334039Y-72861352D01*
X154454834Y-72973128D01*
X154607191Y-73117146D01*
X154620968Y-73198377D01*
X154494566Y-73253583D01*
X154442033Y-73267335D01*
X154302210Y-73333329D01*
X154249941Y-73472266D01*
X154247146Y-73615180D01*
X154277974Y-73814373D01*
X154343505Y-73910084D01*
X154355197Y-73912000D01*
X154503298Y-73927699D01*
X154722768Y-73965592D01*
X154729096Y-73966853D01*
X154909825Y-73994852D01*
X154958950Y-73961703D01*
X154911246Y-73849592D01*
X154760122Y-73695928D01*
X154605233Y-73623793D01*
X154431385Y-73545982D01*
X154405363Y-73461751D01*
X154527549Y-73408444D01*
X154603000Y-73404000D01*
X154765523Y-73367653D01*
X154814309Y-73230995D01*
X154814667Y-73209267D01*
X154771239Y-73008422D01*
X154709541Y-72909408D01*
X154651926Y-72804264D01*
X154730708Y-72725725D01*
X154811549Y-72634644D01*
X154764755Y-72498556D01*
X154755152Y-72482780D01*
X154697249Y-72346789D01*
X154760712Y-72277546D01*
X154776318Y-72271187D01*
X154870833Y-72159425D01*
X154899334Y-72015281D01*
X154861088Y-71854139D01*
X154714602Y-71786141D01*
X154666500Y-71779279D01*
X154433667Y-71751977D01*
X154687667Y-71624863D01*
X154902766Y-71449201D01*
X154966415Y-71286708D01*
X154984711Y-71187679D01*
X155033505Y-71125788D01*
X155146051Y-71092308D01*
X155355603Y-71078516D01*
X155695415Y-71075685D01*
X155770748Y-71075667D01*
X156164822Y-71069669D01*
X156453416Y-71043003D01*
X156700211Y-70982663D01*
X156968889Y-70875639D01*
X157141774Y-70795617D01*
X157873206Y-70388798D01*
X158457470Y-69926952D01*
X158911608Y-69396388D01*
X158945232Y-69346968D01*
X159117494Y-69082876D01*
X159250152Y-68868091D01*
X159316335Y-68746234D01*
X159317899Y-68741970D01*
X159413604Y-68693872D01*
X159613583Y-68699806D01*
X159866476Y-68747083D01*
X160120923Y-68823011D01*
X160325564Y-68914902D01*
X160429040Y-69010064D01*
X160431318Y-69017084D01*
X160534119Y-69140662D01*
X160706335Y-69161590D01*
X160879913Y-69076094D01*
X160910667Y-69043667D01*
X161047026Y-68942176D01*
X161181443Y-68921755D01*
X161248788Y-68990546D01*
X161249334Y-69001334D01*
X161320246Y-69070124D01*
X161418667Y-69086000D01*
X161559770Y-69026546D01*
X161588000Y-68914010D01*
X161524367Y-68743050D01*
X161373817Y-68681625D01*
X161362222Y-68686224D01*
X161362222Y-68860222D01*
X161412557Y-68871845D01*
X161418667Y-68916667D01*
X161387689Y-68986357D01*
X161362222Y-68973111D01*
X161352089Y-68872632D01*
X161362222Y-68860222D01*
X161362222Y-68686224D01*
X161205922Y-68748228D01*
X161110150Y-68801190D01*
X161080843Y-68713290D01*
X161080000Y-68667468D01*
X161024227Y-68386911D01*
X160874256Y-68205207D01*
X160718378Y-68159732D01*
X160718378Y-68236430D01*
X160833317Y-68324140D01*
X160896175Y-68491892D01*
X160897981Y-68554176D01*
X160885295Y-68789667D01*
X160850024Y-68556834D01*
X160777774Y-68374617D01*
X160679265Y-68324000D01*
X160614334Y-68305884D01*
X160614334Y-68408667D01*
X160727005Y-68454384D01*
X160741334Y-68493334D01*
X160672757Y-68568448D01*
X160614334Y-68578000D01*
X160607278Y-68575138D01*
X160607278Y-68923351D01*
X160717092Y-68938918D01*
X160718403Y-68967820D01*
X160605086Y-68988031D01*
X160556125Y-68974504D01*
X160524055Y-68936909D01*
X160607278Y-68923351D01*
X160607278Y-68575138D01*
X160501662Y-68532283D01*
X160487334Y-68493334D01*
X160555910Y-68418219D01*
X160614334Y-68408667D01*
X160614334Y-68305884D01*
X160589120Y-68298848D01*
X160596571Y-68271207D01*
X160718378Y-68236430D01*
X160718378Y-68159732D01*
X160701018Y-68154667D01*
X160513318Y-68189551D01*
X160407372Y-68321751D01*
X160358189Y-68504471D01*
X160313454Y-68667159D01*
X160282892Y-68725997D01*
X160189045Y-68729582D01*
X159995735Y-68700157D01*
X159761895Y-68650861D01*
X159546458Y-68594836D01*
X159408356Y-68545225D01*
X159386667Y-68526150D01*
X159408123Y-68433694D01*
X159464840Y-68221262D01*
X159545346Y-67931634D01*
X159560394Y-67878428D01*
X159648806Y-67493759D01*
X159726100Y-67028231D01*
X159778075Y-66570295D01*
X159784500Y-66482500D01*
X159834879Y-65699334D01*
X160245773Y-65699334D01*
X160566963Y-65728801D01*
X160779529Y-65827304D01*
X160826000Y-65868667D01*
X161058450Y-66016758D01*
X161280670Y-66000132D01*
X161472096Y-65821282D01*
X161595023Y-65683266D01*
X161674123Y-65701689D01*
X161804424Y-65780023D01*
X161978284Y-65757454D01*
X162122135Y-65655373D01*
X162164342Y-65559156D01*
X162148575Y-65389902D01*
X162100084Y-65320858D01*
X161951117Y-65297678D01*
X161921670Y-65303093D01*
X161921670Y-65360667D01*
X161994502Y-65431532D01*
X162011334Y-65530000D01*
X161977949Y-65667613D01*
X161931664Y-65699334D01*
X161816996Y-65637789D01*
X161799667Y-65614667D01*
X161809189Y-65536773D01*
X161842000Y-65530000D01*
X161897212Y-65478425D01*
X161884334Y-65445334D01*
X161891046Y-65367315D01*
X161921670Y-65360667D01*
X161921670Y-65303093D01*
X161846399Y-65316937D01*
X161679952Y-65303172D01*
X161590178Y-65195402D01*
X161545667Y-65156840D01*
X161545667Y-65445334D01*
X161588000Y-65487667D01*
X161545667Y-65530000D01*
X161503334Y-65487667D01*
X161545667Y-65445334D01*
X161545667Y-65156840D01*
X161433542Y-65059699D01*
X161239901Y-65029633D01*
X161239901Y-65106971D01*
X161372682Y-65135883D01*
X161487131Y-65225508D01*
X161503334Y-65274060D01*
X161446890Y-65309772D01*
X161369076Y-65273366D01*
X161369076Y-65614667D01*
X161386557Y-65662495D01*
X161319251Y-65750369D01*
X161119975Y-65844083D01*
X161004774Y-65829330D01*
X160862901Y-65749165D01*
X160826000Y-65683261D01*
X160875175Y-65651035D01*
X160956588Y-65702312D01*
X161092366Y-65765892D01*
X161185188Y-65712679D01*
X161319835Y-65625235D01*
X161369076Y-65614667D01*
X161369076Y-65273366D01*
X161337851Y-65258756D01*
X161217837Y-65155133D01*
X161239901Y-65106971D01*
X161239901Y-65029633D01*
X161210790Y-65025112D01*
X161209566Y-65025527D01*
X161209566Y-65297898D01*
X161243701Y-65314852D01*
X161331234Y-65395585D01*
X161269504Y-65410436D01*
X161203349Y-65389883D01*
X161122334Y-65335116D01*
X161122334Y-65445334D01*
X161164667Y-65487667D01*
X161122334Y-65530000D01*
X161080000Y-65487667D01*
X161122334Y-65445334D01*
X161122334Y-65335116D01*
X161111143Y-65327550D01*
X161113049Y-65299396D01*
X161209566Y-65297898D01*
X161209566Y-65025527D01*
X161029175Y-65086797D01*
X160917892Y-65207172D01*
X160840969Y-65329647D01*
X160685912Y-65471400D01*
X160433443Y-65567904D01*
X160153555Y-65599391D01*
X159980424Y-65572680D01*
X159842987Y-65446012D01*
X159717247Y-65165169D01*
X159691197Y-65081315D01*
X159442908Y-64476838D01*
X159086626Y-63967784D01*
X158662783Y-63597467D01*
X158267140Y-63369611D01*
X157873372Y-63226228D01*
X157427739Y-63153949D01*
X156876499Y-63139401D01*
X156825500Y-63140346D01*
X156470889Y-63146054D01*
X156252531Y-63139176D01*
X156137396Y-63111198D01*
X156092454Y-63053609D01*
X156084673Y-62957897D01*
X156084667Y-62949426D01*
X156037595Y-62778129D01*
X155922314Y-62601362D01*
X155777722Y-62458533D01*
X155642720Y-62389050D01*
X155562429Y-62420371D01*
X155577689Y-62534831D01*
X155701290Y-62629260D01*
X155853817Y-62756167D01*
X155964611Y-62925985D01*
X155999170Y-63076830D01*
X155977753Y-63125137D01*
X155881100Y-63129622D01*
X155671854Y-63101380D01*
X155483777Y-63064994D01*
X155131180Y-63019226D01*
X154670812Y-63001322D01*
X154152438Y-63008867D01*
X154066536Y-63013855D01*
X154066536Y-63256780D01*
X154764822Y-63262619D01*
X155604081Y-63296887D01*
X155959760Y-63316120D01*
X156628448Y-63358660D01*
X157155992Y-63405654D01*
X157570571Y-63463420D01*
X157900366Y-63538276D01*
X158173554Y-63636539D01*
X158418316Y-63764526D01*
X158649953Y-63919240D01*
X159092262Y-64338143D01*
X159401088Y-64858724D01*
X159575654Y-65477479D01*
X159615183Y-66190906D01*
X159518899Y-66995504D01*
X159424486Y-67412008D01*
X159119378Y-68320899D01*
X158707515Y-69099771D01*
X158190044Y-69747447D01*
X157568112Y-70262747D01*
X156842867Y-70644494D01*
X156042961Y-70885817D01*
X155786515Y-70930746D01*
X155562847Y-70940147D01*
X155314085Y-70909765D01*
X154982354Y-70835344D01*
X154830260Y-70796638D01*
X153940097Y-70507092D01*
X153132797Y-70125475D01*
X152430019Y-69665439D01*
X151853421Y-69140636D01*
X151511692Y-68705000D01*
X151298569Y-68286189D01*
X151111097Y-67727730D01*
X150956272Y-67058276D01*
X150841092Y-66306482D01*
X150787189Y-65738040D01*
X150765462Y-65399795D01*
X150765536Y-65189892D01*
X150796243Y-65067835D01*
X150866412Y-64993130D01*
X150961714Y-64937665D01*
X151136177Y-64802698D01*
X151346481Y-64583208D01*
X151480165Y-64415941D01*
X151740178Y-64088102D01*
X152004030Y-63822361D01*
X152291311Y-63613908D01*
X152621611Y-63457933D01*
X153014522Y-63349627D01*
X153489633Y-63284179D01*
X154066536Y-63256780D01*
X154066536Y-63013855D01*
X153625821Y-63039447D01*
X153140726Y-63090646D01*
X152746917Y-63160050D01*
X152585802Y-63205618D01*
X152147922Y-63442331D01*
X151781468Y-63773360D01*
X151528520Y-64044470D01*
X151277262Y-64313545D01*
X151118967Y-64482899D01*
X150918785Y-64656317D01*
X150728662Y-64757408D01*
X150669470Y-64768000D01*
X150545664Y-64738730D01*
X150535384Y-64689184D01*
X150524767Y-64580444D01*
X150498048Y-64557187D01*
X150474657Y-64562358D01*
X150474657Y-64886395D01*
X150504307Y-64899722D01*
X150559721Y-65010454D01*
X150581334Y-65196330D01*
X150558706Y-65374316D01*
X150457686Y-65438295D01*
X150348500Y-65444037D01*
X150104576Y-65410338D01*
X150073334Y-65392940D01*
X150073334Y-65530000D01*
X150203981Y-65592016D01*
X150244531Y-65727147D01*
X150184427Y-65859016D01*
X150123944Y-65896108D01*
X150082834Y-65896911D01*
X150082834Y-66047602D01*
X150211881Y-66061637D01*
X150242667Y-66122667D01*
X150169643Y-66183694D01*
X150009834Y-66206037D01*
X149983670Y-66203800D01*
X149983670Y-66292000D01*
X150181253Y-66326013D01*
X150242667Y-66407259D01*
X150176201Y-66487778D01*
X150073334Y-66483592D01*
X150073334Y-66630667D01*
X150143024Y-66661645D01*
X150129778Y-66687111D01*
X150029298Y-66697244D01*
X150016889Y-66687111D01*
X150028511Y-66636777D01*
X150073334Y-66630667D01*
X150073334Y-66483592D01*
X150029749Y-66481817D01*
X149861667Y-66428173D01*
X149861667Y-66546000D01*
X149904000Y-66588334D01*
X149861667Y-66630667D01*
X149819334Y-66588334D01*
X149861667Y-66546000D01*
X149861667Y-66428173D01*
X149832691Y-66418925D01*
X149776702Y-66349585D01*
X149868284Y-66300580D01*
X149983670Y-66292000D01*
X149983670Y-66203800D01*
X149862020Y-66193395D01*
X149866490Y-66149600D01*
X149904000Y-66122667D01*
X150082834Y-66047602D01*
X150082834Y-65896911D01*
X149973455Y-65899049D01*
X149907685Y-65757023D01*
X149904000Y-65685222D01*
X149970196Y-65554349D01*
X150073334Y-65530000D01*
X150073334Y-65392940D01*
X149954201Y-65326596D01*
X149933233Y-65214187D01*
X149940483Y-65200800D01*
X150057212Y-65112383D01*
X150213048Y-65179772D01*
X150278953Y-65239714D01*
X150379839Y-65323034D01*
X150410366Y-65264059D01*
X150412000Y-65192384D01*
X150382395Y-65070044D01*
X150333184Y-65060718D01*
X150224289Y-65052866D01*
X150206670Y-65032253D01*
X150226564Y-64948660D01*
X150340802Y-64888949D01*
X150474657Y-64886395D01*
X150474657Y-64562358D01*
X150422967Y-64573788D01*
X150412000Y-64626825D01*
X150340283Y-64740501D01*
X150220647Y-64797670D01*
X150066731Y-64885415D01*
X149921079Y-65041341D01*
X149817222Y-65215067D01*
X149788690Y-65356213D01*
X149818218Y-65402311D01*
X149857178Y-65513679D01*
X149813043Y-65626421D01*
X149759041Y-65814555D01*
X149769511Y-65922013D01*
X149771703Y-66003834D01*
X149733697Y-65995067D01*
X149669650Y-66013147D01*
X149650305Y-66140848D01*
X149671565Y-66325643D01*
X149671565Y-66325643D01*
G37*
X149671565Y-66325643D02*
X149729332Y-66515004D01*
X149781801Y-66611828D01*
X149975442Y-66772274D01*
X150196978Y-66775772D01*
X150361466Y-66669106D01*
X150445833Y-66515293D01*
X150453627Y-66271060D01*
X150442108Y-66171586D01*
X150429758Y-65907970D01*
X150459979Y-65694946D01*
X150478079Y-65650888D01*
X150526915Y-65602724D01*
X150565457Y-65672119D01*
X150600278Y-65878772D01*
X150622927Y-66084908D01*
X150739496Y-66953272D01*
X150907745Y-67684456D01*
X151138400Y-68305584D01*
X151442186Y-68843784D01*
X151829827Y-69326180D01*
X151955701Y-69455786D01*
X152380166Y-69843611D01*
X152805633Y-70153001D01*
X153282044Y-70414049D01*
X153859340Y-70656848D01*
X154088525Y-70740965D01*
X154420734Y-70867950D01*
X154686795Y-70985428D01*
X154849780Y-71076270D01*
X154882270Y-71109144D01*
X154845662Y-71221433D01*
X154715431Y-71387393D01*
X154652840Y-71449655D01*
X154456545Y-71662432D01*
X154404133Y-71811180D01*
X154492571Y-71916066D01*
X154576964Y-71954126D01*
X154698442Y-72006251D01*
X154673883Y-72041542D01*
X154534631Y-72080011D01*
X154363856Y-72178904D01*
X154304780Y-72325609D01*
X154369169Y-72462851D01*
X154446663Y-72508272D01*
X154535943Y-72560299D01*
X154492847Y-72632101D01*
X154425496Y-72686720D01*
X154320440Y-72782345D01*
X154334039Y-72861352D01*
X154454834Y-72973128D01*
X154607191Y-73117146D01*
X154620968Y-73198377D01*
X154494566Y-73253583D01*
X154442033Y-73267335D01*
X154302210Y-73333329D01*
X154249941Y-73472266D01*
X154247146Y-73615180D01*
X154277974Y-73814373D01*
X154343505Y-73910084D01*
X154355197Y-73912000D01*
X154503298Y-73927699D01*
X154722768Y-73965592D01*
X154729096Y-73966853D01*
X154909825Y-73994852D01*
X154958950Y-73961703D01*
X154911246Y-73849592D01*
X154760122Y-73695928D01*
X154605233Y-73623793D01*
X154431385Y-73545982D01*
X154405363Y-73461751D01*
X154527549Y-73408444D01*
X154603000Y-73404000D01*
X154765523Y-73367653D01*
X154814309Y-73230995D01*
X154814667Y-73209267D01*
X154771239Y-73008422D01*
X154709541Y-72909408D01*
X154651926Y-72804264D01*
X154730708Y-72725725D01*
X154811549Y-72634644D01*
X154764755Y-72498556D01*
X154755152Y-72482780D01*
X154697249Y-72346789D01*
X154760712Y-72277546D01*
X154776318Y-72271187D01*
X154870833Y-72159425D01*
X154899334Y-72015281D01*
X154861088Y-71854139D01*
X154714602Y-71786141D01*
X154666500Y-71779279D01*
X154433667Y-71751977D01*
X154687667Y-71624863D01*
X154902766Y-71449201D01*
X154966415Y-71286708D01*
X154984711Y-71187679D01*
X155033505Y-71125788D01*
X155146051Y-71092308D01*
X155355603Y-71078516D01*
X155695415Y-71075685D01*
X155770748Y-71075667D01*
X156164822Y-71069669D01*
X156453416Y-71043003D01*
X156700211Y-70982663D01*
X156968889Y-70875639D01*
X157141774Y-70795617D01*
X157873206Y-70388798D01*
X158457470Y-69926952D01*
X158911608Y-69396388D01*
X158945232Y-69346968D01*
X159117494Y-69082876D01*
X159250152Y-68868091D01*
X159316335Y-68746234D01*
X159317899Y-68741970D01*
X159413604Y-68693872D01*
X159613583Y-68699806D01*
X159866476Y-68747083D01*
X160120923Y-68823011D01*
X160325564Y-68914902D01*
X160429040Y-69010064D01*
X160431318Y-69017084D01*
X160534119Y-69140662D01*
X160706335Y-69161590D01*
X160879913Y-69076094D01*
X160910667Y-69043667D01*
X161047026Y-68942176D01*
X161181443Y-68921755D01*
X161248788Y-68990546D01*
X161249334Y-69001334D01*
X161320246Y-69070124D01*
X161418667Y-69086000D01*
X161559770Y-69026546D01*
X161588000Y-68914010D01*
X161524367Y-68743050D01*
X161373817Y-68681625D01*
X161362222Y-68686224D01*
X161362222Y-68860222D01*
X161412557Y-68871845D01*
X161418667Y-68916667D01*
X161387689Y-68986357D01*
X161362222Y-68973111D01*
X161352089Y-68872632D01*
X161362222Y-68860222D01*
X161362222Y-68686224D01*
X161205922Y-68748228D01*
X161110150Y-68801190D01*
X161080843Y-68713290D01*
X161080000Y-68667468D01*
X161024227Y-68386911D01*
X160874256Y-68205207D01*
X160718378Y-68159732D01*
X160718378Y-68236430D01*
X160833317Y-68324140D01*
X160896175Y-68491892D01*
X160897981Y-68554176D01*
X160885295Y-68789667D01*
X160850024Y-68556834D01*
X160777774Y-68374617D01*
X160679265Y-68324000D01*
X160614334Y-68305884D01*
X160614334Y-68408667D01*
X160727005Y-68454384D01*
X160741334Y-68493334D01*
X160672757Y-68568448D01*
X160614334Y-68578000D01*
X160607278Y-68575138D01*
X160607278Y-68923351D01*
X160717092Y-68938918D01*
X160718403Y-68967820D01*
X160605086Y-68988031D01*
X160556125Y-68974504D01*
X160524055Y-68936909D01*
X160607278Y-68923351D01*
X160607278Y-68575138D01*
X160501662Y-68532283D01*
X160487334Y-68493334D01*
X160555910Y-68418219D01*
X160614334Y-68408667D01*
X160614334Y-68305884D01*
X160589120Y-68298848D01*
X160596571Y-68271207D01*
X160718378Y-68236430D01*
X160718378Y-68159732D01*
X160701018Y-68154667D01*
X160513318Y-68189551D01*
X160407372Y-68321751D01*
X160358189Y-68504471D01*
X160313454Y-68667159D01*
X160282892Y-68725997D01*
X160189045Y-68729582D01*
X159995735Y-68700157D01*
X159761895Y-68650861D01*
X159546458Y-68594836D01*
X159408356Y-68545225D01*
X159386667Y-68526150D01*
X159408123Y-68433694D01*
X159464840Y-68221262D01*
X159545346Y-67931634D01*
X159560394Y-67878428D01*
X159648806Y-67493759D01*
X159726100Y-67028231D01*
X159778075Y-66570295D01*
X159784500Y-66482500D01*
X159834879Y-65699334D01*
X160245773Y-65699334D01*
X160566963Y-65728801D01*
X160779529Y-65827304D01*
X160826000Y-65868667D01*
X161058450Y-66016758D01*
X161280670Y-66000132D01*
X161472096Y-65821282D01*
X161595023Y-65683266D01*
X161674123Y-65701689D01*
X161804424Y-65780023D01*
X161978284Y-65757454D01*
X162122135Y-65655373D01*
X162164342Y-65559156D01*
X162148575Y-65389902D01*
X162100084Y-65320858D01*
X161951117Y-65297678D01*
X161921670Y-65303093D01*
X161921670Y-65360667D01*
X161994502Y-65431532D01*
X162011334Y-65530000D01*
X161977949Y-65667613D01*
X161931664Y-65699334D01*
X161816996Y-65637789D01*
X161799667Y-65614667D01*
X161809189Y-65536773D01*
X161842000Y-65530000D01*
X161897212Y-65478425D01*
X161884334Y-65445334D01*
X161891046Y-65367315D01*
X161921670Y-65360667D01*
X161921670Y-65303093D01*
X161846399Y-65316937D01*
X161679952Y-65303172D01*
X161590178Y-65195402D01*
X161545667Y-65156840D01*
X161545667Y-65445334D01*
X161588000Y-65487667D01*
X161545667Y-65530000D01*
X161503334Y-65487667D01*
X161545667Y-65445334D01*
X161545667Y-65156840D01*
X161433542Y-65059699D01*
X161239901Y-65029633D01*
X161239901Y-65106971D01*
X161372682Y-65135883D01*
X161487131Y-65225508D01*
X161503334Y-65274060D01*
X161446890Y-65309772D01*
X161369076Y-65273366D01*
X161369076Y-65614667D01*
X161386557Y-65662495D01*
X161319251Y-65750369D01*
X161119975Y-65844083D01*
X161004774Y-65829330D01*
X160862901Y-65749165D01*
X160826000Y-65683261D01*
X160875175Y-65651035D01*
X160956588Y-65702312D01*
X161092366Y-65765892D01*
X161185188Y-65712679D01*
X161319835Y-65625235D01*
X161369076Y-65614667D01*
X161369076Y-65273366D01*
X161337851Y-65258756D01*
X161217837Y-65155133D01*
X161239901Y-65106971D01*
X161239901Y-65029633D01*
X161210790Y-65025112D01*
X161209566Y-65025527D01*
X161209566Y-65297898D01*
X161243701Y-65314852D01*
X161331234Y-65395585D01*
X161269504Y-65410436D01*
X161203349Y-65389883D01*
X161122334Y-65335116D01*
X161122334Y-65445334D01*
X161164667Y-65487667D01*
X161122334Y-65530000D01*
X161080000Y-65487667D01*
X161122334Y-65445334D01*
X161122334Y-65335116D01*
X161111143Y-65327550D01*
X161113049Y-65299396D01*
X161209566Y-65297898D01*
X161209566Y-65025527D01*
X161029175Y-65086797D01*
X160917892Y-65207172D01*
X160840969Y-65329647D01*
X160685912Y-65471400D01*
X160433443Y-65567904D01*
X160153555Y-65599391D01*
X159980424Y-65572680D01*
X159842987Y-65446012D01*
X159717247Y-65165169D01*
X159691197Y-65081315D01*
X159442908Y-64476838D01*
X159086626Y-63967784D01*
X158662783Y-63597467D01*
X158267140Y-63369611D01*
X157873372Y-63226228D01*
X157427739Y-63153949D01*
X156876499Y-63139401D01*
X156825500Y-63140346D01*
X156470889Y-63146054D01*
X156252531Y-63139176D01*
X156137396Y-63111198D01*
X156092454Y-63053609D01*
X156084673Y-62957897D01*
X156084667Y-62949426D01*
X156037595Y-62778129D01*
X155922314Y-62601362D01*
X155777722Y-62458533D01*
X155642720Y-62389050D01*
X155562429Y-62420371D01*
X155577689Y-62534831D01*
X155701290Y-62629260D01*
X155853817Y-62756167D01*
X155964611Y-62925985D01*
X155999170Y-63076830D01*
X155977753Y-63125137D01*
X155881100Y-63129622D01*
X155671854Y-63101380D01*
X155483777Y-63064994D01*
X155131180Y-63019226D01*
X154670812Y-63001322D01*
X154152438Y-63008867D01*
X154066536Y-63013855D01*
X154066536Y-63256780D01*
X154764822Y-63262619D01*
X155604081Y-63296887D01*
X155959760Y-63316120D01*
X156628448Y-63358660D01*
X157155992Y-63405654D01*
X157570571Y-63463420D01*
X157900366Y-63538276D01*
X158173554Y-63636539D01*
X158418316Y-63764526D01*
X158649953Y-63919240D01*
X159092262Y-64338143D01*
X159401088Y-64858724D01*
X159575654Y-65477479D01*
X159615183Y-66190906D01*
X159518899Y-66995504D01*
X159424486Y-67412008D01*
X159119378Y-68320899D01*
X158707515Y-69099771D01*
X158190044Y-69747447D01*
X157568112Y-70262747D01*
X156842867Y-70644494D01*
X156042961Y-70885817D01*
X155786515Y-70930746D01*
X155562847Y-70940147D01*
X155314085Y-70909765D01*
X154982354Y-70835344D01*
X154830260Y-70796638D01*
X153940097Y-70507092D01*
X153132797Y-70125475D01*
X152430019Y-69665439D01*
X151853421Y-69140636D01*
X151511692Y-68705000D01*
X151298569Y-68286189D01*
X151111097Y-67727730D01*
X150956272Y-67058276D01*
X150841092Y-66306482D01*
X150787189Y-65738040D01*
X150765462Y-65399795D01*
X150765536Y-65189892D01*
X150796243Y-65067835D01*
X150866412Y-64993130D01*
X150961714Y-64937665D01*
X151136177Y-64802698D01*
X151346481Y-64583208D01*
X151480165Y-64415941D01*
X151740178Y-64088102D01*
X152004030Y-63822361D01*
X152291311Y-63613908D01*
X152621611Y-63457933D01*
X153014522Y-63349627D01*
X153489633Y-63284179D01*
X154066536Y-63256780D01*
X154066536Y-63013855D01*
X153625821Y-63039447D01*
X153140726Y-63090646D01*
X152746917Y-63160050D01*
X152585802Y-63205618D01*
X152147922Y-63442331D01*
X151781468Y-63773360D01*
X151528520Y-64044470D01*
X151277262Y-64313545D01*
X151118967Y-64482899D01*
X150918785Y-64656317D01*
X150728662Y-64757408D01*
X150669470Y-64768000D01*
X150545664Y-64738730D01*
X150535384Y-64689184D01*
X150524767Y-64580444D01*
X150498048Y-64557187D01*
X150474657Y-64562358D01*
X150474657Y-64886395D01*
X150504307Y-64899722D01*
X150559721Y-65010454D01*
X150581334Y-65196330D01*
X150558706Y-65374316D01*
X150457686Y-65438295D01*
X150348500Y-65444037D01*
X150104576Y-65410338D01*
X150073334Y-65392940D01*
X150073334Y-65530000D01*
X150203981Y-65592016D01*
X150244531Y-65727147D01*
X150184427Y-65859016D01*
X150123944Y-65896108D01*
X150082834Y-65896911D01*
X150082834Y-66047602D01*
X150211881Y-66061637D01*
X150242667Y-66122667D01*
X150169643Y-66183694D01*
X150009834Y-66206037D01*
X149983670Y-66203800D01*
X149983670Y-66292000D01*
X150181253Y-66326013D01*
X150242667Y-66407259D01*
X150176201Y-66487778D01*
X150073334Y-66483592D01*
X150073334Y-66630667D01*
X150143024Y-66661645D01*
X150129778Y-66687111D01*
X150029298Y-66697244D01*
X150016889Y-66687111D01*
X150028511Y-66636777D01*
X150073334Y-66630667D01*
X150073334Y-66483592D01*
X150029749Y-66481817D01*
X149861667Y-66428173D01*
X149861667Y-66546000D01*
X149904000Y-66588334D01*
X149861667Y-66630667D01*
X149819334Y-66588334D01*
X149861667Y-66546000D01*
X149861667Y-66428173D01*
X149832691Y-66418925D01*
X149776702Y-66349585D01*
X149868284Y-66300580D01*
X149983670Y-66292000D01*
X149983670Y-66203800D01*
X149862020Y-66193395D01*
X149866490Y-66149600D01*
X149904000Y-66122667D01*
X150082834Y-66047602D01*
X150082834Y-65896911D01*
X149973455Y-65899049D01*
X149907685Y-65757023D01*
X149904000Y-65685222D01*
X149970196Y-65554349D01*
X150073334Y-65530000D01*
X150073334Y-65392940D01*
X149954201Y-65326596D01*
X149933233Y-65214187D01*
X149940483Y-65200800D01*
X150057212Y-65112383D01*
X150213048Y-65179772D01*
X150278953Y-65239714D01*
X150379839Y-65323034D01*
X150410366Y-65264059D01*
X150412000Y-65192384D01*
X150382395Y-65070044D01*
X150333184Y-65060718D01*
X150224289Y-65052866D01*
X150206670Y-65032253D01*
X150226564Y-64948660D01*
X150340802Y-64888949D01*
X150474657Y-64886395D01*
X150474657Y-64562358D01*
X150422967Y-64573788D01*
X150412000Y-64626825D01*
X150340283Y-64740501D01*
X150220647Y-64797670D01*
X150066731Y-64885415D01*
X149921079Y-65041341D01*
X149817222Y-65215067D01*
X149788690Y-65356213D01*
X149818218Y-65402311D01*
X149857178Y-65513679D01*
X149813043Y-65626421D01*
X149759041Y-65814555D01*
X149769511Y-65922013D01*
X149771703Y-66003834D01*
X149733697Y-65995067D01*
X149669650Y-66013147D01*
X149650305Y-66140848D01*
X149671565Y-66325643D01*
G04 #@! TD*
%LPC*%
D12*
G04 #@! TO.C,Q1*
X129000000Y-66270000D03*
D13*
X129000000Y-63730000D03*
X129000000Y-65000000D03*
G04 #@! TD*
D14*
G04 #@! TO.C,D1*
X152599821Y-58528689D03*
X151106846Y-60583592D03*
D15*
G36*
X151350201Y-62120074D02*
X149570364Y-60826947D01*
X150863491Y-59047110D01*
X152643328Y-60340237D01*
X151350201Y-62120074D01*
X151350201Y-62120074D01*
G37*
G04 #@! TD*
D14*
G04 #@! TO.C,D1*
X162241040Y-71798689D03*
X159825356Y-72583592D03*
D15*
G36*
X159119113Y-73969673D02*
X158439275Y-71877349D01*
X160531599Y-71197511D01*
X161211437Y-73289835D01*
X159119113Y-73969673D01*
X159119113Y-73969673D01*
G37*
G04 #@! TD*
D14*
G04 #@! TO.C,D1*
X162241040Y-88201311D03*
X159825356Y-87416408D03*
D15*
G36*
X158439275Y-88122651D02*
X159119113Y-86030327D01*
X161211437Y-86710165D01*
X160531599Y-88802489D01*
X158439275Y-88122651D01*
X158439275Y-88122651D01*
G37*
G04 #@! TD*
D14*
G04 #@! TO.C,D1*
X152599821Y-101471311D03*
X151106846Y-99416408D03*
D15*
G36*
X149570364Y-99173053D02*
X151350201Y-97879926D01*
X152643328Y-99659763D01*
X150863491Y-100952890D01*
X149570364Y-99173053D01*
X149570364Y-99173053D01*
G37*
G04 #@! TD*
D14*
G04 #@! TO.C,D1*
X137000000Y-106540000D03*
D16*
X137000000Y-104000000D03*
G04 #@! TD*
D14*
G04 #@! TO.C,D1*
X121400179Y-101471311D03*
X122893154Y-99416408D03*
D15*
G36*
X122649799Y-97879926D02*
X124429636Y-99173053D01*
X123136509Y-100952890D01*
X121356672Y-99659763D01*
X122649799Y-97879926D01*
X122649799Y-97879926D01*
G37*
G04 #@! TD*
D14*
G04 #@! TO.C,D1*
X111758960Y-88201311D03*
X114174644Y-87416408D03*
D15*
G36*
X114880887Y-86030327D02*
X115560725Y-88122651D01*
X113468401Y-88802489D01*
X112788563Y-86710165D01*
X114880887Y-86030327D01*
X114880887Y-86030327D01*
G37*
G04 #@! TD*
D14*
G04 #@! TO.C,D1*
X111758960Y-71798689D03*
X114174644Y-72583592D03*
D15*
G36*
X115560725Y-71877349D02*
X114880887Y-73969673D01*
X112788563Y-73289835D01*
X113468401Y-71197511D01*
X115560725Y-71877349D01*
X115560725Y-71877349D01*
G37*
G04 #@! TD*
D14*
G04 #@! TO.C,D1*
X121400179Y-58528689D03*
X122893154Y-60583592D03*
D15*
G36*
X124429636Y-60826947D02*
X122649799Y-62120074D01*
X121356672Y-60340237D01*
X123136509Y-59047110D01*
X124429636Y-60826947D01*
X124429636Y-60826947D01*
G37*
G04 #@! TD*
D17*
G04 #@! TO.C,BT1*
X142490000Y-89000000D03*
D18*
X122000000Y-89000000D03*
G04 #@! TD*
D19*
G04 #@! TO.C,R1*
X133380000Y-65000000D03*
D20*
X141000000Y-65000000D03*
G04 #@! TD*
D21*
G04 #@! TO.C,R2*
X145000000Y-66400000D03*
X145000000Y-63000000D03*
G04 #@! TD*
D20*
G04 #@! TO.C,R3*
X133380000Y-62000000D03*
D19*
X141000000Y-62000000D03*
G04 #@! TD*
G04 #@! TO.C,R4*
X133380000Y-68000000D03*
D20*
X141000000Y-68000000D03*
G04 #@! TD*
D16*
G04 #@! TO.C,D1*
X137000000Y-56000000D03*
D14*
X137000000Y-53460000D03*
G04 #@! TD*
D22*
G04 #@! TO.C,SW1*
X134460000Y-73000000D03*
D23*
X137000000Y-73000000D03*
X139540000Y-73000000D03*
G04 #@! TD*
D24*
G04 #@! TO.C,REF\002A\002A*
X163000000Y-80000000D03*
G04 #@! TD*
M02*
