G04 #@! TF.GenerationSoftware,KiCad,Pcbnew,(5.0.0)*
G04 #@! TF.CreationDate,2019-03-21T10:25:12+02:00*
G04 #@! TF.ProjectId,LED_badge,4C45445F62616467652E6B696361645F,rev?*
G04 #@! TF.SameCoordinates,Original*
G04 #@! TF.FileFunction,Copper,L1,Top,Signal*
G04 #@! TF.FilePolarity,Positive*
%FSLAX46Y46*%
G04 Gerber Fmt 4.6, Leading zero omitted, Abs format (unit mm)*
G04 Created by KiCad (PCBNEW (5.0.0)) date 03/21/19 10:25:12*
%MOMM*%
%LPD*%
G01*
G04 APERTURE LIST*
G04 #@! TA.AperFunction,ComponentPad*
%ADD10R,1.500000X1.050000*%
G04 #@! TD*
G04 #@! TA.AperFunction,ComponentPad*
%ADD11O,1.500000X1.050000*%
G04 #@! TD*
G04 #@! TA.AperFunction,ComponentPad*
%ADD12C,1.800000*%
G04 #@! TD*
G04 #@! TA.AperFunction,Conductor*
%ADD13C,0.100000*%
G04 #@! TD*
G04 #@! TA.AperFunction,ComponentPad*
%ADD14R,1.800000X1.800000*%
G04 #@! TD*
G04 #@! TA.AperFunction,ComponentPad*
%ADD15C,3.000000*%
G04 #@! TD*
G04 #@! TA.AperFunction,ComponentPad*
%ADD16R,3.000000X3.000000*%
G04 #@! TD*
G04 #@! TA.AperFunction,ComponentPad*
%ADD17C,1.600000*%
G04 #@! TD*
G04 #@! TA.AperFunction,ComponentPad*
%ADD18O,1.600000X1.600000*%
G04 #@! TD*
G04 #@! TA.AperFunction,ComponentPad*
%ADD19C,1.500000*%
G04 #@! TD*
G04 #@! TA.AperFunction,ComponentPad*
%ADD20R,1.700000X1.700000*%
G04 #@! TD*
G04 #@! TA.AperFunction,ComponentPad*
%ADD21O,1.700000X1.700000*%
G04 #@! TD*
G04 #@! TA.AperFunction,Conductor*
%ADD22C,0.254000*%
G04 #@! TD*
G04 APERTURE END LIST*
D10*
G04 #@! TO.P,Q1,1*
G04 #@! TO.N,Net-(D1-Pad1)*
X129000000Y-66270000D03*
D11*
G04 #@! TO.P,Q1,3*
G04 #@! TO.N,Net-(BT1-Pad2)*
X129000000Y-63730000D03*
G04 #@! TO.P,Q1,2*
G04 #@! TO.N,Net-(Q1-Pad2)*
X129000000Y-65000000D03*
G04 #@! TD*
D12*
G04 #@! TO.P,D1,2*
G04 #@! TO.N,Net-(D1-Pad2)*
X152599821Y-58528689D03*
G04 #@! TO.P,D1,1*
G04 #@! TO.N,Net-(D1-Pad1)*
X151106846Y-60583592D03*
D13*
G04 #@! TD*
G04 #@! TO.N,Net-(D1-Pad1)*
G04 #@! TO.C,D1*
G36*
X151305955Y-61840714D02*
X149849724Y-60782701D01*
X150907737Y-59326470D01*
X152363968Y-60384483D01*
X151305955Y-61840714D01*
X151305955Y-61840714D01*
G37*
D12*
G04 #@! TO.P,D1,2*
G04 #@! TO.N,Net-(D1-Pad2)*
X162241040Y-71798689D03*
G04 #@! TO.P,D1,1*
G04 #@! TO.N,Net-(D1-Pad1)*
X159825356Y-72583592D03*
D13*
G04 #@! TD*
G04 #@! TO.N,Net-(D1-Pad1)*
G04 #@! TO.C,D1*
G36*
X159247520Y-73717658D02*
X158691290Y-72005756D01*
X160403192Y-71449526D01*
X160959422Y-73161428D01*
X159247520Y-73717658D01*
X159247520Y-73717658D01*
G37*
D12*
G04 #@! TO.P,D1,2*
G04 #@! TO.N,Net-(D1-Pad2)*
X162241040Y-88201311D03*
G04 #@! TO.P,D1,1*
G04 #@! TO.N,Net-(D1-Pad1)*
X159825356Y-87416408D03*
D13*
G04 #@! TD*
G04 #@! TO.N,Net-(D1-Pad1)*
G04 #@! TO.C,D1*
G36*
X158691290Y-87994244D02*
X159247520Y-86282342D01*
X160959422Y-86838572D01*
X160403192Y-88550474D01*
X158691290Y-87994244D01*
X158691290Y-87994244D01*
G37*
D12*
G04 #@! TO.P,D1,2*
G04 #@! TO.N,Net-(D1-Pad2)*
X152599821Y-101471311D03*
G04 #@! TO.P,D1,1*
G04 #@! TO.N,Net-(D1-Pad1)*
X151106846Y-99416408D03*
D13*
G04 #@! TD*
G04 #@! TO.N,Net-(D1-Pad1)*
G04 #@! TO.C,D1*
G36*
X149849724Y-99217299D02*
X151305955Y-98159286D01*
X152363968Y-99615517D01*
X150907737Y-100673530D01*
X149849724Y-99217299D01*
X149849724Y-99217299D01*
G37*
D12*
G04 #@! TO.P,D1,2*
G04 #@! TO.N,Net-(D1-Pad2)*
X137000000Y-106540000D03*
D14*
G04 #@! TO.P,D1,1*
G04 #@! TO.N,Net-(D1-Pad1)*
X137000000Y-104000000D03*
G04 #@! TD*
D12*
G04 #@! TO.P,D1,2*
G04 #@! TO.N,Net-(D1-Pad2)*
X121400179Y-101471311D03*
G04 #@! TO.P,D1,1*
G04 #@! TO.N,Net-(D1-Pad1)*
X122893154Y-99416408D03*
D13*
G04 #@! TD*
G04 #@! TO.N,Net-(D1-Pad1)*
G04 #@! TO.C,D1*
G36*
X122694045Y-98159286D02*
X124150276Y-99217299D01*
X123092263Y-100673530D01*
X121636032Y-99615517D01*
X122694045Y-98159286D01*
X122694045Y-98159286D01*
G37*
D12*
G04 #@! TO.P,D1,2*
G04 #@! TO.N,Net-(D1-Pad2)*
X111758960Y-88201311D03*
G04 #@! TO.P,D1,1*
G04 #@! TO.N,Net-(D1-Pad1)*
X114174644Y-87416408D03*
D13*
G04 #@! TD*
G04 #@! TO.N,Net-(D1-Pad1)*
G04 #@! TO.C,D1*
G36*
X114752480Y-86282342D02*
X115308710Y-87994244D01*
X113596808Y-88550474D01*
X113040578Y-86838572D01*
X114752480Y-86282342D01*
X114752480Y-86282342D01*
G37*
D12*
G04 #@! TO.P,D1,2*
G04 #@! TO.N,Net-(D1-Pad2)*
X111758960Y-71798689D03*
G04 #@! TO.P,D1,1*
G04 #@! TO.N,Net-(D1-Pad1)*
X114174644Y-72583592D03*
D13*
G04 #@! TD*
G04 #@! TO.N,Net-(D1-Pad1)*
G04 #@! TO.C,D1*
G36*
X115308710Y-72005756D02*
X114752480Y-73717658D01*
X113040578Y-73161428D01*
X113596808Y-71449526D01*
X115308710Y-72005756D01*
X115308710Y-72005756D01*
G37*
D12*
G04 #@! TO.P,D1,2*
G04 #@! TO.N,Net-(D1-Pad2)*
X121400179Y-58528689D03*
G04 #@! TO.P,D1,1*
G04 #@! TO.N,Net-(D1-Pad1)*
X122893154Y-60583592D03*
D13*
G04 #@! TD*
G04 #@! TO.N,Net-(D1-Pad1)*
G04 #@! TO.C,D1*
G36*
X124150276Y-60782701D02*
X122694045Y-61840714D01*
X121636032Y-60384483D01*
X123092263Y-59326470D01*
X124150276Y-60782701D01*
X124150276Y-60782701D01*
G37*
D15*
G04 #@! TO.P,BT1,2*
G04 #@! TO.N,Net-(BT1-Pad2)*
X142490000Y-89000000D03*
D16*
G04 #@! TO.P,BT1,1*
G04 #@! TO.N,Net-(BT1-Pad1)*
X122000000Y-89000000D03*
G04 #@! TD*
D17*
G04 #@! TO.P,R1,1*
G04 #@! TO.N,Net-(R1-Pad1)*
X133380000Y-65000000D03*
D18*
G04 #@! TO.P,R1,2*
G04 #@! TO.N,Net-(R1-Pad2)*
X141000000Y-65000000D03*
G04 #@! TD*
D19*
G04 #@! TO.P,R2,1*
G04 #@! TO.N,Net-(R1-Pad2)*
X145000000Y-66400000D03*
G04 #@! TO.P,R2,2*
G04 #@! TO.N,Net-(BT1-Pad2)*
X145000000Y-63000000D03*
G04 #@! TD*
D18*
G04 #@! TO.P,R3,2*
G04 #@! TO.N,Net-(R1-Pad1)*
X133380000Y-62000000D03*
D17*
G04 #@! TO.P,R3,1*
G04 #@! TO.N,Net-(D1-Pad2)*
X141000000Y-62000000D03*
G04 #@! TD*
G04 #@! TO.P,R4,1*
G04 #@! TO.N,Net-(Q1-Pad2)*
X133380000Y-68000000D03*
D18*
G04 #@! TO.P,R4,2*
G04 #@! TO.N,Net-(R1-Pad2)*
X141000000Y-68000000D03*
G04 #@! TD*
D14*
G04 #@! TO.P,D1,1*
G04 #@! TO.N,Net-(D1-Pad1)*
X137000000Y-56000000D03*
D12*
G04 #@! TO.P,D1,2*
G04 #@! TO.N,Net-(D1-Pad2)*
X137000000Y-53460000D03*
G04 #@! TD*
D20*
G04 #@! TO.P,SW1,1*
G04 #@! TO.N,Net-(R1-Pad1)*
X134460000Y-73000000D03*
D21*
G04 #@! TO.P,SW1,2*
G04 #@! TO.N,Net-(BT1-Pad1)*
X137000000Y-73000000D03*
G04 #@! TO.P,SW1,3*
X139540000Y-73000000D03*
G04 #@! TD*
D22*
G04 #@! TO.N,Net-(D1-Pad1)*
G36*
X138993301Y-50761204D02*
X141078699Y-50978548D01*
X143143220Y-51344437D01*
X145176298Y-51856998D01*
X147167526Y-52513606D01*
X149106712Y-53310902D01*
X150983931Y-54244804D01*
X152789573Y-55310532D01*
X154514398Y-56502632D01*
X156149577Y-57815002D01*
X157686740Y-59240924D01*
X159118019Y-60773100D01*
X160436088Y-62403687D01*
X161634201Y-64124341D01*
X162706226Y-65926252D01*
X163646675Y-67800200D01*
X164450735Y-69736591D01*
X165114290Y-71725514D01*
X165633944Y-73756790D01*
X166007037Y-75820022D01*
X166231660Y-77904649D01*
X166306662Y-80000000D01*
X166258066Y-81687009D01*
X166062572Y-83774569D01*
X165718322Y-85842809D01*
X165227080Y-87881142D01*
X164591359Y-89879137D01*
X163814414Y-91826566D01*
X162900221Y-93713461D01*
X161853459Y-95530165D01*
X160679486Y-97267378D01*
X159384312Y-98916210D01*
X157974565Y-100468221D01*
X156457461Y-101915466D01*
X154840765Y-103250538D01*
X153132753Y-104466604D01*
X151342166Y-105557439D01*
X149478170Y-106517461D01*
X147550305Y-107341754D01*
X145568439Y-108026100D01*
X143542716Y-108566997D01*
X141483504Y-108961675D01*
X139401344Y-109208115D01*
X137306893Y-109305055D01*
X135210871Y-109251999D01*
X133124007Y-109049219D01*
X131056981Y-108697752D01*
X129020375Y-108199398D01*
X127024612Y-107556706D01*
X125079907Y-106772968D01*
X123196214Y-105852194D01*
X121383175Y-104799097D01*
X120629224Y-104285750D01*
X135465000Y-104285750D01*
X135465000Y-105026309D01*
X135561673Y-105259698D01*
X135740301Y-105438327D01*
X135875044Y-105494139D01*
X135698690Y-105670493D01*
X135465000Y-106234670D01*
X135465000Y-106845330D01*
X135698690Y-107409507D01*
X136130493Y-107841310D01*
X136694670Y-108075000D01*
X137305330Y-108075000D01*
X137869507Y-107841310D01*
X138301310Y-107409507D01*
X138535000Y-106845330D01*
X138535000Y-106234670D01*
X138301310Y-105670493D01*
X138124956Y-105494139D01*
X138259699Y-105438327D01*
X138438327Y-105259698D01*
X138535000Y-105026309D01*
X138535000Y-104285750D01*
X138376250Y-104127000D01*
X137127000Y-104127000D01*
X137127000Y-104147000D01*
X136873000Y-104147000D01*
X136873000Y-104127000D01*
X135623750Y-104127000D01*
X135465000Y-104285750D01*
X120629224Y-104285750D01*
X119650070Y-103619068D01*
X118005769Y-102318146D01*
X116746197Y-101165981D01*
X119865179Y-101165981D01*
X119865179Y-101776641D01*
X120098869Y-102340818D01*
X120530672Y-102772621D01*
X121094849Y-103006311D01*
X121705509Y-103006311D01*
X121784260Y-102973691D01*
X135465000Y-102973691D01*
X135465000Y-103714250D01*
X135623750Y-103873000D01*
X136873000Y-103873000D01*
X136873000Y-102623750D01*
X137127000Y-102623750D01*
X137127000Y-103873000D01*
X138376250Y-103873000D01*
X138535000Y-103714250D01*
X138535000Y-102973691D01*
X138438327Y-102740302D01*
X138259699Y-102561673D01*
X138026310Y-102465000D01*
X137285750Y-102465000D01*
X137127000Y-102623750D01*
X136873000Y-102623750D01*
X136714250Y-102465000D01*
X135973690Y-102465000D01*
X135740301Y-102561673D01*
X135561673Y-102740302D01*
X135465000Y-102973691D01*
X121784260Y-102973691D01*
X122269686Y-102772621D01*
X122701489Y-102340818D01*
X122935179Y-101776641D01*
X122935179Y-101288861D01*
X123066845Y-101320471D01*
X123316353Y-101280952D01*
X123531746Y-101148960D01*
X123967035Y-100549835D01*
X150032965Y-100549835D01*
X150468254Y-101148960D01*
X150683647Y-101280952D01*
X150933155Y-101320471D01*
X151064821Y-101288861D01*
X151064821Y-101776641D01*
X151298511Y-102340818D01*
X151730314Y-102772621D01*
X152294491Y-103006311D01*
X152905151Y-103006311D01*
X153469328Y-102772621D01*
X153901131Y-102340818D01*
X154134821Y-101776641D01*
X154134821Y-101165981D01*
X153901131Y-100601804D01*
X153469328Y-100170001D01*
X152910718Y-99938617D01*
X152971391Y-99839606D01*
X153010909Y-99590098D01*
X152951936Y-99344459D01*
X152516647Y-98745334D01*
X152294904Y-98710214D01*
X151284240Y-99444504D01*
X151295996Y-99460685D01*
X151090505Y-99609982D01*
X151078750Y-99593802D01*
X150068085Y-100328093D01*
X150032965Y-100549835D01*
X123967035Y-100549835D01*
X123931915Y-100328093D01*
X122921250Y-99593802D01*
X122909495Y-99609982D01*
X122704004Y-99460685D01*
X122715760Y-99444504D01*
X122638419Y-99388312D01*
X123070548Y-99388312D01*
X124081212Y-100122602D01*
X124302955Y-100087482D01*
X124738244Y-99488357D01*
X124797217Y-99242718D01*
X149202783Y-99242718D01*
X149261756Y-99488357D01*
X149697045Y-100087482D01*
X149918788Y-100122602D01*
X150929452Y-99388312D01*
X150195161Y-98377647D01*
X149973419Y-98342527D01*
X149578666Y-98629331D01*
X149374293Y-98777817D01*
X149242301Y-98993210D01*
X149202783Y-99242718D01*
X124797217Y-99242718D01*
X124757699Y-98993210D01*
X124625707Y-98777817D01*
X124421334Y-98629331D01*
X124026581Y-98342527D01*
X123804839Y-98377647D01*
X123070548Y-99388312D01*
X122638419Y-99388312D01*
X121705096Y-98710214D01*
X121483353Y-98745334D01*
X121048064Y-99344459D01*
X120989091Y-99590098D01*
X121028609Y-99839606D01*
X121089282Y-99938617D01*
X120530672Y-100170001D01*
X120098869Y-100601804D01*
X119865179Y-101165981D01*
X116746197Y-101165981D01*
X116458689Y-100902990D01*
X115016748Y-99380843D01*
X114116558Y-98282981D01*
X121819273Y-98282981D01*
X121854393Y-98504723D01*
X122865058Y-99239014D01*
X123599348Y-98228350D01*
X150400652Y-98228350D01*
X151134942Y-99239014D01*
X152145607Y-98504723D01*
X152180727Y-98282981D01*
X151745438Y-97683856D01*
X151530045Y-97551864D01*
X151280537Y-97512345D01*
X151034898Y-97571317D01*
X150830525Y-97719803D01*
X150435772Y-98006607D01*
X150400652Y-98228350D01*
X123599348Y-98228350D01*
X123564228Y-98006607D01*
X123169475Y-97719803D01*
X122965102Y-97571317D01*
X122719463Y-97512345D01*
X122469955Y-97551864D01*
X122254562Y-97683856D01*
X121819273Y-98282981D01*
X114116558Y-98282981D01*
X113687328Y-97759497D01*
X112477231Y-96047250D01*
X111392653Y-94252867D01*
X110439144Y-92385531D01*
X109621585Y-90454800D01*
X108944161Y-88470557D01*
X108792888Y-87895981D01*
X110223960Y-87895981D01*
X110223960Y-88506641D01*
X110457650Y-89070818D01*
X110889453Y-89502621D01*
X111453630Y-89736311D01*
X112064290Y-89736311D01*
X112628467Y-89502621D01*
X113060270Y-89070818D01*
X113107911Y-88955803D01*
X113195982Y-89058920D01*
X113421067Y-89173606D01*
X113672907Y-89193427D01*
X114377221Y-88964581D01*
X114479144Y-88764545D01*
X114093105Y-87576437D01*
X114074083Y-87582618D01*
X114046573Y-87497947D01*
X114334673Y-87497947D01*
X114720713Y-88686054D01*
X114920749Y-88787978D01*
X115625063Y-88559133D01*
X115817155Y-88395070D01*
X115931843Y-88169985D01*
X115951663Y-87918146D01*
X115873599Y-87677891D01*
X115815799Y-87500000D01*
X119852560Y-87500000D01*
X119852560Y-90500000D01*
X119901843Y-90747765D01*
X120042191Y-90957809D01*
X120252235Y-91098157D01*
X120500000Y-91147440D01*
X123500000Y-91147440D01*
X123747765Y-91098157D01*
X123957809Y-90957809D01*
X124098157Y-90747765D01*
X124147440Y-90500000D01*
X124147440Y-88575322D01*
X140355000Y-88575322D01*
X140355000Y-89424678D01*
X140680034Y-90209380D01*
X141280620Y-90809966D01*
X142065322Y-91135000D01*
X142914678Y-91135000D01*
X143699380Y-90809966D01*
X144299966Y-90209380D01*
X144625000Y-89424678D01*
X144625000Y-88575322D01*
X144352789Y-87918146D01*
X158048337Y-87918146D01*
X158068157Y-88169985D01*
X158182845Y-88395070D01*
X158374937Y-88559133D01*
X159079251Y-88787978D01*
X159125240Y-88764545D01*
X159520856Y-88764545D01*
X159622779Y-88964581D01*
X160327093Y-89193427D01*
X160578933Y-89173606D01*
X160804018Y-89058920D01*
X160892089Y-88955803D01*
X160939730Y-89070818D01*
X161371533Y-89502621D01*
X161935710Y-89736311D01*
X162546370Y-89736311D01*
X163110547Y-89502621D01*
X163542350Y-89070818D01*
X163776040Y-88506641D01*
X163776040Y-87895981D01*
X163542350Y-87331804D01*
X163110547Y-86900001D01*
X162546370Y-86666311D01*
X161935710Y-86666311D01*
X161593969Y-86807865D01*
X161582555Y-86662831D01*
X161467867Y-86437746D01*
X161275775Y-86273683D01*
X160571461Y-86044838D01*
X160371425Y-86146762D01*
X159985385Y-87334869D01*
X160004406Y-87341049D01*
X159925917Y-87582618D01*
X159906895Y-87576437D01*
X159520856Y-88764545D01*
X159125240Y-88764545D01*
X159279287Y-88686054D01*
X159665327Y-87497947D01*
X158477219Y-87111908D01*
X158277183Y-87213831D01*
X158126401Y-87677891D01*
X158048337Y-87918146D01*
X144352789Y-87918146D01*
X144299966Y-87790620D01*
X143699380Y-87190034D01*
X142914678Y-86865000D01*
X142065322Y-86865000D01*
X141280620Y-87190034D01*
X140680034Y-87790620D01*
X140355000Y-88575322D01*
X124147440Y-88575322D01*
X124147440Y-87500000D01*
X124098157Y-87252235D01*
X123957809Y-87042191D01*
X123747765Y-86901843D01*
X123500000Y-86852560D01*
X120500000Y-86852560D01*
X120252235Y-86901843D01*
X120042191Y-87042191D01*
X119901843Y-87252235D01*
X119852560Y-87500000D01*
X115815799Y-87500000D01*
X115722817Y-87213831D01*
X115522781Y-87111908D01*
X114334673Y-87497947D01*
X114046573Y-87497947D01*
X113995594Y-87341049D01*
X114014615Y-87334869D01*
X113628575Y-86146762D01*
X113474529Y-86068271D01*
X113870144Y-86068271D01*
X114256183Y-87256379D01*
X115444290Y-86870339D01*
X115546214Y-86670303D01*
X158453786Y-86670303D01*
X158555710Y-86870339D01*
X159743817Y-87256379D01*
X160129856Y-86068271D01*
X160027933Y-85868235D01*
X159323619Y-85639389D01*
X159071779Y-85659210D01*
X158846694Y-85773896D01*
X158682631Y-85965988D01*
X158604568Y-86206243D01*
X158453786Y-86670303D01*
X115546214Y-86670303D01*
X115395432Y-86206243D01*
X115317369Y-85965988D01*
X115153306Y-85773896D01*
X114928221Y-85659210D01*
X114676381Y-85639389D01*
X113972067Y-85868235D01*
X113870144Y-86068271D01*
X113474529Y-86068271D01*
X113428539Y-86044838D01*
X112724225Y-86273683D01*
X112532133Y-86437746D01*
X112417445Y-86662831D01*
X112406031Y-86807865D01*
X112064290Y-86666311D01*
X111453630Y-86666311D01*
X110889453Y-86900001D01*
X110457650Y-87331804D01*
X110223960Y-87895981D01*
X108792888Y-87895981D01*
X108410339Y-86442958D01*
X108022851Y-84382382D01*
X107783681Y-82299374D01*
X107694052Y-80204597D01*
X107717908Y-79376410D01*
X159865000Y-79376410D01*
X159865000Y-80623590D01*
X160342276Y-81775835D01*
X161224165Y-82657724D01*
X162376410Y-83135000D01*
X163623590Y-83135000D01*
X164775835Y-82657724D01*
X165657724Y-81775835D01*
X166135000Y-80623590D01*
X166135000Y-79376410D01*
X165657724Y-78224165D01*
X164775835Y-77342276D01*
X163623590Y-76865000D01*
X162376410Y-76865000D01*
X161224165Y-77342276D01*
X160342276Y-78224165D01*
X159865000Y-79376410D01*
X107717908Y-79376410D01*
X107754424Y-78108773D01*
X107964488Y-76022630D01*
X108323168Y-73956844D01*
X108828628Y-71921989D01*
X108968312Y-71493359D01*
X110223960Y-71493359D01*
X110223960Y-72104019D01*
X110457650Y-72668196D01*
X110889453Y-73099999D01*
X111453630Y-73333689D01*
X112064290Y-73333689D01*
X112406031Y-73192135D01*
X112417445Y-73337169D01*
X112532133Y-73562254D01*
X112724225Y-73726317D01*
X113428539Y-73955162D01*
X113474528Y-73931729D01*
X113870144Y-73931729D01*
X113972067Y-74131765D01*
X114676381Y-74360611D01*
X114928221Y-74340790D01*
X115153306Y-74226104D01*
X115317369Y-74034012D01*
X115395432Y-73793757D01*
X115546214Y-73329697D01*
X115444290Y-73129661D01*
X114256183Y-72743621D01*
X113870144Y-73931729D01*
X113474528Y-73931729D01*
X113628575Y-73853238D01*
X114014615Y-72665131D01*
X113995594Y-72658951D01*
X114046572Y-72502053D01*
X114334673Y-72502053D01*
X115522781Y-72888092D01*
X115722817Y-72786169D01*
X115873599Y-72322109D01*
X115929520Y-72150000D01*
X132962560Y-72150000D01*
X132962560Y-73850000D01*
X133011843Y-74097765D01*
X133152191Y-74307809D01*
X133362235Y-74448157D01*
X133610000Y-74497440D01*
X135310000Y-74497440D01*
X135557765Y-74448157D01*
X135767809Y-74307809D01*
X135908157Y-74097765D01*
X135917184Y-74052381D01*
X135929375Y-74070625D01*
X136420582Y-74398839D01*
X136853744Y-74485000D01*
X137146256Y-74485000D01*
X137579418Y-74398839D01*
X138070625Y-74070625D01*
X138270000Y-73772239D01*
X138469375Y-74070625D01*
X138960582Y-74398839D01*
X139393744Y-74485000D01*
X139686256Y-74485000D01*
X140119418Y-74398839D01*
X140610625Y-74070625D01*
X140938839Y-73579418D01*
X140988511Y-73329697D01*
X158453786Y-73329697D01*
X158604568Y-73793757D01*
X158682631Y-74034012D01*
X158846694Y-74226104D01*
X159071779Y-74340790D01*
X159323619Y-74360611D01*
X160027933Y-74131765D01*
X160129856Y-73931729D01*
X159743817Y-72743621D01*
X158555710Y-73129661D01*
X158453786Y-73329697D01*
X140988511Y-73329697D01*
X141054092Y-73000000D01*
X140938839Y-72420582D01*
X140712509Y-72081854D01*
X158048337Y-72081854D01*
X158126401Y-72322109D01*
X158277183Y-72786169D01*
X158477219Y-72888092D01*
X159665327Y-72502053D01*
X159279287Y-71313946D01*
X159125241Y-71235455D01*
X159520856Y-71235455D01*
X159906895Y-72423563D01*
X159925917Y-72417382D01*
X160004406Y-72658951D01*
X159985385Y-72665131D01*
X160371425Y-73853238D01*
X160571461Y-73955162D01*
X161275775Y-73726317D01*
X161467867Y-73562254D01*
X161582555Y-73337169D01*
X161593969Y-73192135D01*
X161935710Y-73333689D01*
X162546370Y-73333689D01*
X163110547Y-73099999D01*
X163542350Y-72668196D01*
X163776040Y-72104019D01*
X163776040Y-71493359D01*
X163542350Y-70929182D01*
X163110547Y-70497379D01*
X162546370Y-70263689D01*
X161935710Y-70263689D01*
X161371533Y-70497379D01*
X160939730Y-70929182D01*
X160892089Y-71044197D01*
X160804018Y-70941080D01*
X160578933Y-70826394D01*
X160327093Y-70806573D01*
X159622779Y-71035419D01*
X159520856Y-71235455D01*
X159125241Y-71235455D01*
X159079251Y-71212022D01*
X158374937Y-71440867D01*
X158182845Y-71604930D01*
X158068157Y-71830015D01*
X158048337Y-72081854D01*
X140712509Y-72081854D01*
X140610625Y-71929375D01*
X140119418Y-71601161D01*
X139686256Y-71515000D01*
X139393744Y-71515000D01*
X138960582Y-71601161D01*
X138469375Y-71929375D01*
X138270000Y-72227761D01*
X138070625Y-71929375D01*
X137579418Y-71601161D01*
X137146256Y-71515000D01*
X136853744Y-71515000D01*
X136420582Y-71601161D01*
X135929375Y-71929375D01*
X135917184Y-71947619D01*
X135908157Y-71902235D01*
X135767809Y-71692191D01*
X135557765Y-71551843D01*
X135310000Y-71502560D01*
X133610000Y-71502560D01*
X133362235Y-71551843D01*
X133152191Y-71692191D01*
X133011843Y-71902235D01*
X132962560Y-72150000D01*
X115929520Y-72150000D01*
X115951663Y-72081854D01*
X115931843Y-71830015D01*
X115817155Y-71604930D01*
X115625063Y-71440867D01*
X114920749Y-71212022D01*
X114720713Y-71313946D01*
X114334673Y-72502053D01*
X114046572Y-72502053D01*
X114074083Y-72417382D01*
X114093105Y-72423563D01*
X114479144Y-71235455D01*
X114377221Y-71035419D01*
X113672907Y-70806573D01*
X113421067Y-70826394D01*
X113195982Y-70941080D01*
X113107911Y-71044197D01*
X113060270Y-70929182D01*
X112628467Y-70497379D01*
X112064290Y-70263689D01*
X111453630Y-70263689D01*
X110889453Y-70497379D01*
X110457650Y-70929182D01*
X110223960Y-71493359D01*
X108968312Y-71493359D01*
X109478282Y-69928481D01*
X110268804Y-67986524D01*
X110402921Y-67714561D01*
X131945000Y-67714561D01*
X131945000Y-68285439D01*
X132163466Y-68812862D01*
X132567138Y-69216534D01*
X133094561Y-69435000D01*
X133665439Y-69435000D01*
X134192862Y-69216534D01*
X134596534Y-68812862D01*
X134815000Y-68285439D01*
X134815000Y-68000000D01*
X139536887Y-68000000D01*
X139648260Y-68559909D01*
X139965423Y-69034577D01*
X140440091Y-69351740D01*
X140858667Y-69435000D01*
X141141333Y-69435000D01*
X141559909Y-69351740D01*
X142034577Y-69034577D01*
X142351740Y-68559909D01*
X142463113Y-68000000D01*
X142351740Y-67440091D01*
X142034577Y-66965423D01*
X141559909Y-66648260D01*
X141141333Y-66565000D01*
X140858667Y-66565000D01*
X140440091Y-66648260D01*
X139965423Y-66965423D01*
X139648260Y-67440091D01*
X139536887Y-68000000D01*
X134815000Y-68000000D01*
X134815000Y-67714561D01*
X134596534Y-67187138D01*
X134192862Y-66783466D01*
X133665439Y-66565000D01*
X133094561Y-66565000D01*
X132567138Y-66783466D01*
X132163466Y-67187138D01*
X131945000Y-67714561D01*
X110402921Y-67714561D01*
X110974383Y-66555750D01*
X127615000Y-66555750D01*
X127615000Y-66921309D01*
X127711673Y-67154698D01*
X127890301Y-67333327D01*
X128123690Y-67430000D01*
X128714250Y-67430000D01*
X128873000Y-67271250D01*
X128873000Y-66397000D01*
X129127000Y-66397000D01*
X129127000Y-67271250D01*
X129285750Y-67430000D01*
X129876310Y-67430000D01*
X130109699Y-67333327D01*
X130288327Y-67154698D01*
X130385000Y-66921309D01*
X130385000Y-66555750D01*
X130226250Y-66397000D01*
X129127000Y-66397000D01*
X128873000Y-66397000D01*
X127773750Y-66397000D01*
X127615000Y-66555750D01*
X110974383Y-66555750D01*
X111196148Y-66106057D01*
X112255567Y-64296705D01*
X112644325Y-63730000D01*
X127592275Y-63730000D01*
X127682305Y-64182609D01*
X127804174Y-64365000D01*
X127682305Y-64547391D01*
X127592275Y-65000000D01*
X127682305Y-65452609D01*
X127683224Y-65453984D01*
X127615000Y-65618691D01*
X127615000Y-65984250D01*
X127773750Y-66143000D01*
X128575290Y-66143000D01*
X128660754Y-66160000D01*
X129339246Y-66160000D01*
X129424710Y-66143000D01*
X130226250Y-66143000D01*
X130385000Y-65984250D01*
X130385000Y-65618691D01*
X130316776Y-65453984D01*
X130317695Y-65452609D01*
X130407725Y-65000000D01*
X130350948Y-64714561D01*
X131945000Y-64714561D01*
X131945000Y-65285439D01*
X132163466Y-65812862D01*
X132567138Y-66216534D01*
X133094561Y-66435000D01*
X133665439Y-66435000D01*
X134192862Y-66216534D01*
X134596534Y-65812862D01*
X134815000Y-65285439D01*
X134815000Y-65000000D01*
X139536887Y-65000000D01*
X139648260Y-65559909D01*
X139965423Y-66034577D01*
X140440091Y-66351740D01*
X140858667Y-66435000D01*
X141141333Y-66435000D01*
X141559909Y-66351740D01*
X141899988Y-66124506D01*
X143615000Y-66124506D01*
X143615000Y-66675494D01*
X143825853Y-67184540D01*
X144215460Y-67574147D01*
X144724506Y-67785000D01*
X145275494Y-67785000D01*
X145784540Y-67574147D01*
X146174147Y-67184540D01*
X146385000Y-66675494D01*
X146385000Y-66124506D01*
X146174147Y-65615460D01*
X145784540Y-65225853D01*
X145275494Y-65015000D01*
X144724506Y-65015000D01*
X144215460Y-65225853D01*
X143825853Y-65615460D01*
X143615000Y-66124506D01*
X141899988Y-66124506D01*
X142034577Y-66034577D01*
X142351740Y-65559909D01*
X142463113Y-65000000D01*
X142351740Y-64440091D01*
X142034577Y-63965423D01*
X141559909Y-63648260D01*
X141141333Y-63565000D01*
X140858667Y-63565000D01*
X140440091Y-63648260D01*
X139965423Y-63965423D01*
X139648260Y-64440091D01*
X139536887Y-65000000D01*
X134815000Y-65000000D01*
X134815000Y-64714561D01*
X134596534Y-64187138D01*
X134192862Y-63783466D01*
X133665439Y-63565000D01*
X133094561Y-63565000D01*
X132567138Y-63783466D01*
X132163466Y-64187138D01*
X131945000Y-64714561D01*
X130350948Y-64714561D01*
X130317695Y-64547391D01*
X130195826Y-64365000D01*
X130317695Y-64182609D01*
X130407725Y-63730000D01*
X130317695Y-63277391D01*
X130061313Y-62893687D01*
X129677609Y-62637305D01*
X129339246Y-62570000D01*
X128660754Y-62570000D01*
X128322391Y-62637305D01*
X127938687Y-62893687D01*
X127682305Y-63277391D01*
X127592275Y-63730000D01*
X112644325Y-63730000D01*
X113441639Y-62567730D01*
X114119537Y-61717019D01*
X121819273Y-61717019D01*
X122254562Y-62316144D01*
X122469955Y-62448136D01*
X122719463Y-62487655D01*
X122965102Y-62428683D01*
X123169475Y-62280197D01*
X123555134Y-62000000D01*
X131916887Y-62000000D01*
X132028260Y-62559909D01*
X132345423Y-63034577D01*
X132820091Y-63351740D01*
X133238667Y-63435000D01*
X133521333Y-63435000D01*
X133939909Y-63351740D01*
X134414577Y-63034577D01*
X134731740Y-62559909D01*
X134843113Y-62000000D01*
X134786336Y-61714561D01*
X139565000Y-61714561D01*
X139565000Y-62285439D01*
X139783466Y-62812862D01*
X140187138Y-63216534D01*
X140714561Y-63435000D01*
X141285439Y-63435000D01*
X141812862Y-63216534D01*
X142216534Y-62812862D01*
X142253132Y-62724506D01*
X143615000Y-62724506D01*
X143615000Y-63275494D01*
X143825853Y-63784540D01*
X144215460Y-64174147D01*
X144724506Y-64385000D01*
X145275494Y-64385000D01*
X145784540Y-64174147D01*
X146174147Y-63784540D01*
X146385000Y-63275494D01*
X146385000Y-62724506D01*
X146174147Y-62215460D01*
X145784540Y-61825853D01*
X145653682Y-61771650D01*
X150400652Y-61771650D01*
X150435772Y-61993393D01*
X150830525Y-62280197D01*
X151034898Y-62428683D01*
X151280537Y-62487655D01*
X151530045Y-62448136D01*
X151745438Y-62316144D01*
X152180727Y-61717019D01*
X152145607Y-61495277D01*
X151134942Y-60760986D01*
X150400652Y-61771650D01*
X145653682Y-61771650D01*
X145275494Y-61615000D01*
X144724506Y-61615000D01*
X144215460Y-61825853D01*
X143825853Y-62215460D01*
X143615000Y-62724506D01*
X142253132Y-62724506D01*
X142435000Y-62285439D01*
X142435000Y-61714561D01*
X142216534Y-61187138D01*
X141812862Y-60783466D01*
X141749649Y-60757282D01*
X149202783Y-60757282D01*
X149242301Y-61006790D01*
X149374293Y-61222183D01*
X149578666Y-61370669D01*
X149973419Y-61657473D01*
X150195161Y-61622353D01*
X150929452Y-60611688D01*
X149918788Y-59877398D01*
X149697045Y-59912518D01*
X149261756Y-60511643D01*
X149202783Y-60757282D01*
X141749649Y-60757282D01*
X141285439Y-60565000D01*
X140714561Y-60565000D01*
X140187138Y-60783466D01*
X139783466Y-61187138D01*
X139565000Y-61714561D01*
X134786336Y-61714561D01*
X134731740Y-61440091D01*
X134414577Y-60965423D01*
X133939909Y-60648260D01*
X133521333Y-60565000D01*
X133238667Y-60565000D01*
X132820091Y-60648260D01*
X132345423Y-60965423D01*
X132028260Y-61440091D01*
X131916887Y-62000000D01*
X123555134Y-62000000D01*
X123564228Y-61993393D01*
X123599348Y-61771650D01*
X122865058Y-60760986D01*
X121854393Y-61495277D01*
X121819273Y-61717019D01*
X114119537Y-61717019D01*
X114748292Y-60927980D01*
X116168840Y-59385849D01*
X117404604Y-58223359D01*
X119865179Y-58223359D01*
X119865179Y-58834019D01*
X120098869Y-59398196D01*
X120530672Y-59829999D01*
X121089282Y-60061383D01*
X121028609Y-60160394D01*
X120989091Y-60409902D01*
X121048064Y-60655541D01*
X121483353Y-61254666D01*
X121705096Y-61289786D01*
X122638418Y-60611688D01*
X123070548Y-60611688D01*
X123804839Y-61622353D01*
X124026581Y-61657473D01*
X124421334Y-61370669D01*
X124625707Y-61222183D01*
X124757699Y-61006790D01*
X124797217Y-60757282D01*
X124738244Y-60511643D01*
X124302955Y-59912518D01*
X124081212Y-59877398D01*
X123070548Y-60611688D01*
X122638418Y-60611688D01*
X122715760Y-60555496D01*
X122704004Y-60539315D01*
X122909495Y-60390018D01*
X122921250Y-60406198D01*
X123931915Y-59671907D01*
X123967035Y-59450165D01*
X150032965Y-59450165D01*
X150068085Y-59671907D01*
X151078750Y-60406198D01*
X151090505Y-60390018D01*
X151295996Y-60539315D01*
X151284240Y-60555496D01*
X152294904Y-61289786D01*
X152516647Y-61254666D01*
X152951936Y-60655541D01*
X153010909Y-60409902D01*
X152971391Y-60160394D01*
X152910718Y-60061383D01*
X153469328Y-59829999D01*
X153901131Y-59398196D01*
X154134821Y-58834019D01*
X154134821Y-58223359D01*
X153901131Y-57659182D01*
X153469328Y-57227379D01*
X152905151Y-56993689D01*
X152294491Y-56993689D01*
X151730314Y-57227379D01*
X151298511Y-57659182D01*
X151064821Y-58223359D01*
X151064821Y-58711139D01*
X150933155Y-58679529D01*
X150683647Y-58719048D01*
X150468254Y-58851040D01*
X150032965Y-59450165D01*
X123967035Y-59450165D01*
X123531746Y-58851040D01*
X123316353Y-58719048D01*
X123066845Y-58679529D01*
X122935179Y-58711139D01*
X122935179Y-58223359D01*
X122701489Y-57659182D01*
X122269686Y-57227379D01*
X121705509Y-56993689D01*
X121094849Y-56993689D01*
X120530672Y-57227379D01*
X120098869Y-57659182D01*
X119865179Y-58223359D01*
X117404604Y-58223359D01*
X117696011Y-57949231D01*
X119321987Y-56625477D01*
X119806267Y-56285750D01*
X135465000Y-56285750D01*
X135465000Y-57026309D01*
X135561673Y-57259698D01*
X135740301Y-57438327D01*
X135973690Y-57535000D01*
X136714250Y-57535000D01*
X136873000Y-57376250D01*
X136873000Y-56127000D01*
X137127000Y-56127000D01*
X137127000Y-57376250D01*
X137285750Y-57535000D01*
X138026310Y-57535000D01*
X138259699Y-57438327D01*
X138438327Y-57259698D01*
X138535000Y-57026309D01*
X138535000Y-56285750D01*
X138376250Y-56127000D01*
X137127000Y-56127000D01*
X136873000Y-56127000D01*
X135623750Y-56127000D01*
X135465000Y-56285750D01*
X119806267Y-56285750D01*
X121038448Y-55421365D01*
X122836607Y-54343057D01*
X124707260Y-53396072D01*
X125282938Y-53154670D01*
X135465000Y-53154670D01*
X135465000Y-53765330D01*
X135698690Y-54329507D01*
X135875044Y-54505861D01*
X135740301Y-54561673D01*
X135561673Y-54740302D01*
X135465000Y-54973691D01*
X135465000Y-55714250D01*
X135623750Y-55873000D01*
X136873000Y-55873000D01*
X136873000Y-55853000D01*
X137127000Y-55853000D01*
X137127000Y-55873000D01*
X138376250Y-55873000D01*
X138535000Y-55714250D01*
X138535000Y-54973691D01*
X138438327Y-54740302D01*
X138259699Y-54561673D01*
X138124956Y-54505861D01*
X138301310Y-54329507D01*
X138535000Y-53765330D01*
X138535000Y-53154670D01*
X138301310Y-52590493D01*
X137869507Y-52158690D01*
X137305330Y-51925000D01*
X136694670Y-51925000D01*
X136130493Y-52158690D01*
X135698690Y-52590493D01*
X135465000Y-53154670D01*
X125282938Y-53154670D01*
X126640832Y-52585258D01*
X128627428Y-51914764D01*
X130656877Y-51388023D01*
X132718794Y-51007730D01*
X134802624Y-50775832D01*
X136897701Y-50693517D01*
X138993301Y-50761204D01*
X138993301Y-50761204D01*
G37*
X138993301Y-50761204D02*
X141078699Y-50978548D01*
X143143220Y-51344437D01*
X145176298Y-51856998D01*
X147167526Y-52513606D01*
X149106712Y-53310902D01*
X150983931Y-54244804D01*
X152789573Y-55310532D01*
X154514398Y-56502632D01*
X156149577Y-57815002D01*
X157686740Y-59240924D01*
X159118019Y-60773100D01*
X160436088Y-62403687D01*
X161634201Y-64124341D01*
X162706226Y-65926252D01*
X163646675Y-67800200D01*
X164450735Y-69736591D01*
X165114290Y-71725514D01*
X165633944Y-73756790D01*
X166007037Y-75820022D01*
X166231660Y-77904649D01*
X166306662Y-80000000D01*
X166258066Y-81687009D01*
X166062572Y-83774569D01*
X165718322Y-85842809D01*
X165227080Y-87881142D01*
X164591359Y-89879137D01*
X163814414Y-91826566D01*
X162900221Y-93713461D01*
X161853459Y-95530165D01*
X160679486Y-97267378D01*
X159384312Y-98916210D01*
X157974565Y-100468221D01*
X156457461Y-101915466D01*
X154840765Y-103250538D01*
X153132753Y-104466604D01*
X151342166Y-105557439D01*
X149478170Y-106517461D01*
X147550305Y-107341754D01*
X145568439Y-108026100D01*
X143542716Y-108566997D01*
X141483504Y-108961675D01*
X139401344Y-109208115D01*
X137306893Y-109305055D01*
X135210871Y-109251999D01*
X133124007Y-109049219D01*
X131056981Y-108697752D01*
X129020375Y-108199398D01*
X127024612Y-107556706D01*
X125079907Y-106772968D01*
X123196214Y-105852194D01*
X121383175Y-104799097D01*
X120629224Y-104285750D01*
X135465000Y-104285750D01*
X135465000Y-105026309D01*
X135561673Y-105259698D01*
X135740301Y-105438327D01*
X135875044Y-105494139D01*
X135698690Y-105670493D01*
X135465000Y-106234670D01*
X135465000Y-106845330D01*
X135698690Y-107409507D01*
X136130493Y-107841310D01*
X136694670Y-108075000D01*
X137305330Y-108075000D01*
X137869507Y-107841310D01*
X138301310Y-107409507D01*
X138535000Y-106845330D01*
X138535000Y-106234670D01*
X138301310Y-105670493D01*
X138124956Y-105494139D01*
X138259699Y-105438327D01*
X138438327Y-105259698D01*
X138535000Y-105026309D01*
X138535000Y-104285750D01*
X138376250Y-104127000D01*
X137127000Y-104127000D01*
X137127000Y-104147000D01*
X136873000Y-104147000D01*
X136873000Y-104127000D01*
X135623750Y-104127000D01*
X135465000Y-104285750D01*
X120629224Y-104285750D01*
X119650070Y-103619068D01*
X118005769Y-102318146D01*
X116746197Y-101165981D01*
X119865179Y-101165981D01*
X119865179Y-101776641D01*
X120098869Y-102340818D01*
X120530672Y-102772621D01*
X121094849Y-103006311D01*
X121705509Y-103006311D01*
X121784260Y-102973691D01*
X135465000Y-102973691D01*
X135465000Y-103714250D01*
X135623750Y-103873000D01*
X136873000Y-103873000D01*
X136873000Y-102623750D01*
X137127000Y-102623750D01*
X137127000Y-103873000D01*
X138376250Y-103873000D01*
X138535000Y-103714250D01*
X138535000Y-102973691D01*
X138438327Y-102740302D01*
X138259699Y-102561673D01*
X138026310Y-102465000D01*
X137285750Y-102465000D01*
X137127000Y-102623750D01*
X136873000Y-102623750D01*
X136714250Y-102465000D01*
X135973690Y-102465000D01*
X135740301Y-102561673D01*
X135561673Y-102740302D01*
X135465000Y-102973691D01*
X121784260Y-102973691D01*
X122269686Y-102772621D01*
X122701489Y-102340818D01*
X122935179Y-101776641D01*
X122935179Y-101288861D01*
X123066845Y-101320471D01*
X123316353Y-101280952D01*
X123531746Y-101148960D01*
X123967035Y-100549835D01*
X150032965Y-100549835D01*
X150468254Y-101148960D01*
X150683647Y-101280952D01*
X150933155Y-101320471D01*
X151064821Y-101288861D01*
X151064821Y-101776641D01*
X151298511Y-102340818D01*
X151730314Y-102772621D01*
X152294491Y-103006311D01*
X152905151Y-103006311D01*
X153469328Y-102772621D01*
X153901131Y-102340818D01*
X154134821Y-101776641D01*
X154134821Y-101165981D01*
X153901131Y-100601804D01*
X153469328Y-100170001D01*
X152910718Y-99938617D01*
X152971391Y-99839606D01*
X153010909Y-99590098D01*
X152951936Y-99344459D01*
X152516647Y-98745334D01*
X152294904Y-98710214D01*
X151284240Y-99444504D01*
X151295996Y-99460685D01*
X151090505Y-99609982D01*
X151078750Y-99593802D01*
X150068085Y-100328093D01*
X150032965Y-100549835D01*
X123967035Y-100549835D01*
X123931915Y-100328093D01*
X122921250Y-99593802D01*
X122909495Y-99609982D01*
X122704004Y-99460685D01*
X122715760Y-99444504D01*
X122638419Y-99388312D01*
X123070548Y-99388312D01*
X124081212Y-100122602D01*
X124302955Y-100087482D01*
X124738244Y-99488357D01*
X124797217Y-99242718D01*
X149202783Y-99242718D01*
X149261756Y-99488357D01*
X149697045Y-100087482D01*
X149918788Y-100122602D01*
X150929452Y-99388312D01*
X150195161Y-98377647D01*
X149973419Y-98342527D01*
X149578666Y-98629331D01*
X149374293Y-98777817D01*
X149242301Y-98993210D01*
X149202783Y-99242718D01*
X124797217Y-99242718D01*
X124757699Y-98993210D01*
X124625707Y-98777817D01*
X124421334Y-98629331D01*
X124026581Y-98342527D01*
X123804839Y-98377647D01*
X123070548Y-99388312D01*
X122638419Y-99388312D01*
X121705096Y-98710214D01*
X121483353Y-98745334D01*
X121048064Y-99344459D01*
X120989091Y-99590098D01*
X121028609Y-99839606D01*
X121089282Y-99938617D01*
X120530672Y-100170001D01*
X120098869Y-100601804D01*
X119865179Y-101165981D01*
X116746197Y-101165981D01*
X116458689Y-100902990D01*
X115016748Y-99380843D01*
X114116558Y-98282981D01*
X121819273Y-98282981D01*
X121854393Y-98504723D01*
X122865058Y-99239014D01*
X123599348Y-98228350D01*
X150400652Y-98228350D01*
X151134942Y-99239014D01*
X152145607Y-98504723D01*
X152180727Y-98282981D01*
X151745438Y-97683856D01*
X151530045Y-97551864D01*
X151280537Y-97512345D01*
X151034898Y-97571317D01*
X150830525Y-97719803D01*
X150435772Y-98006607D01*
X150400652Y-98228350D01*
X123599348Y-98228350D01*
X123564228Y-98006607D01*
X123169475Y-97719803D01*
X122965102Y-97571317D01*
X122719463Y-97512345D01*
X122469955Y-97551864D01*
X122254562Y-97683856D01*
X121819273Y-98282981D01*
X114116558Y-98282981D01*
X113687328Y-97759497D01*
X112477231Y-96047250D01*
X111392653Y-94252867D01*
X110439144Y-92385531D01*
X109621585Y-90454800D01*
X108944161Y-88470557D01*
X108792888Y-87895981D01*
X110223960Y-87895981D01*
X110223960Y-88506641D01*
X110457650Y-89070818D01*
X110889453Y-89502621D01*
X111453630Y-89736311D01*
X112064290Y-89736311D01*
X112628467Y-89502621D01*
X113060270Y-89070818D01*
X113107911Y-88955803D01*
X113195982Y-89058920D01*
X113421067Y-89173606D01*
X113672907Y-89193427D01*
X114377221Y-88964581D01*
X114479144Y-88764545D01*
X114093105Y-87576437D01*
X114074083Y-87582618D01*
X114046573Y-87497947D01*
X114334673Y-87497947D01*
X114720713Y-88686054D01*
X114920749Y-88787978D01*
X115625063Y-88559133D01*
X115817155Y-88395070D01*
X115931843Y-88169985D01*
X115951663Y-87918146D01*
X115873599Y-87677891D01*
X115815799Y-87500000D01*
X119852560Y-87500000D01*
X119852560Y-90500000D01*
X119901843Y-90747765D01*
X120042191Y-90957809D01*
X120252235Y-91098157D01*
X120500000Y-91147440D01*
X123500000Y-91147440D01*
X123747765Y-91098157D01*
X123957809Y-90957809D01*
X124098157Y-90747765D01*
X124147440Y-90500000D01*
X124147440Y-88575322D01*
X140355000Y-88575322D01*
X140355000Y-89424678D01*
X140680034Y-90209380D01*
X141280620Y-90809966D01*
X142065322Y-91135000D01*
X142914678Y-91135000D01*
X143699380Y-90809966D01*
X144299966Y-90209380D01*
X144625000Y-89424678D01*
X144625000Y-88575322D01*
X144352789Y-87918146D01*
X158048337Y-87918146D01*
X158068157Y-88169985D01*
X158182845Y-88395070D01*
X158374937Y-88559133D01*
X159079251Y-88787978D01*
X159125240Y-88764545D01*
X159520856Y-88764545D01*
X159622779Y-88964581D01*
X160327093Y-89193427D01*
X160578933Y-89173606D01*
X160804018Y-89058920D01*
X160892089Y-88955803D01*
X160939730Y-89070818D01*
X161371533Y-89502621D01*
X161935710Y-89736311D01*
X162546370Y-89736311D01*
X163110547Y-89502621D01*
X163542350Y-89070818D01*
X163776040Y-88506641D01*
X163776040Y-87895981D01*
X163542350Y-87331804D01*
X163110547Y-86900001D01*
X162546370Y-86666311D01*
X161935710Y-86666311D01*
X161593969Y-86807865D01*
X161582555Y-86662831D01*
X161467867Y-86437746D01*
X161275775Y-86273683D01*
X160571461Y-86044838D01*
X160371425Y-86146762D01*
X159985385Y-87334869D01*
X160004406Y-87341049D01*
X159925917Y-87582618D01*
X159906895Y-87576437D01*
X159520856Y-88764545D01*
X159125240Y-88764545D01*
X159279287Y-88686054D01*
X159665327Y-87497947D01*
X158477219Y-87111908D01*
X158277183Y-87213831D01*
X158126401Y-87677891D01*
X158048337Y-87918146D01*
X144352789Y-87918146D01*
X144299966Y-87790620D01*
X143699380Y-87190034D01*
X142914678Y-86865000D01*
X142065322Y-86865000D01*
X141280620Y-87190034D01*
X140680034Y-87790620D01*
X140355000Y-88575322D01*
X124147440Y-88575322D01*
X124147440Y-87500000D01*
X124098157Y-87252235D01*
X123957809Y-87042191D01*
X123747765Y-86901843D01*
X123500000Y-86852560D01*
X120500000Y-86852560D01*
X120252235Y-86901843D01*
X120042191Y-87042191D01*
X119901843Y-87252235D01*
X119852560Y-87500000D01*
X115815799Y-87500000D01*
X115722817Y-87213831D01*
X115522781Y-87111908D01*
X114334673Y-87497947D01*
X114046573Y-87497947D01*
X113995594Y-87341049D01*
X114014615Y-87334869D01*
X113628575Y-86146762D01*
X113474529Y-86068271D01*
X113870144Y-86068271D01*
X114256183Y-87256379D01*
X115444290Y-86870339D01*
X115546214Y-86670303D01*
X158453786Y-86670303D01*
X158555710Y-86870339D01*
X159743817Y-87256379D01*
X160129856Y-86068271D01*
X160027933Y-85868235D01*
X159323619Y-85639389D01*
X159071779Y-85659210D01*
X158846694Y-85773896D01*
X158682631Y-85965988D01*
X158604568Y-86206243D01*
X158453786Y-86670303D01*
X115546214Y-86670303D01*
X115395432Y-86206243D01*
X115317369Y-85965988D01*
X115153306Y-85773896D01*
X114928221Y-85659210D01*
X114676381Y-85639389D01*
X113972067Y-85868235D01*
X113870144Y-86068271D01*
X113474529Y-86068271D01*
X113428539Y-86044838D01*
X112724225Y-86273683D01*
X112532133Y-86437746D01*
X112417445Y-86662831D01*
X112406031Y-86807865D01*
X112064290Y-86666311D01*
X111453630Y-86666311D01*
X110889453Y-86900001D01*
X110457650Y-87331804D01*
X110223960Y-87895981D01*
X108792888Y-87895981D01*
X108410339Y-86442958D01*
X108022851Y-84382382D01*
X107783681Y-82299374D01*
X107694052Y-80204597D01*
X107717908Y-79376410D01*
X159865000Y-79376410D01*
X159865000Y-80623590D01*
X160342276Y-81775835D01*
X161224165Y-82657724D01*
X162376410Y-83135000D01*
X163623590Y-83135000D01*
X164775835Y-82657724D01*
X165657724Y-81775835D01*
X166135000Y-80623590D01*
X166135000Y-79376410D01*
X165657724Y-78224165D01*
X164775835Y-77342276D01*
X163623590Y-76865000D01*
X162376410Y-76865000D01*
X161224165Y-77342276D01*
X160342276Y-78224165D01*
X159865000Y-79376410D01*
X107717908Y-79376410D01*
X107754424Y-78108773D01*
X107964488Y-76022630D01*
X108323168Y-73956844D01*
X108828628Y-71921989D01*
X108968312Y-71493359D01*
X110223960Y-71493359D01*
X110223960Y-72104019D01*
X110457650Y-72668196D01*
X110889453Y-73099999D01*
X111453630Y-73333689D01*
X112064290Y-73333689D01*
X112406031Y-73192135D01*
X112417445Y-73337169D01*
X112532133Y-73562254D01*
X112724225Y-73726317D01*
X113428539Y-73955162D01*
X113474528Y-73931729D01*
X113870144Y-73931729D01*
X113972067Y-74131765D01*
X114676381Y-74360611D01*
X114928221Y-74340790D01*
X115153306Y-74226104D01*
X115317369Y-74034012D01*
X115395432Y-73793757D01*
X115546214Y-73329697D01*
X115444290Y-73129661D01*
X114256183Y-72743621D01*
X113870144Y-73931729D01*
X113474528Y-73931729D01*
X113628575Y-73853238D01*
X114014615Y-72665131D01*
X113995594Y-72658951D01*
X114046572Y-72502053D01*
X114334673Y-72502053D01*
X115522781Y-72888092D01*
X115722817Y-72786169D01*
X115873599Y-72322109D01*
X115929520Y-72150000D01*
X132962560Y-72150000D01*
X132962560Y-73850000D01*
X133011843Y-74097765D01*
X133152191Y-74307809D01*
X133362235Y-74448157D01*
X133610000Y-74497440D01*
X135310000Y-74497440D01*
X135557765Y-74448157D01*
X135767809Y-74307809D01*
X135908157Y-74097765D01*
X135917184Y-74052381D01*
X135929375Y-74070625D01*
X136420582Y-74398839D01*
X136853744Y-74485000D01*
X137146256Y-74485000D01*
X137579418Y-74398839D01*
X138070625Y-74070625D01*
X138270000Y-73772239D01*
X138469375Y-74070625D01*
X138960582Y-74398839D01*
X139393744Y-74485000D01*
X139686256Y-74485000D01*
X140119418Y-74398839D01*
X140610625Y-74070625D01*
X140938839Y-73579418D01*
X140988511Y-73329697D01*
X158453786Y-73329697D01*
X158604568Y-73793757D01*
X158682631Y-74034012D01*
X158846694Y-74226104D01*
X159071779Y-74340790D01*
X159323619Y-74360611D01*
X160027933Y-74131765D01*
X160129856Y-73931729D01*
X159743817Y-72743621D01*
X158555710Y-73129661D01*
X158453786Y-73329697D01*
X140988511Y-73329697D01*
X141054092Y-73000000D01*
X140938839Y-72420582D01*
X140712509Y-72081854D01*
X158048337Y-72081854D01*
X158126401Y-72322109D01*
X158277183Y-72786169D01*
X158477219Y-72888092D01*
X159665327Y-72502053D01*
X159279287Y-71313946D01*
X159125241Y-71235455D01*
X159520856Y-71235455D01*
X159906895Y-72423563D01*
X159925917Y-72417382D01*
X160004406Y-72658951D01*
X159985385Y-72665131D01*
X160371425Y-73853238D01*
X160571461Y-73955162D01*
X161275775Y-73726317D01*
X161467867Y-73562254D01*
X161582555Y-73337169D01*
X161593969Y-73192135D01*
X161935710Y-73333689D01*
X162546370Y-73333689D01*
X163110547Y-73099999D01*
X163542350Y-72668196D01*
X163776040Y-72104019D01*
X163776040Y-71493359D01*
X163542350Y-70929182D01*
X163110547Y-70497379D01*
X162546370Y-70263689D01*
X161935710Y-70263689D01*
X161371533Y-70497379D01*
X160939730Y-70929182D01*
X160892089Y-71044197D01*
X160804018Y-70941080D01*
X160578933Y-70826394D01*
X160327093Y-70806573D01*
X159622779Y-71035419D01*
X159520856Y-71235455D01*
X159125241Y-71235455D01*
X159079251Y-71212022D01*
X158374937Y-71440867D01*
X158182845Y-71604930D01*
X158068157Y-71830015D01*
X158048337Y-72081854D01*
X140712509Y-72081854D01*
X140610625Y-71929375D01*
X140119418Y-71601161D01*
X139686256Y-71515000D01*
X139393744Y-71515000D01*
X138960582Y-71601161D01*
X138469375Y-71929375D01*
X138270000Y-72227761D01*
X138070625Y-71929375D01*
X137579418Y-71601161D01*
X137146256Y-71515000D01*
X136853744Y-71515000D01*
X136420582Y-71601161D01*
X135929375Y-71929375D01*
X135917184Y-71947619D01*
X135908157Y-71902235D01*
X135767809Y-71692191D01*
X135557765Y-71551843D01*
X135310000Y-71502560D01*
X133610000Y-71502560D01*
X133362235Y-71551843D01*
X133152191Y-71692191D01*
X133011843Y-71902235D01*
X132962560Y-72150000D01*
X115929520Y-72150000D01*
X115951663Y-72081854D01*
X115931843Y-71830015D01*
X115817155Y-71604930D01*
X115625063Y-71440867D01*
X114920749Y-71212022D01*
X114720713Y-71313946D01*
X114334673Y-72502053D01*
X114046572Y-72502053D01*
X114074083Y-72417382D01*
X114093105Y-72423563D01*
X114479144Y-71235455D01*
X114377221Y-71035419D01*
X113672907Y-70806573D01*
X113421067Y-70826394D01*
X113195982Y-70941080D01*
X113107911Y-71044197D01*
X113060270Y-70929182D01*
X112628467Y-70497379D01*
X112064290Y-70263689D01*
X111453630Y-70263689D01*
X110889453Y-70497379D01*
X110457650Y-70929182D01*
X110223960Y-71493359D01*
X108968312Y-71493359D01*
X109478282Y-69928481D01*
X110268804Y-67986524D01*
X110402921Y-67714561D01*
X131945000Y-67714561D01*
X131945000Y-68285439D01*
X132163466Y-68812862D01*
X132567138Y-69216534D01*
X133094561Y-69435000D01*
X133665439Y-69435000D01*
X134192862Y-69216534D01*
X134596534Y-68812862D01*
X134815000Y-68285439D01*
X134815000Y-68000000D01*
X139536887Y-68000000D01*
X139648260Y-68559909D01*
X139965423Y-69034577D01*
X140440091Y-69351740D01*
X140858667Y-69435000D01*
X141141333Y-69435000D01*
X141559909Y-69351740D01*
X142034577Y-69034577D01*
X142351740Y-68559909D01*
X142463113Y-68000000D01*
X142351740Y-67440091D01*
X142034577Y-66965423D01*
X141559909Y-66648260D01*
X141141333Y-66565000D01*
X140858667Y-66565000D01*
X140440091Y-66648260D01*
X139965423Y-66965423D01*
X139648260Y-67440091D01*
X139536887Y-68000000D01*
X134815000Y-68000000D01*
X134815000Y-67714561D01*
X134596534Y-67187138D01*
X134192862Y-66783466D01*
X133665439Y-66565000D01*
X133094561Y-66565000D01*
X132567138Y-66783466D01*
X132163466Y-67187138D01*
X131945000Y-67714561D01*
X110402921Y-67714561D01*
X110974383Y-66555750D01*
X127615000Y-66555750D01*
X127615000Y-66921309D01*
X127711673Y-67154698D01*
X127890301Y-67333327D01*
X128123690Y-67430000D01*
X128714250Y-67430000D01*
X128873000Y-67271250D01*
X128873000Y-66397000D01*
X129127000Y-66397000D01*
X129127000Y-67271250D01*
X129285750Y-67430000D01*
X129876310Y-67430000D01*
X130109699Y-67333327D01*
X130288327Y-67154698D01*
X130385000Y-66921309D01*
X130385000Y-66555750D01*
X130226250Y-66397000D01*
X129127000Y-66397000D01*
X128873000Y-66397000D01*
X127773750Y-66397000D01*
X127615000Y-66555750D01*
X110974383Y-66555750D01*
X111196148Y-66106057D01*
X112255567Y-64296705D01*
X112644325Y-63730000D01*
X127592275Y-63730000D01*
X127682305Y-64182609D01*
X127804174Y-64365000D01*
X127682305Y-64547391D01*
X127592275Y-65000000D01*
X127682305Y-65452609D01*
X127683224Y-65453984D01*
X127615000Y-65618691D01*
X127615000Y-65984250D01*
X127773750Y-66143000D01*
X128575290Y-66143000D01*
X128660754Y-66160000D01*
X129339246Y-66160000D01*
X129424710Y-66143000D01*
X130226250Y-66143000D01*
X130385000Y-65984250D01*
X130385000Y-65618691D01*
X130316776Y-65453984D01*
X130317695Y-65452609D01*
X130407725Y-65000000D01*
X130350948Y-64714561D01*
X131945000Y-64714561D01*
X131945000Y-65285439D01*
X132163466Y-65812862D01*
X132567138Y-66216534D01*
X133094561Y-66435000D01*
X133665439Y-66435000D01*
X134192862Y-66216534D01*
X134596534Y-65812862D01*
X134815000Y-65285439D01*
X134815000Y-65000000D01*
X139536887Y-65000000D01*
X139648260Y-65559909D01*
X139965423Y-66034577D01*
X140440091Y-66351740D01*
X140858667Y-66435000D01*
X141141333Y-66435000D01*
X141559909Y-66351740D01*
X141899988Y-66124506D01*
X143615000Y-66124506D01*
X143615000Y-66675494D01*
X143825853Y-67184540D01*
X144215460Y-67574147D01*
X144724506Y-67785000D01*
X145275494Y-67785000D01*
X145784540Y-67574147D01*
X146174147Y-67184540D01*
X146385000Y-66675494D01*
X146385000Y-66124506D01*
X146174147Y-65615460D01*
X145784540Y-65225853D01*
X145275494Y-65015000D01*
X144724506Y-65015000D01*
X144215460Y-65225853D01*
X143825853Y-65615460D01*
X143615000Y-66124506D01*
X141899988Y-66124506D01*
X142034577Y-66034577D01*
X142351740Y-65559909D01*
X142463113Y-65000000D01*
X142351740Y-64440091D01*
X142034577Y-63965423D01*
X141559909Y-63648260D01*
X141141333Y-63565000D01*
X140858667Y-63565000D01*
X140440091Y-63648260D01*
X139965423Y-63965423D01*
X139648260Y-64440091D01*
X139536887Y-65000000D01*
X134815000Y-65000000D01*
X134815000Y-64714561D01*
X134596534Y-64187138D01*
X134192862Y-63783466D01*
X133665439Y-63565000D01*
X133094561Y-63565000D01*
X132567138Y-63783466D01*
X132163466Y-64187138D01*
X131945000Y-64714561D01*
X130350948Y-64714561D01*
X130317695Y-64547391D01*
X130195826Y-64365000D01*
X130317695Y-64182609D01*
X130407725Y-63730000D01*
X130317695Y-63277391D01*
X130061313Y-62893687D01*
X129677609Y-62637305D01*
X129339246Y-62570000D01*
X128660754Y-62570000D01*
X128322391Y-62637305D01*
X127938687Y-62893687D01*
X127682305Y-63277391D01*
X127592275Y-63730000D01*
X112644325Y-63730000D01*
X113441639Y-62567730D01*
X114119537Y-61717019D01*
X121819273Y-61717019D01*
X122254562Y-62316144D01*
X122469955Y-62448136D01*
X122719463Y-62487655D01*
X122965102Y-62428683D01*
X123169475Y-62280197D01*
X123555134Y-62000000D01*
X131916887Y-62000000D01*
X132028260Y-62559909D01*
X132345423Y-63034577D01*
X132820091Y-63351740D01*
X133238667Y-63435000D01*
X133521333Y-63435000D01*
X133939909Y-63351740D01*
X134414577Y-63034577D01*
X134731740Y-62559909D01*
X134843113Y-62000000D01*
X134786336Y-61714561D01*
X139565000Y-61714561D01*
X139565000Y-62285439D01*
X139783466Y-62812862D01*
X140187138Y-63216534D01*
X140714561Y-63435000D01*
X141285439Y-63435000D01*
X141812862Y-63216534D01*
X142216534Y-62812862D01*
X142253132Y-62724506D01*
X143615000Y-62724506D01*
X143615000Y-63275494D01*
X143825853Y-63784540D01*
X144215460Y-64174147D01*
X144724506Y-64385000D01*
X145275494Y-64385000D01*
X145784540Y-64174147D01*
X146174147Y-63784540D01*
X146385000Y-63275494D01*
X146385000Y-62724506D01*
X146174147Y-62215460D01*
X145784540Y-61825853D01*
X145653682Y-61771650D01*
X150400652Y-61771650D01*
X150435772Y-61993393D01*
X150830525Y-62280197D01*
X151034898Y-62428683D01*
X151280537Y-62487655D01*
X151530045Y-62448136D01*
X151745438Y-62316144D01*
X152180727Y-61717019D01*
X152145607Y-61495277D01*
X151134942Y-60760986D01*
X150400652Y-61771650D01*
X145653682Y-61771650D01*
X145275494Y-61615000D01*
X144724506Y-61615000D01*
X144215460Y-61825853D01*
X143825853Y-62215460D01*
X143615000Y-62724506D01*
X142253132Y-62724506D01*
X142435000Y-62285439D01*
X142435000Y-61714561D01*
X142216534Y-61187138D01*
X141812862Y-60783466D01*
X141749649Y-60757282D01*
X149202783Y-60757282D01*
X149242301Y-61006790D01*
X149374293Y-61222183D01*
X149578666Y-61370669D01*
X149973419Y-61657473D01*
X150195161Y-61622353D01*
X150929452Y-60611688D01*
X149918788Y-59877398D01*
X149697045Y-59912518D01*
X149261756Y-60511643D01*
X149202783Y-60757282D01*
X141749649Y-60757282D01*
X141285439Y-60565000D01*
X140714561Y-60565000D01*
X140187138Y-60783466D01*
X139783466Y-61187138D01*
X139565000Y-61714561D01*
X134786336Y-61714561D01*
X134731740Y-61440091D01*
X134414577Y-60965423D01*
X133939909Y-60648260D01*
X133521333Y-60565000D01*
X133238667Y-60565000D01*
X132820091Y-60648260D01*
X132345423Y-60965423D01*
X132028260Y-61440091D01*
X131916887Y-62000000D01*
X123555134Y-62000000D01*
X123564228Y-61993393D01*
X123599348Y-61771650D01*
X122865058Y-60760986D01*
X121854393Y-61495277D01*
X121819273Y-61717019D01*
X114119537Y-61717019D01*
X114748292Y-60927980D01*
X116168840Y-59385849D01*
X117404604Y-58223359D01*
X119865179Y-58223359D01*
X119865179Y-58834019D01*
X120098869Y-59398196D01*
X120530672Y-59829999D01*
X121089282Y-60061383D01*
X121028609Y-60160394D01*
X120989091Y-60409902D01*
X121048064Y-60655541D01*
X121483353Y-61254666D01*
X121705096Y-61289786D01*
X122638418Y-60611688D01*
X123070548Y-60611688D01*
X123804839Y-61622353D01*
X124026581Y-61657473D01*
X124421334Y-61370669D01*
X124625707Y-61222183D01*
X124757699Y-61006790D01*
X124797217Y-60757282D01*
X124738244Y-60511643D01*
X124302955Y-59912518D01*
X124081212Y-59877398D01*
X123070548Y-60611688D01*
X122638418Y-60611688D01*
X122715760Y-60555496D01*
X122704004Y-60539315D01*
X122909495Y-60390018D01*
X122921250Y-60406198D01*
X123931915Y-59671907D01*
X123967035Y-59450165D01*
X150032965Y-59450165D01*
X150068085Y-59671907D01*
X151078750Y-60406198D01*
X151090505Y-60390018D01*
X151295996Y-60539315D01*
X151284240Y-60555496D01*
X152294904Y-61289786D01*
X152516647Y-61254666D01*
X152951936Y-60655541D01*
X153010909Y-60409902D01*
X152971391Y-60160394D01*
X152910718Y-60061383D01*
X153469328Y-59829999D01*
X153901131Y-59398196D01*
X154134821Y-58834019D01*
X154134821Y-58223359D01*
X153901131Y-57659182D01*
X153469328Y-57227379D01*
X152905151Y-56993689D01*
X152294491Y-56993689D01*
X151730314Y-57227379D01*
X151298511Y-57659182D01*
X151064821Y-58223359D01*
X151064821Y-58711139D01*
X150933155Y-58679529D01*
X150683647Y-58719048D01*
X150468254Y-58851040D01*
X150032965Y-59450165D01*
X123967035Y-59450165D01*
X123531746Y-58851040D01*
X123316353Y-58719048D01*
X123066845Y-58679529D01*
X122935179Y-58711139D01*
X122935179Y-58223359D01*
X122701489Y-57659182D01*
X122269686Y-57227379D01*
X121705509Y-56993689D01*
X121094849Y-56993689D01*
X120530672Y-57227379D01*
X120098869Y-57659182D01*
X119865179Y-58223359D01*
X117404604Y-58223359D01*
X117696011Y-57949231D01*
X119321987Y-56625477D01*
X119806267Y-56285750D01*
X135465000Y-56285750D01*
X135465000Y-57026309D01*
X135561673Y-57259698D01*
X135740301Y-57438327D01*
X135973690Y-57535000D01*
X136714250Y-57535000D01*
X136873000Y-57376250D01*
X136873000Y-56127000D01*
X137127000Y-56127000D01*
X137127000Y-57376250D01*
X137285750Y-57535000D01*
X138026310Y-57535000D01*
X138259699Y-57438327D01*
X138438327Y-57259698D01*
X138535000Y-57026309D01*
X138535000Y-56285750D01*
X138376250Y-56127000D01*
X137127000Y-56127000D01*
X136873000Y-56127000D01*
X135623750Y-56127000D01*
X135465000Y-56285750D01*
X119806267Y-56285750D01*
X121038448Y-55421365D01*
X122836607Y-54343057D01*
X124707260Y-53396072D01*
X125282938Y-53154670D01*
X135465000Y-53154670D01*
X135465000Y-53765330D01*
X135698690Y-54329507D01*
X135875044Y-54505861D01*
X135740301Y-54561673D01*
X135561673Y-54740302D01*
X135465000Y-54973691D01*
X135465000Y-55714250D01*
X135623750Y-55873000D01*
X136873000Y-55873000D01*
X136873000Y-55853000D01*
X137127000Y-55853000D01*
X137127000Y-55873000D01*
X138376250Y-55873000D01*
X138535000Y-55714250D01*
X138535000Y-54973691D01*
X138438327Y-54740302D01*
X138259699Y-54561673D01*
X138124956Y-54505861D01*
X138301310Y-54329507D01*
X138535000Y-53765330D01*
X138535000Y-53154670D01*
X138301310Y-52590493D01*
X137869507Y-52158690D01*
X137305330Y-51925000D01*
X136694670Y-51925000D01*
X136130493Y-52158690D01*
X135698690Y-52590493D01*
X135465000Y-53154670D01*
X125282938Y-53154670D01*
X126640832Y-52585258D01*
X128627428Y-51914764D01*
X130656877Y-51388023D01*
X132718794Y-51007730D01*
X134802624Y-50775832D01*
X136897701Y-50693517D01*
X138993301Y-50761204D01*
G04 #@! TD*
M02*
