M48
;DRILL file {KiCad (5.0.0)} date 03/15/19 09:11:18
;FORMAT={-:-/ absolute / metric / decimal}
FMAT,2
METRIC,TZ
T1C0.800
T2C0.900
T3C1.000
T4C1.500
%
G90
G05
M71
T1
X145.Y-63.
X133.38Y-68.
X141.Y-68.
X130.Y-62.46
X130.Y-65.
X130.Y-67.54
X133.38Y-62.
X141.Y-62.
X145.Y-66.4
X133.38Y-65.
X141.Y-65.
T2
X159.825Y-72.584
X162.241Y-71.799
X159.825Y-87.416
X162.241Y-88.201
X137.Y-104.
X137.Y-106.54
X121.4Y-58.529
X122.893Y-60.584
X137.Y-53.46
X137.Y-56.
X151.107Y-60.584
X152.6Y-58.529
X121.4Y-101.471
X122.893Y-99.416
X111.759Y-71.799
X114.175Y-72.584
X151.107Y-99.416
X152.6Y-101.471
X111.759Y-88.201
X114.175Y-87.416
T3
X134.46Y-71.
X137.Y-71.
X139.54Y-71.
T4
X122.Y-89.
X142.49Y-89.
T0
M30
