M48
;DRILL file {KiCad (5.0.0)} date 03/21/19 10:25:18
;FORMAT={-:-/ absolute / metric / decimal}
FMAT,2
METRIC,TZ
T1C0.750
T2C0.800
T3C0.900
T4C1.000
T5C1.500
%
G90
G05
M71
T1
X129.Y-63.73
X129.Y-65.
X129.Y-66.27
T2
X145.Y-63.
X145.Y-66.4
X133.38Y-62.
X141.Y-62.
X133.38Y-68.
X141.Y-68.
X133.38Y-65.
X141.Y-65.
T3
X151.107Y-60.584
X152.6Y-58.529
X159.825Y-87.416
X162.241Y-88.201
X137.Y-53.46
X137.Y-56.
X111.759Y-71.799
X114.175Y-72.584
X151.107Y-99.416
X152.6Y-101.471
X121.4Y-58.529
X122.893Y-60.584
X121.4Y-101.471
X122.893Y-99.416
X137.Y-104.
X137.Y-106.54
X111.759Y-88.201
X114.175Y-87.416
X159.825Y-72.584
X162.241Y-71.799
T4
X134.46Y-73.
X137.Y-73.
X139.54Y-73.
T5
X122.Y-89.
X142.49Y-89.
T0
M30
